<svg id="图层_1" data-name="图层 1" xmlns="http://www.w3.org/2000/svg" xmlns:xlink="http://www.w3.org/1999/xlink" viewBox="0 0 102.64 136.37"><defs><style>.cls-1,.cls-19,.cls-2,.cls-3,.cls-4,.cls-7{fill:none;}.cls-2{stroke:#f39800;}.cls-3{stroke:#e60012;}.cls-4{stroke:#2ea7e0;}.cls-25,.cls-5{fill:#036eb8;}.cls-5{stroke:#036eb8;}.cls-6{fill:#ee96bd;stroke:#ee96bd;}.cls-19,.cls-7{stroke:#231815;}.cls-8{fill:#898989;stroke:#898989;}.cls-20,.cls-9{fill:#fff;}.cls-9{stroke:#fff;}.cls-10{fill:#00a1e9;stroke:#00a0e9;}.cls-11{font-size:10.37px;}.cls-11,.cls-18{fill:#231815;font-family:HelveticaNeue-Light, HelveticaNeue Light;font-weight:300;}.cls-12{letter-spacing:-0.09em;}.cls-13{letter-spacing:-0.09em;}.cls-14{clip-path:url(#clip-path);}.cls-15{fill:#050000;}.cls-16{fill:#2ab06e;}.cls-17{fill:#e7271c;}.cls-18{font-size:6px;}.cls-19{stroke-miterlimit:10;}.cls-21,.cls-22,.cls-24,.cls-25,.cls-26{font-size:10px;}.cls-21{fill:#2ea7e0;}.cls-21,.cls-22,.cls-24,.cls-25{font-family:AdobeFangsongStd-Regular, AdobeFangsongStd Regular-GBpc-EUC-H;}.cls-22{fill:#e1a4c7;}.cls-23,.cls-24{fill:#e60012;}.cls-26{isolation:isolate;fill:#e58431;font-family:ArialMT, Arial;}</style><clipPath id="clip-path" transform="translate(-57.52 -219.36)"><rect class="cls-1" x="110.8" y="317.39" width="27.57" height="25.5"/></clipPath></defs><line class="cls-2" x1="26.12" y1="66.29" x2="37.35" y2="66.29"/><line class="cls-3" x1="25.25" y1="25.2" x2="36.48" y2="25.2"/><line class="cls-3" x1="25.25" y1="31.25" x2="36.48" y2="31.25"/><line class="cls-3" x1="25.25" y1="38.16" x2="36.48" y2="38.16"/><line class="cls-4" x1="54.37" y1="48.74" x2="65.24" y2="48.74"/><line class="cls-4" x1="54.37" y1="54.79" x2="65.24" y2="54.79"/><line class="cls-4" x1="54.37" y1="60.41" x2="65.24" y2="60.41"/><line class="cls-5" x1="65" y1="38.95" x2="76.23" y2="38.95"/><line class="cls-5" x1="65" y1="32.47" x2="76.23" y2="32.47"/><line class="cls-5" x1="65" y1="13.6" x2="76.23" y2="13.6"/><line class="cls-5" x1="65" y1="19.64" x2="76.23" y2="19.64"/><line class="cls-5" x1="65" y1="26.56" x2="76.23" y2="26.56"/><line class="cls-6" x1="26.66" y1="113.04" x2="37.9" y2="113.04"/><line class="cls-6" x1="26.66" y1="106.85" x2="37.9" y2="106.85"/><line class="cls-6" x1="26.33" y1="87.52" x2="37.56" y2="87.52"/><line class="cls-6" x1="26.33" y1="93.57" x2="37.56" y2="93.57"/><line class="cls-6" x1="26.33" y1="100.48" x2="37.56" y2="100.48"/><line class="cls-7" x1="25.25" y1="11.85" x2="25.25" y2="47.72"/><line class="cls-7" x1="36.27" y1="16.43" x2="36.27" y2="48"/><line class="cls-8" x1="14.16" y1="47.19" x2="24.74" y2="47.19"/><line class="cls-7" x1="26.11" y1="63" x2="26.11" y2="85.99"/><line class="cls-7" x1="26.12" y1="85.74" x2="26.12" y2="119.26"/><line class="cls-7" x1="37.56" y1="86.32" x2="37.56" y2="119.26"/><path class="cls-7" d="M98.63,345.94a9.29,9.29,0,1,1-9.29-9.29A9.29,9.29,0,0,1,98.63,345.94Z" transform="translate(-57.52 -219.36)"/><line class="cls-7" x1="53.94" y1="47.4" x2="53.94" y2="61.64"/><line class="cls-7" x1="64.99" y1="11.94" x2="64.99" y2="68.64"/><line class="cls-7" x1="76.01" y1="11.31" x2="76.01" y2="79.37"/><line class="cls-7" x1="26.9" y1="10.19" x2="62.91" y2="10.19"/><line class="cls-7" x1="36.32" y1="16.67" x2="54" y2="47.65"/><line class="cls-7" x1="42.89" y1="83.91" x2="69.26" y2="83.91"/><line class="cls-7" x1="41.8" y1="73.2" x2="61.52" y2="73.2"/><line class="cls-7" x1="36.35" y1="47.72" x2="26.04" y2="63.46"/><rect class="cls-9" x="27.14" y="114.3" width="9.38" height="14.26"/><line class="cls-10" x1="9.24" y1="31.68" x2="18.36" y2="40.8"/><path class="cls-10" d="M78.16,261a40.83,40.83,0,0,1-1.68-3.74L73,260.78a37.53,37.53,0,0,1,3.73,1.67,26.1,26.1,0,0,1,3.66,2.24A27.88,27.88,0,0,1,78.16,261Z" transform="translate(-57.52 -219.36)"/><text class="cls-11" transform="translate(78.5 8.68)">3<tspan class="cls-12" x="5.32" y="0">’</tspan></text><text class="cls-11" transform="translate(0 49.12)">5<tspan class="cls-13" x="5.32" y="0">’</tspan></text><g class="cls-14"><g class="cls-14"><polygon class="cls-15" points="55.87 117.5 54.73 115.06 66.89 110.68 67.17 110.85 66.89 111.3 55.87 117.5"/><polygon class="cls-15" points="55.8 107.68 56.8 105.2 57.28 105.44 56.31 107.85 55.8 107.68"/><polygon class="cls-15" points="57.63 108.2 58.49 106.1 58.93 106.34 58.11 108.34 57.63 108.2"/><polygon class="cls-15" points="59.45 108.72 60.14 106.99 60.59 107.23 59.93 108.85 59.45 108.72"/><polygon class="cls-15" points="61.28 109.23 61.8 107.89 62.28 108.13 61.76 109.37 61.28 109.23"/><polygon class="cls-15" points="63.07 109.75 63.48 108.78 63.93 109.03 63.59 109.89 63.07 109.75"/><polygon class="cls-15" points="64.9 110.27 65.14 109.68 65.58 109.92 65.41 110.4 64.9 110.27"/><polygon class="cls-15" points="77.51 105.2 78.54 107.68 78.03 107.85 77.06 105.44 77.51 105.2"/><polygon class="cls-15" points="75.85 106.1 76.72 108.2 76.2 108.34 75.41 106.34 75.85 106.1"/><polygon class="cls-15" points="74.2 106.99 74.89 108.72 74.37 108.85 73.72 107.23 74.2 106.99"/><polygon class="cls-15" points="72.51 107.89 73.06 109.23 72.58 109.37 72.06 108.13 72.51 107.89"/><polygon class="cls-15" points="70.86 108.78 71.24 109.75 70.75 109.89 70.41 109.03 70.86 108.78"/><polygon class="cls-15" points="69.2 109.68 69.44 110.27 68.93 110.4 68.72 109.92 69.2 109.68"/><polygon class="cls-15" points="79.13 115.09 77.96 117.5 67.41 111.3 67.17 110.85 67.41 110.68 79.13 115.09"/><polygon class="cls-15" points="66.89 99.62 67.41 99.62 67.41 110.68 67.17 110.85 66.89 110.68 66.89 99.62"/><polygon class="cls-15" points="67.41 122.08 66.89 122.08 66.89 111.3 67.17 110.85 67.41 111.3 67.41 122.08"/></g></g><circle class="cls-16" cx="66.89" cy="111.3" r="4"/><circle class="cls-17" cx="54.39" cy="116.8" r="1.5"/><circle class="cls-17" cx="54.89" cy="104.8" r="1.5"/><circle class="cls-17" cx="79.89" cy="104.8" r="1.5"/><circle class="cls-17" cx="67.39" cy="97.8" r="1.5"/><circle class="cls-17" cx="67.39" cy="123.8" r="1.5"/><circle class="cls-17" cx="79.89" cy="116.3" r="1.5"/><text class="cls-18" transform="translate(70.6 102.54)">2+</text><path class="cls-19" d="M29.67,226" transform="translate(-57.52 -219.36)"/><path class="cls-19" d="M27,234.83" transform="translate(-57.52 -219.36)"/><path class="cls-19" d="M39.17,226" transform="translate(-57.52 -219.36)"/><path class="cls-19" d="M29.67,226" transform="translate(-57.52 -219.36)"/><line class="cls-19" x1="25.25" y1="12.02" x2="25.25" y2="15.42"/><line class="cls-19" x1="27" y1="10.19" x2="32" y2="10.19"/><path class="cls-19" d="M82.77,231.63a2.08,2.08,0,0,1,2.08-2.08" transform="translate(-57.52 -219.36)"/><line class="cls-19" x1="63.16" y1="10.19" x2="59.77" y2="10.19"/><line class="cls-19" x1="64.99" y1="11.94" x2="64.99" y2="16.94"/><path class="cls-19" d="M120.43,229.55a2.08,2.08,0,0,1,2.08,2.08" transform="translate(-57.52 -219.36)"/><rect class="cls-20" x="80.27" y="280.08" width="4.33" height="2.41" transform="translate(-263.53 9.83) rotate(-63.43)"/><rect class="cls-20" x="98.55" y="61.08" width="4.09" height="2.13"/><line class="cls-19" x1="37.56" y1="85.74" x2="37.56" y2="89.14"/><line class="cls-19" x1="39.31" y1="83.91" x2="44.31" y2="83.91"/><path class="cls-19" d="M95.08,305.35a2.08,2.08,0,0,1,2.08-2.08" transform="translate(-57.52 -219.36)"/><text class="cls-21" transform="translate(40.56 58.85)">P3</text><text class="cls-22" transform="translate(6.33 102.64)">P4</text><line class="cls-19" x1="76.01" y1="82.08" x2="76.01" y2="78.68"/><line class="cls-19" x1="74.26" y1="83.91" x2="69.26" y2="83.91"/><path class="cls-19" d="M133.53,301.18a2.1,2.1,0,0,1-2.09,2.09" transform="translate(-57.52 -219.36)"/><line class="cls-19" x1="64.99" y1="71.37" x2="64.99" y2="67.97"/><line class="cls-19" x1="63.24" y1="73.2" x2="58.24" y2="73.2"/><path class="cls-19" d="M122.51,290.47a2.09,2.09,0,0,1-2.08,2.09" transform="translate(-57.52 -219.36)"/><line class="cls-19" x1="53.94" y1="61.87" x2="53.94" y2="58.48"/><line class="cls-19" x1="52.19" y1="63.7" x2="47.19" y2="63.7"/><path class="cls-19" d="M111.45,281a2.08,2.08,0,0,1-2.08,2.08" transform="translate(-57.52 -219.36)"/><line class="cls-19" x1="36.87" y1="65.54" x2="36.87" y2="68.93"/><line class="cls-19" x1="38.61" y1="63.7" x2="43.61" y2="63.7"/><path class="cls-19" d="M94.38,285.15a2.09,2.09,0,0,1,2.09-2.09" transform="translate(-57.52 -219.36)"/><line class="cls-7" x1="39" y1="63.7" x2="49.69" y2="63.7"/><line class="cls-19" x1="38.7" y1="73.2" x2="42.09" y2="73.2"/><line class="cls-19" x1="36.87" y1="71.45" x2="36.87" y2="66.45"/><path class="cls-19" d="M96.47,292.56a2.1,2.1,0,0,1-2.09-2.09" transform="translate(-57.52 -219.36)"/><circle class="cls-23" cx="30.76" cy="19.39" r="1.16"/><circle class="cls-23" cx="30.76" cy="44.9" r="1.16"/><text class="cls-24" transform="translate(9.97 24.88)">P1</text><text class="cls-25" transform="translate(78.78 28.44)">P2</text><rect class="cls-1" x="1.5" y="61.52" width="21.07" height="12.91"/><text class="cls-26" transform="translate(1.5 70.32)">P1.1</text></svg>