<svg id="图层_1" data-name="图层 1" xmlns="http://www.w3.org/2000/svg" viewBox="0 0 2912.7 2152.7"><defs><style>.cls-1,.cls-11,.cls-19,.cls-2,.cls-20,.cls-24,.cls-25,.cls-28,.cls-29,.cls-31,.cls-32,.cls-33,.cls-34,.cls-35,.cls-36,.cls-37,.cls-5,.cls-54,.cls-55,.cls-56,.cls-57,.cls-59,.cls-8,.cls-9{fill:none;}.cls-1,.cls-13,.cls-14,.cls-2,.cls-48{stroke:#3fa9f5;}.cls-1,.cls-14,.cls-15,.cls-20,.cls-22,.cls-23,.cls-25,.cls-27,.cls-28,.cls-29,.cls-31,.cls-32,.cls-36,.cls-37,.cls-8{stroke-width:2px;}.cls-11,.cls-13,.cls-17,.cls-2,.cls-24,.cls-35,.cls-4,.cls-5,.cls-7,.cls-9{stroke-width:4px;}.cls-10,.cls-12,.cls-15,.cls-18,.cls-26,.cls-3,.cls-30,.cls-39,.cls-6,.cls-7{fill:#fff;}.cls-10,.cls-12,.cls-15,.cls-18,.cls-26,.cls-3,.cls-39,.cls-6,.cls-7{stroke:#fff;}.cls-3{stroke-width:6px;}.cls-13,.cls-14,.cls-17,.cls-22,.cls-27,.cls-4,.cls-44{fill:#f7931e;}.cls-22,.cls-4,.cls-44,.cls-5,.cls-8{stroke:#f7931e;}.cls-6{stroke-width:0.5px;}.cls-17,.cls-25,.cls-27,.cls-46,.cls-51,.cls-9{stroke:#7ac943;}.cls-10{stroke-width:0.75px;}.cls-11,.cls-49,.cls-50{stroke:#ff7bac;}.cls-12{stroke-width:2.01px;}.cls-16,.cls-48{fill:#3fa9f5;}.cls-19,.cls-20,.cls-28,.cls-29,.cls-32,.cls-33,.cls-34,.cls-35,.cls-36{stroke:#662d91;}.cls-19{stroke-width:5px;}.cls-20,.cls-33,.cls-35{stroke-dasharray:5;}.cls-21{fill:#662d91;}.cls-23,.cls-38,.cls-43,.cls-58{fill:#ff1d25;}.cls-23,.cls-43,.cls-58{stroke:#ff1d25;}.cls-24,.cls-31,.cls-45{stroke:#d9e021;}.cls-26{stroke-width:2.25px;}.cls-28{stroke-dasharray:4.54;}.cls-29{stroke-dasharray:4.79;}.cls-32{stroke-dasharray:5.11;}.cls-34{stroke-width:2.72px;stroke-dasharray:6.79;}.cls-36{stroke-dasharray:4.24;}.cls-37,.cls-40,.cls-54,.cls-56,.cls-57,.cls-59,.cls-61{stroke:#000;}.cls-39{stroke-width:2.69px;}.cls-40,.cls-60{font-size:40px;}.cls-40,.cls-41,.cls-43,.cls-44,.cls-45,.cls-46,.cls-47,.cls-48,.cls-49,.cls-50,.cls-51,.cls-52,.cls-58,.cls-60,.cls-61{stroke-miterlimit:10;}.cls-40,.cls-43,.cls-44,.cls-50,.cls-52,.cls-58,.cls-60,.cls-61{font-family:AdobeHeitiStd-Regular-GBpc-EUC-H, Adobe Heiti Std;}.cls-41,.cls-43,.cls-44,.cls-45,.cls-46,.cls-47,.cls-48,.cls-49,.cls-50,.cls-52,.cls-53{font-size:34px;}.cls-41,.cls-52,.cls-53{fill:#93278f;}.cls-41,.cls-52{stroke:#93278f;}.cls-41,.cls-45,.cls-46,.cls-47,.cls-48,.cls-49,.cls-51,.cls-53{font-family:HelveticaNeue-Light, HelveticaNeue Light;font-weight:300;}.cls-42{letter-spacing:-0.07em;}.cls-45{fill:#d9e021;}.cls-46,.cls-51{fill:#7ac943;}.cls-47{fill:#ff931e;stroke:#ff931e;}.cls-49,.cls-50{fill:#ff7bac;}.cls-51{font-size:30.32px;stroke-width:0.94px;}.cls-54{stroke-width:4.81px;}.cls-56{stroke-width:4.4px;}.cls-57{stroke-width:4.7px;}.cls-58{font-size:36px;}.cls-59{stroke-width:1.94px;}.cls-60{fill:#666;stroke:#666;}.cls-61{font-size:29px;}</style></defs><path class="cls-1" d="M3073.1,2613.3" transform="translate(-1252.3 -815.4)"/><path class="cls-1" d="M3375.8,2650.2" transform="translate(-1252.3 -815.4)"/><line class="cls-2" x1="478.9" y1="1404.3" x2="373.3" y2="1404.3"/><line class="cls-2" x1="478.2" y1="1384.1" x2="373.3" y2="1384.1"/><path class="cls-2" d="M1595.5,2209.6a17.2,17.2,0,1,0,17.1-17A17.1,17.1,0,0,0,1595.5,2209.6Z" transform="translate(-1252.3 -815.4)"/><rect class="cls-3" x="372.8" y="1390.6" width="7.7" height="7.75"/><line class="cls-2" x1="479.4" y1="1223" x2="479.4" y2="1384.1"/><line class="cls-2" x1="479.6" y1="1224.6" x2="450.9" y2="1176"/><path class="cls-2" d="M1729.6,2249.9a6.4,6.4,0,0,0-6.4,6.4,6.3,6.3,0,0,0,6.4,6.3" transform="translate(-1252.3 -815.4)"/><line class="cls-2" x1="477.3" y1="1403.2" x2="477.3" y2="1434.5"/><line class="cls-2" x1="478.2" y1="1468.9" x2="478.4" y2="1509.2"/><line class="cls-2" x1="458" y1="1469.3" x2="458.2" y2="1509.4"/><path class="cls-2" d="M1720.8,2354.8a17.2,17.2,0,1,0-17.1-17A17.2,17.2,0,0,0,1720.8,2354.8Z" transform="translate(-1252.3 -815.4)"/><rect class="cls-3" x="1716.1" y="2314.5" width="9" height="7.59" transform="translate(-1267.1 -804.3) rotate(-0.4)"/><line class="cls-2" x1="478.4" y1="1446.9" x2="478.4" y2="1478.2"/><line class="cls-4" x1="501.1" y1="1325.8" x2="501.1" y2="1370"/><line class="cls-5" x1="558.9" y1="1325.5" x2="500.9" y2="1325.5"/><line class="cls-4" x1="558" y1="1305.2" x2="499.9" y2="1305.2"/><path class="cls-5" d="M1806.5,2129a17.2,17.2,0,1,0,17.1-17.1A17,17,0,0,0,1806.5,2129Z" transform="translate(-1252.3 -815.4)"/><rect class="cls-6" x="549.7" y="1307.6" width="15.3" height="15.56"/><line class="cls-5" x1="500.4" y1="1242" x2="500.4" y2="1303.1"/><path class="cls-5" d="M1627.5,2117.4c0,8.8,7.7,15.9,17.2,15.9s17.1-7.1,17.1-15.9-7.7-15.9-17.1-15.9S1627.5,2108.6,1627.5,2117.4Z" transform="translate(-1252.3 -815.4)"/><rect class="cls-7" x="384.7" y="1310.5" width="16.5" height="8.58"/><line class="cls-5" x1="402.7" y1="1314" x2="402.7" y2="1372"/><line class="cls-5" x1="382.3" y1="1314.7" x2="382.3" y2="1372"/><line class="cls-5" x1="501.4" y1="1370.5" x2="402.9" y2="1370.5"/><line class="cls-8" x1="382.4" y1="1371.5" x2="344.9" y2="1371.5"/><path class="cls-9" d="M1892.8,1994.4c-5.2,7.1-3.2,17.3,4.4,22.9s18.1,4.5,23.2-2.6,3.2-17.3-4.4-22.9S1898,1987.3,1892.8,1994.4Z" transform="translate(-1252.3 -815.4)"/><rect class="cls-10" x="1894.3" y="2007.9" width="8.6" height="16.45" transform="translate(-2102.5 1538.2) rotate(-53.7)"/><line class="cls-9" x1="655.5" y1="1205" x2="621.2" y2="1251.7"/><line class="cls-9" x1="638.9" y1="1195.5" x2="605" y2="1241.7"/><line class="cls-9" x1="498.5" y1="1214.9" x2="604.8" y2="1243.4"/><line class="cls-9" x1="499.7" y1="1214.8" x2="471" y2="1166.3"/><line class="cls-11" x1="567.9" y1="1449.7" x2="520.1" y2="1449.7"/><line class="cls-11" x1="567.5" y1="1429.4" x2="520.1" y2="1429.4"/><path class="cls-11" d="M1742.3,2254.9a17.2,17.2,0,1,0,17.1-17A17,17,0,0,0,1742.3,2254.9Z" transform="translate(-1252.3 -815.4)"/><rect class="cls-12" x="521.7" y="1434.9" width="7.6" height="7.64"/><path class="cls-1" d="M3125.3,2647.3" transform="translate(-1252.3 -815.4)"/><path class="cls-1" d="M3126.4,2647.3" transform="translate(-1252.3 -815.4)"/><path class="cls-2" d="M3199.4,2506.2" transform="translate(-1252.3 -815.4)"/><line class="cls-13" x1="2020.1" y1="1719.6" x2="2020.1" y2="1789.8"/><path class="cls-1" d="M3183,2588.6" transform="translate(-1252.3 -815.4)"/><path class="cls-14" d="M3182,2568.4" transform="translate(-1252.3 -815.4)"/><line class="cls-2" x1="2019.1" y1="1596.6" x2="2019.1" y2="1641.9"/><line class="cls-2" x1="1987.1" y1="1816.6" x2="1841.1" y2="1818.6"/><line class="cls-2" x1="1987.1" y1="1690.2" x2="1906.1" y2="1689.2"/><path class="cls-2" d="M3143.6,2476.4a17.1,17.1,0,1,0,17.2,17.1,17.1,17.1,0,0,0-17.2-17.1" transform="translate(-1252.3 -815.4)"/><polygon class="cls-15" points="1898.2 1685.6 1913.5 1685.6 1913.5 1672.4 1898.2 1670.4 1898.2 1685.6"/><line class="cls-13" x1="2021.6" y1="1788.9" x2="1987.5" y2="1817.2"/><path class="cls-2" d="M3203,2483.3a6.4,6.4,0,0,0-6.2-6.6,6.5,6.5,0,0,0-6.5,6.3" transform="translate(-1252.3 -815.4)"/><line class="cls-2" x1="1990.1" y1="1668.6" x2="1949.7" y2="1667.9"/><line class="cls-2" x1="1937.3" y1="1668.7" x2="1906" y2="1668"/><line class="cls-13" x1="1988.6" y1="1690.8" x2="2020.6" y2="1721.4"/><path class="cls-16" d="M3268.8,2454.8c-12.8,3.3-26.5,12.2-27.7,26.6a2.2,2.2,0,0,0,2.3,2.2,2.2,2.2,0,0,0,2.2-2.2c1-12.2,13.8-19.5,24.4-22.3,2.8-.7,1.7-5-1.2-4.3Z" transform="translate(-1252.3 -815.4)"/><line class="cls-9" x1="2099.1" y1="1895.5" x2="2041.1" y2="1895.5"/><line class="cls-17" x1="2098.2" y1="1875.3" x2="2040.1" y2="1875.3"/><path class="cls-9" d="M3346.6,2699a17.2,17.2,0,1,0,17.2-17A17.2,17.2,0,0,0,3346.6,2699Z" transform="translate(-1252.3 -815.4)"/><rect class="cls-6" x="2089.9" y="1877.6" width="15.3" height="15.56"/><line class="cls-9" x1="2039.6" y1="1721.6" x2="2040.5" y2="1873.2"/><path class="cls-9" d="M3292.4,2536.1c3.5-.2,6.2-3.9,6-8.2s-3.3-7.8-6.8-7.6" transform="translate(-1252.3 -815.4)"/><line class="cls-17" x1="2009.1" y1="1677.6" x2="2039.1" y2="1704.6"/><line class="cls-17" x1="2040.1" y1="1636.6" x2="2010.1" y2="1676.6"/><line class="cls-9" x1="2040.6" y1="1598.6" x2="2040.6" y2="1636.6"/><path class="cls-1" d="M2794.6,2790.2" transform="translate(-1252.3 -815.4)"/><line class="cls-9" x1="1463.5" y1="1861.5" x2="1464.1" y2="1931.6"/><path class="cls-9" d="M2716.2,2676.1c3.6-.2,6.2-3.9,6-8.3s-3.3-7.7-6.8-7.5" transform="translate(-1252.3 -815.4)"/><line class="cls-17" x1="1433" y1="1817.5" x2="1463" y2="1844.5"/><line class="cls-17" x1="1464" y1="1776.5" x2="1434" y2="1816.5"/><line class="cls-9" x1="1464.1" y1="1736.6" x2="1464.5" y2="1776.5"/><line class="cls-17" x1="1462.6" y1="1933.8" x2="1560.1" y2="1967.6"/><path class="cls-9" d="M2847.6,2721c-5.2,7-3.2,17.3,4.4,22.9s18,4.4,23.2-2.6,3.2-17.4-4.4-23S2852.8,2713.9,2847.6,2721Z" transform="translate(-1252.3 -815.4)"/><rect class="cls-18" x="2849.1" y="2734.5" width="8.6" height="16.45" transform="translate(-2298.4 2604.5) rotate(-53.7)"/><line class="cls-9" x1="1610.3" y1="1931.5" x2="1576" y2="1978.3"/><line class="cls-9" x1="1593.7" y1="1922" x2="1559.8" y2="1968.2"/><line class="cls-19" x1="280.3" y1="1289.6" x2="309.5" y2="1264.8"/><path class="cls-19" d="M1562.2,2078.8c4.1,4.5,9.8,6.1,12.6,3.5s1.9-8.4-2.2-12.9" transform="translate(-1252.3 -815.4)"/><line class="cls-19" x1="318.3" y1="1254.6" x2="336.3" y2="1236.6"/><path class="cls-20" d="M1702.1,1948.5" transform="translate(-1252.3 -815.4)"/><path class="cls-20" d="M1590.1,2052.5" transform="translate(-1252.3 -815.4)"/><path class="cls-20" d="M1588.1,2052.5c45-56.7,187.6-133.8,238-100" transform="translate(-1252.3 -815.4)"/><path class="cls-20" d="M1857.1,2015.5s10-49-35-65" transform="translate(-1252.3 -815.4)"/><path class="cls-20" d="M1846.1,2087.5c-15.5,3.3-26.8,1.7-29-10" transform="translate(-1252.3 -815.4)"/><path class="cls-20" d="M1817.1,2031.5c19.5,18.3,6.5,41.1,0,46" transform="translate(-1252.3 -815.4)"/><path class="cls-20" d="M1782.1,2020.5c26.7-6.1,44.3,19.9,35,11" transform="translate(-1252.3 -815.4)"/><path class="cls-21" d="M1853.5,2015.9a122.8,122.8,0,0,1-11.2,30.5c-2.3,4.3-4.7,8.4-8.2,11.8s-6.5,5.1-10.5,4.7a21.3,21.3,0,0,1-5.9-2.5,32,32,0,0,0-7.2-3.5,22.8,22.8,0,0,0-16.2,1.5l-3.4,1.7-1.3.4-.8.3H1787l-.7-.2c-.1,0-1-.6-.7-.3s-.7-.6-.4-.4a.3.3,0,0,1-.1-.2c-.3-1.1.1-2.4.1-3.5a8.3,8.3,0,0,0-.5-3.5,12.7,12.7,0,0,0-3.6-5.8,22.2,22.2,0,0,0-6.1-4,42.5,42.5,0,0,0-7.7-2.3,11.8,11.8,0,0,1-3.3-1.2,3.1,3.1,0,0,1-1.1-.9c.4.4-.4-.9-.2-.3s-.1-.4-.2-.5-.1.3,0-.3v-.7h0v-.5c-.1.3-.1.3,0,.1s.1-.2.1-.3-.2.3,0,.1-.2.2-.1,0,.1,0-.1.1h.5a3,3,0,1,0-1.6-5.8c-5.2,1-6.2,7.8-3.4,11.5s9.4,4.3,14,6.2a17.2,17.2,0,0,1,5.1,3.3,6.3,6.3,0,0,1,1.6,2.3,4.8,4.8,0,0,1,.5,2.2c.1,1.5-.3,2.9-.1,4.4a7.6,7.6,0,0,0,2,4,9.6,9.6,0,0,0,7,2.6c2.9-.1,5.5-1.5,8.1-2.8a17.9,17.9,0,0,1,7.4-2.1,16.1,16.1,0,0,1,7.5,1.6c2.5,1.2,4.7,2.8,7.2,3.9a16.1,16.1,0,0,0,15.2-1.2c4.6-2.8,8.2-7.1,11-11.6a122.2,122.2,0,0,0,14.8-37.2,3.1,3.1,0,0,0-2.1-3.7,3,3,0,0,0-3.7,2.1Z" transform="translate(-1252.3 -815.4)"/><line class="cls-20" x1="529.8" y1="1197.1" x2="529.8" y2="1196.1"/><line class="cls-20" x1="509.8" y1="1218.1" x2="509.8" y2="1217.1"/><line class="cls-20" x1="537.8" y1="1186.1" x2="537.8" y2="1185.1"/><path class="cls-20" d="M1782.1,2020.5s-22.3-.8-20,13" transform="translate(-1252.3 -815.4)"/><rect class="cls-22" x="1845.6" y="2076" width="54" height="11" transform="translate(-1647.8 -375.5) rotate(-12.1)"/><polygon class="cls-23" points="253 1322.4 293.7 1286.9 285.5 1276.6 244.8 1312.1 253 1322.4"/><path class="cls-8" d="M1536.3,2087.6" transform="translate(-1252.3 -815.4)"/><line class="cls-24" x1="325.3" y1="1230.6" x2="283.3" y2="1271.6"/><path class="cls-8" d="M1949.2,1452.5" transform="translate(-1252.3 -815.4)"/><path class="cls-5" d="M2733.2,2622.5" transform="translate(-1252.3 -815.4)"/><path class="cls-24" d="M1534.7,1988.9c-6.1,6.3-5.6,16.7,1.2,23.3s17.3,6.9,23.4.6,5.5-16.7-1.2-23.3S1540.8,1982.6,1534.7,1988.9Z" transform="translate(-1252.3 -815.4)"/><rect class="cls-15" x="1534.3" y="2002.2" width="8.6" height="16.45" transform="translate(-2227.5 895.1) rotate(-45.8)"/><line class="cls-24" x1="293.7" y1="1201.3" x2="253.2" y2="1242.8"/><line class="cls-24" x1="278.7" y1="1187.6" x2="238.7" y2="1228.6"/><line class="cls-24" x1="282.3" y1="1269.6" x2="254.5" y2="1242"/><line class="cls-24" x1="239.1" y1="1228.4" x2="212.2" y2="1202.2"/><path class="cls-8" d="M2692.7,2860.9" transform="translate(-1252.3 -815.4)"/><path class="cls-2" d="M2636.1,2862.7" transform="translate(-1252.3 -815.4)"/><line class="cls-13" x1="1409.1" y1="1828.8" x2="1441.1" y2="1859.4"/><line class="cls-2" x1="1440.1" y1="1736.6" x2="1440.2" y2="1779.4"/><path class="cls-16" d="M2690.9,2591.4c-12.7,3.3-26.2,12.4-27.3,26.6a2.2,2.2,0,0,0,2.2,2.2,2.3,2.3,0,0,0,2.3-2.2c.9-12,13.5-19.5,24-22.3,2.8-.7,1.6-5.1-1.2-4.3Z" transform="translate(-1252.3 -815.4)"/><path class="cls-1" d="M1563.9,1351.9" transform="translate(-1252.3 -815.4)"/><path class="cls-1" d="M2621.8,2644.6" transform="translate(-1252.3 -815.4)"/><line class="cls-2" x1="1409.6" y1="1828.6" x2="1328.6" y2="1827.6"/><polygon class="cls-15" points="1247.7 1747 1262.9 1747 1262.9 1733.8 1247.7 1731.8 1247.7 1747"/><path class="cls-2" d="M2625.4,2621.6a6.4,6.4,0,1,0-12.7-.2" transform="translate(-1252.3 -815.4)"/><line class="cls-2" x1="1412.6" y1="1806" x2="1372.1" y2="1805.3"/><line class="cls-2" x1="1359.7" y1="1806.1" x2="1328.4" y2="1805.4"/><path class="cls-1" d="M2548.4,2786.7" transform="translate(-1252.3 -815.4)"/><path class="cls-1" d="M2549.6,2786.7" transform="translate(-1252.3 -815.4)"/><line class="cls-13" x1="1443.3" y1="1859" x2="1443.3" y2="1929.2"/><path class="cls-1" d="M2606.2,2728.1" transform="translate(-1252.3 -815.4)"/><path class="cls-14" d="M2605.2,2707.8" transform="translate(-1252.3 -815.4)"/><path class="cls-5" d="M2497.6,2688.7" transform="translate(-1252.3 -815.4)"/><path class="cls-8" d="M2496.8,2861.6" transform="translate(-1252.3 -815.4)"/><path class="cls-8" d="M2457.4,2798.6" transform="translate(-1252.3 -815.4)"/><line class="cls-2" x1="1415.3" y1="1955" x2="1261.1" y2="1957"/><path class="cls-8" d="M2683.9,2871.1" transform="translate(-1252.3 -815.4)"/><path class="cls-8" d="M2457.5,2798.1" transform="translate(-1252.3 -815.4)"/><path class="cls-2" d="M2487.4,2706.4c0,8.7,7.8,15.8,17.4,15.8s17.3-7.1,17.3-15.8-7.8-15.9-17.3-15.9-17.4,7.1-17.4,15.9" transform="translate(-1252.3 -815.4)"/><rect class="cls-7" x="1244.8" y="1899.4" width="16.6" height="8.58"/><line class="cls-2" x1="1262.9" y1="1903" x2="1262.9" y2="1957"/><line class="cls-2" x1="1243.3" y1="1902.7" x2="1243.3" y2="1956"/><line class="cls-13" x1="1444.7" y1="1928.4" x2="1410.7" y2="1956.7"/><path class="cls-13" d="M2696,2676.2" transform="translate(-1252.3 -815.4)"/><path class="cls-13" d="M2664,2645.6" transform="translate(-1252.3 -815.4)"/><path class="cls-25" d="M2844.1,2789.4" transform="translate(-1252.3 -815.4)"/><path class="cls-25" d="M2100.4,1561.6" transform="translate(-1252.3 -815.4)"/><path class="cls-25" d="M2828,2779.3" transform="translate(-1252.3 -815.4)"/><path class="cls-25" d="M2116.9,1552.1" transform="translate(-1252.3 -815.4)"/><path class="cls-25" d="M2827.8,2781" transform="translate(-1252.3 -815.4)"/><path class="cls-25" d="M2726.4,2752.6" transform="translate(-1252.3 -815.4)"/><path class="cls-20" d="M2660.9,2571.5c49.9-18.9,120.7,0,139,23" transform="translate(-1252.3 -815.4)"/><path class="cls-20" d="M2827.8,2737.7c.1-.2,10.4-116.5-27.9-143.2" transform="translate(-1252.3 -815.4)"/><path class="cls-20" d="M2816.8,2809.7c-15.6,3.3-26.8,1.8-29-10" transform="translate(-1252.3 -815.4)"/><path class="cls-20" d="M2787.8,2753.7c19.5,18.4,6.5,41.1,0,46" transform="translate(-1252.3 -815.4)"/><path class="cls-20" d="M2731.9,2753.5c29.1-31.3,65.2,4.2,55.9.2" transform="translate(-1252.3 -815.4)"/><path class="cls-21" d="M2827,2741.9c3.9,0,3.9-6,0-6s-3.9,6,0,6Z" transform="translate(-1252.3 -815.4)"/><line class="cls-20" x1="1500.5" y1="1919.3" x2="1500.5" y2="1918.3"/><line class="cls-20" x1="1508.5" y1="1908.3" x2="1508.5" y2="1907.3"/><path class="cls-20" d="M2743.8,2748.7" transform="translate(-1252.3 -815.4)"/><polyline class="cls-22" points="1565.7 1999.4 1618.5 1988 1616.2 1977.3 1563.4 1988.6 1565.7 1999.4"/><path class="cls-21" d="M2823,2736.7a114.5,114.5,0,0,1-11.4,30.3,47.1,47.1,0,0,1-8.1,11.7c-3,2.9-6.5,5.1-10.5,4.7a20.1,20.1,0,0,1-5.9-2.5,34.2,34.2,0,0,0-7.2-3.5,22.8,22.8,0,0,0-16.2,1.5l-3.5,1.7-1.2.4-.8.3h-1.8l-.8-.2c-.1,0-1-.6-.7-.3s-.6-.6-.3-.4a.3.3,0,0,1-.1-.2c-.3-1.1.1-2.4.1-3.5a13.4,13.4,0,0,0-.5-3.5,14.6,14.6,0,0,0-3.6-5.8,21.3,21.3,0,0,0-6.2-4,40.2,40.2,0,0,0-7.7-2.3,12.4,12.4,0,0,1-3.2-1.2,3.4,3.4,0,0,1-1.2-.9c.4.4-.4-.9-.2-.3a4.3,4.3,0,0,0-.1-.5c-.2-.6-.1.3-.1-.3v-.7c.1-.2.1-.2,0,.1v-.5h-.1l.2-.3c-.2.2-.2.3-.1.1h.3a3.1,3.1,0,0,0,2.1-3.7,3,3,0,0,0-3.7-2.1c-5.1,1-6.1,7.8-3.4,11.5s9.4,4.3,14,6.2a16.5,16.5,0,0,1,5.2,3.3,6.3,6.3,0,0,1,1.6,2.3,4.8,4.8,0,0,1,.5,2.2,32.3,32.3,0,0,0-.1,4.4,7,7,0,0,0,2,4,9.3,9.3,0,0,0,6.9,2.6c3-.1,5.6-1.5,8.2-2.8a17.1,17.1,0,0,1,7.4-2.1,16.1,16.1,0,0,1,7.5,1.6c2.4,1.2,4.7,2.8,7.2,3.9a16.1,16.1,0,0,0,15.2-1.2c4.5-2.8,8.1-7.1,10.9-11.6a115.3,115.3,0,0,0,15-36.9,2.9,2.9,0,0,0-2.1-3.7,3.1,3.1,0,0,0-3.7,2.1Z" transform="translate(-1252.3 -815.4)"/><line class="cls-20" x1="1408.6" y1="1763.1" x2="1408.6" y2="1762.1"/><path class="cls-20" d="M2617.9,2672.5" transform="translate(-1252.3 -815.4)"/><path class="cls-2" d="M2553.1,2632.9c0,8.7,7.7,15.8,17.2,15.8s17.1-7.1,17.1-15.8-7.7-15.9-17.1-15.9-17.2,7.1-17.2,15.9" transform="translate(-1252.3 -815.4)"/><rect class="cls-26" x="2577.1" y="2626.1" width="16.5" height="10.84" transform="translate(-1405.3 4288.1) rotate(-87.6)"/><path class="cls-21" d="M2663.7,2572.2c3.8,0,3.8-6,0-6s-3.9,6,0,6Z" transform="translate(-1252.3 -815.4)"/><polygon class="cls-23" points="1317.7 1977.3 1371.7 1976.8 1372.2 1963.7 1318.2 1964.1 1317.7 1977.3"/><path class="cls-21" d="M2657.4,2570.7c-12.5,4.3-25.1,8.8-36.3,15.9s-19.6,15.7-24.5,27.1a40.3,40.3,0,0,0,.9,36c5.4,11.3,14.5,20.6,23.5,29.2,17.6,17.1,37.8,32.1,51.9,52.5.8,1.3,1.7,2.5,2.5,3.9a9.8,9.8,0,0,1,1.1,3.8,20.9,20.9,0,0,1,.4,3.4v1.4c0,.8.2-.6,0,.2a1.9,1.9,0,0,0-.2.7c-.2.7.3-.4-.1.3l-.5.7-.7,1c-1.3,1.4-2.7,2.7-4.1,4l-7.1,6.7a165.3,165.3,0,0,1-22.6,17.6,63.1,63.1,0,0,1-7.6,4.2l-1.4.7h-.1l-.7.3-2.4.9-1.7.4h-.6c-.5.1,1,0,.2,0s-.8-.2.2.1a3,3,0,0,1,1.2,4.9,2.1,2.1,0,0,1-1.2.7h.1c.6-.2-1.1.1-.1,0,3.9-.1,3.9-6.1,0-6-1.6.1-3.3.6-3.8,2.4s1.5,4,3.7,3.9,6.7-1.8,9.8-3.3a103,103,0,0,0,18.7-12.1c4.5-3.5,8.9-7.3,13.1-11.1l7.6-7.2c2.3-2.2,4.7-4.3,5.8-7.4s.5-4.5.2-6.8a24.4,24.4,0,0,0-.7-4.6,17.7,17.7,0,0,0-2.6-4.9,134.7,134.7,0,0,0-11.9-15.4c-8.4-9.5-17.9-18-27.4-26.6s-19.1-17.1-27.4-26.8-14.6-20.6-13.7-33.2,7.9-22.5,16.5-30.1,22.1-13.9,34.1-18.4l9.5-3.3a3.2,3.2,0,0,0,2.1-3.7,3,3,0,0,0-3.7-2.1Z" transform="translate(-1252.3 -815.4)"/><line class="cls-11" x1="1336.4" y1="2060" x2="1336.8" y2="2020.2"/><line class="cls-11" x1="1356.7" y1="2059.7" x2="1357" y2="2020.3"/><path class="cls-11" d="M2599.3,2805.5a17.2,17.2,0,1,0,17,17.2A17,17,0,0,0,2599.3,2805.5Z" transform="translate(-1252.3 -815.4)"/><path class="cls-27" d="M3276.4,2690.6" transform="translate(-1252.3 -815.4)"/><path class="cls-25" d="M2918.6,2488.5" transform="translate(-1252.3 -815.4)"/><path class="cls-28" d="M3254.4,2701.3c-6.9-13-10-23.3,3.8-29.1" transform="translate(-1252.3 -815.4)"/><path class="cls-29" d="M3294.9,2665.5c-16.4,10.7-51.9,8-38.1,10.2" transform="translate(-1252.3 -815.4)"/><path class="cls-20" d="M3290.9,2614.5c55.8,21.6,18.5,52.7-2,55" transform="translate(-1252.3 -815.4)"/><line class="cls-20" x1="1206.2" y1="1777.2" x2="1206.2" y2="1776.2"/><path class="cls-20" d="M2904.3,2547.6" transform="translate(-1252.3 -815.4)"/><path class="cls-21" d="M3338.9,2667.5c-6.2.5-10.8,5.3-16,8.2l-2.6,1.3-1.2.6c.5-.3-.1,0-.2,0l-.9.4a43.9,43.9,0,0,1-6.9,1.8,54.4,54.4,0,0,1-8.2.7l-7.3.4h-4.3l-1.6-.4h-.4c-.8-.2.4.3-.2-.1l-1.1-.6c.7.5-.6-.7-.3-.4l-.2-.3-.3-.5h0c-.3-1.2-.4-2.3-.7-3.4s-.7-2-1-3h0V2669a20.7,20.7,0,0,0-.6-5,22.5,22.5,0,0,0-4-8.4c-1.8-2.4-4.3-4.1-6.1-6.4l-.5-.7s-.4-.9-.3-.5a1.9,1.9,0,0,0-.2-.7v-.5a2.4,2.4,0,0,1,0-1.2s.3-.9.1-.4-.1-.1.3-.4.5-.3.5-.3l.7-.2a10.6,10.6,0,0,0,1.9-.6,10.2,10.2,0,0,0,3.7-2c4.5-3.6,5.8-10,5.5-15.4a40.7,40.7,0,0,0-.5-4.9c-.2-1.4-.4-3.2.3-4.5s.2-.4.3-.6.2-.2.3-.2l.3-.3c.7-.3-.4.1.4-.1s1-.2.3-.1.8,0,.3-.1h.3c2,3.3,7.2.3,5.2-3a6.6,6.6,0,0,0-8-2.6,8.4,8.4,0,0,0-5.6,6.9c-.6,3.3.3,6.4.5,9.7a18.6,18.6,0,0,1-1,7,7.4,7.4,0,0,1-3.7,4.3l-.6.2-.9.2-2.4.8a7.2,7.2,0,0,0-3.4,3.3,9.9,9.9,0,0,0,.9,9.4c1.8,2.8,4.5,4.6,6.6,7.1a17.2,17.2,0,0,1,3.4,8.1c.4,2.6-.2,5.3.7,7.9s.9,5.1,2.3,7.3a9.9,9.9,0,0,0,5.7,4.1c4.9,1.4,10.2.4,15.2.2a44.9,44.9,0,0,0,28.4-9.4l4.1-2.6,1.1-.5c-.9.4.2-.1.4-.1a2.3,2.3,0,0,1,1.1-.3h.5c.5-.2-.8,0,0,0a3.1,3.1,0,0,0,3-3,2.9,2.9,0,0,0-3-3Z" transform="translate(-1252.3 -815.4)"/><path class="cls-21" d="M3230.7,2431.8c-12.4,4.4-25.1,8.8-36.3,15.9s-19.5,15.7-24.4,27.2a42.5,42.5,0,0,0-3.8,17.6,44.6,44.6,0,0,0,4.6,18.3c5.5,11.3,14.6,20.7,23.5,29.3,17.7,17,37.9,32.1,51.9,52.5.9,1.2,1.8,2.5,2.6,3.8a10.3,10.3,0,0,1,1.1,3.9c.2,1.1.3,2.3.4,3.4v1.3c0,.8.2-.5,0,.2a2.4,2.4,0,0,0-.2.8c-.2.7.2-.5-.2.2a3,3,0,0,1-.4.8,2.3,2.3,0,0,1-.8.9,50.3,50.3,0,0,1-4,4c-2.3,2.3-4.7,4.5-7.1,6.7a161,161,0,0,1-22.7,17.7q-3.6,2.3-7.5,4.2l-1.4.6-.4.2h.3l-.7.3-2.4.8-1.7.4-.6.2c-.5.1,1-.1.2-.1s-.8-.1.2.1a3.1,3.1,0,0,1,1.2,5,2.9,2.9,0,0,1-1.2.7h.1c.6-.2-1.1,0-.1,0,3.8-.1,3.8-6.1,0-6-1.7,0-3.3.6-3.8,2.4s1.5,4,3.7,3.8,6.7-1.7,9.8-3.2c6.7-3.2,12.8-7.6,18.6-12.1s9-7.3,13.2-11.2c2.6-2.3,5.1-4.7,7.6-7.2s4.7-4.3,5.8-7.3.5-4.6.2-6.8a23.2,23.2,0,0,0-.7-4.6,19.9,19.9,0,0,0-2.6-5,136.2,136.2,0,0,0-11.9-15.3c-8.4-9.6-18-18.1-27.4-26.6s-19.1-17.1-27.4-26.8-14.6-20.6-13.7-33.3,7.9-22.4,16.5-30.1,22-13.9,34.1-18.3l9.4-3.4a2.9,2.9,0,0,0,2.1-3.7,3,3,0,0,0-3.7-2.1Z" transform="translate(-1252.3 -815.4)"/><path class="cls-20" d="M3338.9,2671.5c0-5,44.2-59.3,34-111" transform="translate(-1252.3 -815.4)"/><path class="cls-20" d="M3235.2,2433c77.3-27.5,125.4,66.7,137.7,127.5" transform="translate(-1252.3 -815.4)"/><polygon class="cls-23" points="1894.8 1838.3 1948.8 1837.8 1949.2 1824.7 1895.2 1825.1 1894.8 1838.3"/><rect class="cls-22" x="3242.3" y="2719.4" width="54" height="11" transform="translate(1508.6 6135) rotate(-123)"/><line class="cls-11" x1="1911.5" y1="1914.9" x2="1911.8" y2="1875.1"/><line class="cls-11" x1="1931.7" y1="1914.6" x2="1932" y2="1875.2"/><path class="cls-11" d="M3174.4,2660.4a17.2,17.2,0,1,0,16.9,17.2A17.2,17.2,0,0,0,3174.4,2660.4Z" transform="translate(-1252.3 -815.4)"/><polygon class="cls-30" points="1915.4 1870.1 1915.4 1885.5 1928.7 1885.6 1928.8 1870.1 1915.4 1870.1"/><path class="cls-1" d="M2006.4,1685.4" transform="translate(-1252.3 -815.4)"/><line class="cls-15" x1="1289.9" y1="84.5" x2="1289.9" y2="69.3"/><path class="cls-25" d="M1905.5,1638.4" transform="translate(-1252.3 -815.4)"/><path class="cls-15" d="M1875.4,1637.4" transform="translate(-1252.3 -815.4)"/><path class="cls-15" d="M1893.8,1640.2" transform="translate(-1252.3 -815.4)"/><line class="cls-19" x1="304.8" y1="821.9" x2="329.9" y2="817.4"/><path class="cls-20" d="M1734.4,1612.5" transform="translate(-1252.3 -815.4)"/><path class="cls-20" d="M1583.1,1634" transform="translate(-1252.3 -815.4)"/><path class="cls-20" d="M1581.5,1632.9c26.9-1,71.7,2.9,76.3,37.1,2.2,16.1-3.5,33.3-8.4,48.4-2.8,8.7-6.1,17.2-8.2,26.1s-7.6,5.6,0,17c8.8,13.2,23.6,18.7,34.7,15" transform="translate(-1252.3 -815.4)"/><path class="cls-20" d="M1926.2,1682.5" transform="translate(-1252.3 -815.4)"/><line class="cls-20" x1="511.3" y1="895.3" x2="511.9" y2="894.5"/><line class="cls-20" x1="524.2" y1="890.9" x2="524.7" y2="890"/><line class="cls-31" x1="324.2" y1="806.2" x2="266.4" y2="815.9"/><path class="cls-24" d="M1573.9,1550.2c-8.6,1.7-14.1,10.6-12.3,19.9s10.2,15.4,18.8,13.8,14.1-10.6,12.3-19.9S1582.5,1548.5,1573.9,1550.2Z" transform="translate(-1252.3 -815.4)"/><rect class="cls-6" x="1560.5" y="1561.8" width="8.6" height="16.45" transform="translate(-1522.8 -488.5) rotate(-11)"/><line class="cls-24" x1="315" y1="764.1" x2="258.1" y2="775.1"/><line class="cls-24" x1="310.5" y1="744.2" x2="254.2" y2="755.2"/><line class="cls-24" x1="266.7" y1="813.7" x2="259.6" y2="775.1"/><line class="cls-24" x1="254.7" y1="755.1" x2="247.5" y2="718.4"/><line class="cls-19" x1="250.1" y1="829" x2="288.2" y2="825.3"/><path class="cls-19" d="M1541.6,1639.8c.8,6,4.6,10.5,8.4,10s6.3-5.8,5.6-11.8" transform="translate(-1252.3 -815.4)"/><polygon class="cls-23" points="209 840.3 262.7 834.4 261.8 821.3 208.1 827.2 209 840.3"/><path class="cls-8" d="M1515.3,1632.2" transform="translate(-1252.3 -815.4)"/><path class="cls-32" d="M1666.2,1777.5c148.5-2.7-120.2-186.7,239.9-141.4" transform="translate(-1252.3 -815.4)"/><path class="cls-20" d="M1907.5,1666.2c10-24.9,36-21,42.9-16.7" transform="translate(-1252.3 -815.4)"/><path class="cls-20" d="M1910,1702.8c-15.4-22.6,2.5-48.5-2.5-36.6" transform="translate(-1252.3 -815.4)"/><path class="cls-21" d="M1880.3,1637.9a118.7,118.7,0,0,1,35.2-.2,39,39,0,0,1,11.9,3.4,17.6,17.6,0,0,1,4.3,3.1,8,8,0,0,1,1.5,1.8,6.1,6.1,0,0,1,1,2.2c.7,2.2.4,4.6.1,6.9a29.8,29.8,0,0,0-.6,8.4,23,23,0,0,0,6.8,13.9c1.7,1.6,3.9,3,5,5.2a6.5,6.5,0,0,1,.4,1.9,1.4,1.4,0,0,1-.6,1.4,25,25,0,0,1-2.5.8,8.9,8.9,0,0,0-3.1,1.5,13,13,0,0,0-4.2,4.8c-2.2,4.6-2.4,9.6-1.7,14.5a28.7,28.7,0,0,1,.5,4.1,5.5,5.5,0,0,1-.2,1.8l-.2.5s-.4.7-.1.3a2.1,2.1,0,0,1-1.7,1c.5-.1,0,0-.2,0s-.1-.1-.1,0h-.2c.2.2.3.2.1.1h0c-2-3.2-7.2-.2-5.1,3,3,4.9,10.3,3.2,12.6-1.5,1.4-2.9,1.1-6.2.7-9.3a17.7,17.7,0,0,1-.4-3,21.6,21.6,0,0,1,0-3.6c.1-.8.2-1.5.4-2.5a10.2,10.2,0,0,1,1.1-2.8,5.9,5.9,0,0,1,3.4-3c2.7-.8,5.4-1.7,6.7-4.5a9.6,9.6,0,0,0-.3-8.1c-1.2-2.6-3.4-4.4-5.4-6.2a19.6,19.6,0,0,1-4.6-6.1,17.4,17.4,0,0,1-1.2-7.1c.1-3.1,1-6.1,1.1-9.2.1-10.7-10-16.4-19.2-18.6a107,107,0,0,0-20.4-2.2,129.2,129.2,0,0,0-22.4,1.6c-1.6.2-2.5,2.2-2.1,3.7a3.2,3.2,0,0,0,3.7,2.1Z" transform="translate(-1252.3 -815.4)"/><line class="cls-20" x1="612.9" y1="885.6" x2="612.9" y2="884.6"/><line class="cls-20" x1="677.1" y1="901.3" x2="676.1" y2="901.7"/><line class="cls-20" x1="620.9" y1="874.6" x2="620.9" y2="873.6"/><path class="cls-20" d="M1910,1702.8s7.3,21.1,19.4,13.9" transform="translate(-1252.3 -815.4)"/><path class="cls-9" d="M1854.2,1630.1c8.8-.1,15.8-7.8,15.8-17.3s-7.3-17.1-16-17-15.8,7.8-15.8,17.2S1845.5,1630.1,1854.2,1630.1Z" transform="translate(-1252.3 -815.4)"/><rect class="cls-6" x="1862.5" y="1604" width="8.6" height="16.45" transform="translate(-1263.4 -802.4) rotate(-0.4)"/><line class="cls-9" x1="613.8" y1="787.1" x2="671.8" y2="786.7"/><line class="cls-9" x1="616.1" y1="806.1" x2="673.4" y2="805.7"/><path class="cls-33" d="M2310,1068" transform="translate(-1252.3 -815.4)"/><line class="cls-9" x1="671.6" y1="804.2" x2="671.6" y2="945.6"/><path class="cls-20" d="M1998.2,1676.5c-8.2-13.7-45.6-33.6-55.7-27.2" transform="translate(-1252.3 -815.4)"/><rect class="cls-22" x="1990.2" y="1691.7" width="54" height="11" transform="translate(1188.9 -1720.1) rotate(59.2)"/><line class="cls-19" x1="779.7" y1="168.9" x2="804.8" y2="164.4"/><path class="cls-20" d="M2209.3,959.5" transform="translate(-1252.3 -815.4)"/><path class="cls-20" d="M2058,981.1" transform="translate(-1252.3 -815.4)"/><path class="cls-20" d="M2057.4,979.9c97.4-53.4,131.9,102.6,204.2,10.6" transform="translate(-1252.3 -815.4)"/><line class="cls-33" x1="1034.8" y1="242.4" x2="1034.2" y2="241.5"/><line class="cls-33" x1="999.1" y1="237.9" x2="999.6" y2="237.1"/><line class="cls-19" x1="725" y1="176" x2="763.1" y2="172.3"/><path class="cls-19" d="M2016.5,985.8c.8,6,4.6,10.5,8.4,10s6.4-5.8,5.6-11.8" transform="translate(-1252.3 -815.4)"/><polygon class="cls-23" points="683.9 187.3 737.6 181.4 736.7 168.3 683 174.2 683.9 187.3"/><path class="cls-8" d="M1990.2,979.2" transform="translate(-1252.3 -815.4)"/><line class="cls-33" x1="1087.8" y1="232.6" x2="1087.8" y2="231.6"/><line class="cls-33" x1="869" y1="248.3" x2="870" y2="248.7"/><line class="cls-33" x1="1095.8" y1="221.6" x2="1095.8" y2="220.6"/><path class="cls-33" d="M2384.9,1049.8" transform="translate(-1252.3 -815.4)"/><path class="cls-34" d="M2510.1,994.5c-25.6,9.7-93.7,11.5-93,2" transform="translate(-1252.3 -815.4)"/><rect class="cls-22" x="2496.7" y="988.1" width="54" height="11" transform="translate(-1287.1 -721.9) rotate(-2.1)"/><path class="cls-21" d="M2329.6,988c4.8-.4,9.4,1.9,14.2,1.6a22.7,22.7,0,0,0,12.8-4.9c1.7-1.4,3.2-3,4.8-4.5a5.9,5.9,0,0,1,3.9-1.7,2.2,2.2,0,0,1,1.3.4c-.1,0,.2.3.1.1a4.3,4.3,0,0,1,.5,1.6,14.5,14.5,0,0,0,2.3,5.4,15.8,15.8,0,0,0,9.4,5.4,27.8,27.8,0,0,0,5.8.6c2,0,4-.4,6.1-.4a10.1,10.1,0,0,1,4.5.9l2.1.7,6.9,1.7c2.9.6,5.7,1.2,8.5,2l2.9.9c.6.2-.6-.4-.1-.1l.4.2c.1.1.3.4-.2-.1a2.2,2.2,0,0,1-.6-.7,2.9,2.9,0,0,1,.9-3.7c-3.4,1.9-.4,7,3,5.2a3.3,3.3,0,0,0,1.3-4.5,5.2,5.2,0,0,0-2.8-2,41.7,41.7,0,0,0-6.3-1.8c-4.7-1.1-9.5-2.1-14.2-3.4h.3l-1.2-.6a11.6,11.6,0,0,0-4.2-.8c-2.2-.2-4.3.3-6.5.4a26.4,26.4,0,0,1-5.1-.4,11.7,11.7,0,0,1-4.6-1.8l-.5-.4h-.1l-.8-.8h-.1l-.3-.5-.3-.5c-.4-.8.1.4-.2-.4-.8-2.4-.9-4.8-2.9-6.6-3.9-3.3-9.3-1.8-12.8,1.1-1.9,1.5-3.5,3.5-5.4,5a16.7,16.7,0,0,1-6.4,2.8c-5.6,1.2-10.8-1.7-16.4-1.3a3,3,0,0,0,0,6Z" transform="translate(-1252.3 -815.4)"/><path class="cls-21" d="M2254.9,1000.2c5.1-.2,9.9-1.8,14.6-3.7s9.3-3.7,14.1-5.1a119.3,119.3,0,0,1,29.6-5.1,122.1,122.1,0,0,1,17.1.4c1.6.2,3-1.5,3-3a3.1,3.1,0,0,0-3-3,129,129,0,0,0-59.9,9c-5,2.1-10.1,4.3-15.5,4.5a3.1,3.1,0,0,0-3,3,3,3,0,0,0,3,3Z" transform="translate(-1252.3 -815.4)"/><line class="cls-15" x1="502.1" y1="358.6" x2="493.7" y2="360.3"/><path class="cls-31" d="M1749.8,1172.5" transform="translate(-1252.3 -815.4)"/><path class="cls-24" d="M1686.8,1146.6" transform="translate(-1252.3 -815.4)"/><line class="cls-20" x1="736.4" y1="483.6" x2="736.4" y2="482.6"/><line class="cls-20" x1="800.6" y1="499.3" x2="799.6" y2="499.7"/><line class="cls-20" x1="744.4" y1="472.6" x2="744.4" y2="471.6"/><path class="cls-20" d="M2033.5,1300.8" transform="translate(-1252.3 -815.4)"/><path class="cls-20" d="M2121.7,1274.5c-8.2-13.7-45.6-33.6-55.7-27.2" transform="translate(-1252.3 -815.4)"/><rect class="cls-22" x="2113.7" y="1289.7" width="54" height="11" transform="translate(903.9 -2022.2) rotate(59.2)"/><path class="cls-21" d="M1978.2,1239c4.8-.4,9.4,1.8,14.2,1.6a23,23,0,0,0,12.8-4.9c1.7-1.4,3.1-3,4.8-4.5l1-.7.7-.5s.5-.2.1-.1a4.3,4.3,0,0,1,2.1-.4,2.7,2.7,0,0,1,1.4.4c-.2-.1,0,.2.1.2a8.3,8.3,0,0,1,.4,1.5,13.1,13.1,0,0,0,2.6,5.6c2.2,2.9,5.8,4.5,9.3,5.2a27.6,27.6,0,0,0,5.7.6l6.2-.5c2.4,0,4.3,1.1,6.5,1.8l7,1.7,8.4,2.2,1.5.5.7.3h.3l.6.3a1.6,1.6,0,0,1-.8-.8,2.9,2.9,0,0,1,.9-3.7c-3.4,1.8-.4,7,3,5.1a3.3,3.3,0,0,0,1.3-4.5,4.7,4.7,0,0,0-2.2-1.7,38.6,38.6,0,0,0-6.8-2.2c-4.7-1.2-9.5-2.3-14.2-3.7h.2l-.8-.4a12.9,12.9,0,0,0-4.4-1.1c-2.2-.1-4.5.4-6.7.4a20.6,20.6,0,0,1-5.1-.3,12.3,12.3,0,0,1-4.6-1.8l-1.4-1.3c-.1-.1-.3-.5-.1-.1l-.3-.5-.3-.6c-.2-.4,0,.1-.1-.2-.9-2.4-1-4.8-2.9-6.6-3.8-3.4-9.2-2-12.8.8-1.9,1.6-3.4,3.5-5.4,5a16.1,16.1,0,0,1-6.5,3c-5.6,1.2-10.8-1.8-16.4-1.3a3,3,0,1,0,0,6Z" transform="translate(-1252.3 -815.4)"/><path class="cls-21" d="M1903.5,1251.2a46.2,46.2,0,0,0,14.6-3.7c4.7-1.8,9.3-3.7,14.1-5.2a119.1,119.1,0,0,1,29.6-5,122.1,122.1,0,0,1,17.1.4,3.1,3.1,0,0,0,3-3,3,3,0,0,0-3-3,127.7,127.7,0,0,0-59.9,9c-5,2-10.1,4.2-15.5,4.5a3.1,3.1,0,0,0-3,3,3,3,0,0,0,3,3Z" transform="translate(-1252.3 -815.4)"/><line class="cls-19" x1="461.8" y1="435.8" x2="486.9" y2="431.2"/><path class="cls-20" d="M1891.4,1226.4" transform="translate(-1252.3 -815.4)"/><path class="cls-20" d="M1740.1,1247.9" transform="translate(-1252.3 -815.4)"/><path class="cls-20" d="M1738.5,1246.8c26.9-1.1,71.7,2.8,76.3,37,2.2,16.1-3.5,33.4-8.3,48.5-2.9,8.6-6.2,17.2-8.3,26s-7.6,5.7,0,17c8.8,13.2,23.6,18.7,34.7,15" transform="translate(-1252.3 -815.4)"/><path class="cls-20" d="M2078.2,1296.3" transform="translate(-1252.3 -815.4)"/><line class="cls-33" x1="668.3" y1="509.2" x2="668.9" y2="508.4"/><line class="cls-20" x1="681.2" y1="504.7" x2="681.7" y2="503.9"/><line class="cls-24" x1="481.3" y1="420" x2="423.4" y2="429.7"/><path class="cls-24" d="M1730.9,1164.1c-8.6,1.6-14.1,10.5-12.3,19.8s10.2,15.5,18.8,13.8,14.1-10.5,12.3-19.8S1739.5,1162.4,1730.9,1164.1Z" transform="translate(-1252.3 -815.4)"/><rect class="cls-7" x="1717.5" y="1175.7" width="8.6" height="16.45" transform="translate(-1446.3 -465.6) rotate(-11)"/><line class="cls-24" x1="472" y1="377.9" x2="415.1" y2="389"/><line class="cls-24" x1="467.5" y1="358.1" x2="411.2" y2="369"/><line class="cls-24" x1="423.7" y1="427.6" x2="416.6" y2="389"/><line class="cls-24" x1="411.7" y1="369" x2="404.5" y2="332.2"/><line class="cls-19" x1="407.1" y1="442.8" x2="445.2" y2="439.1"/><path class="cls-19" d="M1698.7,1253.6c.7,6,4.5,10.5,8.3,10s6.4-5.8,5.6-11.8" transform="translate(-1252.3 -815.4)"/><polygon class="cls-23" points="366 454.2 419.7 448.3 418.8 435.1 365.1 441 366 454.2"/><path class="cls-8" d="M1672.3,1246.1" transform="translate(-1252.3 -815.4)"/><path class="cls-32" d="M1823.2,1391.3c16-.3,36-2.3,46-16.3,8-22-1-44-5-66-3-16-1-32,10-44,16-15,38-19,59-20.9" transform="translate(-1252.3 -815.4)"/><line class="cls-20" x1="764.9" y1="499.4" x2="764.9" y2="498.4"/><line class="cls-33" x1="192" y1="473.2" x2="192.9" y2="473.5"/><line class="cls-20" x1="772.9" y1="488.4" x2="772.9" y2="487.4"/><path class="cls-1" d="M3314.3,2252.3" transform="translate(-1252.3 -815.4)"/><path class="cls-1" d="M3327.3,2259.2" transform="translate(-1252.3 -815.4)"/><path class="cls-1" d="M3462.8,2286.2" transform="translate(-1252.3 -815.4)"/><path class="cls-1" d="M3463.9,2286.2" transform="translate(-1252.3 -815.4)"/><path class="cls-1" d="M3536.9,2145.2" transform="translate(-1252.3 -815.4)"/><line class="cls-13" x1="2357.6" y1="1358.6" x2="2357.6" y2="1428.8"/><path class="cls-1" d="M3520.5,2227.6" transform="translate(-1252.3 -815.4)"/><path class="cls-14" d="M3519.5,2207.4" transform="translate(-1252.3 -815.4)"/><line class="cls-2" x1="2356.6" y1="1235.6" x2="2356.6" y2="1280.8"/><path class="cls-8" d="M3401.9,2268.3" transform="translate(-1252.3 -815.4)"/><path class="cls-8" d="M3387.2,2274.2" transform="translate(-1252.3 -815.4)"/><path class="cls-8" d="M3430.9,2276.2" transform="translate(-1252.3 -815.4)"/><line class="cls-2" x1="2324.6" y1="1455.6" x2="2178.6" y2="1457.6"/><path class="cls-8" d="M3422.5,2278.7" transform="translate(-1252.3 -815.4)"/><path class="cls-8" d="M3430.9,2275.7" transform="translate(-1252.3 -815.4)"/><line class="cls-2" x1="2324.6" y1="1329.2" x2="2243.6" y2="1328.2"/><path class="cls-2" d="M3481.1,2115.4a17.1,17.1,0,1,0,17.1,17.1,17.1,17.1,0,0,0-17.1-17.1" transform="translate(-1252.3 -815.4)"/><polygon class="cls-15" points="2235.7 1324.6 2251 1324.6 2251 1311.4 2235.7 1309.4 2235.7 1324.6"/><path class="cls-2" d="M3402.2,2207.9c0,8.7,7.6,15.8,17.1,15.8s17.2-7.1,17.2-15.8-7.7-15.9-17.2-15.9S3402.2,2199.1,3402.2,2207.9Z" transform="translate(-1252.3 -815.4)"/><rect class="cls-18" x="2159.4" y="1400.9" width="16.5" height="8.58"/><line class="cls-2" x1="2177.3" y1="1404.5" x2="2177.3" y2="1458.5"/><line class="cls-2" x1="2157" y1="1405.2" x2="2157" y2="1458.5"/><line class="cls-13" x1="2359" y1="1427.9" x2="2325" y2="1456.2"/><path class="cls-2" d="M3540.4,2122.2a6.4,6.4,0,0,0-6.2-6.5,6.2,6.2,0,0,0-6.4,6.3" transform="translate(-1252.3 -815.4)"/><line class="cls-2" x1="2327.6" y1="1307.6" x2="2287.1" y2="1306.8"/><line class="cls-2" x1="2275.8" y1="1307.7" x2="2244.4" y2="1307"/><line class="cls-13" x1="2326" y1="1329.8" x2="2358" y2="1360.4"/><path class="cls-16" d="M3606.3,2093.8c-12.8,3.3-26.5,12.2-27.7,26.6a2.2,2.2,0,0,0,2.2,2.2,2.3,2.3,0,0,0,2.3-2.2c1-12.3,13.8-19.5,24.4-22.3,2.8-.7,1.6-5-1.2-4.3Z" transform="translate(-1252.3 -815.4)"/><line class="cls-9" x1="2436.6" y1="1534.5" x2="2378.6" y2="1534.5"/><line class="cls-17" x1="2435.7" y1="1514.3" x2="2377.6" y2="1514.3"/><path class="cls-9" d="M3684.1,2338a17.2,17.2,0,1,0,17.1-17.1A17,17,0,0,0,3684.1,2338Z" transform="translate(-1252.3 -815.4)"/><rect class="cls-6" x="2427.3" y="1516.6" width="15.3" height="15.56"/><line class="cls-9" x1="2377.1" y1="1360.6" x2="2378" y2="1512.1"/><path class="cls-9" d="M3629.9,2175.1c3.5-.2,6.2-3.9,5.9-8.2s-3.2-7.8-6.8-7.6" transform="translate(-1252.3 -815.4)"/><line class="cls-17" x1="2346.6" y1="1316.6" x2="2376.6" y2="1343.6"/><line class="cls-17" x1="2377.6" y1="1275.6" x2="2347.6" y2="1315.6"/><line class="cls-9" x1="2378.1" y1="1237.6" x2="2378.1" y2="1275.6"/><path class="cls-27" d="M3613.8,2329.5" transform="translate(-1252.3 -815.4)"/><path class="cls-28" d="M3591.9,2340.3c-6.9-13-10-23.3,3.8-29.1" transform="translate(-1252.3 -815.4)"/><path class="cls-29" d="M3632.4,2304.4c-16.5,10.7-51.9,8.1-38.1,10.3" transform="translate(-1252.3 -815.4)"/><path class="cls-35" d="M3628.4,2253.4c55.7,21.7,18.5,52.8-2,55" transform="translate(-1252.3 -815.4)"/><path class="cls-21" d="M3676.4,2306.4c-6.3.6-10.8,5.3-16.1,8.3l-2.5,1.3-1.2.5h-.2l-1,.4a38.8,38.8,0,0,1-6.9,1.8,53.1,53.1,0,0,1-8.1.7l-7.3.4h-4c-.1,0-1-.2-.3-.1a4.1,4.1,0,0,1-1.6-.3h-.5c-.7-.2.5.3-.2-.1l-1-.6c.7.5-.6-.8-.4-.4s-.1-.4-.1-.4l-.3-.4c.1.3.1.3,0-.1s-.4-2.2-.7-3.3l-1-3h0a3.4,3.4,0,0,1-.1-1c0-.7.1-1.4.1-2.1a20.7,20.7,0,0,0-.6-5,21.8,21.8,0,0,0-4-8.4c-1.8-2.4-4.4-4.1-6.2-6.5a4.3,4.3,0,0,1-.4-.7c0,.1-.5-.9-.3-.4a6.4,6.4,0,0,0-.2-.7v-.5a2.4,2.4,0,0,1,0-1.2s.3-.9.1-.4-.1-.1.3-.4.5-.4.5-.4l.7-.2,1.9-.5a13.3,13.3,0,0,0,3.7-2c4.5-3.6,5.8-10,5.5-15.4-.1-1.7-.4-3.3-.5-4.9a8.9,8.9,0,0,1,.2-4.6l.3-.5c-.2.4.3-.2.3-.3s.4-.2.4-.2-.4.1.4-.1h.3c.2-.1.8,0,.3-.1h.2c.4.1.4.1,0-.1h.1c2,3.3,7.1.3,5.1-3a6.4,6.4,0,0,0-7.9-2.6,8.7,8.7,0,0,0-5.7,6.8c-.5,3.3.4,6.5.5,9.8a16.8,16.8,0,0,1-1,7,7.1,7.1,0,0,1-3.7,4.3l-.5.2-.9.2-2.4.8a6.8,6.8,0,0,0-3.4,3.3,9.6,9.6,0,0,0,.8,9.4c1.8,2.8,4.6,4.6,6.6,7.1a16.4,16.4,0,0,1,3.5,8.1c.3,2.6-.3,5.3.7,7.8s.9,5.1,2.3,7.4a9.9,9.9,0,0,0,5.7,4.1c4.9,1.4,10.2.3,15.1.2a51,51,0,0,0,16.9-3,57,57,0,0,0,11.6-6.4,35.4,35.4,0,0,1,4.1-2.6l1.1-.5.4-.2,1.1-.3h.5a3,3,0,0,0,3-3,3.1,3.1,0,0,0-3-3Z" transform="translate(-1252.3 -815.4)"/><path class="cls-21" d="M3568.2,2070.8c-13.7,4.8-27.8,9.7-39.7,18.2s-20.3,18.8-23.6,32.2a41.1,41.1,0,0,0,.2,20.3,57,57,0,0,0,9.5,18.5c8.3,11.3,18.8,20.7,29.1,30.1s20.6,18.3,29.8,28.6a120.9,120.9,0,0,1,12.4,16.1c1.5,2.4,1.7,5.2,1.9,8v.8c0,.1-.1.8-.1.5s0,.3-.1.5-.3.8-.1.3a7.6,7.6,0,0,1-2.3,3,73.5,73.5,0,0,0-10.6,13,26.2,26.2,0,0,0-4,10.8c-.7,5.9,2.7,11,7.7,14.1s10.5,4.3,16,5.1a102.4,102.4,0,0,0,13.6.9h1.3c3.9-.1,3.9-6.1,0-6a83.6,83.6,0,0,1-10-.4l-1.9-.2h-1.4l-4-.7a53.6,53.6,0,0,1-7.8-2.3c1,.4-.1-.1-.3-.2l-.8-.4-1.8-1-1.3-.9c.8.6,0,0-.2-.1l-.7-.7-.6-.6c-.2-.2-.8-1.1-.2-.2s-.6-.9-.9-1.5a1.7,1.7,0,0,1-.3-.6c-.1.2.2.7.1.2s-.1-.3-.2-.4-.1-.5-.2-.8-.1-.3-.1-.4-.3-.6,0,0a5.3,5.3,0,0,1-.1-1.8c0-.3.1-.6.1-1s-.1.8,0,.2a1.3,1.3,0,0,1,.1-.6,16,16,0,0,1,.5-2.1,7.6,7.6,0,0,0,.4-1.1c.1-.2.4-.9.1-.1l.3-.8a45.8,45.8,0,0,1,7.7-11.1c2.1-2.3,4.5-4.3,6.3-6.9a11.3,11.3,0,0,0,1.7-7.4c-.3-3.3-.6-6.5-2.3-9.5a79.5,79.5,0,0,0-5.9-8.4c-8.2-10.9-18-20.3-28-29.5s-20.1-17.8-29.3-27.5-17.7-20.6-18.5-33.9,5.7-24.2,14.6-32.8,22.9-15.4,35.6-20.1l9.9-3.5a3,3,0,1,0-1.6-5.8Z" transform="translate(-1252.3 -815.4)"/><path class="cls-20" d="M3676.4,2310.4c0-5,44.1-59.2,34-111" transform="translate(-1252.3 -815.4)"/><path class="cls-20" d="M3572.7,2071.9c77.3-27.4,125.4,66.8,137.7,127.5" transform="translate(-1252.3 -815.4)"/><polygon class="cls-23" points="2232.2 1477.3 2286.2 1476.8 2286.7 1463.6 2232.7 1464.1 2232.2 1477.3"/><rect class="cls-22" x="3579.7" y="2358.4" width="54" height="11" transform="translate(2332.6 5860.8) rotate(-123)"/><line class="cls-11" x1="2248.9" y1="1553.9" x2="2249.3" y2="1514.1"/><line class="cls-11" x1="2269.2" y1="1553.6" x2="2269.5" y2="1514.2"/><path class="cls-11" d="M3511.8,2299.4a17.2,17.2,0,1,0,17,17.2A17,17,0,0,0,3511.8,2299.4Z" transform="translate(-1252.3 -815.4)"/><rect class="cls-30" x="3506.8" y="2325.8" width="9.5" height="12.84" transform="translate(-89.6 5017.3) rotate(-89.7)"/><path class="cls-1" d="M3795.5,1770.5" transform="translate(-1252.3 -815.4)"/><path class="cls-1" d="M3782.5,1777.5" transform="translate(-1252.3 -815.4)"/><path class="cls-1" d="M3532,1774.5" transform="translate(-1252.3 -815.4)"/><path class="cls-1" d="M3533.1,1774.5" transform="translate(-1252.3 -815.4)"/><path class="cls-1" d="M3606.1,1633.4" transform="translate(-1252.3 -815.4)"/><line class="cls-13" x1="2426.8" y1="846.8" x2="2426.8" y2="917"/><path class="cls-1" d="M3589.7,1715.8" transform="translate(-1252.3 -815.4)"/><path class="cls-14" d="M3588.7,1695.6" transform="translate(-1252.3 -815.4)"/><line class="cls-2" x1="2425.8" y1="723.8" x2="2425.8" y2="769.1"/><path class="cls-8" d="M3471.1,1756.5" transform="translate(-1252.3 -815.4)"/><path class="cls-8" d="M3456.4,1762.4" transform="translate(-1252.3 -815.4)"/><path class="cls-8" d="M3500.1,1764.4" transform="translate(-1252.3 -815.4)"/><line class="cls-2" x1="2393.8" y1="943.8" x2="2247.8" y2="945.8"/><path class="cls-8" d="M3491.7,1766.9" transform="translate(-1252.3 -815.4)"/><path class="cls-8" d="M3500.1,1763.9" transform="translate(-1252.3 -815.4)"/><line class="cls-2" x1="2394.8" y1="817.4" x2="2313.8" y2="816.4"/><path class="cls-2" d="M3550.3,1603.7a17.1,17.1,0,1,0,17.1,17,17.1,17.1,0,0,0-17.1-17" transform="translate(-1252.3 -815.4)"/><polygon class="cls-7" points="2304.9 812.8 2320.2 812.8 2320.2 799.7 2304.9 797.7 2304.9 812.8"/><path class="cls-2" d="M3471.4,1696.1c0,8.8,7.7,15.9,17.1,15.9s17.2-7.1,17.2-15.9-7.7-15.8-17.2-15.8S3471.4,1687.4,3471.4,1696.1Z" transform="translate(-1252.3 -815.4)"/><rect class="cls-7" x="2228.6" y="889.2" width="16.5" height="8.58"/><line class="cls-2" x1="2246.6" y1="892.8" x2="2246.6" y2="946.8"/><line class="cls-2" x1="2226.2" y1="893.5" x2="2226.2" y2="946.8"/><line class="cls-13" x1="2428.3" y1="916.2" x2="2394.2" y2="944.5"/><path class="cls-2" d="M3609.7,1610.5a6.4,6.4,0,0,0-6.2-6.5,6.4,6.4,0,0,0-6.5,6.2" transform="translate(-1252.3 -815.4)"/><line class="cls-2" x1="2396.8" y1="795.8" x2="2356.4" y2="795.1"/><line class="cls-2" x1="2344" y1="795.9" x2="2312.7" y2="795.3"/><line class="cls-13" x1="2395.2" y1="818" x2="2427.2" y2="848.6"/><path class="cls-16" d="M3675.5,1582c-12.8,3.4-26.5,12.2-27.7,26.6a2.3,2.3,0,1,0,4.5,0c1-12.2,13.8-19.5,24.4-22.2,2.8-.7,1.6-5.1-1.2-4.4Z" transform="translate(-1252.3 -815.4)"/><line class="cls-9" x1="2531.6" y1="994.9" x2="2477.3" y2="1015.2"/><line class="cls-17" x1="2523.7" y1="976.3" x2="2469.3" y2="996.6"/><path class="cls-9" d="M3775.3,1800.8a17.1,17.1,0,1,0,10.1-21.9A17,17,0,0,0,3775.3,1800.8Z" transform="translate(-1252.3 -815.4)"/><rect class="cls-6" x="3771.3" y="1793.6" width="15.3" height="15.56" transform="translate(-1643.7 620.5) rotate(-20.5)"/><line class="cls-9" x1="2446.3" y1="848.8" x2="2447.2" y2="917.9"/><path class="cls-9" d="M3699.1,1663.3c3.5-.1,6.2-3.8,5.9-8.2s-3.2-7.7-6.7-7.5" transform="translate(-1252.3 -815.4)"/><line class="cls-17" x1="2415.8" y1="804.8" x2="2445.8" y2="831.8"/><line class="cls-17" x1="2446.8" y1="763.8" x2="2416.8" y2="803.8"/><line class="cls-9" x1="2447.3" y1="725.8" x2="2447.3" y2="763.8"/><path class="cls-27" d="M3683.1,1817.8" transform="translate(-1252.3 -815.4)"/><path class="cls-36" d="M3714.5,1788.8c-12.5,7.2-27.5,6.2-41.7,5.7" transform="translate(-1252.3 -815.4)"/><path class="cls-20" d="M3693.5,1741.1c59.8.8,35.8,43,17.4,52.2" transform="translate(-1252.3 -815.4)"/><path class="cls-21" d="M3756.6,1774.2a17.6,17.6,0,0,0-6.3,5.8l-2.6,3.6-1.3,1.8c-.1.1-.6.8-.1.2l-.3.4-1,1.2a38.6,38.6,0,0,1-9.6,8,63.2,63.2,0,0,1-7.4,3.6l-7.3,3.2-3.2,1.1a8.6,8.6,0,0,1-2.7.3h-.9c-.1,0-.7-.2-.1,0l-.6-.3c-.2-.1-.6-.5-.2-.2l-.6-.5c-.4-.4.4.6-.2-.3l-.6-.9a14,14,0,0,0-2.2-3.2l-.4-.4-.2-.2c.3.4-.5-1-.4-.7-.6-1.3-.9-2.7-1.5-4a16.2,16.2,0,0,0-2.1-3.6,21.6,21.6,0,0,0-6.4-6c-2.4-1.4-5.1-2.1-7.6-3.6a5.5,5.5,0,0,1-2.1-1.9c-.4-.9-.7-1.4-.3-2.2s.2-.3.1-.2a1.5,1.5,0,0,0,.6-.5l1.3-.9a13.5,13.5,0,0,0,3.1-3.2c3.3-5.1,2-11.9-.2-17.1-1.1-2.5-3.1-4.9-3.4-7.7v-.7c0-.1.3-.9.1-.5a2.4,2.4,0,0,1,.8-1.1h.2c.3-.2.3-.2.1-.1l.5-.2c-.4.1-.1-.1,0,.1h.1l-.4-.2a3.2,3.2,0,0,0,4.3,0c1-1.1,1.3-3.3,0-4.3a6.8,6.8,0,0,0-8.8.3c-2.6,2.2-3.2,5.4-2.6,8.6s2.5,5.8,3.8,8.6a18.7,18.7,0,0,1,1.5,7,7.4,7.4,0,0,1-.5,2.9,4.6,4.6,0,0,1-1.5,2.3c-1,1-2.2,1.6-3.2,2.6a6.8,6.8,0,0,0-2,4.9,9.9,9.9,0,0,0,4.2,7.9c2.5,1.9,5.5,2.6,8.3,4.1a16.7,16.7,0,0,1,5.6,5.3,14.4,14.4,0,0,1,1.6,3.3,17.8,17.8,0,0,0,1.7,4l1.2,1.4c.1.2.8,1,.5.7,1,1.3,1.6,2.7,2.7,3.9a8.8,8.8,0,0,0,6.8,3c5.5.1,10.6-3.2,15.4-5.2a50.2,50.2,0,0,0,15-8.8,52.3,52.3,0,0,0,8.6-10.2l1.5-2.2.3-.3c-.6.8,0,0,.1-.1l.7-.8a12.9,12.9,0,0,1,1.7-1.6l.3-.2,1.1-.6a3,3,0,0,0,1.1-4.1,3.1,3.1,0,0,0-4.1-1.1Z" transform="translate(-1252.3 -815.4)"/><path class="cls-21" d="M3637.4,1559.1c-14.4,5-29.1,10.2-41.5,19.4s-20.5,20.6-22.5,34.7a39.9,39.9,0,0,0,2.6,21.3c2.8,7,7.1,13.2,11.9,19,9.3,11.1,20.4,20.7,31.2,30.4s21.2,19.4,30,30.7a85.2,85.2,0,0,1,6.1,8.7c1.5,2.3,1.8,5.4,1.8,8.2v.9c-.1.3,0-.2,0-.2v.4c-.1.2-.1.5-.2.7s0,0,0-.1-.1.3-.2.5a20,20,0,0,1-2.8,3.2q-3,3.1-5.7,6.6c-4.4,5.7-8.4,13.4-6.1,20.9,1.8,5.9,7,10,12.5,12.5a66.6,66.6,0,0,0,18.5,5.4,114,114,0,0,0,14.2,1.5h1.3c3.9-.1,3.9-6.1,0-6a60.7,60.7,0,0,1-10.4-.8h-1.3l-2.2-.4-4.4-.8a74.9,74.9,0,0,1-9-2.4l-2.2-.9-.5-.2c-.1,0,.7.3.1.1l-1.1-.5c-1.3-.7-2.6-1.3-3.8-2.1l-1.7-1.2-.3-.2a4.6,4.6,0,0,0-.7-.7l-1.4-1.4-.3-.4c-.1-.1.4.6.1.2a4.1,4.1,0,0,1-.5-.9,8.3,8.3,0,0,1-.9-1.6c-.2-.4.2.7,0,.1v-.4l-.3-.9c-.1-.3-.1-.6-.2-.9s-.1-.7,0-.2,0,0,0-.2a7.4,7.4,0,0,1,0-2.1c0-.3.2-1.2,0-.3s.1-.8.2-1.2.4-1.5.7-2.3a1.4,1.4,0,0,1,.2-.6c0-.1.3-.7.1-.3s.1-.2.1-.3a3,3,0,0,0,.4-.8,20.1,20.1,0,0,1,1.4-2.5l1.9-2.9,2-2.6c1.9-2.2,4.1-4.1,5.9-6.4a11,11,0,0,0,2.8-7.8c-.2-3.3-.5-7-2.2-9.9a73.8,73.8,0,0,0-5.9-8.7c-2.3-2.9-4.6-5.8-7-8.5a209.5,209.5,0,0,0-14.7-15.1c-10.3-9.7-21.3-18.9-31.3-29s-19.8-20.7-22.5-34.6,3.6-25.7,12.4-35,23.6-16.6,37-21.6l10.2-3.6a3,3,0,0,0,2.1-3.7,2.9,2.9,0,0,0-3.7-2.1Z" transform="translate(-1252.3 -815.4)"/><path class="cls-20" d="M3758.5,1777.7c-7.9-4.5,32.9-109.6,7.9-138.9" transform="translate(-1252.3 -815.4)"/><path class="cls-20" d="M3641.9,1560.2c97.7-17.3,132.9,88.2,127.5,88.6" transform="translate(-1252.3 -815.4)"/><polygon class="cls-23" points="2301.4 965.5 2355.4 965.1 2355.9 951.9 2301.9 952.4 2301.4 965.5"/><rect class="cls-22" x="3658.5" y="1809.1" width="11" height="54" transform="translate(-1661.6 1472.9) rotate(-33)"/><line class="cls-11" x1="2318.2" y1="1042.2" x2="2318.5" y2="1002.3"/><line class="cls-11" x1="2338.4" y1="1041.8" x2="2338.7" y2="1002.4"/><path class="cls-11" d="M3581,1787.6a17.2,17.2,0,1,0,17,17.3A17.1,17.1,0,0,0,3581,1787.6Z" transform="translate(-1252.3 -815.4)"/><rect class="cls-30" x="3576.1" y="1813" width="9.3" height="12.62" transform="translate(492 4576) rotate(-89.7)"/><path class="cls-37" d="M3632.1,1795c-7.3-11.1-19-26.7-24.2-22.3" transform="translate(-1252.3 -815.4)"/><path d="M3638.4,1805.3c-1.2-6-1.9-13.8-1-19.6l-6.2,8-9.9,2.1C3626.8,1797.5,3633.6,1801.6,3638.4,1805.3Z" transform="translate(-1252.3 -815.4)"/><line class="cls-17" x1="2447.4" y1="916.4" x2="2469.6" y2="996.9"/><path class="cls-1" d="M3584.8,1297.2" transform="translate(-1252.3 -815.4)"/><path class="cls-1" d="M3571.8,1304.1" transform="translate(-1252.3 -815.4)"/><path class="cls-1" d="M3321.3,1301.2" transform="translate(-1252.3 -815.4)"/><path class="cls-1" d="M3322.4,1301.2" transform="translate(-1252.3 -815.4)"/><path class="cls-2" d="M3395.4,1160.1" transform="translate(-1252.3 -815.4)"/><line class="cls-13" x1="2216.1" y1="373.5" x2="2216.1" y2="443.7"/><path class="cls-1" d="M3379,1242.5" transform="translate(-1252.3 -815.4)"/><path class="cls-14" d="M3378,1222.3" transform="translate(-1252.3 -815.4)"/><line class="cls-2" x1="2215.1" y1="250.5" x2="2215.1" y2="295.8"/><path class="cls-8" d="M3260.4,1283.2" transform="translate(-1252.3 -815.4)"/><path class="cls-8" d="M3279.7,1147.1" transform="translate(-1252.3 -815.4)"/><path class="cls-8" d="M3289.4,1291.1" transform="translate(-1252.3 -815.4)"/><line class="cls-2" x1="2183.1" y1="470.5" x2="2037.1" y2="472.5"/><path class="cls-8" d="M3281,1293.6" transform="translate(-1252.3 -815.4)"/><path class="cls-8" d="M3289.5,1290.6" transform="translate(-1252.3 -815.4)"/><line class="cls-2" x1="2183.1" y1="344.1" x2="2102.1" y2="343.1"/><path class="cls-2" d="M3339.6,1130.3a17.1,17.1,0,1,0,17.2,17.1,17.1,17.1,0,0,0-17.2-17.1" transform="translate(-1252.3 -815.4)"/><polygon class="cls-15" points="2094.2 339.5 2109.5 339.5 2109.5 326.3 2094.2 324.3 2094.2 339.5"/><path class="cls-2" d="M3260.7,1222.8c0,8.8,7.7,15.9,17.2,15.9s17.1-7.1,17.1-15.9-7.7-15.8-17.1-15.8S3260.7,1214.1,3260.7,1222.8Z" transform="translate(-1252.3 -815.4)"/><rect class="cls-10" x="2017.9" y="416.9" width="16.5" height="8.58"/><line class="cls-2" x1="2035.9" y1="419.5" x2="2035.9" y2="473.5"/><line class="cls-2" x1="2015.5" y1="420.1" x2="2015.5" y2="473.5"/><line class="cls-13" x1="2217.6" y1="442.9" x2="2183.5" y2="471.2"/><path class="cls-2" d="M3399,1137.2a6.4,6.4,0,0,0-12.7-.3" transform="translate(-1252.3 -815.4)"/><line class="cls-2" x1="2186.1" y1="322.5" x2="2145.7" y2="321.8"/><line class="cls-2" x1="2133.3" y1="322.6" x2="2102" y2="321.9"/><line class="cls-13" x1="2184.6" y1="344.7" x2="2216.6" y2="375.3"/><path class="cls-16" d="M3464.8,1108.7c-12.8,3.3-26.5,12.2-27.7,26.6a2.2,2.2,0,0,0,2.3,2.2,2.2,2.2,0,0,0,2.2-2.2c1-12.2,13.8-19.5,24.4-22.2a2.3,2.3,0,0,0-1.2-4.4Z" transform="translate(-1252.3 -815.4)"/><line class="cls-9" x1="2320.9" y1="521.6" x2="2266.6" y2="541.9"/><line class="cls-17" x1="2313" y1="503" x2="2258.6" y2="523.3"/><path class="cls-9" d="M3564.6,1327.5a17.1,17.1,0,1,0,10.1-22A17.1,17.1,0,0,0,3564.6,1327.5Z" transform="translate(-1252.3 -815.4)"/><rect class="cls-6" x="3560.6" y="1320.3" width="15.3" height="15.56" transform="translate(-1491.4 516.9) rotate(-20.5)"/><line class="cls-9" x1="2235.6" y1="375.5" x2="2236.5" y2="444.6"/><path class="cls-9" d="M3488.4,1190c3.5-.2,6.2-3.9,6-8.2s-3.3-7.7-6.8-7.6" transform="translate(-1252.3 -815.4)"/><line class="cls-17" x1="2205.1" y1="331.5" x2="2235.1" y2="358.5"/><line class="cls-17" x1="2236.1" y1="290.5" x2="2206.1" y2="330.5"/><line class="cls-9" x1="2236.6" y1="252.5" x2="2236.6" y2="290.5"/><path class="cls-27" d="M3472.4,1344.5" transform="translate(-1252.3 -815.4)"/><path class="cls-36" d="M3503.9,1315.5c-8,9.6-61.2,5.3-45.2,4" transform="translate(-1252.3 -815.4)"/><path class="cls-20" d="M3482.9,1267.8c59.7.8,35.7,42.9,17.3,52.2" transform="translate(-1252.3 -815.4)"/><path class="cls-21" d="M3545.9,1300.9c-2.7,1.2-4.6,3.5-6.3,5.8l-2.5,3.6-1.4,1.8c-.1.1-.5.7-.1.2l-.3.4-1,1.1a35.4,35.4,0,0,1-9.6,8.1,45.7,45.7,0,0,1-7.4,3.5c-2.4,1.1-4.9,2.3-7.3,3.2a17.5,17.5,0,0,1-3.2,1.2,8.6,8.6,0,0,1-2.7.3h-.8c-.2,0-.7-.3-.2,0l-.6-.4h-.2l-.6-.5c-.4-.5.4.5-.2-.3l-.6-1a16,16,0,0,0-2.2-3.1c-.1-.1-.2-.3-.4-.4s-.4-.6-.2-.2-.5-1-.4-.7c-.5-1.3-.9-2.7-1.5-4a13.1,13.1,0,0,0-2.1-3.6,22.5,22.5,0,0,0-6.3-6c-2.4-1.5-5.2-2.2-7.7-3.6a5.3,5.3,0,0,1-2-1.9c-.5-.9-.8-1.5-.4-2.2s.3-.3.2-.2l.5-.5,1.3-.9a11.8,11.8,0,0,0,3.1-3.2c3.3-5.1,2.1-11.9-.2-17.1-1.1-2.5-3.1-4.9-3.4-7.7.1.1.1-1.2,0-.8s.3-.8.1-.4a2,2,0,0,1,.8-1.1h.3l.5-.2c-.4.1-.1-.1.1,0s-.4,0,0,.1-.3-.1-.4-.3,3,1.3,4.3,0,1.3-3.2,0-4.2c-2.8-2.2-6.1-1.9-8.8.3a8.9,8.9,0,0,0-2.6,8.6c.6,3.1,2.6,5.7,3.8,8.6a18.7,18.7,0,0,1,1.5,7,7.7,7.7,0,0,1-.5,2.9,5.1,5.1,0,0,1-1.4,2.3c-1,1-2.3,1.6-3.3,2.6a7.2,7.2,0,0,0-2,4.8,9.9,9.9,0,0,0,4.2,8c2.5,1.9,5.6,2.6,8.3,4.1a16.7,16.7,0,0,1,5.6,5.3,13.7,13.7,0,0,1,1.6,3.2,15,15,0,0,0,1.8,4.1,7.6,7.6,0,0,0,1.1,1.4l.6.7a33,33,0,0,0,2.6,3.9,8.8,8.8,0,0,0,6.8,3c5.5.1,10.6-3.2,15.4-5.2a52,52,0,0,0,15.1-8.8,59,59,0,0,0,8.5-10.2,17.7,17.7,0,0,1,1.6-2.2c0-.1.1-.2.2-.3s0,0,.1-.1l.7-.9,1.7-1.5.4-.3,1-.5a3.1,3.1,0,0,0,1.1-4.2,3,3,0,0,0-4.1-1Z" transform="translate(-1252.3 -815.4)"/><path class="cls-21" d="M3426.7,1085.7c-14.3,5.1-29.1,10.2-41.4,19.5s-20.5,20.4-22.6,34.5a40.8,40.8,0,0,0,2.5,21.3c2.8,7,7,13.1,11.7,18.9,9.3,11.1,20.4,20.7,31.2,30.4s21.2,19.4,30.1,30.7a88.7,88.7,0,0,1,6.1,8.6,10.6,10.6,0,0,1,1.6,4.3c.1,1.3.4,2.6.4,4v1.1a6.4,6.4,0,0,1-.2.7c0,.2-.1.3-.1.4s.1-.2-.1,0a12.2,12.2,0,0,1-2.5,3.1,70.9,70.9,0,0,0-5.7,6.6c-4.6,5.8-8.8,13.5-6.6,21.2,1.7,6,6.9,10.1,12.3,12.7a65.8,65.8,0,0,0,18.5,5.5,110.6,110.6,0,0,0,14.1,1.6h1.4c3.8-.1,3.8-6.1,0-6a71.7,71.7,0,0,1-10.4-.8h-.4c-.2,0,.7.1,0,.1l-1-.2-2.1-.3-4.4-.9a57.3,57.3,0,0,1-9-2.5l-2.1-.8h0l-.5-.2-1.1-.5-3.7-2.2-.8-.5-.4-.3c-.6-.4.4.4-.1,0a8.6,8.6,0,0,1-1.4-1.3l-1.4-1.4c-.3-.4,0-.2.1.1l-.2-.4-.6-.8c-.1-.3-.3-.5-.4-.8s-.5-1.1-.3-.6-.1-.4-.2-.6l-.3-.9c0-.3-.1-.6-.1-.9s0,.4,0,.2a4.3,4.3,0,0,0-.1-.5v-2.1a1.1,1.1,0,0,0,.1-.5c0-.6-.1.6,0,.1s.1-.8.2-1.2a15.5,15.5,0,0,1,.7-2.3l.3-.7c.2-.5-.3.5,0-.1l.6-1.2a17.3,17.3,0,0,1,1.5-2.7l1.8-2.8.6-.8c.2-.2,0,0,0,.1l.3-.4,1.2-1.5c2-2.3,4.3-4.3,6.1-6.6a11,11,0,0,0,2.4-7.8c-.3-3.4-.6-6.9-2.4-9.9-3.5-6.1-8.2-11.7-12.8-17s-9.7-10.3-14.9-15.2c-10.3-9.7-21.1-18.8-31.2-28.8s-19.6-20.7-22.3-34.5,3.7-25.9,12.6-35.1,23.5-16.6,36.8-21.5l10.2-3.7a2.9,2.9,0,0,0,2.1-3.7,3.1,3.1,0,0,0-3.7-2.1Z" transform="translate(-1252.3 -815.4)"/><path class="cls-20" d="M3547.8,1304.4c-7.9-4.5,32.9-109.6,7.9-138.9" transform="translate(-1252.3 -815.4)"/><path class="cls-20" d="M3431.2,1086.9c97.7-17.3,133,88.2,127.5,88.6" transform="translate(-1252.3 -815.4)"/><polygon class="cls-23" points="2090.8 492.2 2144.7 491.8 2145.2 478.6 2091.2 479.1 2090.8 492.2"/><rect class="cls-22" x="3431.3" y="1359.3" width="54" height="11" transform="translate(2941.7 4193.7) rotate(-123)"/><line class="cls-11" x1="2107.5" y1="568.9" x2="2107.8" y2="529"/><line class="cls-11" x1="2127.7" y1="568.5" x2="2128" y2="529.1"/><path class="cls-11" d="M3370.3,1314.3a17.2,17.2,0,1,0,17,17.3A17.2,17.2,0,0,0,3370.3,1314.3Z" transform="translate(-1252.3 -815.4)"/><rect class="cls-30" x="3366.1" y="1340" width="8.6" height="15.3" transform="translate(754.3 3896.2) rotate(-89.7)"/><line class="cls-17" x1="2236.8" y1="443" x2="2258.9" y2="523.6"/><path class="cls-38" d="M3398.5,1300.4c13.1,9,26.7,18.4,36,31.6a61.8,61.8,0,0,1,6.5,11.8c.7,1.8,3.6,1,2.9-.8-6.3-15.7-19-27.2-32.3-37-3.8-2.8-7.7-5.5-11.6-8.2-1.6-1.1-3.1,1.5-1.5,2.6Z" transform="translate(-1252.3 -815.4)"/><path class="cls-1" d="M3103.8,1048" transform="translate(-1252.3 -815.4)"/><path class="cls-1" d="M3090.8,1054.9" transform="translate(-1252.3 -815.4)"/><path class="cls-1" d="M2840.3,1052" transform="translate(-1252.3 -815.4)"/><path class="cls-1" d="M2841.4,1052" transform="translate(-1252.3 -815.4)"/><path class="cls-2" d="M2914.4,910.9" transform="translate(-1252.3 -815.4)"/><line class="cls-13" x1="1735.1" y1="124.3" x2="1735.1" y2="194.5"/><path class="cls-1" d="M2898,993.3" transform="translate(-1252.3 -815.4)"/><path class="cls-14" d="M2897,973.1" transform="translate(-1252.3 -815.4)"/><line class="cls-2" x1="1734.1" y1="1.3" x2="1734.1" y2="46.6"/><path class="cls-8" d="M2779.4,1034" transform="translate(-1252.3 -815.4)"/><path class="cls-8" d="M3227.7,1021.9" transform="translate(-1252.3 -815.4)"/><path class="cls-8" d="M2808.4,1041.9" transform="translate(-1252.3 -815.4)"/><line class="cls-2" x1="1702.1" y1="221.3" x2="1556.1" y2="223.3"/><path class="cls-8" d="M2800,1044.4" transform="translate(-1252.3 -815.4)"/><path class="cls-8" d="M2808.5,1041.4" transform="translate(-1252.3 -815.4)"/><line class="cls-2" x1="1702.1" y1="94.9" x2="1621.1" y2="93.9"/><path class="cls-2" d="M2858.6,881.1a17.1,17.1,0,1,0,17.2,17.1,17.1,17.1,0,0,0-17.2-17.1" transform="translate(-1252.3 -815.4)"/><polygon class="cls-15" points="1613.2 90.3 1628.5 90.3 1628.5 77.1 1613.2 75.1 1613.2 90.3"/><path class="cls-2" d="M2779.7,973.6c0,8.8,7.7,15.9,17.2,15.9s17.1-7.1,17.1-15.9-7.7-15.8-17.1-15.8S2779.7,964.9,2779.7,973.6Z" transform="translate(-1252.3 -815.4)"/><rect class="cls-18" x="1536.9" y="166.7" width="16.5" height="8.58"/><line class="cls-2" x1="1554.9" y1="170.3" x2="1554.9" y2="224.3"/><line class="cls-2" x1="1534.5" y1="170.9" x2="1534.5" y2="224.3"/><line class="cls-13" x1="1736.6" y1="193.7" x2="1702.5" y2="222"/><path class="cls-2" d="M2918,888a6.4,6.4,0,0,0-12.7-.3" transform="translate(-1252.3 -815.4)"/><line class="cls-2" x1="1705.1" y1="73.3" x2="1664.7" y2="72.6"/><line class="cls-2" x1="1652.3" y1="73.4" x2="1621" y2="72.7"/><line class="cls-13" x1="1703.6" y1="95.5" x2="1735.6" y2="126.1"/><path class="cls-16" d="M2983.8,859.5c-12.8,3.3-26.5,12.2-27.7,26.6a2.2,2.2,0,0,0,2.3,2.2,2.2,2.2,0,0,0,2.2-2.2c1-12.2,13.8-19.5,24.4-22.2a2.3,2.3,0,0,0-1.2-4.4Z" transform="translate(-1252.3 -815.4)"/><line class="cls-9" x1="1839.9" y1="272.4" x2="1785.6" y2="292.7"/><line class="cls-17" x1="1832" y1="253.8" x2="1777.6" y2="274.1"/><path class="cls-9" d="M3083.6,1078.3a17.1,17.1,0,1,0,10.1-22A17.1,17.1,0,0,0,3083.6,1078.3Z" transform="translate(-1252.3 -815.4)"/><rect class="cls-6" x="3079.6" y="1071.1" width="15.3" height="15.56" transform="translate(-1434.6 332.9) rotate(-20.5)"/><line class="cls-9" x1="1754.6" y1="126.3" x2="1755.5" y2="195.4"/><path class="cls-9" d="M3007.4,940.8c3.5-.2,6.2-3.9,6-8.2s-3.3-7.7-6.8-7.6" transform="translate(-1252.3 -815.4)"/><line class="cls-17" x1="1724.1" y1="82.3" x2="1754.1" y2="109.3"/><line class="cls-17" x1="1755.1" y1="41.3" x2="1725.1" y2="81.3"/><line class="cls-9" x1="1755.6" y1="3.3" x2="1755.6" y2="41.3"/><path class="cls-27" d="M2991.4,1095.3" transform="translate(-1252.3 -815.4)"/><path class="cls-36" d="M3022.9,1064.3c-10.9,7.7-26.9,5.7-39.5,5.9" transform="translate(-1252.3 -815.4)"/><path class="cls-20" d="M3001.9,1018.6c59.7.8,35.7,42.9,17.3,52.2" transform="translate(-1252.3 -815.4)"/><path class="cls-21" d="M3064.9,1051.7c-2.7,1.2-4.6,3.5-6.3,5.8l-2.5,3.6-1.4,1.8c-.1.1-.5.7-.1.2l-.3.4-1,1.1a35.4,35.4,0,0,1-9.6,8.1,45.7,45.7,0,0,1-7.4,3.5c-2.4,1.1-4.9,2.3-7.3,3.2a17.5,17.5,0,0,1-3.2,1.2,8.6,8.6,0,0,1-2.7.3c-.2,0-.8-.1-.2,0h-.6c-.2-.1-.7-.3-.2,0l-.6-.4h-.2l-.6-.5c-.4-.5.4.5-.2-.3l-.6-1a16,16,0,0,0-2.2-3.1c-.1-.1-.2-.3-.4-.4s-.4-.6-.2-.2-.5-1-.4-.7c-.5-1.3-.9-2.7-1.5-4a13.1,13.1,0,0,0-2.1-3.6,22.5,22.5,0,0,0-6.3-6c-2.4-1.5-5.2-2.2-7.7-3.6a5.3,5.3,0,0,1-2-1.9c-.5-.9-.8-1.5-.4-2.2s.3-.3.2-.2l.5-.5,1.3-.9a11.8,11.8,0,0,0,3.1-3.2c3.3-5.1,2.1-11.9-.2-17.1-1.1-2.5-3.1-4.9-3.4-7.7.1.1.1-1.2,0-.8s.3-.8.1-.4a2,2,0,0,1,.8-1.1h.3l.5-.2c-.4.1-.1-.1.1,0s-.4,0,0,.1-.3-.1-.4-.3,3,1.3,4.3,0,1.3-3.2,0-4.2c-2.8-2.2-6.1-1.9-8.8.3a8.9,8.9,0,0,0-2.6,8.6c.6,3.1,2.6,5.7,3.8,8.6a18.7,18.7,0,0,1,1.5,7,7.7,7.7,0,0,1-.5,2.9,5.1,5.1,0,0,1-1.4,2.3c-1,1-2.3,1.6-3.3,2.6a7.2,7.2,0,0,0-2,4.8,9.9,9.9,0,0,0,4.2,8c2.5,1.9,5.6,2.6,8.3,4.1a16.7,16.7,0,0,1,5.6,5.3,13.7,13.7,0,0,1,1.6,3.2,15,15,0,0,0,1.8,4.1,7.6,7.6,0,0,0,1.1,1.4l.6.7a33,33,0,0,0,2.6,3.9,8.8,8.8,0,0,0,6.8,3c5.5.1,10.6-3.2,15.4-5.2a52,52,0,0,0,15.1-8.8,59,59,0,0,0,8.5-10.2,17.7,17.7,0,0,1,1.6-2.2l.2-.3c-.5.7,0,0,.1-.1l.7-.9,1.7-1.5.4-.3,1-.5a3.1,3.1,0,0,0,1.1-4.2,3,3,0,0,0-4.1-1Z" transform="translate(-1252.3 -815.4)"/><path class="cls-21" d="M2945.7,836.5c-14.3,5.1-29.1,10.2-41.4,19.5s-20.5,20.4-22.6,34.5a40.8,40.8,0,0,0,2.5,21.3c2.8,7,7,13.1,11.7,18.9,9.3,11.1,20.4,20.7,31.2,30.4s21.2,19.4,30.1,30.7a88.7,88.7,0,0,1,6.1,8.6,10.6,10.6,0,0,1,1.6,4.3c.1,1.3.4,2.6.4,4v1.1a6.4,6.4,0,0,1-.2.7c0,.2-.1.3-.1.4s.1-.2-.1,0a12.2,12.2,0,0,1-2.5,3.1,70.9,70.9,0,0,0-5.7,6.6c-4.6,5.8-8.8,13.5-6.6,21.2,1.7,6,6.9,10.1,12.3,12.7a65.8,65.8,0,0,0,18.5,5.5,110.6,110.6,0,0,0,14.1,1.6h1.4c3.8-.1,3.8-6.1,0-6a71.7,71.7,0,0,1-10.4-.8h-1.4l-2.1-.3-4.4-.9a57.3,57.3,0,0,1-9-2.5l-2.1-.8h0l-.5-.2-1.1-.5-3.7-2.2-.8-.5-.4-.3c-.6-.4.4.4-.1,0a8.6,8.6,0,0,1-1.4-1.3l-1.4-1.4c-.3-.4,0-.2.1.1l-.2-.4-.6-.8c-.1-.3-.3-.5-.4-.8s-.5-1.1-.3-.6-.1-.4-.2-.6l-.3-.9c0-.3-.1-.6-.1-.9s0,.4,0,.2a4.3,4.3,0,0,0-.1-.5v-2.1a1.1,1.1,0,0,0,.1-.5c0-.6-.1.6,0,.1s.1-.8.2-1.2a15.5,15.5,0,0,1,.7-2.3l.3-.7c.2-.5-.3.5,0-.1l.6-1.2a17.3,17.3,0,0,1,1.5-2.7l1.8-2.8.6-.8c.2-.2,0,0,0,.1l.3-.4,1.2-1.5c2-2.3,4.3-4.3,6.1-6.6a11,11,0,0,0,2.4-7.8c-.3-3.4-.6-6.9-2.4-9.9-3.5-6.1-8.2-11.7-12.8-17s-9.7-10.3-14.9-15.2c-10.3-9.7-21.1-18.8-31.2-28.8s-19.6-20.7-22.3-34.5,3.7-25.9,12.6-35.1,23.5-16.6,36.8-21.5l10.2-3.7a2.9,2.9,0,0,0,2.1-3.7,3.1,3.1,0,0,0-3.7-2.1Z" transform="translate(-1252.3 -815.4)"/><path class="cls-20" d="M3066.8,1055.2c-7.9-4.5,32.9-109.6,7.9-138.9" transform="translate(-1252.3 -815.4)"/><path class="cls-20" d="M2950.2,837.7c97.7-17.3,133,88.2,127.5,88.6" transform="translate(-1252.3 -815.4)"/><line class="cls-11" x1="1626.5" y1="319.7" x2="1626.8" y2="279.8"/><line class="cls-11" x1="1646.7" y1="319.3" x2="1647" y2="279.9"/><path class="cls-11" d="M2889.3,1065.1a17.2,17.2,0,1,0,17,17.3A17.2,17.2,0,0,0,2889.3,1065.1Z" transform="translate(-1252.3 -815.4)"/><path class="cls-28" d="M2971.7,1094.3c-5.8-11.2,1.6-20.1,11-24" transform="translate(-1252.3 -815.4)"/><line class="cls-17" x1="1755.8" y1="193.8" x2="1777.9" y2="274.4"/><line class="cls-2" x1="831.3" y1="1811" x2="725.7" y2="1811"/><line class="cls-2" x1="830.6" y1="1790.7" x2="725.7" y2="1790.7"/><path class="cls-2" d="M1947.8,2616.2a17.2,17.2,0,1,0,17.2-17A17.2,17.2,0,0,0,1947.8,2616.2Z" transform="translate(-1252.3 -815.4)"/><rect class="cls-7" x="725.8" y="1795.2" width="10.1" height="10.29"/><line class="cls-2" x1="831.7" y1="1629.6" x2="831.7" y2="1790.7"/><line class="cls-2" x1="832" y1="1631.2" x2="803.3" y2="1582.6"/><path class="cls-2" d="M2081.9,2656.5a6.4,6.4,0,0,0-6.4,6.4,6.4,6.4,0,0,0,6.4,6.3" transform="translate(-1252.3 -815.4)"/><line class="cls-2" x1="829.6" y1="1809.8" x2="829.6" y2="1841.1"/><line class="cls-2" x1="830.6" y1="1875.5" x2="830.8" y2="1915.9"/><line class="cls-2" x1="810.3" y1="1875.9" x2="810.6" y2="1916"/><path class="cls-2" d="M2073.2,2761.4a17.2,17.2,0,0,0-.2-34.3,17.2,17.2,0,0,0,.2,34.3Z" transform="translate(-1252.3 -815.4)"/><rect class="cls-18" x="2065.3" y="2721.1" width="15.2" height="15.25" transform="translate(-1269.8 -802) rotate(-0.4)"/><line class="cls-2" x1="830.7" y1="1853.5" x2="830.7" y2="1884.8"/><line class="cls-4" x1="853.5" y1="1732.4" x2="853.5" y2="1776.6"/><line class="cls-5" x1="911.3" y1="1732.1" x2="853.3" y2="1732.1"/><line class="cls-4" x1="910.4" y1="1711.8" x2="852.3" y2="1711.8"/><path class="cls-5" d="M2158.8,2535.6a17.2,17.2,0,1,0,17.2-17.1A17.1,17.1,0,0,0,2158.8,2535.6Z" transform="translate(-1252.3 -815.4)"/><rect class="cls-39" x="905.1" y="1717.2" width="10.3" height="10.49"/><line class="cls-5" x1="852.7" y1="1648.6" x2="852.7" y2="1709.7"/><path class="cls-5" d="M1979.9,2524c0,8.8,7.7,15.9,17.1,15.9s17.2-7.1,17.2-15.9-7.7-15.8-17.2-15.8S1979.9,2515.3,1979.9,2524Z" transform="translate(-1252.3 -815.4)"/><rect class="cls-7" x="737.1" y="1717.1" width="16.5" height="8.58"/><line class="cls-5" x1="755.1" y1="1720.7" x2="755.1" y2="1778.6"/><line class="cls-5" x1="734.7" y1="1721.3" x2="734.7" y2="1778.6"/><line class="cls-5" x1="853.8" y1="1777.2" x2="755.3" y2="1777.2"/><line class="cls-5" x1="734.8" y1="1778.2" x2="697.3" y2="1778.2"/><path class="cls-9" d="M2245.2,2401c-5.2,7.1-3.2,17.4,4.4,23s18,4.4,23.2-2.7,3.2-17.3-4.4-22.9S2250.4,2394,2245.2,2401Z" transform="translate(-1252.3 -815.4)"/><rect class="cls-15" x="2247.7" y="2413.6" width="8.6" height="16.45" transform="translate(-2285.2 1988.7) rotate(-53.7)"/><line class="cls-9" x1="1007.9" y1="1611.6" x2="973.6" y2="1658.3"/><line class="cls-9" x1="991.3" y1="1602.1" x2="957.4" y2="1648.3"/><line class="cls-9" x1="850.9" y1="1621.6" x2="957.2" y2="1650"/><line class="cls-9" x1="852.1" y1="1621.4" x2="823.4" y2="1572.9"/><line class="cls-11" x1="920.3" y1="1856.3" x2="872.5" y2="1856.3"/><line class="cls-11" x1="919.9" y1="1836.1" x2="872.5" y2="1836.1"/><path class="cls-11" d="M2094.6,2661.6a17.2,17.2,0,1,0,17.2-17.1A17.1,17.1,0,0,0,2094.6,2661.6Z" transform="translate(-1252.3 -815.4)"/><rect class="cls-7" x="874.2" y="1841.5" width="4.5" height="8.77"/><path class="cls-20" d="M2260.5,2443.1" transform="translate(-1252.3 -815.4)"/><path class="cls-20" d="M1942.5,2459.1" transform="translate(-1252.3 -815.4)"/><path class="cls-20" d="M1929.7,2473.2c5.7-10.2,12.7-20.2,19.7-31.2s14-20,23-29c31-33,64-63,110-73,34-7,69-1,96.1,19.1" transform="translate(-1252.3 -815.4)"/><path class="cls-20" d="M2209.5,2422.1s1.9-54.1-43.1-70.1" transform="translate(-1252.3 -815.4)"/><path class="cls-20" d="M2198.5,2494.1c-15.6,3.3-26.8,1.7-29-10" transform="translate(-1252.3 -815.4)"/><path class="cls-20" d="M2169.5,2438.1c19.5,18.3,6.5,41.1,0,46" transform="translate(-1252.3 -815.4)"/><path class="cls-20" d="M2134.5,2427.1c26.6-6.1,44.3,19.9,35,11" transform="translate(-1252.3 -815.4)"/><path class="cls-21" d="M2205.9,2422.5a124.9,124.9,0,0,1-11.2,30.6c-2.3,4.2-4.7,8.3-8.2,11.7s-6.5,5.1-10.5,4.7a15.9,15.9,0,0,1-5.9-2.5,36.9,36.9,0,0,0-7.2-3.5,22.8,22.8,0,0,0-16.2,1.5l-3.4,1.7-1.3.5-.8.2h-1.8c.2.1-1.1-.3-.7-.1s-1-.7-.7-.4l-.4-.4v-.2c-.3-1.1.1-2.3.1-3.5a10.2,10.2,0,0,0-.5-3.5,14.6,14.6,0,0,0-3.6-5.8,22.2,22.2,0,0,0-6.1-4,42.5,42.5,0,0,0-7.7-2.3,11.8,11.8,0,0,1-3.3-1.2,4.7,4.7,0,0,1-1.2-.9c.5.5-.3-.9-.1-.3l-.2-.5c-.2-.6-.1.3-.1-.3s0-.5.1-.7h0v-.5c-.1.3-.2.3-.1.1s.2-.2.2-.3h-.1c0-.1-.2.2,0,.1h.3a3,3,0,0,0-1.5-5.8c-5.2,1-6.2,7.9-3.4,11.5s9.4,4.3,14,6.2a17.2,17.2,0,0,1,5.1,3.3,6.3,6.3,0,0,1,1.6,2.3,4.8,4.8,0,0,1,.5,2.2,32.3,32.3,0,0,0-.1,4.4,6.7,6.7,0,0,0,2,4,9.5,9.5,0,0,0,6.9,2.6c3-.1,5.6-1.5,8.2-2.8a17.9,17.9,0,0,1,7.4-2.1,16.1,16.1,0,0,1,7.5,1.6c2.5,1.2,4.7,2.8,7.2,3.9a16.1,16.1,0,0,0,15.2-1.2c4.6-2.8,8.1-7.1,11-11.6a118.6,118.6,0,0,0,14.7-37.2,3,3,0,0,0-2-3.7,3,3,0,0,0-3.7,2.1Z" transform="translate(-1252.3 -815.4)"/><line class="cls-20" x1="882.2" y1="1603.7" x2="882.2" y2="1602.7"/><line class="cls-20" x1="862.2" y1="1624.7" x2="862.2" y2="1623.7"/><line class="cls-20" x1="890.2" y1="1592.7" x2="890.2" y2="1591.7"/><path class="cls-20" d="M2134.5,2427.1s-22.3-.8-20,13" transform="translate(-1252.3 -815.4)"/><rect class="cls-22" x="2198" y="2482.6" width="54" height="11" transform="translate(-1725.3 -292.4) rotate(-12.1)"/><polygon class="cls-23" points="661.8 1859.7 662.6 1805.7 649.4 1804.9 648.7 1858.9 661.8 1859.7"/><path class="cls-8" d="M2259.9,2611.5" transform="translate(-1252.3 -815.4)"/><rect class="cls-23" x="3121.6" y="882.6" width="54" height="11" transform="translate(-1255.1 -805.3) rotate(-0.2)"/><rect class="cls-15" x="3292.1" y="903.9" width="15.2" height="15.25" transform="translate(-1256.6 -799.6) rotate(-0.3)"/><text class="cls-40" transform="translate(616.3 46.3)">Pre-mRNA</text><text class="cls-40" transform="translate(52.5 459.3)"><tspan xml:space="preserve">E   Complex</tspan></text><text class="cls-40" transform="translate(0.5 924.3)"><tspan xml:space="preserve">A   Complex</tspan></text><text class="cls-40" transform="translate(22.5 1442.3)"><tspan xml:space="preserve">Pre-B   Complex</tspan></text><text class="cls-40" transform="translate(406.5 1898.7)"><tspan xml:space="preserve">B   Complex</tspan></text><text class="cls-40" transform="translate(1351.5 2140.9)">Complex</text><text class="cls-40" transform="translate(2259.6 1936.3)"><tspan xml:space="preserve">B*   Complex</tspan></text><text class="cls-40" transform="translate(2595.4 1401.3)"><tspan xml:space="preserve">C  Complex</tspan></text><text class="cls-40" transform="translate(2680.9 887.6)"><tspan xml:space="preserve">C*   Complex</tspan></text><text class="cls-40" transform="translate(2478.9 408.6)"><tspan xml:space="preserve">P   Complex</tspan></text><text class="cls-40" transform="translate(2109.9 46.2)"><tspan xml:space="preserve">ILS   Complex</tspan></text><text class="cls-41" transform="matrix(1, 0, 0, 1, 747.69, 146.62)">5<tspan class="cls-42" x="17.4" y="0">’</tspan><tspan x="22" y="0">ss</tspan></text><path class="cls-21" d="M1927.2,2480.1a447.6,447.6,0,0,0-13.2,53.4q-2.6,13.5-4.8,27c-1.5,9.3-2.8,18.6-3.4,28a167.8,167.8,0,0,0,.7,31.7,3.1,3.1,0,0,0,3,3c1.5,0,3.2-1.4,3-3-2.3-18.4-.9-37,2.1-55.3s6-35.7,10.2-53.3c2.3-10.1,5.1-20.1,8.2-29.9a3,3,0,0,0-2.1-3.7,3.2,3.2,0,0,0-3.7,2.1Z" transform="translate(-1252.3 -815.4)"/><path class="cls-21" d="M1931.5,2465.2c-1.2,4.3-2.5,8.5-3.7,12.8a3.2,3.2,0,0,0,2.1,3.7,3,3,0,0,0,3.7-2.1c1.2-4.3,2.4-8.5,3.7-12.8a3,3,0,1,0-5.8-1.6Z" transform="translate(-1252.3 -815.4)"/><text class="cls-41" transform="matrix(1, 0, 0, 1, 1037.15, 144.17)">(BPS)</text><text class="cls-43" transform="matrix(1, 0, 0, 1, 621.53, 237.73)">5’-exon</text><text class="cls-44" transform="translate(1231 234.5)">3’-exon</text><text class="cls-45" transform="matrix(-1, 0, 0, 1, 384.31, 392.94)">U1</text><text class="cls-46" transform="matrix(1, 0, 0, 1, 621.92, 745.83)">U2</text><text class="cls-47" transform="matrix(1, 0, 0, 1, 323.76, 1354.83)">U4</text><text class="cls-48" transform="matrix(1, 0, 0, 1, 394.76, 1459.83)">U6</text><text class="cls-49" transform="matrix(1, 0, 0, 1, 631.76, 1449.83)">U5</text><text class="cls-50" transform="matrix(1, 0, 0, 1, 511.76, 1500.83)">Loop I</text><text class="cls-45" transform="matrix(1, 0, 0, 1, 305.92, 706.83)">U1</text><text class="cls-41" transform="matrix(1, 0, 0, 1, 1060.1, 97.85)">A</text><text class="cls-41" transform="matrix(1, 0, 0, 1, 710.1, 355.8)">A</text><text class="cls-41" transform="matrix(1, 0, 0, 1, 682.99, 400.88)">(BPS)</text><text class="cls-41" transform="matrix(1, 0, 0, 1, 1347.33, 1937.9)">5<tspan class="cls-42" x="17.4" y="0">’</tspan><tspan x="22" y="0">ss</tspan></text><text class="cls-41" transform="matrix(1, 0, 0, 1, 1921.33, 1798.18)">5<tspan class="cls-42" x="17.4" y="0">’</tspan><tspan x="22" y="0">ss</tspan></text><text class="cls-48" transform="matrix(1, 0, 0, 1, 731.15, 1927.17)">U6</text><text class="cls-46" transform="matrix(1, 0, 0, 1, 1037.15, 1624.17)">U2</text><text class="cls-49" transform="matrix(1, 0, 0, 1, 946.15, 1856.17)">U5</text><text class="cls-47" transform="matrix(1, 0, 0, 1, 724.15, 1665.17)">U4</text><text class="cls-48" transform="matrix(1, 0, 0, 1, 1231.11, 1851.14)">U6</text><text class="cls-51" transform="matrix(1.12, 0, 0, 1, 1634.1, 1879.02)">U2</text><text class="cls-49" transform="matrix(1, 0, 0, 1, 1274.11, 2049.14)">U5</text><text class="cls-46" transform="matrix(1, 0, 0, 1, 2133.12, 1860.14)">U2</text><text class="cls-48" transform="matrix(1, 0, 0, 1, 1814.12, 1718.14)">U6</text><text class="cls-49" transform="matrix(1, 0, 0, 1, 1852.12, 1901.14)">U5</text><text class="cls-48" transform="matrix(1, 0, 0, 1, 2149.85, 1360.14)">U6</text><path class="cls-8" d="M3065.6,2630.3" transform="translate(-1252.3 -815.4)"/><path class="cls-2" d="M3065.9,2569.9c0,8.8,7.7,15.9,17.2,15.9s17.1-7.1,17.1-15.9-7.7-15.9-17.1-15.9S3065.9,2561.1,3065.9,2569.9Z" transform="translate(-1252.3 -815.4)"/><rect class="cls-7" x="1823.1" y="1762.9" width="16.5" height="8.58"/><line class="cls-2" x1="1841.1" y1="1766.5" x2="1841.1" y2="1820.5"/><line class="cls-2" x1="1820.8" y1="1767.2" x2="1820.8" y2="1820.5"/><text class="cls-46" transform="matrix(1, 0, 0, 1, 2406.85, 1581.14)">U2</text><text class="cls-49" transform="matrix(1, 0, 0, 1, 2183.85, 1540.14)">U5</text><text class="cls-52" transform="matrix(1, 0, 0, 1, 2439.36, 1269.13)">Intron lariat</text><text class="cls-52" transform="matrix(1, 0, 0, 1, 2496.54, 751.74)">Intron lariat</text><text class="cls-52" transform="matrix(1, 0, 0, 1, 2272.29, 271.31)">Intron lariat</text><text class="cls-52" transform="matrix(1, 0, 0, 1, 1465.29, 31.01)">Intron lariat</text><text class="cls-43" transform="matrix(1, 0, 0, 1, 1848.29, 124.01)">Ligated exon</text><text class="cls-48" transform="matrix(1, 0, 0, 1, 2218.07, 839.96)">U6</text><text class="cls-49" transform="matrix(1, 0, 0, 1, 2257.07, 1026.96)">U5</text><text class="cls-49" transform="matrix(1, 0, 0, 1, 2037.01, 546.96)">U5</text><text class="cls-49" transform="matrix(1, 0, 0, 1, 1553.73, 301.96)">U5</text><text class="cls-46" transform="matrix(1, 0, 0, 1, 1834.74, 222.96)">U2</text><text class="cls-46" transform="matrix(1, 0, 0, 1, 2319.01, 467.96)">U2</text><text class="cls-46" transform="matrix(1, 0, 0, 1, 2539.07, 943.96)">U2</text><text class="cls-48" transform="matrix(1, 0, 0, 1, 1951.01, 441.96)">U6</text><text class="cls-48" transform="matrix(1, 0, 0, 1, 1527.73, 124.96)">U6</text><text class="cls-41" transform="matrix(1, 0, 0, 1, 2376.83, 1012.9)">3<tspan class="cls-42" x="17.4" y="0">’</tspan><tspan x="22" y="0">ss</tspan></text><text class="cls-53" transform="matrix(1, 0, 0, 1, 1448.68, 2031.81)">(BPS)</text><text class="cls-53" transform="matrix(-1, 0, 0, 1, 1491.79, 1984.75)">A</text><path class="cls-54" d="M2048.8,1141.3c31.7-48.2,79.3-73.5,132.7-91.8" transform="translate(-1252.3 -815.4)"/><polygon points="819 323.3 799.8 320.9 788.2 305.5 782.4 351 819 323.3"/><path class="cls-55" d="M2111,1523" transform="translate(-1252.3 -815.4)"/><path class="cls-55" d="M2035.2,1669" transform="translate(-1252.3 -815.4)"/><path class="cls-56" d="M1690.4,1944.7c-7.1-50.5-2.9-130.3,6.6-143.7" transform="translate(-1252.3 -815.4)"/><polygon points="451.9 1114 437.3 1124 419.9 1120.5 443.6 1155.1 451.9 1114"/><path class="cls-57" d="M1890.1,2459.9c-32.6-21.7-84.1-68.3-89.6-104.4" transform="translate(-1252.3 -815.4)"/><polygon points="632.4 1622.5 632.8 1641.4 619.4 1654.8 664.2 1654.1 632.4 1622.5"/><path class="cls-57" d="M2406.8,2734.8c-55.4.6-124-15.5-145.3-38.3" transform="translate(-1252.3 -815.4)"/><polygon points="1140.3 1902.5 1148.7 1919.4 1142.4 1937.3 1182.6 1917.4 1140.3 1902.5"/><path class="cls-57" d="M3055,2727.3c-49.8,25.4-110.7,29.8-148.3,26.6" transform="translate(-1252.3 -815.4)"/><polygon points="1782.2 1903.3 1797.5 1914.5 1800 1933.3 1826.6 1897.3 1782.2 1903.3"/><path class="cls-57" d="M3489.3,2418.6c-11.9,39.3-48.3,90.8-97.2,117.4" transform="translate(-1252.3 -815.4)"/><polygon points="2217 1613.1 2235.4 1608.8 2251.3 1619.1 2241.2 1575.4 2217 1613.1"/><path class="cls-57" d="M3658.3,1897.3c5.2,54.4-5,129.2-21.7,148.6" transform="translate(-1252.3 -815.4)"/><polygon points="2390.5 1097.7 2406.6 1087.8 2424.9 1092.5 2401.5 1054.3 2390.5 1097.7"/><path class="cls-57" d="M3569.4,1382.9c33.3,41.4,64.4,103.3,58.8,138.3" transform="translate(-1252.3 -815.4)"/><polygon points="2312.6 589.1 2320.7 572 2338.7 566 2298.3 546.6 2312.6 589.1"/><path class="cls-57" d="M3175.6,1066.2c51.8,16.3,122.1,56.8,130.9,73.1" transform="translate(-1252.3 -815.4)"/><polygon points="1931.9 271.2 1928.9 252.5 1940.2 237.3 1895.9 244.4 1931.9 271.2"/><text class="cls-58" transform="matrix(1, 0, 0, 1, 402.58, 667.08)">Prp5</text><text class="cls-58" transform="matrix(1, 0, 0, 1, 450.02, 1657.02)">Prp28</text><text class="cls-58" transform="matrix(1, 0, 0, 1, 1036.68, 1996.04)">Brr2</text><text class="cls-58" transform="matrix(1, 0, 0, 1, 1742.68, 1988.04)">Prp2</text><text class="cls-58" transform="matrix(1, 0, 0, 1, 2462.4, 1165.02)">Prp16</text><text class="cls-58" transform="matrix(1, 0, 0, 1, 2038.68, 229.05)">Prp22</text><path class="cls-59" d="M3219.3,2654c18,7.4,36.5,8,55.8-3.9" transform="translate(-1252.3 -815.4)"/><polygon points="1968.9 1847.4 1969.2 1839.6 1975 1834.4 1956.5 1833.6 1968.9 1847.4"/><text class="cls-46" transform="matrix(1, 0, 0, 1, 638.25, 1154.76)">U2</text><text class="cls-45" transform="matrix(1, 0, 0, 1, 224.25, 1154.76)">U1</text><path class="cls-21" d="M3671.9,1792.3c-8.5-1.7-17.8-2.9-24.9,3.2-2.7,2.4-4.8,6-4.6,9.7s2.3,7.6,6.1,8.4a3.1,3.1,0,0,0,3.7-2.1,3,3,0,0,0-2.1-3.7s-.8-.3-.4-.1l-.3-.2c-.1,0-.6-.7-.3-.3l-.4-.6c-.1-.3,0,.2-.1-.3a2.9,2.9,0,0,1-.2-.9c.1.5,0-.5,0-.5v-.4a8,8,0,0,1,3.7-5.4c5.3-3.5,12.1-2.2,18.2-1a3.2,3.2,0,0,0,3.7-2.1,3,3,0,0,0-2.1-3.7Z" transform="translate(-1252.3 -815.4)"/><rect class="cls-22" x="3178" y="882.1" width="54" height="11" transform="translate(-1255.1 -805.1) rotate(-0.2)"/><path class="cls-21" d="M3466,1317.6c-8.5-1.6-17.8-2.8-24.9,3.3-2.7,2.3-4.8,6-4.6,9.7s2.3,7.5,6.1,8.4a3.1,3.1,0,0,0,3.7-2.1,3,3,0,0,0-2.1-3.7h-.4l-.3-.2c-.1-.1-.6-.7-.3-.3l-.4-.6c-.1-.3.1.1-.1-.3s-.1-.6-.2-1,0-.4,0-.4.1-1,0-.5a8.1,8.1,0,0,1,3.7-5.3c5.3-3.5,12.2-2.2,18.2-1.1a3,3,0,1,0,1.6-5.8Z" transform="translate(-1252.3 -815.4)"/><text class="cls-60" transform="translate(2246.4 1704.5)">StepⅠ：Branching</text><text class="cls-60" transform="translate(2421.6 633.3)">StepⅡ：Exon ligation</text><text class="cls-40" transform="translate(1265.7 2140.5)">B</text><text class="cls-61" transform="translate(1292.7 2131.5)">act</text><path class="cls-56" d="M1741.7,1551.9c14.9-48.9,52.1-119.5,66.4-127.7" transform="translate(-1252.3 -815.4)"/><polygon points="508.4 728.3 490.9 731.3 476.7 720.8 483.6 762.2 508.4 728.3"/><rect class="cls-30" x="2591.3" y="2835.6" width="15.5" height="15.33" transform="translate(-1508.9 4613.4) rotate(-89.7)"/><rect class="cls-30" x="2884.9" y="1091.3" width="8.6" height="15.3" transform="translate(524.2 3167.5) rotate(-89.7)"/></svg>