<?xml version="1.0" encoding="utf-8"?>
<!-- Generator: Adobe Illustrator 16.0.0, SVG Export Plug-In . SVG Version: 6.00 Build 0)  -->
<!DOCTYPE svg PUBLIC "-//W3C//DTD SVG 1.1//EN" "http://www.w3.org/Graphics/SVG/1.1/DTD/svg11.dtd">
<svg version="1.1" id="图层_1" xmlns="http://www.w3.org/2000/svg" xmlns:xlink="http://www.w3.org/1999/xlink" x="0px" y="0px"
	 width="283.464px" height="283.465px" viewBox="0 0 283.464 283.465" enable-background="new 0 0 283.464 283.465"
	 xml:space="preserve">
<g>
	<line fill="#5BB8BF" stroke="#5BB8BF" x1="134.958" y1="105.099" x2="145.054" y2="105.099"/>
	<line fill="#5BB8BF" stroke="#5BB8BF" x1="134.958" y1="111.146" x2="145.054" y2="111.146"/>
	<line fill="#5BB8BF" stroke="#5BB8BF" x1="134.958" y1="118.06" x2="145.054" y2="118.06"/>
</g>
<line fill="none" stroke="#000000" x1="134.526" y1="98.071" x2="134.526" y2="123.732"/>
<line fill="none" stroke="#000000" x1="145.54" y1="97.405" x2="145.54" y2="123.624"/>
<g>
	<line fill="#DEC45B" stroke="#DEC45B" x1="134.958" y1="145.099" x2="145.054" y2="145.099"/>
	<line fill="#DEC45B" stroke="#DEC45B" x1="134.958" y1="151.146" x2="145.054" y2="151.146"/>
	<line fill="#DEC45B" stroke="#DEC45B" x1="134.958" y1="158.06" x2="145.054" y2="158.06"/>
</g>
<line fill="none" stroke="#000000" x1="134.526" y1="138.071" x2="134.526" y2="163.732"/>
<line fill="none" stroke="#000000" x1="145.374" y1="138.239" x2="145.374" y2="164.065"/>
<line fill="none" stroke="#000000" x1="145.814" y1="122.773" x2="134.232" y2="139.065"/>
<line fill="none" stroke="#000000" x1="145.541" y1="138.405" x2="161.565" y2="138.405"/>
<g>
	<line fill="#DA95B9" stroke="#DA95B9" x1="168.562" y1="163.311" x2="168.562" y2="153.214"/>
	<line fill="#DA95B9" stroke="#DA95B9" x1="174.609" y1="163.311" x2="174.609" y2="153.214"/>
	<line fill="#DA95B9" stroke="#DA95B9" x1="181.523" y1="163.311" x2="181.523" y2="153.214"/>
</g>
<line fill="none" stroke="#000000" x1="161.898" y1="163.656" x2="187.196" y2="163.656"/>
<line fill="none" stroke="#000000" x1="161.231" y1="152.729" x2="187.087" y2="152.729"/>
<line fill="none" stroke="#000000" x1="161.565" y1="138.399" x2="161.565" y2="152.399"/>
<g>
	<line fill="#64AE33" stroke="#64AE33" x1="105.291" y1="144.764" x2="115.386" y2="144.764"/>
	<line fill="#64AE33" stroke="#64AE33" x1="105.291" y1="150.811" x2="115.386" y2="150.811"/>
	<line fill="#64AE33" stroke="#64AE33" x1="105.291" y1="157.725" x2="115.386" y2="157.725"/>
</g>
<line fill="none" stroke="#000000" x1="104.859" y1="133.398" x2="104.859" y2="175.231"/>
<line fill="none" stroke="#000000" x1="115.873" y1="137.07" x2="115.873" y2="163.289"/>
<line fill="none" stroke="#000000" x1="104.398" y1="175.065" x2="187.232" y2="175.065"/>
<line fill="none" stroke="#000000" x1="187.196" y1="163.742" x2="187.196" y2="175.065"/>
<path fill="none" stroke="#000000" d="M120.522,128.955c-1.608-1.964-4.094-3.224-6.883-3.224c-4.851,0-8.78,3.806-8.78,8.5"/>
<line fill="none" stroke="#000000" x1="134.526" y1="163.732" x2="126.689" y2="163.732"/>
<text transform="matrix(1 0 0 1 130.0015 95.2109)" font-family="'HelveticaNeue-Light'" font-size="10.368">5’</text>
<text transform="matrix(1 0 0 1 143.9165 95.2109)" font-family="'HelveticaNeue-Light'" font-size="10.368">3’</text>
<text transform="matrix(1 0 0 1 112.0835 171.71)" font-family="'HelveticaNeue-Light'" font-size="10.368">3’</text>
<text transform="matrix(1 0 0 1 189.0015 156.5449)" font-family="'HelveticaNeue-Light'" font-size="10.368">5’</text>
<text transform="matrix(1 0 0 1 149.3081 114.8271)" fill="#6EBECA" font-family="'HelveticaNeue-Light'" font-size="10">P3</text>
<text transform="matrix(1 0 0 1 170.6421 148.8281)" fill="#D08BB1" font-family="'HelveticaNeue-Light'" font-size="10">P1</text>
<text transform="matrix(1 0 0 1 89.4756 155.4932)" fill="#64AE33" font-family="'HelveticaNeue-Light'" font-size="10">P2</text>
<g>
	<circle fill="#FFFFFF" stroke="#0068B7" cx="140.313" cy="132.233" r="5.666"/>
	<text transform="matrix(1 0 0 1 137.5591 135.3281)" fill="#0068B7" font-family="'HelveticaNeue-Light'" font-size="8">G</text>
</g>
<circle fill="#FFFFFF" stroke="#000000" stroke-miterlimit="10" cx="108.611" cy="126.148" r="5.666"/>
<text transform="matrix(1 0 0 1 105.8564 129.2441)" font-family="'HelveticaNeue-Light'" font-size="8">O</text>
<g>
	<line fill="#00A1E9" stroke="#00A0E9" x1="104.434" y1="105.399" x2="116.958" y2="117.923"/>
	<path fill="#00A1E9" stroke="#00A0E9" d="M120.064,119.148c-1.06-1.974-1.623-3.379-2.351-5.083l-4.622,4.623
		c0.641,0.229,3.109,1.29,5.084,2.349c2.11,1.133,3.915,2.267,4.987,3.101C122.33,123.064,121.195,121.261,120.064,119.148z"/>
</g>
<line fill="none" stroke="#000000" x1="145.875" y1="163.656" x2="161.899" y2="163.656"/>
<line fill="none" stroke="#000000" x1="120.522" y1="128.955" x2="126.689" y2="163.732"/>
<line fill="none" stroke="#000000" stroke-width="0.5" x1="110.147" y1="199.232" x2="109.647" y2="199.232"/>
<circle fill="#FFFFFF" stroke="#FFFFFF" stroke-width="0.5" cx="121.146" cy="133.233" r="1.042"/>
<line fill="none" stroke="#000000" x1="134.689" y1="123.148" x2="115.873" y2="137.07"/>
<circle fill="#00A1E9" stroke="#00A0E9" cx="126.314" cy="129.397" r="3.281"/>
<g>
	<defs>
		<rect id="SVGID_1_" x="85.946" y="73.122" width="27.567" height="25.5"/>
	</defs>
	<clipPath id="SVGID_2_">
		<use xlink:href="#SVGID_1_"  overflow="visible"/>
	</clipPath>
	<g clip-path="url(#SVGID_2_)">
		<defs>
			<rect id="SVGID_3_" x="85.946" y="73.122" width="27.567" height="25.5"/>
		</defs>
		<clipPath id="SVGID_4_">
			<use xlink:href="#SVGID_3_"  overflow="visible"/>
		</clipPath>
		<polygon clip-path="url(#SVGID_4_)" fill="#050000" points="88.53,92.592 87.393,90.146 99.557,85.77 99.833,85.941 99.557,86.39 
					"/>
		<polygon clip-path="url(#SVGID_4_)" fill="#050000" points="88.461,82.771 89.461,80.291 89.942,80.531 88.978,82.943 		"/>
		<polygon clip-path="url(#SVGID_4_)" fill="#050000" points="90.288,83.288 91.149,81.186 91.596,81.427 90.77,83.426 		"/>
		<polygon clip-path="url(#SVGID_4_)" fill="#050000" points="92.113,83.805 92.803,82.082 93.25,82.322 92.596,83.942 		"/>
		<polygon clip-path="url(#SVGID_4_)" fill="#050000" points="93.94,84.321 94.458,82.979 94.94,83.219 94.422,84.46 		"/>
		<polygon clip-path="url(#SVGID_4_)" fill="#050000" points="95.733,84.839 96.145,83.873 96.594,84.115 96.25,84.977 		"/>
		<polygon clip-path="url(#SVGID_4_)" fill="#050000" points="97.559,85.355 97.799,84.77 98.249,85.012 98.076,85.493 		"/>
		<polygon clip-path="url(#SVGID_4_)" fill="#050000" points="110.17,80.291 111.205,82.771 110.688,82.943 109.723,80.531 		"/>
		<polygon clip-path="url(#SVGID_4_)" fill="#050000" points="108.516,81.186 109.378,83.288 108.862,83.426 108.069,81.427 		"/>
		<polygon clip-path="url(#SVGID_4_)" fill="#050000" points="106.863,82.082 107.55,83.805 107.036,83.942 106.379,82.322 		"/>
		<polygon clip-path="url(#SVGID_4_)" fill="#050000" points="105.174,82.979 105.725,84.321 105.242,84.46 104.725,83.219 		"/>
		<polygon clip-path="url(#SVGID_4_)" fill="#050000" points="103.52,83.873 103.899,84.839 103.417,84.977 103.073,84.115 		"/>
		<polygon clip-path="url(#SVGID_4_)" fill="#050000" points="101.866,84.77 102.108,85.355 101.59,85.493 101.383,85.012 		"/>
		<polygon clip-path="url(#SVGID_4_)" fill="#050000" points="111.791,90.18 110.618,92.592 100.075,86.39 99.833,85.941 
			100.075,85.77 		"/>
		<polygon clip-path="url(#SVGID_4_)" fill="#050000" points="99.557,74.707 100.075,74.707 100.075,85.77 99.833,85.941 
			99.557,85.77 		"/>
		<polygon clip-path="url(#SVGID_4_)" fill="#050000" points="100.075,97.175 99.557,97.175 99.557,86.39 99.833,85.941 
			100.075,86.39 		"/>
	</g>
</g>
<circle fill="#2AB06E" cx="99.557" cy="86.39" r="4"/>
<circle fill="#E7271C" cx="87.057" cy="91.89" r="1.5"/>
<circle fill="#E7271C" cx="87.557" cy="79.89" r="1.5"/>
<circle fill="#E7271C" cx="112.557" cy="79.89" r="1.5"/>
<circle fill="#E7271C" cx="100.057" cy="72.89" r="1.5"/>
<circle fill="#E7271C" cx="100.057" cy="98.89" r="1.5"/>
<circle fill="#E7271C" cx="112.557" cy="91.39" r="1.5"/>
<text transform="matrix(1 0 0 1 103.2666 77.6338)" font-family="'HelveticaNeue-Light'" font-size="6">2+</text>
<text transform="matrix(1 0 0 1 147.9761 155.4932)" fill="#DEC45B" font-family="'HelveticaNeue-Light'" font-size="10">PS</text>
</svg>
