<svg width="354" height="323" xmlns="http://www.w3.org/2000/svg" xmlns:xlink="http://www.w3.org/1999/xlink" overflow="hidden"><defs><clipPath id="clip0"><rect x="371" y="196" width="354" height="323"/></clipPath><clipPath id="clip1"><rect x="372" y="197" width="352" height="322"/></clipPath><clipPath id="clip2"><rect x="372" y="197" width="352" height="323"/></clipPath><clipPath id="clip3"><rect x="446" y="268" width="36" height="37"/></clipPath><clipPath id="clip4"><rect x="446" y="268" width="36" height="37"/></clipPath><clipPath id="clip5"><rect x="446" y="268" width="36" height="37"/></clipPath><clipPath id="clip6"><rect x="446" y="268" width="36" height="37"/></clipPath><clipPath id="clip7"><rect x="446" y="268" width="36" height="37"/></clipPath><clipPath id="clip8"><rect x="446" y="268" width="36" height="37"/></clipPath><clipPath id="clip9"><rect x="446" y="268" width="36" height="37"/></clipPath><clipPath id="clip10"><rect x="446" y="268" width="36" height="37"/></clipPath><clipPath id="clip11"><rect x="446" y="268" width="36" height="37"/></clipPath><clipPath id="clip12"><rect x="446" y="268" width="36" height="37"/></clipPath><clipPath id="clip13"><rect x="446" y="268" width="36" height="37"/></clipPath><clipPath id="clip14"><rect x="446" y="268" width="36" height="37"/></clipPath><clipPath id="clip15"><rect x="446" y="268" width="36" height="37"/></clipPath><clipPath id="clip16"><rect x="446" y="268" width="36" height="37"/></clipPath><clipPath id="clip17"><rect x="446" y="268" width="36" height="37"/></clipPath><clipPath id="clip18"><rect x="446" y="268" width="36" height="37"/></clipPath><clipPath id="clip19"><rect x="446" y="268" width="36" height="37"/></clipPath></defs><g clip-path="url(#clip0)" transform="translate(-371 -196)"><g clip-path="url(#clip1)"><g clip-path="url(#clip2)"><path d="M1239.41 1501 1252.36 1501" stroke="#5BB8BF" stroke-width="1.28251" fill="none" transform="matrix(1 0 0 1.10715 -730.185 -1347.83)"/><path d="M1239.41 1508.76 1252.36 1508.76" stroke="#5BB8BF" stroke-width="1.28251" fill="none" transform="matrix(1 0 0 1.10715 -730.185 -1347.83)"/><path d="M1239.41 1517.63 1252.36 1517.63" stroke="#5BB8BF" stroke-width="1.28251" fill="none" transform="matrix(1 0 0 1.10715 -730.185 -1347.83)"/><path d="M1238.85 1491.99 1238.85 1524.9" stroke="#000000" stroke-width="1.28251" fill="none" transform="matrix(1 0 0 1.10715 -730.185 -1347.83)"/><path d="M1252.98 1491.14 1252.98 1524.76" stroke="#000000" stroke-width="1.28251" fill="none" transform="matrix(1 0 0 1.10715 -730.185 -1347.83)"/><path d="M1239.41 1552.3 1252.36 1552.3" stroke="#DEC45B" stroke-width="1.28251" fill="none" transform="matrix(1 0 0 1.10715 -730.185 -1347.83)"/><path d="M1239.41 1560.06 1252.36 1560.06" stroke="#DEC45B" stroke-width="1.28251" fill="none" transform="matrix(1 0 0 1.10715 -730.185 -1347.83)"/><path d="M1239.41 1568.93 1252.36 1568.93" stroke="#DEC45B" stroke-width="1.28251" fill="none" transform="matrix(1 0 0 1.10715 -730.185 -1347.83)"/><path d="M1238.85 1543.29 1238.85 1576.2" stroke="#000000" stroke-width="1.28251" fill="none" transform="matrix(1 0 0 1.10715 -730.185 -1347.83)"/><path d="M1252.77 1543.51 1252.77 1576.63" stroke="#000000" stroke-width="1.28251" fill="none" transform="matrix(1 0 0 1.10715 -730.185 -1347.83)"/><path d="M1253.33 1523.67 1238.48 1544.57" stroke="#000000" stroke-width="1.28251" fill="none" transform="matrix(1 0 0 1.10715 -730.185 -1347.83)"/><path d="M1252.98 1543.72 1273.53 1543.72" stroke="#000000" stroke-width="1.28251" fill="none" transform="matrix(1 0 0 1.10715 -730.185 -1347.83)"/><path d="M1282.51 1575.66 1282.51 1562.71" stroke="#DA95B9" stroke-width="1.28251" fill="none" transform="matrix(1 0 0 1.10715 -730.185 -1347.83)"/><path d="M1290.26 1575.66 1290.26 1562.71" stroke="#DA95B9" stroke-width="1.28251" fill="none" transform="matrix(1 0 0 1.10715 -730.185 -1347.83)"/><path d="M1299.13 1575.66 1299.13 1562.71" stroke="#DA95B9" stroke-width="1.28251" fill="none" transform="matrix(1 0 0 1.10715 -730.185 -1347.83)"/><path d="M1273.96 1576.11 1306.4 1576.11" stroke="#000000" stroke-width="1.28251" fill="none" transform="matrix(1 0 0 1.10715 -730.185 -1347.83)"/><path d="M1273.1 1562.09 1306.27 1562.09" stroke="#000000" stroke-width="1.28251" fill="none" transform="matrix(1 0 0 1.10715 -730.185 -1347.83)"/><path d="M1273.53 1543.71 1273.53 1561.67" stroke="#000000" stroke-width="1.28251" fill="none" transform="matrix(1 0 0 1.10715 -730.185 -1347.83)"/><path d="M1201.36 1551.87 1214.31 1551.87" stroke="#64AE33" stroke-width="1.28251" fill="none" transform="matrix(1 0 0 1.10715 -730.185 -1347.83)"/><path d="M1201.36 1559.63 1214.31 1559.63" stroke="#64AE33" stroke-width="1.28251" fill="none" transform="matrix(1 0 0 1.10715 -730.185 -1347.83)"/><path d="M1201.36 1568.5 1214.31 1568.5" stroke="#64AE33" stroke-width="1.28251" fill="none" transform="matrix(1 0 0 1.10715 -730.185 -1347.83)"/><path d="M1200.81 1537.3 1200.81 1590.95" stroke="#000000" stroke-width="1.28251" fill="none" transform="matrix(1 0 0 1.10715 -730.185 -1347.83)"/><path d="M1214.93 1542.01 1214.93 1575.63" stroke="#000000" stroke-width="1.28251" fill="none" transform="matrix(1 0 0 1.10715 -730.185 -1347.83)"/><path d="M1200.21 1590.74 1306.45 1590.74" stroke="#000000" stroke-width="1.28251" fill="none" transform="matrix(1 0 0 1.10715 -730.185 -1347.83)"/><path d="M1306.4 1576.22 1306.4 1590.74" stroke="#000000" stroke-width="1.28251" fill="none" transform="matrix(1 0 0 1.10715 -730.185 -1347.83)"/><path d="M1220.89 1531.6C1218.83 1529.08 1215.64 1527.47 1212.07 1527.47 1205.85 1527.47 1200.81 1532.35 1200.81 1538.37" stroke="#000000" stroke-width="1.28251" fill="none" transform="matrix(1 0 0 1.10715 -730.185 -1347.83)"/><path d="M1238.85 1576.2 1228.8 1576.2" stroke="#000000" stroke-width="1.28251" fill="none" transform="matrix(1 0 0 1.10715 -730.185 -1347.83)"/><text font-family="Arial,Arial_MSFontService,sans-serif" font-weight="400" font-size="10" transform="matrix(1.28251 0 0 1.41993 502.867 300)">5<tspan font-size="10" x="6.00001" y="0">’</tspan><tspan font-size="10" x="13.915" y="0">3</tspan><tspan font-size="10" x="19.915" y="0">’</tspan><tspan font-size="10" x="-17.918" y="76.7644">3</tspan><tspan font-size="10" x="-11.918" y="76.7644">’</tspan><tspan font-size="10" x="59.0005" y="61.2707">5</tspan><tspan font-size="10" x="65.0005" y="61.2707">’</tspan><tspan fill="#6EBECA" font-size="10" x="19.3071" y="19.7193">P</tspan><tspan fill="#6EBECA" font-size="10" x="26.3071" y="19.7193">3</tspan><tspan fill="#D08BB1" font-size="10" x="40.6411" y="53.5238">P</tspan><tspan fill="#D08BB1" font-size="10" x="47.6411" y="53.5238">1</tspan><tspan fill="#64AE33" font-size="10" x="-40.5259" y="60.5664">P</tspan><tspan fill="#64AE33" font-size="10" x="-33.5259" y="60.5664">2</tspan></text><path d="M1253.54 1535.8C1253.54 1539.82 1250.29 1543.07 1246.28 1543.07 1242.26 1543.07 1239.01 1539.82 1239.01 1535.8 1239.01 1531.79 1242.26 1528.54 1246.28 1528.54 1250.29 1528.54 1253.54 1531.79 1253.54 1535.8Z" stroke="#0068B7" stroke-width="1.28251" fill="#FFFFFF" transform="matrix(1 0 0 1.10715 -730.185 -1347.83)"/><text fill="#0068B7" font-family="Arial,Arial_MSFontService,sans-serif" font-weight="400" font-size="8" transform="matrix(1.28251 0 0 1.41993 512.56 357)">G</text><path d="M1212.88 1528C1212.88 1532.01 1209.63 1535.27 1205.62 1535.27 1201.6 1535.27 1198.35 1532.01 1198.35 1528 1198.35 1523.99 1201.6 1520.73 1205.62 1520.73 1209.63 1520.73 1212.88 1523.99 1212.88 1528Z" stroke="#000000" stroke-width="1.28251" stroke-miterlimit="10" fill="#FFFFFF" transform="matrix(1 0 0 1.10715 -730.185 -1347.83)"/><text font-family="Arial,Arial_MSFontService,sans-serif" font-weight="400" font-size="8" transform="matrix(1.28251 0 0 1.41993 471.901 348)">O</text><path d="M1200.26 1501.39 1216.32 1517.45" stroke="#00A0E9" stroke-width="1.28251" fill="#00A1E9" transform="matrix(1 0 0 1.10715 -730.185 -1347.83)"/><path d="M1220.31 1519.02C1218.95 1516.49 1218.23 1514.69 1217.29 1512.5L1211.36 1518.43C1212.19 1518.73 1215.35 1520.09 1217.88 1521.45 1220.59 1522.9 1222.91 1524.35 1224.28 1525.42 1223.21 1524.05 1221.76 1521.73 1220.31 1519.02Z" stroke="#00A0E9" stroke-width="1.28251" fill="#00A1E9" transform="matrix(1 0 0 1.10715 -730.185 -1347.83)"/><path d="M1253.41 1576.11 1273.96 1576.11" stroke="#000000" stroke-width="1.28251" fill="none" transform="matrix(1 0 0 1.10715 -730.185 -1347.83)"/><path d="M1220.89 1531.6 1228.8 1576.2" stroke="#000000" stroke-width="1.28251" fill="none" transform="matrix(1 0 0 1.10715 -730.185 -1347.83)"/><path d="M1207.59 1621.73 1206.95 1621.73" stroke="#000000" stroke-width="0.641254" fill="none" transform="matrix(1 0 0 1.10715 -730.185 -1347.83)"/><path d="M1223.03 1537.09C1223.03 1537.83 1222.43 1538.42 1221.7 1538.42 1220.96 1538.42 1220.36 1537.83 1220.36 1537.09 1220.36 1536.35 1220.96 1535.75 1221.7 1535.75 1222.43 1535.75 1223.03 1536.35 1223.03 1537.09Z" stroke="#FFFFFF" stroke-width="0.641254" fill="#FFFFFF" transform="matrix(1 0 0 1.10715 -730.185 -1347.83)"/><path d="M1239.06 1524.15 1214.93 1542.01" stroke="#000000" stroke-width="1.28251" fill="none" transform="matrix(1 0 0 1.10715 -730.185 -1347.83)"/><path d="M1232.53 1532.17C1232.53 1534.49 1230.65 1536.38 1228.32 1536.38 1226 1536.38 1224.11 1534.49 1224.11 1532.17 1224.11 1529.84 1226 1527.96 1228.32 1527.96 1230.65 1527.96 1232.53 1529.84 1232.53 1532.17Z" stroke="#00A0E9" stroke-width="1.28251" fill="#00A1E9" transform="matrix(1 0 0 1.10715 -730.185 -1347.83)"/><g clip-path="url(#clip3)"><g clip-path="url(#clip4)"><path d="M1179.86 1484.96 1178.41 1481.83 1194.01 1476.21 1194.36 1476.44 1194.01 1477.01Z" fill="#050000" transform="matrix(1 0 0 1.10715 -730.185 -1347.83)"/></g><g clip-path="url(#clip5)"><path d="M1179.78 1472.37 1181.06 1469.19 1181.68 1469.5 1180.44 1472.59Z" fill="#050000" transform="matrix(1 0 0 1.10715 -730.185 -1347.83)"/></g><g clip-path="url(#clip6)"><path d="M1182.12 1473.03 1183.22 1470.34 1183.8 1470.64 1182.74 1473.21Z" fill="#050000" transform="matrix(1 0 0 1.10715 -730.185 -1347.83)"/></g><g clip-path="url(#clip7)"><path d="M1184.46 1473.69 1185.35 1471.49 1185.92 1471.79 1185.08 1473.87Z" fill="#050000" transform="matrix(1 0 0 1.10715 -730.185 -1347.83)"/></g><g clip-path="url(#clip8)"><path d="M1186.8 1474.36 1187.47 1472.64 1188.08 1472.94 1187.42 1474.54Z" fill="#050000" transform="matrix(1 0 0 1.10715 -730.185 -1347.83)"/></g><g clip-path="url(#clip9)"><path d="M1189.1 1475.02 1189.63 1473.78 1190.21 1474.09 1189.77 1475.2Z" fill="#050000" transform="matrix(1 0 0 1.10715 -730.185 -1347.83)"/></g><g clip-path="url(#clip10)"><path d="M1191.45 1475.68 1191.75 1474.93 1192.33 1475.24 1192.11 1475.86Z" fill="#050000" transform="matrix(1 0 0 1.10715 -730.185 -1347.83)"/></g><g clip-path="url(#clip11)"><path d="M1207.62 1469.19 1208.94 1472.37 1208.28 1472.59 1207.05 1469.5Z" fill="#050000" transform="matrix(1 0 0 1.10715 -730.185 -1347.83)"/></g><g clip-path="url(#clip12)"><path d="M1205.5 1470.34 1206.6 1473.03 1205.94 1473.21 1204.92 1470.64Z" fill="#050000" transform="matrix(1 0 0 1.10715 -730.185 -1347.83)"/></g><g clip-path="url(#clip13)"><path d="M1203.38 1471.49 1204.26 1473.69 1203.6 1473.87 1202.76 1471.79Z" fill="#050000" transform="matrix(1 0 0 1.10715 -730.185 -1347.83)"/></g><g clip-path="url(#clip14)"><path d="M1201.21 1472.64 1201.92 1474.36 1201.3 1474.54 1200.64 1472.94Z" fill="#050000" transform="matrix(1 0 0 1.10715 -730.185 -1347.83)"/></g><g clip-path="url(#clip15)"><path d="M1199.09 1473.78 1199.57 1475.02 1198.96 1475.2 1198.52 1474.09Z" fill="#050000" transform="matrix(1 0 0 1.10715 -730.185 -1347.83)"/></g><g clip-path="url(#clip16)"><path d="M1196.97 1474.93 1197.28 1475.68 1196.61 1475.86 1196.35 1475.24Z" fill="#050000" transform="matrix(1 0 0 1.10715 -730.185 -1347.83)"/></g><g clip-path="url(#clip17)"><path d="M1209.7 1481.87 1208.19 1484.96 1194.67 1477.01 1194.36 1476.44 1194.67 1476.21Z" fill="#050000" transform="matrix(1 0 0 1.10715 -730.185 -1347.83)"/></g><g clip-path="url(#clip18)"><path d="M1194.01 1462.03 1194.67 1462.03 1194.67 1476.21 1194.36 1476.44 1194.01 1476.21Z" fill="#050000" transform="matrix(1 0 0 1.10715 -730.185 -1347.83)"/></g><g clip-path="url(#clip19)"><path d="M1194.67 1490.84 1194.01 1490.84 1194.01 1477.01 1194.36 1476.44 1194.67 1477.01Z" fill="#050000" transform="matrix(1 0 0 1.10715 -730.185 -1347.83)"/></g></g><path d="M1199.14 1477.01C1199.14 1479.84 1196.84 1482.14 1194.01 1482.14 1191.17 1482.14 1188.88 1479.84 1188.88 1477.01 1188.88 1474.18 1191.17 1471.88 1194.01 1471.88 1196.84 1471.88 1199.14 1474.18 1199.14 1477.01Z" fill="#2AB06E" transform="matrix(1 0 0 1.10715 -730.185 -1347.83)"/><path d="M1179.9 1484.06C1179.9 1485.13 1179.04 1485.99 1177.98 1485.99 1176.91 1485.99 1176.05 1485.13 1176.05 1484.06 1176.05 1483 1176.91 1482.14 1177.98 1482.14 1179.04 1482.14 1179.9 1483 1179.9 1484.06Z" fill="#E7271C" transform="matrix(1 0 0 1.10715 -730.185 -1347.83)"/><path d="M1180.54 1468.67C1180.54 1469.74 1179.68 1470.6 1178.62 1470.6 1177.56 1470.6 1176.69 1469.74 1176.69 1468.67 1176.69 1467.61 1177.56 1466.75 1178.62 1466.75 1179.68 1466.75 1180.54 1467.61 1180.54 1468.67Z" fill="#E7271C" transform="matrix(1 0 0 1.10715 -730.185 -1347.83)"/><path d="M1212.6 1468.67C1212.6 1469.74 1211.74 1470.6 1210.68 1470.6 1209.62 1470.6 1208.76 1469.74 1208.76 1468.67 1208.76 1467.61 1209.62 1466.75 1210.68 1466.75 1211.74 1466.75 1212.6 1467.61 1212.6 1468.67Z" fill="#E7271C" transform="matrix(1 0 0 1.10715 -730.185 -1347.83)"/><path d="M1196.57 1459.7C1196.57 1460.76 1195.71 1461.62 1194.65 1461.62 1193.59 1461.62 1192.73 1460.76 1192.73 1459.7 1192.73 1458.63 1193.59 1457.77 1194.65 1457.77 1195.71 1457.77 1196.57 1458.63 1196.57 1459.7Z" fill="#E7271C" transform="matrix(1 0 0 1.10715 -730.185 -1347.83)"/><path d="M1196.57 1493.04C1196.57 1494.1 1195.71 1494.96 1194.65 1494.96 1193.59 1494.96 1192.73 1494.1 1192.73 1493.04 1192.73 1491.98 1193.59 1491.12 1194.65 1491.12 1195.71 1491.12 1196.57 1491.98 1196.57 1493.04Z" fill="#E7271C" transform="matrix(1 0 0 1.10715 -730.185 -1347.83)"/><path d="M1212.6 1483.42C1212.6 1484.48 1211.74 1485.35 1210.68 1485.35 1209.62 1485.35 1208.76 1484.48 1208.76 1483.42 1208.76 1482.36 1209.62 1481.5 1210.68 1481.5 1211.74 1481.5 1212.6 1482.36 1212.6 1483.42Z" fill="#E7271C" transform="matrix(1 0 0 1.10715 -730.185 -1347.83)"/><text font-family="Arial,Arial_MSFontService,sans-serif" font-weight="400" font-size="6" transform="matrix(1.28251 0 0 1.41993 468.58 275)">2<tspan font-size="6" x="2.99998" y="0">+</tspan></text><text fill="#D08BB1" font-family="Arial,Arial_MSFontService,sans-serif" font-weight="400" font-size="10" transform="matrix(1.28251 0 0 1.41993 877.114 310)">P<tspan font-size="10" x="7.00003" y="0">1</tspan><tspan fill="#64AE33" font-size="10" x="67.332" y="-40.1429">P</tspan><tspan fill="#64AE33" font-size="10" x="74.332" y="-40.1429">2</tspan><tspan fill="#6EBECA" font-size="10" x="-16.168" y="-71.8346">P</tspan><tspan fill="#6EBECA" font-size="10" x="-9.16797" y="-71.8346">3</tspan><tspan fill="#0B318F" font-size="8" x="59" y="88.7369">G</tspan><tspan fill="#0B318F" font-size="8" x="65" y="88.7369">32</tspan><tspan fill="#0B318F" font-size="8" x="44" y="176.769">A</tspan><tspan fill="#0B318F" font-size="8" x="49" y="176.769">33</tspan><tspan fill="#0B318F" font-size="8" x="57.104" y="176.769"> </tspan><tspan fill="#0B318F" font-size="8" x="3.49799" y="119.02">G</tspan><tspan fill="#0B318F" font-size="8" x="9.49801" y="119.02">40</tspan><tspan fill="#0B318F" font-size="8" x="11.498" y="173.952">G</tspan><tspan fill="#0B318F" font-size="8" x="17.498" y="173.952">42</tspan></text></g></g></g></svg>