<svg id="图层_1" data-name="图层 1" xmlns="http://www.w3.org/2000/svg" viewBox="0 0 252.6 243.1"><defs><style>.cls-1,.cls-10,.cls-11,.cls-13,.cls-14,.cls-15,.cls-2,.cls-5,.cls-6,.cls-7,.cls-8,.cls-9{fill:none;}.cls-1,.cls-2{stroke:#231815;}.cls-1{stroke-width:0.5px;}.cls-3{fill:#fff;stroke:#fff;}.cls-4{fill:#231815;}.cls-5{stroke:#e897c5;}.cls-10,.cls-11,.cls-13,.cls-14,.cls-15,.cls-5,.cls-6,.cls-7,.cls-8,.cls-9{stroke-miterlimit:10;}.cls-6{stroke:#ef9bcb;}.cls-7{stroke:#ccb355;}.cls-8{stroke:#090;}.cls-9{stroke:#56e8e8;}.cls-10{stroke:#e80000;}.cls-11{stroke:#f48e33;}.cls-12{stroke:#000;}.cls-13{stroke:#0404fe;}.cls-14{stroke:#0a81f9;}.cls-15{stroke:#f4007a;}.cls-16,.cls-17,.cls-18,.cls-19,.cls-20,.cls-21,.cls-22,.cls-23,.cls-24,.cls-25{font-size:10px;font-family:AdobeFangsongStd-Regular, AdobeFangsongStd Regular-GBpc-EUC-H;}.cls-17{fill:#eb99c8;}.cls-18{fill:#0981f9;}.cls-19{fill:#ccb355;}.cls-20{fill:#090;}.cls-21{fill:#f4007a;}.cls-22{fill:#0404fe;}.cls-23{fill:#56e8e8;}.cls-24{fill:#e80000;}.cls-25{fill:#f48e33;}</style></defs><line class="cls-1" x1="114.2" y1="205.3" x2="114.2" y2="228.1"/><line class="cls-2" x1="91.2" y1="227.6" x2="114.2" y2="227.6"/><line class="cls-2" x1="90.9" y1="239" x2="126.2" y2="239"/><line class="cls-2" x1="77" y1="238.9" x2="40.2" y2="238.9"/><line class="cls-2" x1="77.5" y1="227.5" x2="40.2" y2="227.5"/><path class="cls-2" d="M157,407.4a9.3,9.3,0,1,1-9.3-9.3A9.3,9.3,0,0,1,157,407.4Z" transform="translate(-63.4 -174.1)"/><rect class="cls-3" x="68.8" y="228.8" width="14.3" height="9.07"/><rect class="cls-3" x="82.3" y="228.8" width="14.3" height="9.07"/><path class="cls-2" d="M103.6,413.1a5.8,5.8,0,1,1,0-11.5" transform="translate(-63.4 -174.1)"/><line class="cls-2" x1="171.5" y1="239" x2="125.6" y2="239"/><line class="cls-2" x1="172.1" y1="227.6" x2="125.6" y2="227.6"/><path class="cls-2" d="M233.3,407.4a9.3,9.3,0,1,1,9.3,9.2A9.3,9.3,0,0,1,233.3,407.4Z" transform="translate(-63.4 -174.1)"/><rect class="cls-3" x="169.5" y="228.8" width="14.3" height="9.07"/><rect class="cls-3" x="179.7" y="229" width="14.3" height="9.07"/><line class="cls-2" x1="186.8" y1="228.1" x2="223.6" y2="228.1"/><line class="cls-2" x1="186.3" y1="239" x2="223.6" y2="239"/><path class="cls-2" d="M287,402.2c3.4,0,6.1,2.4,6.1,5.4s-2.7,5.5-6.1,5.5" transform="translate(-63.4 -174.1)"/><line class="cls-1" x1="114.2" y1="154.4" x2="114.3" y2="202.6"/><polygon class="cls-4" points="111.8 201.9 114.3 206.2 116.8 201.9 111.8 201.9"/><line class="cls-1" x1="125.7" y1="192.2" x2="125.7" y2="206.4"/><line class="cls-2" x1="137.1" y1="125.2" x2="137.1" y2="193.7"/><path class="cls-2" d="M189.1,299.2c-.1,22.7-.1,45.7,0,68.6" transform="translate(-63.4 -174.1)"/><path class="cls-2" d="M189.1,299.2a5.7,5.7,0,1,1,11.4,0" transform="translate(-63.4 -174.1)"/><line class="cls-1" x1="137.1" y1="201" x2="162.3" y2="201"/><polygon class="cls-4" points="161.6 203.5 165.9 201 161.6 198.5 161.6 203.5"/><line class="cls-1" x1="125.6" y1="227.6" x2="125.7" y2="209.7"/><polygon class="cls-4" points="128.2 210.4 125.7 206.1 123.2 210.4 128.2 210.4"/><line class="cls-1" x1="164.7" y1="201" x2="183.5" y2="201"/><line class="cls-2" x1="183.5" y1="132.6" x2="183.5" y2="176.1"/><line class="cls-2" x1="172.1" y1="132.6" x2="172.1" y2="176.1"/><path class="cls-2" d="M235.5,306.7a5.7,5.7,0,1,1,11.4,0" transform="translate(-63.4 -174.1)"/><path class="cls-1" d="M235.5,349.7c0,4.4-4,8-8.8,8" transform="translate(-63.4 -174.1)"/><line class="cls-1" x1="137.1" y1="193.7" x2="137.1" y2="201"/><line class="cls-1" x1="183.5" y1="184" x2="183.5" y2="201"/><polygon class="cls-4" points="181 184.7 183.5 180.4 186 184.7 181 184.7"/><line class="cls-1" x1="183.5" y1="176.1" x2="183.5" y2="181.4"/><line class="cls-1" x1="77" y1="154.4" x2="93.6" y2="154.4"/><polygon class="cls-4" points="92.9 156.9 97.2 154.4 92.9 151.9 92.9 156.9"/><line class="cls-1" x1="114.2" y1="154.4" x2="96.9" y2="154.4"/><line class="cls-2" x1="65.5" y1="193.4" x2="65.5" y2="159.4"/><line class="cls-2" x1="77" y1="193.4" x2="77" y2="159.4"/><line class="cls-1" x1="77" y1="161" x2="77" y2="154.4"/><path class="cls-2" d="M140.4,303.9v16.8" transform="translate(-63.4 -174.1)"/><line class="cls-2" x1="65.5" y1="129.6" x2="65.5" y2="165.9"/><path class="cls-2" d="M140.4,320.2a8.3,8.3,0,0,0,8.1,4.6,8.6,8.6,0,0,0,6.9-4.8" transform="translate(-63.4 -174.1)"/><path class="cls-2" d="M129.4,304.1c-3.2,0-5.8-1.7-5.8-3.9s2.6-3.9,5.8-3.9" transform="translate(-63.4 -174.1)"/><path class="cls-2" d="M139.9,304.1c3.2,0,5.9-1.7,5.9-3.9s-2.7-3.9-5.9-3.9" transform="translate(-63.4 -174.1)"/><line class="cls-2" x1="77" y1="71.1" x2="77" y2="122.2"/><line class="cls-2" x1="65.5" y1="70.5" x2="65.5" y2="122.2"/><line class="cls-2" x1="39.4" y1="121.7" x2="39.4" y2="139.9"/><line class="cls-2" x1="28.4" y1="122.1" x2="28.4" y2="185"/><line class="cls-2" x1="28.4" y1="201.4" x2="28.4" y2="150.8"/><line class="cls-2" x1="39.8" y1="201.4" x2="39.8" y2="150.8"/><path class="cls-2" d="M103.2,375.4c0,4-2.5,7.1-5.7,7.1s-5.7-3.1-5.7-7.1" transform="translate(-63.4 -174.1)"/><path class="cls-2" d="M102.7,324.9a5.8,5.8,0,1,0,0-11.5" transform="translate(-63.4 -174.1)"/><path class="cls-2" d="M92.3,296.2c-3.3,0-5.9-1.8-5.9-3.9s2.6-3.9,5.9-3.9" transform="translate(-63.4 -174.1)"/><path class="cls-2" d="M102.8,296.2c3.2,0,5.8-1.8,5.8-3.9s-2.6-3.9-5.8-3.9" transform="translate(-63.4 -174.1)"/><line class="cls-2" x1="39.8" y1="70.5" x2="39.8" y2="114.7"/><line class="cls-2" x1="28.4" y1="69.9" x2="28.4" y2="114.7"/><line class="cls-2" x1="172.1" y1="104.5" x2="172.1" y2="63.1"/><line class="cls-2" x1="183.5" y1="104.5" x2="183.5" y2="63.1"/><path class="cls-2" d="M246.9,278.5a5.7,5.7,0,1,1-11.4,0" transform="translate(-63.4 -174.1)"/><line class="cls-1" x1="183.5" y1="63.1" x2="183.5" y2="57.3"/><line class="cls-1" x1="172.1" y1="63.1" x2="172.1" y2="57.3"/><line class="cls-2" x1="172.1" y1="24.2" x2="172.1" y2="57.3"/><line class="cls-1" x1="171.6" y1="24.2" x2="183.5" y2="24.2"/><polygon class="cls-4" points="182.8 26.7 187.1 24.2 182.8 21.7 182.8 26.7"/><line class="cls-1" x1="187.1" y1="24.2" x2="200.3" y2="24.2"/><line class="cls-1" x1="200.3" y1="24.2" x2="200.3" y2="109.7"/><polygon class="cls-4" points="197.8 108.9 200.3 113.3 202.8 108.9 197.8 108.9"/><line class="cls-1" x1="200.3" y1="110.2" x2="200.3" y2="176.4"/><line class="cls-1" x1="200.3" y1="176.4" x2="205" y2="176.4"/><polygon class="cls-4" points="204.2 178.9 208.6 176.4 204.2 173.9 204.2 178.9"/><line class="cls-1" x1="183.5" y1="57.3" x2="191.5" y2="57.3"/><line class="cls-1" x1="191.5" y1="57.3" x2="191.5" y2="97"/><line class="cls-1" x1="207.3" y1="176.4" x2="212.4" y2="176.4"/><line class="cls-2" x1="223.9" y1="105.4" x2="223.9" y2="176.4"/><line class="cls-2" x1="212.4" y1="104.5" x2="212.4" y2="176.4"/><line class="cls-1" x1="191.5" y1="99.4" x2="191.5" y2="181.4"/><polygon class="cls-4" points="189 100.1 191.5 95.8 194 100.1 189 100.1"/><line class="cls-1" x1="191.5" y1="181.4" x2="214.7" y2="181.4"/><line class="cls-1" x1="223.9" y1="176.4" x2="223.9" y2="181.4"/><line class="cls-1" x1="218.2" y1="181.4" x2="223.9" y2="181.4"/><polygon class="cls-4" points="219 183.9 214.7 181.4 219 178.9 219 183.9"/><line class="cls-2" x1="212.4" y1="60.2" x2="212.4" y2="95"/><path class="cls-2" d="M276.2,234.2c-3.2,0-5.8-1.7-5.8-3.9s2.6-3.9,5.8-3.9" transform="translate(-63.4 -174.1)"/><line class="cls-2" x1="212.8" y1="52.4" x2="212.4" y2="29.8"/><line class="cls-1" x1="40" y1="33.4" x2="39.8" y2="70.5"/><polygon class="cls-4" points="37.5 34.1 40 29.8 42.5 34.1 37.5 34.1"/><line class="cls-1" x1="65.6" y1="8.5" x2="65.5" y2="22.7"/><polygon class="cls-4" points="63 22 65.4 26.3 68 22 63 22"/><line class="cls-1" x1="212.4" y1="20.4" x2="212.4" y2="29.8"/><polygon class="cls-4" points="210 21.1 212.4 16.8 214.9 21.1 210 21.1"/><line class="cls-1" x1="223.9" y1="30" x2="223.9" y2="14.4"/><line class="cls-1" x1="212.6" y1="18.6" x2="212.6" y2="8.9"/><line class="cls-1" x1="223.9" y1="2.5" x2="223.9" y2="10.8"/><polygon class="cls-4" points="221.4 10.1 223.9 14.4 226.4 10.1 221.4 10.1"/><line class="cls-1" x1="65.5" y1="23.5" x2="65.6" y2="71.9"/><line class="cls-1" x1="40" y1="29.8" x2="40" y2="2.5"/><line class="cls-1" x1="223.9" y1="2.5" x2="96.4" y2="2.5"/><line class="cls-1" x1="40" y1="2.5" x2="95.2" y2="2.5"/><polygon class="cls-4" points="94.4 5 98.7 2.5 94.4 0 94.4 5"/><line class="cls-1" x1="212.6" y1="8.9" x2="127.5" y2="8.5"/><polygon class="cls-4" points="128.3 6 123.9 8.5 128.2 11 128.3 6"/><line class="cls-1" x1="123.9" y1="8.5" x2="65.6" y2="8.5"/><path class="cls-2" d="M182.8,219.2h26.3" transform="translate(-63.4 -174.1)"/><path class="cls-2" d="M139.5,219.2c10.5-.2,21.5-.2,32.5,0" transform="translate(-63.4 -174.1)"/><line class="cls-2" x1="76" y1="33.7" x2="145.7" y2="33.7"/><path class="cls-2" d="M139.5,207.8a5.9,5.9,0,0,0-6.1,5.7,5.9,5.9,0,0,0,6.1,5.7" transform="translate(-63.4 -174.1)"/><line class="cls-2" x1="160.6" y1="24.2" x2="160.6" y2="56.3"/><line class="cls-2" x1="160.6" y1="24.2" x2="145.7" y2="33.7"/><line class="cls-2" x1="145.7" y1="45.2" x2="160.6" y2="56.3"/><line class="cls-1" x1="89.6" y1="60.8" x2="77" y2="71.1"/><polygon class="cls-4" points="87.4 59.4 92.3 58.5 90.6 63.2 87.4 59.4"/><line class="cls-1" x1="92.3" y1="58.5" x2="108.6" y2="45.2"/><line class="cls-1" x1="120.2" y1="45.2" x2="76.5" y2="56.9"/><polygon class="cls-4" points="76.5 54.3 73 57.8 77.8 59.1 76.5 54.3"/><line class="cls-1" x1="28.4" y1="69.9" x2="119.4" y2="45.2"/><line class="cls-5" x1="28.4" y1="181" x2="39.7" y2="181"/><line class="cls-5" x1="28.6" y1="187.3" x2="39.8" y2="187.3"/><line class="cls-5" x1="28.6" y1="193.4" x2="39.8" y2="193.4"/><line class="cls-5" x1="28.6" y1="200.3" x2="39.8" y2="200.3"/><line class="cls-5" x1="28.4" y1="155.1" x2="39.6" y2="155.1"/><line class="cls-5" x1="28.5" y1="161.4" x2="39.7" y2="161.4"/><line class="cls-5" x1="28.5" y1="167.5" x2="39.7" y2="167.5"/><line class="cls-5" x1="28.5" y1="174.4" x2="39.7" y2="174.4"/><line class="cls-6" x1="28.3" y1="124.7" x2="39.5" y2="124.7"/><line class="cls-6" x1="28.4" y1="131.1" x2="39.7" y2="131.1"/><line class="cls-6" x1="28.4" y1="137.1" x2="39.7" y2="137.1"/><line class="cls-5" x1="28.2" y1="89.7" x2="39.5" y2="89.7"/><line class="cls-5" x1="28.4" y1="96" x2="39.6" y2="96"/><line class="cls-5" x1="28.4" y1="102" x2="39.6" y2="102"/><line class="cls-5" x1="28.4" y1="109" x2="39.6" y2="109"/><line class="cls-5" x1="28.4" y1="76.3" x2="39.6" y2="76.3"/><line class="cls-5" x1="28.4" y1="83.3" x2="39.6" y2="83.3"/><line class="cls-7" x1="65.5" y1="93.7" x2="76.7" y2="93.7"/><line class="cls-7" x1="65.6" y1="100" x2="76.9" y2="100"/><line class="cls-7" x1="65.6" y1="106.1" x2="76.9" y2="106.1"/><line class="cls-7" x1="65.6" y1="113" x2="76.9" y2="113"/><line class="cls-7" x1="65.6" y1="80.4" x2="76.9" y2="80.4"/><line class="cls-7" x1="65.6" y1="87.3" x2="76.9" y2="87.3"/><line class="cls-7" x1="65.6" y1="132.4" x2="76.8" y2="132.4"/><line class="cls-7" x1="65.7" y1="138.7" x2="76.9" y2="138.7"/><line class="cls-7" x1="65.7" y1="144.8" x2="76.9" y2="144.8"/><line class="cls-8" x1="65.6" y1="170.6" x2="76.9" y2="170.6"/><line class="cls-8" x1="65.8" y1="176.9" x2="77" y2="176.9"/><line class="cls-8" x1="65.8" y1="183" x2="77" y2="183"/><line class="cls-8" x1="65.8" y1="189.9" x2="77" y2="189.9"/><line class="cls-8" x1="65.8" y1="164.2" x2="77" y2="164.2"/><path class="cls-2" d="M128.9,367.4a5.8,5.8,0,1,0,11.5,0" transform="translate(-63.4 -174.1)"/><line class="cls-9" x1="51.2" y1="239" x2="51.2" y2="227.8"/><line class="cls-9" x1="57.5" y1="238.8" x2="57.5" y2="227.6"/><line class="cls-9" x1="63.5" y1="238.8" x2="63.5" y2="227.6"/><line class="cls-9" x1="70.4" y1="238.8" x2="70.4" y2="227.6"/><line class="cls-9" x1="44.7" y1="238.8" x2="44.7" y2="227.6"/><line class="cls-9" x1="102.8" y1="238.9" x2="102.8" y2="227.7"/><line class="cls-9" x1="109.1" y1="238.8" x2="109.1" y2="227.5"/><line class="cls-9" x1="96.3" y1="238.8" x2="96.3" y2="227.5"/><line class="cls-10" x1="142.4" y1="238.8" x2="142.4" y2="227.6"/><line class="cls-10" x1="148.7" y1="238.7" x2="148.7" y2="227.5"/><line class="cls-10" x1="154.8" y1="238.7" x2="154.8" y2="227.5"/><line class="cls-10" x1="161.7" y1="238.7" x2="161.7" y2="227.5"/><line class="cls-10" x1="136" y1="238.7" x2="136" y2="227.5"/><line class="cls-10" x1="198.8" y1="239.2" x2="198.8" y2="228"/><line class="cls-10" x1="205.1" y1="239.1" x2="205.1" y2="227.9"/><line class="cls-10" x1="211.2" y1="239.1" x2="211.2" y2="227.9"/><line class="cls-10" x1="218.1" y1="239.1" x2="218.1" y2="227.9"/><line class="cls-10" x1="192.4" y1="239.1" x2="192.4" y2="227.9"/><line class="cls-11" x1="125.7" y1="134.5" x2="136.9" y2="134.5"/><line class="cls-11" x1="125.8" y1="140.8" x2="137.1" y2="140.8"/><line class="cls-11" x1="125.8" y1="146.8" x2="137.1" y2="146.8"/><line class="cls-11" x1="125.8" y1="153.7" x2="137.1" y2="153.7"/><line class="cls-11" x1="125.8" y1="128" x2="137.1" y2="128"/><line class="cls-11" x1="125.6" y1="166.6" x2="136.9" y2="166.6"/><line class="cls-11" x1="125.8" y1="172.9" x2="137" y2="172.9"/><line class="cls-11" x1="125.8" y1="178.9" x2="137" y2="178.9"/><line class="cls-11" x1="125.8" y1="185.8" x2="137" y2="185.8"/><line class="cls-11" x1="125.8" y1="160.1" x2="137" y2="160.1"/><line class="cls-12" x1="172.1" y1="141.3" x2="183.3" y2="141.3"/><line class="cls-12" x1="172.2" y1="147.6" x2="183.5" y2="147.6"/><line class="cls-12" x1="172.2" y1="153.7" x2="183.5" y2="153.7"/><line class="cls-12" x1="172.2" y1="160.6" x2="183.5" y2="160.6"/><line class="cls-12" x1="172.2" y1="134.9" x2="183.5" y2="134.9"/><line class="cls-12" x1="172.2" y1="167.2" x2="183.5" y2="167.2"/><line class="cls-12" x1="172.2" y1="174.1" x2="183.5" y2="174.1"/><line class="cls-13" x1="212.4" y1="34.6" x2="223.7" y2="34.6"/><line class="cls-13" x1="212.4" y1="40.7" x2="223.7" y2="40.7"/><line class="cls-13" x1="212.4" y1="47.6" x2="223.7" y2="47.6"/><line class="cls-14" x1="87" y1="45.1" x2="87" y2="33.9"/><line class="cls-14" x1="93.3" y1="45" x2="93.3" y2="33.8"/><line class="cls-14" x1="99.4" y1="45" x2="99.4" y2="33.8"/><line class="cls-14" x1="80.6" y1="45" x2="80.6" y2="33.8"/><line class="cls-14" x1="129.6" y1="45.2" x2="129.6" y2="34"/><line class="cls-14" x1="135.9" y1="45.1" x2="135.9" y2="33.8"/><line class="cls-14" x1="141.9" y1="45.1" x2="141.9" y2="33.8"/><line class="cls-14" x1="123.1" y1="45.1" x2="123.1" y2="33.8"/><line class="cls-12" x1="160.7" y1="30" x2="171.9" y2="30"/><line class="cls-12" x1="160.8" y1="36.3" x2="172" y2="36.3"/><line class="cls-12" x1="160.8" y1="42.3" x2="172" y2="42.3"/><line class="cls-12" x1="160.8" y1="49.2" x2="172" y2="49.2"/><path class="cls-2" d="M287.3,204.1l-.3,47.1s21-11.7,10.6-.8l-10.3,10.9v18.1" transform="translate(-63.4 -174.1)"/><line class="cls-2" x1="212.4" y1="92.6" x2="212.4" y2="107.3"/><line class="cls-13" x1="212.4" y1="123.6" x2="223.6" y2="123.6"/><line class="cls-13" x1="212.5" y1="129.9" x2="223.7" y2="129.9"/><line class="cls-13" x1="212.5" y1="136" x2="223.7" y2="136"/><line class="cls-13" x1="212.5" y1="142.9" x2="223.7" y2="142.9"/><line class="cls-13" x1="212.5" y1="110.2" x2="223.7" y2="110.2"/><line class="cls-13" x1="212.5" y1="117.2" x2="223.7" y2="117.2"/><line class="cls-13" x1="212.3" y1="62.6" x2="223.5" y2="62.6"/><line class="cls-13" x1="212.5" y1="68.9" x2="223.7" y2="68.9"/><line class="cls-13" x1="212.5" y1="74.9" x2="223.7" y2="74.9"/><line class="cls-15" x1="172" y1="77.4" x2="183.3" y2="77.4"/><line class="cls-15" x1="172.2" y1="83.7" x2="183.4" y2="83.7"/><line class="cls-15" x1="172.2" y1="89.7" x2="183.4" y2="89.7"/><line class="cls-15" x1="172.2" y1="96.6" x2="183.4" y2="96.6"/><line class="cls-15" x1="172.2" y1="70.9" x2="183.4" y2="70.9"/><text class="cls-16" transform="translate(90 140.9)">5’</text><text class="cls-16" transform="translate(155.3 187)">3’</text><text class="cls-17" transform="translate(0 137.2)">ⅠC</text><text class="cls-18" transform="translate(80.7 27.3)">ⅠA</text><text class="cls-18" transform="translate(120.9 27.3)">ⅠB</text><text class="cls-19" transform="translate(43.7 140.9)">Ⅰ(i)</text><text class="cls-20" transform="translate(47.7 183.1)">DⅡ</text><text class="cls-21" transform="translate(146 90)">ⅠD2</text><text class="cls-22" transform="translate(224.8 58.9)">ⅠD1</text><text class="cls-22" transform="translate(223.9 130.6)">ⅠD1</text><text class="cls-23" transform="translate(83.6 217.3)">DⅢ</text><text class="cls-24" transform="translate(151 220)">DⅣ</text><text class="cls-25" transform="translate(139.8 149.3)">DⅤ</text><text class="cls-19" transform="translate(41.7 97.7)">Ⅰ(ii)</text><text class="cls-16" transform="translate(153.8 162.1)">DⅥ</text></svg>