<svg id="图层_1" data-name="图层 1" xmlns="http://www.w3.org/2000/svg" viewBox="0 0 252.6 243.09"><defs><style>.cls-1,.cls-10,.cls-11,.cls-13,.cls-14,.cls-15,.cls-2,.cls-5,.cls-6,.cls-7,.cls-8,.cls-9{fill:none;}.cls-1,.cls-2{stroke:#231815;}.cls-1{stroke-width:0.5px;}.cls-3{fill:#fff;stroke:#fff;}.cls-4{fill:#231815;}.cls-5{stroke:#e897c5;}.cls-10,.cls-11,.cls-13,.cls-14,.cls-15,.cls-5,.cls-6,.cls-7,.cls-8,.cls-9{stroke-miterlimit:10;}.cls-6{stroke:#ef9bcb;}.cls-7{stroke:#ccb355;}.cls-8{stroke:#090;}.cls-9{stroke:#56e8e8;}.cls-10{stroke:#e80000;}.cls-11{stroke:#f48e33;}.cls-12{stroke:#000;}.cls-13{stroke:#0404fe;}.cls-14{stroke:#0a81f9;}.cls-15{stroke:#f4007a;}.cls-16,.cls-17,.cls-18,.cls-19,.cls-20,.cls-21,.cls-22,.cls-23,.cls-24,.cls-25{font-size:10px;font-family:AdobeFangsongStd-Regular, AdobeFangsongStd Regular-GBpc-EUC-H;}.cls-17{fill:#eb99c8;}.cls-18{fill:#0981f9;}.cls-19{fill:#ccb355;}.cls-20{fill:#090;}.cls-21{fill:#f4007a;}.cls-22{fill:#0404fe;}.cls-23{fill:#56e8e8;}.cls-24{fill:#e80000;}.cls-25{fill:#f48e33;}</style></defs><line class="cls-1" x1="114.23" y1="205.32" x2="114.23" y2="228.11"/><line class="cls-2" x1="91.17" y1="227.58" x2="114.23" y2="227.58"/><line class="cls-2" x1="90.87" y1="239.02" x2="126.23" y2="239.02"/><line class="cls-2" x1="76.97" y1="238.94" x2="40.19" y2="238.94"/><line class="cls-2" x1="77.45" y1="227.5" x2="40.19" y2="227.5"/><path class="cls-2" d="M157,407.36a9.29,9.29,0,1,1-9.29-9.29A9.29,9.29,0,0,1,157,407.36Z" transform="translate(-63.41 -174.06)"/><rect class="cls-3" x="68.81" y="228.77" width="14.26" height="9.07"/><rect class="cls-3" x="82.34" y="228.77" width="14.26" height="9.07"/><path class="cls-2" d="M103.6,413.08a5.73,5.73,0,1,1,0-11.44" transform="translate(-63.41 -174.06)"/><line class="cls-2" x1="171.47" y1="239.02" x2="125.57" y2="239.02"/><line class="cls-2" x1="172.06" y1="227.58" x2="125.57" y2="227.58"/><path class="cls-2" d="M233.31,407.36a9.29,9.29,0,1,1,9.29,9.29A9.29,9.29,0,0,1,233.31,407.36Z" transform="translate(-63.41 -174.06)"/><rect class="cls-3" x="169.49" y="228.77" width="14.26" height="9.07"/><rect class="cls-3" x="179.69" y="229.03" width="14.26" height="9.07"/><line class="cls-2" x1="186.82" y1="228.11" x2="223.6" y2="228.11"/><line class="cls-2" x1="186.34" y1="239.02" x2="223.6" y2="239.02"/><path class="cls-2" d="M287,402.17c3.35,0,6.07,2.44,6.07,5.45s-2.72,5.46-6.07,5.46" transform="translate(-63.41 -174.06)"/><line class="cls-1" x1="114.17" y1="154.37" x2="114.27" y2="202.65"/><polygon class="cls-4" points="111.77 201.93 114.28 206.24 116.76 201.92 111.77 201.93"/><line class="cls-1" x1="125.7" y1="192.19" x2="125.73" y2="206.35"/><line class="cls-2" x1="137.11" y1="125.15" x2="137.11" y2="193.73"/><path class="cls-2" d="M189.07,299.21c-.07,22.73-.07,45.66,0,68.58" transform="translate(-63.41 -174.06)"/><path class="cls-2" d="M189.07,299.21a5.73,5.73,0,1,1,11.44,0" transform="translate(-63.41 -174.06)"/><line class="cls-1" x1="137.11" y1="200.96" x2="162.31" y2="200.96"/><polygon class="cls-4" points="161.58 203.45 165.9 200.96 161.58 198.47 161.58 203.45"/><line class="cls-1" x1="125.57" y1="227.58" x2="125.66" y2="209.69"/><polygon class="cls-4" points="128.15 210.43 125.68 206.1 123.16 210.4 128.15 210.43"/><line class="cls-1" x1="164.71" y1="200.96" x2="183.51" y2="200.96"/><line class="cls-2" x1="183.51" y1="132.64" x2="183.51" y2="176.11"/><line class="cls-2" x1="172.06" y1="132.64" x2="172.06" y2="176.11"/><path class="cls-2" d="M235.47,306.7a5.73,5.73,0,1,1,11.44,0" transform="translate(-63.41 -174.06)"/><path class="cls-1" d="M235.47,349.7c0,4.45-3.94,8.05-8.81,8.05" transform="translate(-63.41 -174.06)"/><line class="cls-1" x1="137.11" y1="193.73" x2="137.11" y2="200.96"/><line class="cls-1" x1="183.51" y1="183.95" x2="183.51" y2="200.96"/><polygon class="cls-4" points="181.02 184.68 183.51 180.37 186 184.68 181.02 184.68"/><line class="cls-1" x1="183.51" y1="176.11" x2="183.51" y2="181.39"/><line class="cls-1" x1="76.97" y1="154.37" x2="93.62" y2="154.37"/><polygon class="cls-4" points="92.89 156.87 97.21 154.37 92.89 151.88 92.89 156.87"/><line class="cls-1" x1="114.17" y1="154.37" x2="96.87" y2="154.37"/><line class="cls-2" x1="65.53" y1="193.36" x2="65.53" y2="159.44"/><line class="cls-2" x1="76.97" y1="193.36" x2="76.97" y2="159.44"/><line class="cls-1" x1="76.97" y1="160.96" x2="76.97" y2="154.37"/><path class="cls-2" d="M140.38,303.88v16.78" transform="translate(-63.41 -174.06)"/><line class="cls-2" x1="65.53" y1="129.6" x2="65.53" y2="165.9"/><path class="cls-2" d="M140.38,320.25a8.5,8.5,0,0,0,8.17,4.59c4.69-.39,6.81-4.67,6.89-4.85" transform="translate(-63.41 -174.06)"/><path class="cls-2" d="M129.39,304.1c-3.22,0-5.83-1.75-5.83-3.91s2.61-3.9,5.83-3.9" transform="translate(-63.41 -174.06)"/><path class="cls-2" d="M139.93,304.1c3.22,0,5.83-1.75,5.83-3.91s-2.61-3.9-5.83-3.9" transform="translate(-63.41 -174.06)"/><line class="cls-2" x1="76.97" y1="71.14" x2="76.97" y2="122.23"/><line class="cls-2" x1="65.53" y1="70.47" x2="65.53" y2="122.23"/><line class="cls-2" x1="39.38" y1="121.66" x2="39.38" y2="139.92"/><line class="cls-2" x1="28.39" y1="122.11" x2="28.39" y2="185.01"/><line class="cls-2" x1="28.39" y1="201.39" x2="28.39" y2="150.81"/><line class="cls-2" x1="39.84" y1="201.39" x2="39.84" y2="150.81"/><path class="cls-2" d="M103.24,375.45c0,3.9-2.56,7.07-5.72,7.07s-5.72-3.17-5.72-7.07" transform="translate(-63.41 -174.06)"/><path class="cls-2" d="M102.74,324.87a5.74,5.74,0,1,0,0-11.45" transform="translate(-63.41 -174.06)"/><path class="cls-2" d="M92.25,296.17c-3.22,0-5.83-1.75-5.83-3.91s2.61-3.9,5.83-3.9" transform="translate(-63.41 -174.06)"/><path class="cls-2" d="M102.79,296.17c3.22,0,5.83-1.75,5.83-3.91s-2.61-3.9-5.83-3.9" transform="translate(-63.41 -174.06)"/><line class="cls-2" x1="39.84" y1="70.47" x2="39.84" y2="114.74"/><line class="cls-2" x1="28.39" y1="69.9" x2="28.39" y2="114.74"/><line class="cls-2" x1="172.06" y1="104.46" x2="172.06" y2="63.09"/><line class="cls-2" x1="183.51" y1="104.46" x2="183.51" y2="63.09"/><path class="cls-2" d="M246.91,278.52a5.72,5.72,0,1,1-11.44,0" transform="translate(-63.41 -174.06)"/><line class="cls-1" x1="183.51" y1="63.09" x2="183.51" y2="57.26"/><line class="cls-1" x1="172.06" y1="63.09" x2="172.06" y2="57.26"/><line class="cls-2" x1="172.06" y1="24.21" x2="172.06" y2="57.26"/><line class="cls-1" x1="171.55" y1="24.21" x2="183.5" y2="24.21"/><polygon class="cls-4" points="182.77 26.71 187.09 24.21 182.77 21.72 182.77 26.71"/><line class="cls-1" x1="187.09" y1="24.21" x2="200.32" y2="24.21"/><line class="cls-1" x1="200.32" y1="24.21" x2="200.32" y2="109.67"/><polygon class="cls-4" points="197.83 108.94 200.32 113.26 202.81 108.94 197.83 108.94"/><line class="cls-1" x1="200.32" y1="110.24" x2="200.32" y2="176.4"/><line class="cls-1" x1="200.32" y1="176.4" x2="204.97" y2="176.4"/><polygon class="cls-4" points="204.24 178.89 208.56 176.4 204.24 173.91 204.24 178.89"/><line class="cls-1" x1="183.51" y1="57.26" x2="191.51" y2="57.26"/><line class="cls-1" x1="191.51" y1="57.26" x2="191.51" y2="96.96"/><line class="cls-1" x1="207.34" y1="176.4" x2="212.45" y2="176.4"/><line class="cls-2" x1="223.89" y1="105.38" x2="223.89" y2="176.4"/><line class="cls-2" x1="212.45" y1="104.46" x2="212.45" y2="176.4"/><line class="cls-1" x1="191.51" y1="99.36" x2="191.51" y2="181.39"/><polygon class="cls-4" points="189.02 100.09 191.51 95.77 194 100.09 189.02 100.09"/><line class="cls-1" x1="191.51" y1="181.39" x2="214.66" y2="181.39"/><line class="cls-1" x1="223.89" y1="176.4" x2="223.89" y2="181.39"/><line class="cls-1" x1="218.25" y1="181.39" x2="223.89" y2="181.39"/><polygon class="cls-4" points="218.98 183.88 214.66 181.39 218.98 178.89 218.98 183.88"/><line class="cls-2" x1="212.45" y1="60.17" x2="212.45" y2="95.01"/><path class="cls-2" d="M276.21,234.23c-3.22,0-5.83-1.74-5.83-3.9s2.61-3.91,5.83-3.91" transform="translate(-63.41 -174.06)"/><line class="cls-2" x1="212.81" y1="52.36" x2="212.45" y2="29.81"/><line class="cls-1" x1="40.03" y1="33.4" x2="39.84" y2="70.47"/><polygon class="cls-4" points="37.53 34.12 40.05 29.81 42.52 34.14 37.53 34.12"/><line class="cls-1" x1="65.56" y1="8.45" x2="65.47" y2="22.73"/><polygon class="cls-4" points="62.98 21.99 65.45 26.32 67.97 22.02 62.98 21.99"/><line class="cls-1" x1="212.45" y1="20.38" x2="212.45" y2="29.81"/><polygon class="cls-4" points="209.95 21.11 212.45 16.79 214.94 21.11 209.95 21.11"/><line class="cls-1" x1="223.89" y1="30.02" x2="223.89" y2="14.41"/><line class="cls-1" x1="212.63" y1="18.56" x2="212.63" y2="8.85"/><line class="cls-1" x1="223.89" y1="2.49" x2="223.89" y2="10.82"/><polygon class="cls-4" points="221.4 10.09 223.89 14.41 226.38 10.09 221.4 10.09"/><line class="cls-1" x1="65.46" y1="23.53" x2="65.6" y2="71.94"/><line class="cls-1" x1="40.05" y1="29.81" x2="40" y2="2.49"/><line class="cls-1" x1="223.89" y1="2.49" x2="96.36" y2="2.49"/><line class="cls-1" x1="40" y1="2.49" x2="95.16" y2="2.49"/><polygon class="cls-4" points="94.43 4.99 98.74 2.49 94.43 0 94.43 4.99"/><line class="cls-1" x1="212.63" y1="8.85" x2="127.52" y2="8.47"/><polygon class="cls-4" points="128.26 5.98 123.94 8.45 128.24 10.96 128.26 5.98"/><line class="cls-1" x1="123.93" y1="8.45" x2="65.56" y2="8.45"/><path class="cls-2" d="M182.78,219.24h26.35" transform="translate(-63.41 -174.06)"/><path class="cls-2" d="M139.46,219.24C150,219,161,219,172,219.24" transform="translate(-63.41 -174.06)"/><line class="cls-2" x1="76.05" y1="33.74" x2="145.72" y2="33.74"/><path class="cls-2" d="M139.46,207.8a5.73,5.73,0,1,0,0,11.44" transform="translate(-63.41 -174.06)"/><line class="cls-2" x1="160.62" y1="24.21" x2="160.62" y2="56.27"/><line class="cls-2" x1="160.62" y1="24.21" x2="145.72" y2="33.74"/><line class="cls-2" x1="145.72" y1="45.18" x2="160.62" y2="56.27"/><line class="cls-1" x1="89.56" y1="60.82" x2="76.97" y2="71.14"/><polygon class="cls-4" points="87.41 59.35 92.33 58.54 90.58 63.21 87.41 59.35"/><line class="cls-1" x1="92.33" y1="58.54" x2="108.62" y2="45.18"/><line class="cls-1" x1="120.24" y1="45.18" x2="76.48" y2="56.85"/><polygon class="cls-4" points="76.54 54.26 73.01 57.78 77.83 59.07 76.54 54.26"/><line class="cls-1" x1="28.39" y1="69.9" x2="119.37" y2="45.18"/><line class="cls-5" x1="28.43" y1="181.03" x2="39.66" y2="181.03"/><line class="cls-5" x1="28.57" y1="187.34" x2="39.8" y2="187.34"/><line class="cls-5" x1="28.57" y1="193.38" x2="39.8" y2="193.38"/><line class="cls-5" x1="28.57" y1="200.3" x2="39.8" y2="200.3"/><line class="cls-5" x1="28.36" y1="155.14" x2="39.59" y2="155.14"/><line class="cls-5" x1="28.5" y1="161.45" x2="39.73" y2="161.45"/><line class="cls-5" x1="28.5" y1="167.49" x2="39.73" y2="167.49"/><line class="cls-5" x1="28.5" y1="174.41" x2="39.73" y2="174.41"/><line class="cls-6" x1="28.29" y1="124.74" x2="39.53" y2="124.74"/><line class="cls-6" x1="28.43" y1="131.05" x2="39.66" y2="131.05"/><line class="cls-6" x1="28.43" y1="137.1" x2="39.66" y2="137.1"/><line class="cls-5" x1="28.23" y1="89.69" x2="39.46" y2="89.69"/><line class="cls-5" x1="28.36" y1="96" x2="39.59" y2="96"/><line class="cls-5" x1="28.36" y1="102.05" x2="39.59" y2="102.05"/><line class="cls-5" x1="28.36" y1="108.96" x2="39.59" y2="108.96"/><line class="cls-5" x1="28.36" y1="76.34" x2="39.59" y2="76.34"/><line class="cls-5" x1="28.36" y1="83.25" x2="39.59" y2="83.25"/><line class="cls-7" x1="65.5" y1="93.73" x2="76.73" y2="93.73"/><line class="cls-7" x1="65.64" y1="100.03" x2="76.87" y2="100.03"/><line class="cls-7" x1="65.64" y1="106.08" x2="76.87" y2="106.08"/><line class="cls-7" x1="65.64" y1="112.99" x2="76.87" y2="112.99"/><line class="cls-7" x1="65.64" y1="80.37" x2="76.87" y2="80.37"/><line class="cls-7" x1="65.64" y1="87.28" x2="76.87" y2="87.28"/><line class="cls-7" x1="65.57" y1="132.4" x2="76.8" y2="132.4"/><line class="cls-7" x1="65.71" y1="138.71" x2="76.94" y2="138.71"/><line class="cls-7" x1="65.71" y1="144.76" x2="76.94" y2="144.76"/><line class="cls-8" x1="65.64" y1="170.61" x2="76.87" y2="170.61"/><line class="cls-8" x1="65.78" y1="176.92" x2="77.01" y2="176.92"/><line class="cls-8" x1="65.78" y1="182.97" x2="77.01" y2="182.97"/><line class="cls-8" x1="65.78" y1="189.88" x2="77.01" y2="189.88"/><line class="cls-8" x1="65.78" y1="164.17" x2="77.01" y2="164.17"/><path class="cls-2" d="M128.94,367.42a5.73,5.73,0,1,0,11.44,0" transform="translate(-63.41 -174.06)"/><line class="cls-9" x1="51.18" y1="238.98" x2="51.18" y2="227.75"/><line class="cls-9" x1="57.48" y1="238.85" x2="57.48" y2="227.62"/><line class="cls-9" x1="63.53" y1="238.85" x2="63.53" y2="227.62"/><line class="cls-9" x1="70.44" y1="238.85" x2="70.44" y2="227.62"/><line class="cls-9" x1="44.73" y1="238.85" x2="44.73" y2="227.62"/><line class="cls-9" x1="102.77" y1="238.92" x2="102.77" y2="227.68"/><line class="cls-9" x1="109.08" y1="238.78" x2="109.08" y2="227.55"/><line class="cls-9" x1="96.33" y1="238.78" x2="96.33" y2="227.55"/><line class="cls-10" x1="142.4" y1="238.85" x2="142.4" y2="227.62"/><line class="cls-10" x1="148.71" y1="238.71" x2="148.71" y2="227.48"/><line class="cls-10" x1="154.76" y1="238.71" x2="154.76" y2="227.48"/><line class="cls-10" x1="161.67" y1="238.71" x2="161.67" y2="227.48"/><line class="cls-10" x1="135.96" y1="238.71" x2="135.96" y2="227.48"/><line class="cls-10" x1="198.8" y1="239.25" x2="198.8" y2="228.02"/><line class="cls-10" x1="205.1" y1="239.11" x2="205.1" y2="227.88"/><line class="cls-10" x1="211.15" y1="239.11" x2="211.15" y2="227.88"/><line class="cls-10" x1="218.06" y1="239.11" x2="218.06" y2="227.88"/><line class="cls-10" x1="192.35" y1="239.11" x2="192.35" y2="227.88"/><line class="cls-11" x1="125.7" y1="134.48" x2="136.93" y2="134.48"/><line class="cls-11" x1="125.84" y1="140.79" x2="137.07" y2="140.79"/><line class="cls-11" x1="125.84" y1="146.83" x2="137.07" y2="146.83"/><line class="cls-11" x1="125.84" y1="153.75" x2="137.07" y2="153.75"/><line class="cls-11" x1="125.84" y1="128.04" x2="137.07" y2="128.04"/><line class="cls-11" x1="125.63" y1="166.56" x2="136.86" y2="166.56"/><line class="cls-11" x1="125.77" y1="172.86" x2="137" y2="172.86"/><line class="cls-11" x1="125.77" y1="178.91" x2="137" y2="178.91"/><line class="cls-11" x1="125.77" y1="185.82" x2="137" y2="185.82"/><line class="cls-11" x1="125.77" y1="160.11" x2="137" y2="160.11"/><line class="cls-12" x1="172.1" y1="141.33" x2="183.33" y2="141.33"/><line class="cls-12" x1="172.24" y1="147.64" x2="183.47" y2="147.64"/><line class="cls-12" x1="172.24" y1="153.69" x2="183.47" y2="153.69"/><line class="cls-12" x1="172.24" y1="160.6" x2="183.47" y2="160.6"/><line class="cls-12" x1="172.24" y1="134.89" x2="183.47" y2="134.89"/><line class="cls-12" x1="172.24" y1="167.16" x2="183.47" y2="167.16"/><line class="cls-12" x1="172.24" y1="174.07" x2="183.47" y2="174.07"/><line class="cls-13" x1="212.45" y1="34.61" x2="223.68" y2="34.61"/><line class="cls-13" x1="212.45" y1="40.65" x2="223.68" y2="40.65"/><line class="cls-13" x1="212.45" y1="47.57" x2="223.68" y2="47.57"/><line class="cls-14" x1="87.01" y1="45.15" x2="87.01" y2="33.91"/><line class="cls-14" x1="93.32" y1="45.01" x2="93.32" y2="33.78"/><line class="cls-14" x1="99.37" y1="45.01" x2="99.37" y2="33.78"/><line class="cls-14" x1="80.57" y1="45.01" x2="80.57" y2="33.78"/><line class="cls-14" x1="129.59" y1="45.21" x2="129.59" y2="33.98"/><line class="cls-14" x1="135.9" y1="45.08" x2="135.9" y2="33.85"/><line class="cls-14" x1="141.95" y1="45.08" x2="141.95" y2="33.85"/><line class="cls-14" x1="123.15" y1="45.08" x2="123.15" y2="33.85"/><line class="cls-12" x1="160.66" y1="29.96" x2="171.89" y2="29.96"/><line class="cls-12" x1="160.8" y1="36.27" x2="172.03" y2="36.27"/><line class="cls-12" x1="160.8" y1="42.32" x2="172.03" y2="42.32"/><line class="cls-12" x1="160.8" y1="49.23" x2="172.03" y2="49.23"/><path class="cls-2" d="M287.3,204.08,287,251.17s21-11.72,10.63-.77L287.3,261.34v18.1" transform="translate(-63.41 -174.06)"/><line class="cls-2" x1="212.45" y1="92.61" x2="212.45" y2="107.35"/><line class="cls-13" x1="212.38" y1="123.6" x2="223.61" y2="123.6"/><line class="cls-13" x1="212.52" y1="129.91" x2="223.75" y2="129.91"/><line class="cls-13" x1="212.52" y1="135.96" x2="223.75" y2="135.96"/><line class="cls-13" x1="212.52" y1="142.87" x2="223.75" y2="142.87"/><line class="cls-13" x1="212.52" y1="110.25" x2="223.75" y2="110.25"/><line class="cls-13" x1="212.52" y1="117.16" x2="223.75" y2="117.16"/><line class="cls-13" x1="212.31" y1="62.56" x2="223.54" y2="62.56"/><line class="cls-13" x1="212.45" y1="68.87" x2="223.68" y2="68.87"/><line class="cls-13" x1="212.45" y1="74.91" x2="223.68" y2="74.91"/><line class="cls-15" x1="172.04" y1="77.36" x2="183.27" y2="77.36"/><line class="cls-15" x1="172.17" y1="83.67" x2="183.4" y2="83.67"/><line class="cls-15" x1="172.17" y1="89.72" x2="183.4" y2="89.72"/><line class="cls-15" x1="172.17" y1="96.63" x2="183.4" y2="96.63"/><line class="cls-15" x1="172.17" y1="70.92" x2="183.4" y2="70.92"/><text class="cls-16" transform="translate(90.02 140.89)">5’</text><text class="cls-16" transform="translate(155.26 187.03)">3’</text><text class="cls-17" transform="translate(0 137.16)">ⅠC</text><text class="cls-18" transform="translate(80.74 27.31)">ⅠA</text><text class="cls-18" transform="translate(120.87 27.31)">ⅠB</text><text class="cls-19" transform="translate(43.66 140.89)">Ⅰ(i)</text><text class="cls-20" transform="translate(47.75 183.1)">DⅡ</text><text class="cls-21" transform="translate(146.02 89.96)">ⅠD2</text><text class="cls-22" transform="translate(224.76 58.95)">ⅠD1</text><text class="cls-22" transform="translate(223.87 130.56)">ⅠD1</text><text class="cls-23" transform="translate(83.61 217.26)">DⅢ</text><text class="cls-24" transform="translate(151.01 220.01)">DⅣ</text><text class="cls-25" transform="translate(139.79 149.28)">DⅤ</text><text class="cls-19" transform="translate(41.74 97.69)">Ⅰ(ii)</text><text class="cls-16" transform="translate(153.83 162.12)">DⅥ</text></svg>