<svg id="图层_1" data-name="图层 1" xmlns="http://www.w3.org/2000/svg" viewBox="0 0 248.85 243.09"><defs><style>.cls-1,.cls-10,.cls-11,.cls-13,.cls-14,.cls-15,.cls-2,.cls-5,.cls-6,.cls-7,.cls-8,.cls-9{fill:none;}.cls-1,.cls-2{stroke:#231815;}.cls-1{stroke-width:0.5px;}.cls-3{fill:#fff;stroke:#fff;}.cls-4{fill:#231815;}.cls-5{stroke:#e897c5;}.cls-10,.cls-11,.cls-13,.cls-14,.cls-15,.cls-5,.cls-6,.cls-7,.cls-8,.cls-9{stroke-miterlimit:10;}.cls-6{stroke:#ef9bcb;}.cls-7{stroke:#ccb355;}.cls-8{stroke:#090;}.cls-9{stroke:#56e8e8;}.cls-10{stroke:#e80000;}.cls-11{stroke:#f48e33;}.cls-12{stroke:#000;}.cls-13{stroke:#0404fe;}.cls-14{stroke:#0a81f9;}.cls-15{stroke:#f4007a;}.cls-16,.cls-17,.cls-19,.cls-20,.cls-21,.cls-22,.cls-23,.cls-24,.cls-25,.cls-26{font-size:10px;font-family:AdobeFangsongStd-Regular, AdobeFangsongStd Regular-GBpc-EUC-H;}.cls-17{fill:#eb99c8;}.cls-18,.cls-19{fill:#0981f9;}.cls-20{fill:#ccb355;}.cls-21{fill:#090;}.cls-22{fill:#f4007a;}.cls-23{fill:#0404fe;}.cls-24{fill:#56e8e8;}.cls-25{fill:#e80000;}.cls-26{fill:#f48e33;}</style></defs><line class="cls-1" x1="108.67" y1="205.32" x2="108.67" y2="228.11"/><line class="cls-2" x1="85.6" y1="227.58" x2="108.67" y2="227.58"/><line class="cls-2" x1="85.3" y1="239.02" x2="120.67" y2="239.02"/><line class="cls-2" x1="71.41" y1="238.94" x2="34.62" y2="238.94"/><line class="cls-2" x1="71.89" y1="227.5" x2="34.62" y2="227.5"/><path class="cls-2" d="M157,407.36a9.29,9.29,0,1,1-9.29-9.29A9.29,9.29,0,0,1,157,407.36Z" transform="translate(-68.97 -174.06)"/><rect class="cls-3" x="63.24" y="228.77" width="14.26" height="9.07"/><rect class="cls-3" x="76.77" y="228.77" width="14.26" height="9.07"/><path class="cls-2" d="M103.6,413.08a5.73,5.73,0,1,1,0-11.44" transform="translate(-68.97 -174.06)"/><line class="cls-2" x1="165.9" y1="239.02" x2="120" y2="239.02"/><line class="cls-2" x1="166.5" y1="227.58" x2="120" y2="227.58"/><path class="cls-2" d="M233.31,407.36a9.29,9.29,0,1,1,9.29,9.29A9.29,9.29,0,0,1,233.31,407.36Z" transform="translate(-68.97 -174.06)"/><rect class="cls-3" x="163.93" y="228.77" width="14.26" height="9.07"/><rect class="cls-3" x="174.12" y="229.03" width="14.26" height="9.07"/><line class="cls-2" x1="181.25" y1="228.11" x2="218.04" y2="228.11"/><line class="cls-2" x1="180.77" y1="239.02" x2="218.04" y2="239.02"/><path class="cls-2" d="M287,402.17c3.35,0,6.07,2.44,6.07,5.45s-2.72,5.46-6.07,5.46" transform="translate(-68.97 -174.06)"/><line class="cls-1" x1="108.61" y1="154.37" x2="108.7" y2="202.65"/><polygon class="cls-4" points="106.21 201.93 108.71 206.24 111.19 201.92 106.21 201.93"/><line class="cls-1" x1="120.13" y1="192.19" x2="120.17" y2="206.35"/><line class="cls-2" x1="131.54" y1="125.15" x2="131.54" y2="193.73"/><path class="cls-2" d="M189.07,299.21c-.07,22.73-.07,45.66,0,68.58" transform="translate(-68.97 -174.06)"/><path class="cls-2" d="M189.07,299.21a5.73,5.73,0,1,1,11.44,0" transform="translate(-68.97 -174.06)"/><line class="cls-1" x1="131.54" y1="200.96" x2="156.75" y2="200.96"/><polygon class="cls-4" points="156.02 203.45 160.33 200.96 156.02 198.47 156.02 203.45"/><line class="cls-1" x1="120" y1="227.58" x2="120.1" y2="209.69"/><polygon class="cls-4" points="122.58 210.43 120.11 206.1 117.6 210.4 122.58 210.43"/><line class="cls-1" x1="159.14" y1="200.96" x2="177.94" y2="200.96"/><line class="cls-2" x1="177.94" y1="132.64" x2="177.94" y2="176.11"/><line class="cls-2" x1="166.5" y1="132.64" x2="166.5" y2="176.11"/><path class="cls-2" d="M235.47,306.7a5.73,5.73,0,1,1,11.44,0" transform="translate(-68.97 -174.06)"/><path class="cls-1" d="M235.47,349.7c0,4.45-3.94,8.05-8.81,8.05" transform="translate(-68.97 -174.06)"/><line class="cls-1" x1="131.54" y1="193.73" x2="131.54" y2="200.96"/><line class="cls-1" x1="177.94" y1="183.95" x2="177.94" y2="200.96"/><polygon class="cls-4" points="175.45 184.68 177.94 180.37 180.44 184.68 175.45 184.68"/><line class="cls-1" x1="177.94" y1="176.11" x2="177.94" y2="181.39"/><line class="cls-1" x1="71.41" y1="154.37" x2="88.06" y2="154.37"/><polygon class="cls-4" points="87.33 156.87 91.65 154.37 87.33 151.88 87.33 156.87"/><line class="cls-1" x1="108.61" y1="154.37" x2="91.31" y2="154.37"/><line class="cls-2" x1="59.96" y1="193.36" x2="59.96" y2="159.44"/><line class="cls-2" x1="71.41" y1="193.36" x2="71.41" y2="159.44"/><line class="cls-1" x1="71.41" y1="160.96" x2="71.41" y2="154.37"/><path class="cls-2" d="M140.38,303.88v16.78" transform="translate(-68.97 -174.06)"/><line class="cls-2" x1="59.96" y1="129.6" x2="59.96" y2="165.9"/><path class="cls-2" d="M140.38,320.25a8.5,8.5,0,0,0,8.17,4.59c4.69-.39,6.81-4.67,6.89-4.85" transform="translate(-68.97 -174.06)"/><path class="cls-2" d="M129.39,304.1c-3.22,0-5.83-1.75-5.83-3.91s2.61-3.9,5.83-3.9" transform="translate(-68.97 -174.06)"/><path class="cls-2" d="M139.93,304.1c3.22,0,5.83-1.75,5.83-3.91s-2.61-3.9-5.83-3.9" transform="translate(-68.97 -174.06)"/><line class="cls-2" x1="71.41" y1="71.14" x2="71.41" y2="122.23"/><line class="cls-2" x1="59.96" y1="70.47" x2="59.96" y2="122.23"/><line class="cls-2" x1="33.82" y1="121.66" x2="33.82" y2="139.92"/><line class="cls-2" x1="22.83" y1="122.11" x2="22.83" y2="185.01"/><line class="cls-2" x1="22.83" y1="201.39" x2="22.83" y2="150.81"/><line class="cls-2" x1="34.27" y1="201.39" x2="34.27" y2="150.81"/><path class="cls-2" d="M103.24,375.45c0,3.9-2.56,7.07-5.72,7.07s-5.72-3.17-5.72-7.07" transform="translate(-68.97 -174.06)"/><path class="cls-2" d="M102.74,324.87a5.74,5.74,0,1,0,0-11.45" transform="translate(-68.97 -174.06)"/><path class="cls-2" d="M92.25,296.17c-3.22,0-5.83-1.75-5.83-3.91s2.61-3.9,5.83-3.9" transform="translate(-68.97 -174.06)"/><path class="cls-2" d="M102.79,296.17c3.22,0,5.83-1.75,5.83-3.91s-2.61-3.9-5.83-3.9" transform="translate(-68.97 -174.06)"/><line class="cls-2" x1="34.27" y1="70.47" x2="34.27" y2="114.74"/><line class="cls-2" x1="22.83" y1="69.9" x2="22.83" y2="114.74"/><line class="cls-2" x1="166.5" y1="104.46" x2="166.5" y2="63.09"/><line class="cls-2" x1="177.94" y1="104.46" x2="177.94" y2="63.09"/><path class="cls-2" d="M246.91,278.52a5.72,5.72,0,1,1-11.44,0" transform="translate(-68.97 -174.06)"/><line class="cls-1" x1="177.94" y1="63.09" x2="177.94" y2="57.26"/><line class="cls-1" x1="166.5" y1="63.09" x2="166.5" y2="57.26"/><line class="cls-2" x1="166.5" y1="24.21" x2="166.5" y2="57.26"/><line class="cls-1" x1="165.99" y1="24.21" x2="177.93" y2="24.21"/><polygon class="cls-4" points="177.2 26.71 181.52 24.21 177.2 21.72 177.2 26.71"/><line class="cls-1" x1="181.52" y1="24.21" x2="194.75" y2="24.21"/><line class="cls-1" x1="194.75" y1="24.21" x2="194.75" y2="109.67"/><polygon class="cls-4" points="192.26 108.94 194.75 113.26 197.25 108.94 192.26 108.94"/><line class="cls-1" x1="194.75" y1="110.24" x2="194.75" y2="176.4"/><line class="cls-1" x1="194.75" y1="176.4" x2="199.4" y2="176.4"/><polygon class="cls-4" points="198.68 178.89 202.99 176.4 198.68 173.91 198.68 178.89"/><line class="cls-1" x1="177.94" y1="57.26" x2="185.94" y2="57.26"/><line class="cls-1" x1="185.94" y1="57.26" x2="185.94" y2="96.96"/><line class="cls-1" x1="201.77" y1="176.4" x2="206.88" y2="176.4"/><line class="cls-2" x1="218.32" y1="105.38" x2="218.32" y2="176.4"/><line class="cls-2" x1="206.88" y1="104.46" x2="206.88" y2="176.4"/><line class="cls-1" x1="185.94" y1="99.36" x2="185.94" y2="181.39"/><polygon class="cls-4" points="183.45 100.09 185.94 95.77 188.44 100.09 183.45 100.09"/><line class="cls-1" x1="185.94" y1="181.39" x2="209.09" y2="181.39"/><line class="cls-1" x1="218.32" y1="176.4" x2="218.32" y2="181.39"/><line class="cls-1" x1="212.68" y1="181.39" x2="218.32" y2="181.39"/><polygon class="cls-4" points="213.41 183.88 209.09 181.39 213.41 178.89 213.41 183.88"/><line class="cls-2" x1="206.88" y1="60.17" x2="206.88" y2="95.01"/><path class="cls-2" d="M276.21,234.23c-3.22,0-5.83-1.74-5.83-3.9s2.61-3.91,5.83-3.91" transform="translate(-68.97 -174.06)"/><line class="cls-2" x1="207.24" y1="52.36" x2="206.88" y2="29.81"/><line class="cls-1" x1="34.46" y1="33.4" x2="34.27" y2="70.47"/><polygon class="cls-4" points="31.97 34.12 34.48 29.81 36.95 34.14 31.97 34.12"/><line class="cls-1" x1="59.99" y1="8.45" x2="59.9" y2="22.73"/><polygon class="cls-4" points="57.41 21.99 59.88 26.32 62.4 22.02 57.41 21.99"/><line class="cls-1" x1="206.88" y1="20.38" x2="206.88" y2="29.81"/><polygon class="cls-4" points="204.39 21.11 206.88 16.79 209.37 21.11 204.39 21.11"/><line class="cls-1" x1="218.32" y1="30.02" x2="218.32" y2="14.41"/><line class="cls-1" x1="207.06" y1="18.56" x2="207.06" y2="8.85"/><line class="cls-1" x1="218.32" y1="2.49" x2="218.32" y2="10.82"/><polygon class="cls-4" points="215.83 10.09 218.32 14.41 220.82 10.09 215.83 10.09"/><line class="cls-1" x1="59.89" y1="23.53" x2="60.03" y2="71.94"/><line class="cls-1" x1="34.48" y1="29.81" x2="34.43" y2="2.49"/><line class="cls-1" x1="218.32" y1="2.49" x2="90.79" y2="2.49"/><line class="cls-1" x1="34.43" y1="2.49" x2="89.59" y2="2.49"/><polygon class="cls-4" points="88.86 4.99 93.18 2.49 88.86 0 88.86 4.99"/><line class="cls-1" x1="207.06" y1="8.85" x2="121.96" y2="8.47"/><polygon class="cls-4" points="122.7 5.98 118.37 8.45 122.68 10.96 122.7 5.98"/><line class="cls-1" x1="118.37" y1="8.45" x2="59.99" y2="8.45"/><path class="cls-2" d="M182.78,219.24h26.35" transform="translate(-68.97 -174.06)"/><path class="cls-2" d="M139.46,219.24C150,219,161,219,172,219.24" transform="translate(-68.97 -174.06)"/><line class="cls-2" x1="70.48" y1="33.74" x2="140.16" y2="33.74"/><path class="cls-2" d="M139.46,207.8a5.73,5.73,0,1,0,0,11.44" transform="translate(-68.97 -174.06)"/><line class="cls-2" x1="155.05" y1="24.21" x2="155.05" y2="56.27"/><line class="cls-2" x1="155.05" y1="24.21" x2="140.16" y2="33.74"/><line class="cls-2" x1="140.16" y1="45.18" x2="155.05" y2="56.27"/><line class="cls-1" x1="83.99" y1="60.82" x2="71.41" y2="71.14"/><polygon class="cls-4" points="81.85 59.35 86.77 58.54 85.01 63.21 81.85 59.35"/><line class="cls-1" x1="86.77" y1="58.54" x2="103.05" y2="45.18"/><line class="cls-1" x1="114.67" y1="45.18" x2="70.91" y2="56.85"/><polygon class="cls-4" points="70.97 54.26 67.45 57.78 72.26 59.07 70.97 54.26"/><line class="cls-1" x1="22.83" y1="69.9" x2="113.81" y2="45.18"/><line class="cls-5" x1="22.86" y1="181.03" x2="34.1" y2="181.03"/><line class="cls-5" x1="23" y1="187.34" x2="34.23" y2="187.34"/><line class="cls-5" x1="23" y1="193.38" x2="34.23" y2="193.38"/><line class="cls-5" x1="23" y1="200.3" x2="34.23" y2="200.3"/><line class="cls-5" x1="22.8" y1="155.14" x2="34.03" y2="155.14"/><line class="cls-5" x1="22.93" y1="161.45" x2="34.16" y2="161.45"/><line class="cls-5" x1="22.93" y1="167.49" x2="34.16" y2="167.49"/><line class="cls-5" x1="22.93" y1="174.41" x2="34.16" y2="174.41"/><line class="cls-6" x1="22.73" y1="124.74" x2="33.96" y2="124.74"/><line class="cls-6" x1="22.87" y1="131.05" x2="34.1" y2="131.05"/><line class="cls-6" x1="22.87" y1="137.1" x2="34.1" y2="137.1"/><line class="cls-5" x1="22.66" y1="89.69" x2="33.89" y2="89.69"/><line class="cls-5" x1="22.8" y1="96" x2="34.03" y2="96"/><line class="cls-5" x1="22.8" y1="102.05" x2="34.03" y2="102.05"/><line class="cls-5" x1="22.8" y1="108.96" x2="34.03" y2="108.96"/><line class="cls-5" x1="22.8" y1="76.34" x2="34.03" y2="76.34"/><line class="cls-5" x1="22.8" y1="83.25" x2="34.03" y2="83.25"/><line class="cls-7" x1="59.94" y1="93.73" x2="71.17" y2="93.73"/><line class="cls-7" x1="60.08" y1="100.03" x2="71.3" y2="100.03"/><line class="cls-7" x1="60.08" y1="106.08" x2="71.3" y2="106.08"/><line class="cls-7" x1="60.08" y1="112.99" x2="71.3" y2="112.99"/><line class="cls-7" x1="60.08" y1="80.37" x2="71.3" y2="80.37"/><line class="cls-7" x1="60.08" y1="87.28" x2="71.3" y2="87.28"/><line class="cls-7" x1="60.01" y1="132.4" x2="71.24" y2="132.4"/><line class="cls-7" x1="60.14" y1="138.71" x2="71.37" y2="138.71"/><line class="cls-7" x1="60.14" y1="144.76" x2="71.37" y2="144.76"/><line class="cls-8" x1="60.08" y1="170.61" x2="71.31" y2="170.61"/><line class="cls-8" x1="60.21" y1="176.92" x2="71.44" y2="176.92"/><line class="cls-8" x1="60.21" y1="182.97" x2="71.44" y2="182.97"/><line class="cls-8" x1="60.21" y1="189.88" x2="71.44" y2="189.88"/><line class="cls-8" x1="60.21" y1="164.17" x2="71.44" y2="164.17"/><path class="cls-2" d="M128.94,367.42a5.73,5.73,0,1,0,11.44,0" transform="translate(-68.97 -174.06)"/><line class="cls-9" x1="45.61" y1="238.98" x2="45.61" y2="227.75"/><line class="cls-9" x1="51.92" y1="238.85" x2="51.92" y2="227.62"/><line class="cls-9" x1="57.96" y1="238.85" x2="57.96" y2="227.62"/><line class="cls-9" x1="64.88" y1="238.85" x2="64.88" y2="227.62"/><line class="cls-9" x1="39.17" y1="238.85" x2="39.17" y2="227.62"/><line class="cls-9" x1="97.2" y1="238.92" x2="97.2" y2="227.68"/><line class="cls-9" x1="103.51" y1="238.78" x2="103.51" y2="227.55"/><line class="cls-9" x1="90.76" y1="238.78" x2="90.76" y2="227.55"/><line class="cls-10" x1="136.84" y1="238.85" x2="136.84" y2="227.62"/><line class="cls-10" x1="143.14" y1="238.71" x2="143.14" y2="227.48"/><line class="cls-10" x1="149.19" y1="238.71" x2="149.19" y2="227.48"/><line class="cls-10" x1="156.1" y1="238.71" x2="156.1" y2="227.48"/><line class="cls-10" x1="130.39" y1="238.71" x2="130.39" y2="227.48"/><line class="cls-10" x1="193.23" y1="239.25" x2="193.23" y2="228.02"/><line class="cls-10" x1="199.54" y1="239.11" x2="199.54" y2="227.88"/><line class="cls-10" x1="205.59" y1="239.11" x2="205.59" y2="227.88"/><line class="cls-10" x1="212.5" y1="239.11" x2="212.5" y2="227.88"/><line class="cls-10" x1="186.79" y1="239.11" x2="186.79" y2="227.88"/><line class="cls-11" x1="120.14" y1="134.48" x2="131.37" y2="134.48"/><line class="cls-11" x1="120.27" y1="140.79" x2="131.5" y2="140.79"/><line class="cls-11" x1="120.27" y1="146.83" x2="131.5" y2="146.83"/><line class="cls-11" x1="120.27" y1="153.75" x2="131.5" y2="153.75"/><line class="cls-11" x1="120.27" y1="128.04" x2="131.5" y2="128.04"/><line class="cls-11" x1="120.07" y1="166.56" x2="131.3" y2="166.56"/><line class="cls-11" x1="120.21" y1="172.86" x2="131.43" y2="172.86"/><line class="cls-11" x1="120.21" y1="178.91" x2="131.43" y2="178.91"/><line class="cls-11" x1="120.21" y1="185.82" x2="131.43" y2="185.82"/><line class="cls-11" x1="120.21" y1="160.11" x2="131.43" y2="160.11"/><line class="cls-12" x1="166.54" y1="141.33" x2="177.77" y2="141.33"/><line class="cls-12" x1="166.68" y1="147.64" x2="177.9" y2="147.64"/><line class="cls-12" x1="166.68" y1="153.69" x2="177.9" y2="153.69"/><line class="cls-12" x1="166.68" y1="160.6" x2="177.9" y2="160.6"/><line class="cls-12" x1="166.68" y1="134.89" x2="177.9" y2="134.89"/><line class="cls-12" x1="166.68" y1="167.16" x2="177.9" y2="167.16"/><line class="cls-12" x1="166.68" y1="174.07" x2="177.9" y2="174.07"/><line class="cls-13" x1="206.88" y1="34.61" x2="218.11" y2="34.61"/><line class="cls-13" x1="206.88" y1="40.65" x2="218.11" y2="40.65"/><line class="cls-13" x1="206.88" y1="47.57" x2="218.11" y2="47.57"/><line class="cls-14" x1="81.45" y1="45.15" x2="81.45" y2="33.91"/><line class="cls-14" x1="87.75" y1="45.01" x2="87.75" y2="33.78"/><line class="cls-14" x1="93.8" y1="45.01" x2="93.8" y2="33.78"/><line class="cls-14" x1="75" y1="45.01" x2="75" y2="33.78"/><line class="cls-14" x1="124.02" y1="45.21" x2="124.02" y2="33.98"/><line class="cls-14" x1="130.33" y1="45.08" x2="130.33" y2="33.85"/><line class="cls-14" x1="136.38" y1="45.08" x2="136.38" y2="33.85"/><line class="cls-14" x1="117.58" y1="45.08" x2="117.58" y2="33.85"/><line class="cls-12" x1="155.09" y1="29.96" x2="166.32" y2="29.96"/><line class="cls-12" x1="155.23" y1="36.27" x2="166.46" y2="36.27"/><line class="cls-12" x1="155.23" y1="42.32" x2="166.46" y2="42.32"/><line class="cls-12" x1="155.23" y1="49.23" x2="166.46" y2="49.23"/><path class="cls-2" d="M287.3,204.08,287,251.17s21-11.72,10.63-.77L287.3,261.34v18.1" transform="translate(-68.97 -174.06)"/><line class="cls-2" x1="206.88" y1="92.61" x2="206.88" y2="107.35"/><line class="cls-13" x1="206.82" y1="123.6" x2="218.05" y2="123.6"/><line class="cls-13" x1="206.95" y1="129.91" x2="218.18" y2="129.91"/><line class="cls-13" x1="206.95" y1="135.96" x2="218.18" y2="135.96"/><line class="cls-13" x1="206.95" y1="142.87" x2="218.18" y2="142.87"/><line class="cls-13" x1="206.95" y1="110.25" x2="218.18" y2="110.25"/><line class="cls-13" x1="206.95" y1="117.16" x2="218.18" y2="117.16"/><line class="cls-13" x1="206.75" y1="62.56" x2="217.98" y2="62.56"/><line class="cls-13" x1="206.88" y1="68.87" x2="218.11" y2="68.87"/><line class="cls-13" x1="206.88" y1="74.91" x2="218.11" y2="74.91"/><line class="cls-15" x1="166.47" y1="77.36" x2="177.7" y2="77.36"/><line class="cls-15" x1="166.61" y1="83.67" x2="177.84" y2="83.67"/><line class="cls-15" x1="166.61" y1="89.72" x2="177.84" y2="89.72"/><line class="cls-15" x1="166.61" y1="96.63" x2="177.84" y2="96.63"/><line class="cls-15" x1="166.61" y1="70.92" x2="177.84" y2="70.92"/><text class="cls-16" transform="translate(84.45 140.89)">5’</text><text class="cls-16" transform="translate(149.69 187.03)">3’</text><text class="cls-17" transform="translate(0 137.57)">I<tspan class="cls-18" x="2.75" y="0"> </tspan><tspan x="4.99" y="0">C</tspan></text><text class="cls-19" transform="translate(75.18 27.31)">I A</text><text class="cls-19" transform="translate(115.3 27.31)">I B</text><text class="cls-20" transform="translate(40.84 140.89)">I<tspan class="cls-18" x="2.75" y="0"> </tspan><tspan x="4.99" y="0">(i)</tspan></text><text class="cls-21" transform="translate(42.18 183.1)">D II</text><text class="cls-22" transform="translate(140.46 89.96)">I D2</text><text class="cls-23" transform="translate(221.01 58.95)">I D1</text><text class="cls-23" transform="translate(221.01 131.04)">I D1</text><text class="cls-24" transform="translate(78.04 217.26)">D III</text><text class="cls-25" transform="translate(145.45 220.01)">D IV</text><text class="cls-26" transform="translate(134.23 149.28)">DⅤ</text><text class="cls-20" transform="translate(40.63 98.45)">I (ii)</text><text class="cls-16" transform="translate(144.32 162.12)">D VI</text></svg>