<svg id="图层_1" data-name="图层 1" xmlns="http://www.w3.org/2000/svg" xmlns:xlink="http://www.w3.org/1999/xlink" viewBox="0 0 238.14 320.57"><defs><style>.cls-1,.cls-11,.cls-12,.cls-13,.cls-15,.cls-16,.cls-2,.cls-22,.cls-25,.cls-27,.cls-3,.cls-35,.cls-4,.cls-44,.cls-45,.cls-49,.cls-5,.cls-54,.cls-6,.cls-61,.cls-65{fill:none;}.cls-1,.cls-2,.cls-3,.cls-4,.cls-5{stroke:#e7211a;}.cls-1{stroke-width:0.87px;}.cls-2{stroke-width:0.99px;}.cls-3{stroke-width:1px;}.cls-4{stroke-width:0.99px;}.cls-21,.cls-22,.cls-26,.cls-28,.cls-29,.cls-30,.cls-31,.cls-32,.cls-33,.cls-34,.cls-36,.cls-37,.cls-38,.cls-44,.cls-45,.cls-49,.cls-50,.cls-51,.cls-52,.cls-53,.cls-55,.cls-56,.cls-57,.cls-58,.cls-59,.cls-6,.cls-60,.cls-62,.cls-63,.cls-8,.cls-9{stroke:#221e1f;}.cls-10,.cls-7,.cls-8{fill:#fff;}.cls-15,.cls-7{stroke:#fff;}.cls-9{fill:url(#未命名的渐变_2);}.cls-11{stroke:#3eac4a;}.cls-12{stroke:#076fb2;}.cls-13{stroke:#036eb8;}.cls-14,.cls-64{fill:#2ea7e0;}.cls-14,.cls-16{stroke:#d796c0;}.cls-17{font-size:10.37px;}.cls-17,.cls-46{fill:#221e1f;}.cls-17,.cls-19,.cls-20,.cls-23,.cls-24,.cls-39,.cls-40,.cls-41,.cls-42,.cls-46,.cls-64{font-family:MyriadPro-Regular, Myriad Pro;}.cls-18{letter-spacing:-0.09em;}.cls-19,.cls-20,.cls-23,.cls-24,.cls-39,.cls-40,.cls-46,.cls-64{font-size:10px;}.cls-19{fill:#d796c0;}.cls-20{fill:#036eb8;}.cls-21{fill:url(#未命名的渐变_2-2);}.cls-22{stroke-width:0.5px;}.cls-23{fill:#e7211a;}.cls-24{fill:#e87728;}.cls-25{stroke:#e87728;}.cls-26{fill:url(#未命名的渐变_2-3);}.cls-27{stroke:#0c6bb0;}.cls-28{fill:url(#未命名的渐变_2-4);}.cls-29{fill:url(#未命名的渐变_2-5);}.cls-30{fill:url(#未命名的渐变_2-6);}.cls-31{fill:url(#未命名的渐变_2-7);}.cls-32{fill:url(#未命名的渐变_2-8);}.cls-33{fill:url(#未命名的渐变_2-9);}.cls-34{fill:url(#未命名的渐变_2-10);}.cls-35{stroke:#cbb047;}.cls-36{fill:url(#未命名的渐变_2-11);}.cls-37{fill:url(#未命名的渐变_2-12);}.cls-38{fill:url(#未命名的渐变_2-13);}.cls-39{fill:#3eac4a;}.cls-40{fill:#cbb047;}.cls-41{writing-mode:tb;text-orientation:upright;glyph-orientation-vertical:0deg;}.cls-41,.cls-42{font-size:6px;fill:#4d4d4d;}.cls-43{font-family:AdobeSongStd-Light-GBpc-EUC-H, Adobe Song Std;}.cls-44{stroke-dasharray:5.14 5.14;}.cls-45{stroke-dasharray:5.22 5.22;}.cls-47{letter-spacing:0em;}.cls-48{letter-spacing:0.02em;}.cls-49{stroke-width:0.55px;}.cls-50{fill:url(#未命名的渐变_2-14);}.cls-51{fill:url(#未命名的渐变_2-15);}.cls-52{fill:url(#未命名的渐变_2-16);}.cls-53{fill:url(#未命名的渐变_2-17);}.cls-54{stroke:#929496;}.cls-55{fill:url(#未命名的渐变_2-18);}.cls-56{fill:url(#未命名的渐变_2-19);}.cls-57{fill:url(#未命名的渐变_2-20);}.cls-58{fill:url(#未命名的渐变_2-21);}.cls-59{fill:url(#未命名的渐变_2-22);}.cls-60{fill:url(#未命名的渐变_2-23);}.cls-61{stroke:#2ea7e0;}.cls-62{fill:url(#未命名的渐变_2-24);}.cls-63{fill:url(#未命名的渐变_2-25);}.cls-66{fill:#040000;stroke:#040000;stroke-width:0.64px;}</style><linearGradient id="未命名的渐变_2" x1="82" y1="139.91" x2="82" y2="139.91" gradientUnits="userSpaceOnUse"><stop offset="0" stop-color="#fff"/><stop offset="1"/></linearGradient><linearGradient id="未命名的渐变_2-2" x1="18.21" y1="140.95" x2="18.5" y2="140.95" xlink:href="#未命名的渐变_2"/><linearGradient id="未命名的渐变_2-3" x1="72.5" y1="120.45" x2="72.72" y2="120.45" xlink:href="#未命名的渐变_2"/><linearGradient id="未命名的渐变_2-4" x1="94.5" y1="176.6" x2="94.72" y2="176.6" xlink:href="#未命名的渐变_2"/><linearGradient id="未命名的渐变_2-5" x1="137.78" y1="226.88" x2="137.78" y2="226.88" xlink:href="#未命名的渐变_2"/><linearGradient id="未命名的渐变_2-6" x1="138" y1="185.9" x2="138" y2="185.9" xlink:href="#未命名的渐变_2"/><linearGradient id="未命名的渐变_2-7" x1="94.5" y1="95.84" x2="94.5" y2="95.84" xlink:href="#未命名的渐变_2"/><linearGradient id="未命名的渐变_2-8" x1="105.5" y1="75.21" x2="105.5" y2="75.21" xlink:href="#未命名的渐变_2"/><linearGradient id="未命名的渐变_2-9" x1="105.5" y1="155.29" x2="105.5" y2="155.29" xlink:href="#未命名的渐变_2"/><linearGradient id="未命名的渐变_2-10" x1="132.5" y1="144.1" x2="132.5" y2="144.1" xlink:href="#未命名的渐变_2"/><linearGradient id="未命名的渐变_2-11" x1="167.5" y1="103.37" x2="167.5" y2="103.37" xlink:href="#未命名的渐变_2"/><linearGradient id="未命名的渐变_2-12" x1="167.5" y1="165.45" x2="167.5" y2="165.45" xlink:href="#未命名的渐变_2"/><linearGradient id="未命名的渐变_2-13" x1="167.92" y1="227.8" x2="167.92" y2="227.8" xlink:href="#未命名的渐变_2"/><linearGradient id="未命名的渐变_2-14" x1="76.46" y1="81.01" x2="76.46" y2="81.01" xlink:href="#未命名的渐变_2"/><linearGradient id="未命名的渐变_2-15" x1="86.57" y1="81.15" x2="86.57" y2="81.15" xlink:href="#未命名的渐变_2"/><linearGradient id="未命名的渐变_2-16" x1="149.82" y1="80.4" x2="149.82" y2="80.4" xlink:href="#未命名的渐变_2"/><linearGradient id="未命名的渐变_2-17" x1="161.07" y1="79.4" x2="161.07" y2="79.4" xlink:href="#未命名的渐变_2"/><linearGradient id="未命名的渐变_2-18" x1="152.96" y1="70.76" x2="152.96" y2="70.76" xlink:href="#未命名的渐变_2"/><linearGradient id="未命名的渐变_2-19" x1="163.07" y1="70.9" x2="163.07" y2="70.9" xlink:href="#未命名的渐变_2"/><linearGradient id="未命名的渐变_2-20" x1="43.5" y1="25.59" x2="43.5" y2="25.59" xlink:href="#未命名的渐变_2"/><linearGradient id="未命名的渐变_2-21" x1="154.21" y1="60.26" x2="154.21" y2="60.26" xlink:href="#未命名的渐变_2"/><linearGradient id="未命名的渐变_2-22" x1="164.32" y1="57.4" x2="164.32" y2="57.4" xlink:href="#未命名的渐变_2"/><linearGradient id="未命名的渐变_2-23" x1="121.25" y1="21.91" x2="121.25" y2="21.91" xlink:href="#未命名的渐变_2"/><linearGradient id="未命名的渐变_2-24" x1="207.3" y1="159.91" x2="207.3" y2="159.91" xlink:href="#未命名的渐变_2"/><linearGradient id="未命名的渐变_2-25" x1="207.3" y1="198.71" x2="207.3" y2="198.71" xlink:href="#未命名的渐变_2"/></defs><title>Fig1  RNase P 二级结构</title><line class="cls-1" x1="75.55" y1="12.88" x2="75.55" y2="1.86"/><line class="cls-2" x1="82.31" y1="12.88" x2="82.31" y2="1.84"/><line class="cls-3" x1="88.85" y1="12.93" x2="88.85" y2="1.73"/><line class="cls-4" x1="95.39" y1="12.9" x2="95.39" y2="1.82"/><line class="cls-5" x1="102.1" y1="13.05" x2="102.1" y2="1.82"/><ellipse class="cls-6" cx="126.72" cy="38.21" rx="18.34" ry="8.06"/><rect class="cls-7" x="117.8" y="43.74" width="18.12" height="4.94"/><ellipse class="cls-8" cx="173" cy="197.65" rx="11.34" ry="16.19"/><rect class="cls-7" x="159.64" y="203.96" width="7.11" height="4.31"/><rect class="cls-7" x="174.89" y="194.45" width="5.9" height="10.95"/><line class="cls-9" x1="82" y1="100.02" x2="82" y2="179.79"/><rect class="cls-10" x="158.64" y="190.92" width="6.17" height="10.08"/><rect class="cls-10" x="80.27" y="146.96" width="3.45" height="6.88"/><circle class="cls-6" cx="137.5" cy="187.71" r="9.29"/><rect class="cls-7" x="133.45" y="168.4" width="8.1" height="22.03"/><line class="cls-11" x1="132.5" y1="175.59" x2="143" y2="175.59"/><line class="cls-12" x1="94.21" y1="75.22" x2="105.45" y2="75.22"/><line class="cls-12" x1="94.21" y1="81.27" x2="105.45" y2="81.27"/><line class="cls-12" x1="94.21" y1="69.21" x2="105.45" y2="69.21"/><line class="cls-13" x1="94.21" y1="115.22" x2="105.45" y2="115.22"/><line class="cls-13" x1="94.21" y1="121.27" x2="105.45" y2="121.27"/><line class="cls-13" x1="94.21" y1="109.21" x2="105.45" y2="109.21"/><line class="cls-13" x1="94.21" y1="133.22" x2="105.45" y2="133.22"/><line class="cls-13" x1="94.21" y1="127.21" x2="105.45" y2="127.21"/><line class="cls-14" x1="18.5" y1="167.59" x2="29" y2="167.59"/><line class="cls-14" x1="18.5" y1="173.59" x2="29" y2="173.59"/><circle class="cls-6" cx="59.55" cy="118.63" r="9.29"/><rect class="cls-7" x="55.5" y="108.22" width="8.1" height="4.57"/><circle class="cls-6" cx="48.88" cy="57" r="9.29"/><polygon class="cls-7" points="53.5 67.41 44.32 67.59 44.5 60.59 53.5 60.59 53.5 67.41"/><circle class="cls-6" cx="23.61" cy="90.3" r="9.29"/><rect class="cls-7" x="19.5" y="95.54" width="8.33" height="5.68"/><line class="cls-15" x1="0.5" y1="204.13" x2="0.5" y2="203.7"/><line class="cls-14" x1="18.5" y1="155.59" x2="29" y2="155.59"/><line class="cls-14" x1="18.5" y1="161.59" x2="29" y2="161.59"/><line class="cls-16" x1="18.21" y1="108.22" x2="29.45" y2="108.22"/><line class="cls-16" x1="18.21" y1="114.27" x2="29.45" y2="114.27"/><line class="cls-16" x1="18.21" y1="102.21" x2="29.45" y2="102.21"/><line class="cls-6" x1="28.84" y1="147.99" x2="28.84" y2="179.99"/><text class="cls-17" transform="translate(90.62 209.5)">5<tspan class="cls-18" x="5.32" y="0">’</tspan></text><text class="cls-19" transform="translate(2.31 120.16)">P3</text><text class="cls-20" transform="translate(109.31 124.16)">P4</text><line class="cls-14" x1="18.21" y1="132.59" x2="29.45" y2="132.59"/><line class="cls-14" x1="18.21" y1="120.16" x2="29.45" y2="120.16"/><line class="cls-14" x1="18.21" y1="126.27" x2="29.45" y2="126.27"/><line class="cls-21" x1="18.5" y1="98.09" x2="18.21" y2="183.8"/><line class="cls-6" x1="28.88" y1="97.86" x2="28.88" y2="133.71"/><line class="cls-22" x1="43.04" y1="87.21" x2="105.77" y2="87.59"/><line class="cls-5" x1="43.48" y1="68.94" x2="54.71" y2="68.94"/><line class="cls-5" x1="43.48" y1="74.99" x2="54.71" y2="74.99"/><line class="cls-5" x1="43.48" y1="81.91" x2="54.71" y2="81.91"/><text class="cls-23" transform="translate(57.31 77.27)">P15</text><line class="cls-6" x1="43.5" y1="64.13" x2="43.52" y2="87.21"/><text class="cls-24" transform="translate(35.31 107.16)">P18</text><text class="cls-19" transform="translate(2.31 167.11)">P2</text><path class="cls-6" d="M88.85,154.49" transform="translate(-32.28 -31.79)"/><path class="cls-6" d="M88.85,143.29" transform="translate(-32.28 -31.79)"/><line class="cls-25" x1="54.11" y1="99.7" x2="65" y2="99.59"/><line class="cls-25" x1="54.11" y1="105.6" x2="65" y2="105.59"/><line class="cls-6" x1="64.5" y1="93.09" x2="64.5" y2="111.09"/><line class="cls-6" x1="54.5" y1="64.13" x2="54.5" y2="110.57"/><line class="cls-22" x1="64.76" y1="93.34" x2="72.91" y2="93.34"/><line class="cls-26" x1="72.72" y1="93.11" x2="72.5" y2="147.8"/><line class="cls-22" x1="28.84" y1="147.99" x2="72.72" y2="147.6"/><line class="cls-22" x1="18.21" y1="183.6" x2="88.62" y2="183.22"/><line class="cls-22" x1="28.84" y1="179.99" x2="82" y2="179.59"/><path class="cls-6" d="M122.61,175.09" transform="translate(-32.28 -31.79)"/><path class="cls-27" d="M131.9,187.38" transform="translate(-32.28 -31.79)"/><path class="cls-6" d="M141.18,175.09" transform="translate(-32.28 -31.79)"/><path class="cls-22" d="M136.94,229.38" transform="translate(-32.28 -31.79)"/><line class="cls-13" x1="94.21" y1="164.22" x2="105.45" y2="164.22"/><line class="cls-13" x1="94.21" y1="170.27" x2="105.45" y2="170.27"/><line class="cls-13" x1="94.21" y1="158.21" x2="105.45" y2="158.21"/><line class="cls-13" x1="94.21" y1="188.59" x2="105.45" y2="188.59"/><line class="cls-13" x1="94.21" y1="176.16" x2="105.45" y2="176.16"/><line class="cls-13" x1="94.21" y1="182.27" x2="105.45" y2="182.27"/><line class="cls-28" x1="94.72" y1="154.11" x2="94.5" y2="199.09"/><path class="cls-6" d="M137.78,229.88" transform="translate(-32.28 -31.79)"/><path class="cls-6" d="M137.16,185.65" transform="translate(-32.28 -31.79)"/><line class="cls-6" x1="88.5" y1="154.09" x2="88.62" y2="183.22"/><path class="cls-22" d="M126.55,186" transform="translate(-32.28 -31.79)"/><path class="cls-22" d="M119.78,186.38" transform="translate(-32.28 -31.79)"/><line class="cls-22" x1="88.06" y1="154.31" x2="95" y2="154.31"/><path class="cls-29" d="M137.78,226.88" transform="translate(-32.28 -31.79)"/><path class="cls-30" d="M138,185.9" transform="translate(-32.28 -31.79)"/><path class="cls-22" d="M116,116.38" transform="translate(-32.28 -31.79)"/><path class="cls-22" d="M117,112.79" transform="translate(-32.28 -31.79)"/><line class="cls-22" x1="82" y1="100.25" x2="105.77" y2="100.25"/><line class="cls-31" x1="94.5" y1="55.59" x2="94.5" y2="136.09"/><line class="cls-32" x1="105.5" y1="62.59" x2="105.5" y2="87.83"/><line class="cls-33" x1="105.5" y1="100.25" x2="105.5" y2="210.34"/><line class="cls-22" x1="94" y1="55.59" x2="178.5" y2="55.59"/><line class="cls-22" x1="105" y1="62.59" x2="167.81" y2="62.59"/><line class="cls-11" x1="132.5" y1="163.59" x2="143" y2="163.59"/><line class="cls-11" x1="132.5" y1="169.59" x2="143" y2="169.59"/><circle class="cls-6" cx="137.61" cy="100.3" r="9.29"/><rect class="cls-7" x="133.52" y="105" width="8.35" height="6.16"/><line class="cls-22" x1="142.66" y1="141.59" x2="179" y2="141.59"/><line class="cls-11" x1="132.5" y1="151.59" x2="143" y2="151.59"/><line class="cls-11" x1="132.5" y1="157.59" x2="143" y2="157.59"/><line class="cls-11" x1="132.21" y1="118.22" x2="143.13" y2="118.22"/><line class="cls-11" x1="132.21" y1="124.27" x2="143.13" y2="124.27"/><line class="cls-11" x1="132.21" y1="112.21" x2="143.13" y2="112.21"/><path class="cls-11" d="M164.5,207.38" transform="translate(-32.28 -31.79)"/><line class="cls-11" x1="132.21" y1="130.16" x2="143.13" y2="130.16"/><line class="cls-11" x1="132.21" y1="136.27" x2="143.13" y2="136.27"/><line class="cls-34" x1="132.5" y1="108.11" x2="132.5" y2="180.09"/><line class="cls-6" x1="142.88" y1="107.86" x2="142.88" y2="141.59"/><line class="cls-22" x1="143" y1="147.59" x2="168" y2="147.59"/><line class="cls-6" x1="142.5" y1="147.29" x2="142.5" y2="180.09"/><text class="cls-17" transform="translate(103.12 220.5)">3<tspan class="cls-18" x="5.32" y="0">’</tspan></text><line class="cls-35" x1="167.5" y1="179.59" x2="178" y2="179.59"/><line class="cls-35" x1="167.5" y1="167.59" x2="178" y2="167.59"/><line class="cls-35" x1="167.5" y1="173.59" x2="178" y2="173.59"/><line class="cls-35" x1="167.5" y1="151.59" x2="178" y2="151.59"/><line class="cls-35" x1="167.5" y1="157.59" x2="178" y2="157.59"/><line class="cls-35" x1="167.21" y1="117.22" x2="178.45" y2="117.22"/><line class="cls-35" x1="167.21" y1="123.27" x2="178.45" y2="123.27"/><line class="cls-35" x1="167.21" y1="111.21" x2="178.45" y2="111.21"/><path class="cls-35" d="M199.5,207.38" transform="translate(-32.28 -31.79)"/><line class="cls-35" x1="167.21" y1="129.16" x2="178.45" y2="129.16"/><line class="cls-35" x1="167.21" y1="135.27" x2="178.45" y2="135.27"/><line class="cls-6" x1="178.5" y1="144.32" x2="178.5" y2="180.1"/><line class="cls-36" x1="167.5" y1="62.36" x2="167.5" y2="144.38"/><line class="cls-6" x1="178.5" y1="55.34" x2="178.5" y2="141.71"/><line class="cls-37" x1="167.5" y1="147.31" x2="167.5" y2="183.59"/><line class="cls-22" x1="167" y1="144.59" x2="178" y2="144.59"/><rect class="cls-7" x="168.81" y="182.54" width="16.56" height="32.04"/><circle class="cls-6" cx="173.03" cy="251.75" r="9.29"/><rect class="cls-7" x="168.9" y="241.25" width="8.63" height="6.17"/><line class="cls-35" x1="167.92" y1="240.04" x2="178.42" y2="240.04"/><line class="cls-35" x1="167.92" y1="228.04" x2="178.42" y2="228.04"/><line class="cls-35" x1="167.92" y1="234.04" x2="178.42" y2="234.04"/><line class="cls-35" x1="167.92" y1="216.04" x2="178.42" y2="216.04"/><line class="cls-35" x1="167.92" y1="222.04" x2="178.42" y2="222.04"/><line class="cls-38" x1="167.92" y1="211.54" x2="167.92" y2="244.06"/><line class="cls-6" x1="178.5" y1="188.15" x2="178.5" y2="244.42"/><text class="cls-20" transform="translate(109.31 81.16)">P5</text><text class="cls-39" transform="translate(147.31 129.16)">P8</text><text class="cls-39" transform="translate(147.31 166.16)">P9</text><text class="cls-40" transform="translate(183.31 130.16)">P7</text><text class="cls-40" transform="translate(180.64 157.16)">P10</text><text class="cls-40" transform="translate(149.06 234.7)">P12</text><text class="cls-20" transform="translate(109.31 178.16)">P1</text><rect class="cls-10" x="91.47" y="130.4" width="5.53" height="6.38"/><text x="-32.28" y="-31.79"></text><rect class="cls-10" x="70.56" y="116.96" width="4.06" height="11.75"/><text class="cls-41" transform="translate(72.5 116.88)">AU</text><rect class="cls-10" x="69.89" y="98" width="4.06" height="11.88"/><text class="cls-41" transform="translate(72.72 97.86)">AG</text><text class="cls-42" transform="translate(86.38 141.84)">CR<tspan class="cls-43" x="6.71" y="0">Ⅰ</tspan></text><text class="cls-42" transform="translate(75.42 98.5)">CR <tspan class="cls-43" x="7.98" y="0">Ⅳ</tspan></text><text class="cls-42" transform="translate(67.06 163.75)">CR<tspan class="cls-43" x="6.71" y="0">Ⅴ</tspan></text><text class="cls-42" transform="translate(160.24 195.69)">A</text><text class="cls-42" transform="translate(159.43 200.63)">G</text><text class="cls-42" transform="translate(161.29 208.09)">A</text><text class="cls-42" transform="translate(144.92 203.75)">CR <tspan class="cls-43" x="7.98" y="0">Ⅱ</tspan></text><line class="cls-15" x1="100.91" y1="52.42" x2="100.91" y2="51.99"/><line class="cls-6" x1="123.7" y1="261.34" x2="123.7" y2="258.84"/><line class="cls-44" x1="123.7" y1="253.7" x2="123.7" y2="81.61"/><line class="cls-6" x1="123.7" y1="79.04" x2="123.7" y2="76.54"/><line class="cls-6" x1="237.75" y1="76.61" x2="235.25" y2="76.61"/><line class="cls-45" x1="230.03" y1="76.61" x2="128.24" y2="76.61"/><line class="cls-6" x1="125.63" y1="76.61" x2="123.13" y2="76.61"/><text class="cls-46" transform="translate(192.35 103.49)"><tspan class="cls-47">S</tspan><tspan class="cls-48" x="4.98" y="0">-</tspan><tspan x="8.23" y="0">domain</tspan></text><text class="cls-46" transform="translate(162.31 34.32)">C<tspan class="cls-48" x="5.8" y="0">-</tspan><tspan x="9.05" y="0">domain</tspan></text><rect class="cls-7" x="71.25" y="132.59" width="2.38" height="2"/><line class="cls-49" x1="28.66" y1="133.59" x2="92.34" y2="133.59"/><path class="cls-50" d="M76.46,81" transform="translate(-32.28 -31.79)"/><path class="cls-51" d="M86.57,81.15" transform="translate(-32.28 -31.79)"/><rect class="cls-7" x="44.51" y="45.84" width="8.99" height="6.5"/><path class="cls-52" d="M149.82,80.4" transform="translate(-32.28 -31.79)"/><path class="cls-53" d="M161.07,79.4" transform="translate(-32.28 -31.79)"/><line class="cls-13" x1="116.85" y1="55.71" x2="116.85" y2="44.48"/><line class="cls-13" x1="123.65" y1="55.71" x2="123.65" y2="44.48"/><path class="cls-54" d="M162.13,76.75" transform="translate(-32.28 -31.79)"/><path class="cls-54" d="M162.13,88" transform="translate(-32.28 -31.79)"/><line class="cls-13" x1="130.15" y1="55.97" x2="130.15" y2="44.74"/><line class="cls-13" x1="136.68" y1="55.94" x2="136.68" y2="44.71"/><path class="cls-54" d="M175.33,77" transform="translate(-32.28 -31.79)"/><path class="cls-54" d="M175.33,88.26" transform="translate(-32.28 -31.79)"/><path class="cls-55" d="M153,70.76" transform="translate(-32.28 -31.79)"/><path class="cls-56" d="M163.07,70.9" transform="translate(-32.28 -31.79)"/><line class="cls-57" x1="43.5" y1="1.72" x2="43.5" y2="49.46"/><line class="cls-6" x1="54.5" y1="12.73" x2="54.5" y2="49.5"/><path class="cls-58" d="M154.21,60.26" transform="translate(-32.28 -31.79)"/><path class="cls-59" d="M164.32,57.4" transform="translate(-32.28 -31.79)"/><rect class="cls-7" x="122.25" y="29.42" width="9" height="3.25"/><line class="cls-6" x1="114.88" y1="55.5" x2="139.44" y2="55.5"/><line class="cls-6" x1="116.31" y1="44.87" x2="137.18" y2="44.87"/><line class="cls-5" x1="121.34" y1="22.6" x2="132.57" y2="22.6"/><line class="cls-5" x1="121.34" y1="28.65" x2="132.57" y2="28.65"/><line class="cls-5" x1="121.34" y1="16.59" x2="132.57" y2="16.59"/><line class="cls-60" x1="121.25" y1="12.73" x2="121.25" y2="31.09"/><line class="cls-6" x1="132.25" y1="1.71" x2="132.25" y2="31"/><line class="cls-22" x1="43.04" y1="1.96" x2="132.56" y2="1.96"/><line class="cls-22" x1="54.01" y1="12.96" x2="121.75" y2="12.96"/><path class="cls-54" d="M120.8,33.91" transform="translate(-32.28 -31.79)"/><path class="cls-54" d="M120.8,45.14" transform="translate(-32.28 -31.79)"/><path class="cls-54" d="M134,34" transform="translate(-32.28 -31.79)"/><path class="cls-54" d="M134,45.22" transform="translate(-32.28 -31.79)"/><path class="cls-54" d="M140.92,33.58" transform="translate(-32.28 -31.79)"/><path class="cls-54" d="M140.92,44.82" transform="translate(-32.28 -31.79)"/><path class="cls-54" d="M147.28,27.11" transform="translate(-32.28 -31.79)"/><path class="cls-54" d="M147.28,38.34" transform="translate(-32.28 -31.79)"/><circle class="cls-6" cx="212.47" cy="219.67" r="9.29"/><rect class="cls-7" x="208.33" y="209.04" width="8.38" height="7.09"/><line class="cls-61" x1="207.47" y1="207.54" x2="217.97" y2="207.54"/><line class="cls-61" x1="207.47" y1="195.54" x2="217.97" y2="195.54"/><line class="cls-61" x1="207.47" y1="201.54" x2="217.97" y2="201.54"/><circle class="cls-6" cx="212.58" cy="132.25" r="9.29"/><rect class="cls-7" x="208.31" y="137.9" width="8.42" height="5.25"/><line class="cls-61" x1="207.47" y1="174.54" x2="217.97" y2="174.54"/><line class="cls-61" x1="207.47" y1="189.54" x2="217.97" y2="189.54"/><line class="cls-61" x1="207.18" y1="150.18" x2="217.86" y2="150.18"/><line class="cls-61" x1="207.18" y1="156.23" x2="217.86" y2="156.23"/><line class="cls-61" x1="207.18" y1="144.17" x2="217.86" y2="144.17"/><path class="cls-61" d="M239.46,239.33" transform="translate(-32.28 -31.79)"/><line class="cls-61" x1="207.18" y1="162.12" x2="217.89" y2="162.12"/><line class="cls-61" x1="207.18" y1="168.23" x2="217.89" y2="168.23"/><line class="cls-62" x1="207.3" y1="140.06" x2="207.3" y2="179.76"/><line class="cls-63" x1="207.3" y1="185.54" x2="207.3" y2="211.87"/><line class="cls-6" x1="217.72" y1="139.71" x2="217.72" y2="211.96"/><rect class="cls-7" x="175.03" y="191.84" width="5.94" height="11.94"/><text class="cls-42" transform="translate(176.37 196.97)">G</text><text class="cls-42" transform="translate(176.54 202.84)">U</text><line class="cls-22" x1="178.85" y1="179.85" x2="207.8" y2="179.85"/><line class="cls-22" x1="180.78" y1="185.79" x2="207.05" y2="185.79"/><rect class="cls-7" x="168.54" y="180.88" width="8.25" height="5.1"/><rect class="cls-7" x="174.52" y="182.34" width="6.54" height="5.1"/><text class="cls-42" transform="translate(176.45 187.21)">A</text><text class="cls-40" transform="translate(180.81 177.58)">P11</text><text class="cls-23" transform="translate(81.18 24.15)">P16</text><text class="cls-23" transform="translate(136.56 26.77)">P17</text><text class="cls-20" transform="translate(95.56 53.27)">P6</text><text class="cls-64" transform="translate(221.81 203.45)">P13</text><text class="cls-64" transform="translate(222.56 161.2)">P14</text><text class="cls-42" transform="translate(182.22 197)">CR <tspan class="cls-43" x="7.98" y="0">Ⅲ</tspan></text><line class="cls-65" x1="85.06" y1="224.74" x2="155.78" y2="154.02"/><polygon class="cls-65" points="47.72 260.21 83.07 249.85 83.07 320.57 12.36 320.57 22.72 285.21 12.36 249.85 47.72 260.21"/><polygon class="cls-66" points="196.89 179.85 199.35 178.44 199.35 181.27 196.89 179.85"/><polygon class="cls-66" points="53.72 183.43 56.17 182.01 56.17 184.84 53.72 183.43"/><polygon class="cls-66" points="53.08 179.83 50.63 181.25 50.63 178.41 53.08 179.83"/><polygon class="cls-66" points="49.74 133.61 47.28 135.03 47.28 132.19 49.74 133.61"/><polygon class="cls-66" points="72.53 141.96 71.11 139.5 73.95 139.5 72.53 141.96"/><polygon class="cls-66" points="82.03 110.35 83.45 112.81 80.61 112.81 82.03 110.35"/><polygon class="cls-66" points="94.47 93.24 95.88 95.69 93.05 95.69 94.47 93.24"/><polygon class="cls-66" points="76.79 87.43 79.24 86.01 79.24 88.85 76.79 87.43"/><polygon class="cls-66" points="149.18 62.6 151.64 61.18 151.64 64.01 149.18 62.6"/><polygon class="cls-66" points="151.32 55.6 148.87 57.01 148.87 54.18 151.32 55.6"/><polygon class="cls-66" points="62.25 1.97 59.79 3.39 59.79 0.55 62.25 1.97"/><polygon class="cls-66" points="109.72 12.94 112.18 11.52 112.18 14.36 109.72 12.94"/><polygon class="cls-66" points="154.46 141.61 156.92 140.19 156.92 143.02 154.46 141.61"/><polygon class="cls-66" points="178.53 146.71 179.95 149.16 177.11 149.16 178.53 146.71"/><polygon class="cls-66" points="156.46 147.59 154 149.01 154 146.17 156.46 147.59"/><rect class="cls-10" x="86.08" y="130.34" width="4.47" height="6.38"/><polygon class="cls-66" points="199.35 185.79 196.9 187.21 196.9 184.37 199.35 185.79"/><text class="cls-42" transform="translate(86.27 135.45)">G A</text><rect class="cls-10" x="80.36" y="159.38" width="3.45" height="13.08"/><text class="cls-41" transform="translate(81.93 159.85)">CA</text><text class="cls-42" transform="translate(80.1 152.45)">A</text><polygon class="cls-66" points="54.49 33.35 53.07 30.9 55.91 30.9 54.49 33.35"/></svg>