<svg id="图层_1" data-name="图层 1" xmlns="http://www.w3.org/2000/svg" xmlns:xlink="http://www.w3.org/1999/xlink" viewBox="0 0 238.14 264.65"><defs><style>.cls-1,.cls-11,.cls-12,.cls-18,.cls-2,.cls-21,.cls-23,.cls-24,.cls-32,.cls-41,.cls-42,.cls-51,.cls-58,.cls-7,.cls-8,.cls-9{fill:none;}.cls-1{stroke:#e7211a;}.cls-17,.cls-18,.cls-2,.cls-22,.cls-23,.cls-25,.cls-26,.cls-27,.cls-28,.cls-29,.cls-30,.cls-31,.cls-33,.cls-34,.cls-35,.cls-4,.cls-41,.cls-42,.cls-47,.cls-48,.cls-49,.cls-5,.cls-50,.cls-52,.cls-53,.cls-54,.cls-55,.cls-56,.cls-57,.cls-59,.cls-60{stroke:#221e1f;}.cls-3,.cls-4,.cls-6{fill:#fff;}.cls-11,.cls-3{stroke:#fff;}.cls-5{fill:url(#未命名的渐变_2);}.cls-7{stroke:#3eac4a;}.cls-8{stroke:#076fb2;}.cls-9{stroke:#036eb8;}.cls-10,.cls-61{fill:#2ea7e0;}.cls-10,.cls-12{stroke:#d796c0;}.cls-13{font-size:10.37px;}.cls-13,.cls-43,.cls-46{fill:#221e1f;}.cls-13,.cls-15,.cls-16,.cls-19,.cls-20,.cls-36,.cls-37,.cls-38,.cls-39,.cls-43,.cls-61{font-family:MyriadPro-Regular, Myriad Pro;}.cls-14{letter-spacing:-0.09em;}.cls-15,.cls-16,.cls-19,.cls-20,.cls-36,.cls-37,.cls-43,.cls-46,.cls-61{font-size:10px;}.cls-15{fill:#d796c0;}.cls-16{fill:#036eb8;}.cls-17{fill:url(#未命名的渐变_2-2);}.cls-18,.cls-23{stroke-width:0.5px;}.cls-19{fill:#e7211a;}.cls-20{fill:#e87728;}.cls-21{stroke:#e87728;}.cls-22{fill:url(#未命名的渐变_2-3);}.cls-23{stroke-dasharray:5.35 5.35;}.cls-24{stroke:#0c6bb0;}.cls-25{fill:url(#未命名的渐变_2-4);}.cls-26{fill:url(#未命名的渐变_2-5);}.cls-27{fill:url(#未命名的渐变_2-6);}.cls-28{fill:url(#未命名的渐变_2-7);}.cls-29{fill:url(#未命名的渐变_2-8);}.cls-30{fill:url(#未命名的渐变_2-9);}.cls-31{fill:url(#未命名的渐变_2-10);}.cls-32{stroke:#cbb047;}.cls-33{fill:url(#未命名的渐变_2-11);}.cls-34{fill:url(#未命名的渐变_2-12);}.cls-35{fill:url(#未命名的渐变_2-13);}.cls-36{fill:#3eac4a;}.cls-37{fill:#cbb047;}.cls-38,.cls-39{font-size:6px;fill:#4d4d4d;}.cls-39{writing-mode:tb;text-orientation:upright;glyph-orientation-vertical:0deg;}.cls-40,.cls-46{font-family:AdobeSongStd-Light-GBpc-EUC-H, Adobe Song Std;}.cls-41{stroke-dasharray:5.14 5.14;}.cls-42{stroke-dasharray:5.22 5.22;}.cls-44{letter-spacing:0em;}.cls-45{letter-spacing:0.02em;}.cls-47{fill:url(#未命名的渐变_2-14);}.cls-48{fill:url(#未命名的渐变_2-15);}.cls-49{fill:url(#未命名的渐变_2-16);}.cls-50{fill:url(#未命名的渐变_2-17);}.cls-51{stroke:#929496;}.cls-52{fill:url(#未命名的渐变_2-18);}.cls-53{fill:url(#未命名的渐变_2-19);}.cls-54{fill:url(#未命名的渐变_2-20);}.cls-55{fill:url(#未命名的渐变_2-21);}.cls-56{fill:url(#未命名的渐变_2-22);}.cls-57{fill:url(#未命名的渐变_2-23);}.cls-58{stroke:#2ea7e0;}.cls-59{fill:url(#未命名的渐变_2-24);}.cls-60{fill:url(#未命名的渐变_2-25);}</style><linearGradient id="未命名的渐变_2" x1="82" y1="143.02" x2="82" y2="143.02" gradientUnits="userSpaceOnUse"><stop offset="0" stop-color="#fff"/><stop offset="1"/></linearGradient><linearGradient id="未命名的渐变_2-2" x1="18.21" y1="144.06" x2="18.5" y2="144.06" xlink:href="#未命名的渐变_2"/><linearGradient id="未命名的渐变_2-3" x1="72.5" y1="123.56" x2="72.72" y2="123.56" xlink:href="#未命名的渐变_2"/><linearGradient id="未命名的渐变_2-4" x1="94.5" y1="179.71" x2="94.72" y2="179.71" xlink:href="#未命名的渐变_2"/><linearGradient id="未命名的渐变_2-5" x1="137.78" y1="226.88" x2="137.78" y2="226.88" xlink:href="#未命名的渐变_2"/><linearGradient id="未命名的渐变_2-6" x1="138" y1="185.9" x2="138" y2="185.9" xlink:href="#未命名的渐变_2"/><linearGradient id="未命名的渐变_2-7" x1="94.5" y1="98.95" x2="94.5" y2="98.95" xlink:href="#未命名的渐变_2"/><linearGradient id="未命名的渐变_2-8" x1="105.5" y1="78.32" x2="105.5" y2="78.32" xlink:href="#未命名的渐变_2"/><linearGradient id="未命名的渐变_2-9" x1="105.5" y1="158.41" x2="105.5" y2="158.41" xlink:href="#未命名的渐变_2"/><linearGradient id="未命名的渐变_2-10" x1="132.5" y1="147.21" x2="132.5" y2="147.21" xlink:href="#未命名的渐变_2"/><linearGradient id="未命名的渐变_2-11" x1="167.5" y1="106.48" x2="167.5" y2="106.48" xlink:href="#未命名的渐变_2"/><linearGradient id="未命名的渐变_2-12" x1="167.5" y1="168.56" x2="167.5" y2="168.56" xlink:href="#未命名的渐变_2"/><linearGradient id="未命名的渐变_2-13" x1="167.92" y1="230.92" x2="167.92" y2="230.92" xlink:href="#未命名的渐变_2"/><linearGradient id="未命名的渐变_2-14" x1="76.46" y1="81.01" x2="76.46" y2="81.01" xlink:href="#未命名的渐变_2"/><linearGradient id="未命名的渐变_2-15" x1="86.57" y1="81.15" x2="86.57" y2="81.15" xlink:href="#未命名的渐变_2"/><linearGradient id="未命名的渐变_2-16" x1="149.82" y1="80.4" x2="149.82" y2="80.4" xlink:href="#未命名的渐变_2"/><linearGradient id="未命名的渐变_2-17" x1="161.07" y1="79.4" x2="161.07" y2="79.4" xlink:href="#未命名的渐变_2"/><linearGradient id="未命名的渐变_2-18" x1="152.96" y1="70.76" x2="152.96" y2="70.76" xlink:href="#未命名的渐变_2"/><linearGradient id="未命名的渐变_2-19" x1="163.07" y1="70.9" x2="163.07" y2="70.9" xlink:href="#未命名的渐变_2"/><linearGradient id="未命名的渐变_2-20" x1="43.5" y1="28.7" x2="43.5" y2="28.7" xlink:href="#未命名的渐变_2"/><linearGradient id="未命名的渐变_2-21" x1="154.21" y1="60.26" x2="154.21" y2="60.26" xlink:href="#未命名的渐变_2"/><linearGradient id="未命名的渐变_2-22" x1="164.32" y1="57.4" x2="164.32" y2="57.4" xlink:href="#未命名的渐变_2"/><linearGradient id="未命名的渐变_2-23" x1="121.25" y1="25.02" x2="121.25" y2="25.02" xlink:href="#未命名的渐变_2"/><linearGradient id="未命名的渐变_2-24" x1="207.3" y1="163.02" x2="207.3" y2="163.02" xlink:href="#未命名的渐变_2"/><linearGradient id="未命名的渐变_2-25" x1="207.3" y1="201.82" x2="207.3" y2="201.82" xlink:href="#未命名的渐变_2"/></defs><title>Fig1  RNase P 二级结构</title><line class="cls-1" x1="75.52" y1="15.99" x2="75.52" y2="4.76"/><line class="cls-1" x1="82.31" y1="15.99" x2="82.31" y2="4.76"/><line class="cls-1" x1="88.85" y1="16.04" x2="88.85" y2="4.81"/><line class="cls-1" x1="95.39" y1="16.01" x2="95.39" y2="4.78"/><line class="cls-1" x1="102.1" y1="16.17" x2="102.1" y2="4.93"/><ellipse class="cls-2" cx="126.72" cy="41.32" rx="18.34" ry="8.06"/><rect class="cls-3" x="117.8" y="46.85" width="18.12" height="4.94"/><ellipse class="cls-4" cx="173" cy="200.76" rx="11.34" ry="16.19"/><rect class="cls-3" x="159.64" y="207.08" width="7.11" height="4.31"/><rect class="cls-3" x="174.89" y="197.56" width="5.9" height="10.95"/><line class="cls-5" x1="82" y1="103.14" x2="82" y2="182.9"/><rect class="cls-6" x="158.64" y="194.03" width="6.17" height="10.08"/><rect class="cls-6" x="80.27" y="144.14" width="3.45" height="35.58"/><circle class="cls-2" cx="137.5" cy="190.82" r="9.29"/><rect class="cls-3" x="133.45" y="171.52" width="8.1" height="22.03"/><line class="cls-7" x1="132.5" y1="178.7" x2="143" y2="178.7"/><line class="cls-8" x1="94.21" y1="78.34" x2="105.45" y2="78.34"/><line class="cls-8" x1="94.21" y1="84.39" x2="105.45" y2="84.39"/><line class="cls-8" x1="94.21" y1="72.33" x2="105.45" y2="72.33"/><line class="cls-9" x1="94.21" y1="118.34" x2="105.45" y2="118.34"/><line class="cls-9" x1="94.21" y1="124.39" x2="105.45" y2="124.39"/><line class="cls-9" x1="94.21" y1="112.33" x2="105.45" y2="112.33"/><line class="cls-9" x1="94.21" y1="136.34" x2="105.45" y2="136.34"/><line class="cls-9" x1="94.21" y1="130.33" x2="105.45" y2="130.33"/><line class="cls-10" x1="18.5" y1="170.7" x2="29" y2="170.7"/><line class="cls-10" x1="18.5" y1="176.7" x2="29" y2="176.7"/><circle class="cls-2" cx="59.55" cy="121.74" r="9.29"/><rect class="cls-3" x="55.5" y="111.34" width="8.1" height="4.57"/><circle class="cls-2" cx="48.88" cy="60.12" r="9.29"/><polygon class="cls-3" points="53.5 70.52 44.32 70.7 44.5 63.7 53.5 63.7 53.5 70.52"/><circle class="cls-2" cx="23.61" cy="93.41" r="9.29"/><rect class="cls-3" x="19.5" y="98.65" width="8.33" height="5.68"/><line class="cls-11" x1="0.5" y1="207.24" x2="0.5" y2="206.81"/><line class="cls-10" x1="18.5" y1="158.7" x2="29" y2="158.7"/><line class="cls-10" x1="18.5" y1="164.7" x2="29" y2="164.7"/><line class="cls-12" x1="18.21" y1="111.34" x2="29.45" y2="111.34"/><line class="cls-12" x1="18.21" y1="117.39" x2="29.45" y2="117.39"/><line class="cls-12" x1="18.21" y1="105.33" x2="29.45" y2="105.33"/><line class="cls-2" x1="28.84" y1="151.11" x2="28.84" y2="183.11"/><text class="cls-13" transform="translate(90.62 212.61)">5<tspan class="cls-14" x="5.32" y="0">’</tspan></text><text class="cls-15" transform="translate(2.31 123.28)">P3</text><text class="cls-16" transform="translate(109.31 127.27)">P4</text><line class="cls-10" x1="18.21" y1="135.7" x2="29.45" y2="135.7"/><line class="cls-10" x1="18.21" y1="123.28" x2="29.45" y2="123.28"/><line class="cls-10" x1="18.21" y1="129.39" x2="29.45" y2="129.39"/><line class="cls-17" x1="18.5" y1="101.2" x2="18.21" y2="186.92"/><line class="cls-2" x1="28.88" y1="100.97" x2="28.88" y2="136.83"/><line class="cls-18" x1="43.04" y1="90.33" x2="105.77" y2="90.7"/><line class="cls-1" x1="43.48" y1="72.06" x2="54.71" y2="72.06"/><line class="cls-1" x1="43.48" y1="78.11" x2="54.71" y2="78.11"/><line class="cls-1" x1="43.48" y1="85.02" x2="54.71" y2="85.02"/><text class="cls-19" transform="translate(57.31 80.39)">P15</text><line class="cls-2" x1="43.5" y1="67.24" x2="43.52" y2="90.33"/><text class="cls-20" transform="translate(35.31 110.28)">P18</text><text class="cls-15" transform="translate(2.31 170.23)">P2</text><path class="cls-2" d="M88.85,154.49" transform="translate(-32.28 -28.68)"/><path class="cls-2" d="M88.85,143.29" transform="translate(-32.28 -28.68)"/><line class="cls-21" x1="54.11" y1="102.81" x2="65" y2="102.7"/><line class="cls-21" x1="54.11" y1="108.71" x2="65" y2="108.7"/><line class="cls-2" x1="64.5" y1="96.2" x2="64.5" y2="114.2"/><line class="cls-2" x1="54.5" y1="67.24" x2="54.5" y2="113.68"/><line class="cls-18" x1="64.76" y1="96.45" x2="72.91" y2="96.45"/><line class="cls-22" x1="72.72" y1="96.22" x2="72.5" y2="150.91"/><line class="cls-18" x1="28.84" y1="151.11" x2="72.72" y2="150.71"/><line class="cls-18" x1="18.21" y1="186.71" x2="88.62" y2="186.33"/><line class="cls-18" x1="28.84" y1="183.11" x2="31.34" y2="183.09"/><line class="cls-23" x1="36.69" y1="183.05" x2="76.82" y2="182.74"/><line class="cls-18" x1="79.5" y1="182.72" x2="82" y2="182.7"/><path class="cls-2" d="M122.61,175.09" transform="translate(-32.28 -28.68)"/><path class="cls-24" d="M131.9,187.38" transform="translate(-32.28 -28.68)"/><path class="cls-2" d="M141.18,175.09" transform="translate(-32.28 -28.68)"/><path class="cls-18" d="M136.94,229.38" transform="translate(-32.28 -28.68)"/><line class="cls-9" x1="94.21" y1="167.34" x2="105.45" y2="167.34"/><line class="cls-9" x1="94.21" y1="173.39" x2="105.45" y2="173.39"/><line class="cls-9" x1="94.21" y1="161.33" x2="105.45" y2="161.33"/><line class="cls-9" x1="94.21" y1="191.7" x2="105.45" y2="191.7"/><line class="cls-9" x1="94.21" y1="179.28" x2="105.45" y2="179.28"/><line class="cls-9" x1="94.21" y1="185.39" x2="105.45" y2="185.39"/><line class="cls-25" x1="94.72" y1="157.22" x2="94.5" y2="202.2"/><path class="cls-2" d="M137.78,229.88" transform="translate(-32.28 -28.68)"/><path class="cls-2" d="M137.16,185.65" transform="translate(-32.28 -28.68)"/><line class="cls-2" x1="88.5" y1="157.2" x2="88.62" y2="186.33"/><path class="cls-18" d="M126.55,186" transform="translate(-32.28 -28.68)"/><path class="cls-18" d="M119.78,186.38" transform="translate(-32.28 -28.68)"/><line class="cls-18" x1="88.06" y1="157.42" x2="95" y2="157.42"/><path class="cls-26" d="M137.78,226.88" transform="translate(-32.28 -28.68)"/><path class="cls-27" d="M138,185.9" transform="translate(-32.28 -28.68)"/><path class="cls-18" d="M116,116.38" transform="translate(-32.28 -28.68)"/><path class="cls-18" d="M117,112.79" transform="translate(-32.28 -28.68)"/><line class="cls-18" x1="82" y1="103.37" x2="105.77" y2="103.37"/><line class="cls-28" x1="94.5" y1="58.7" x2="94.5" y2="139.2"/><line class="cls-29" x1="105.5" y1="65.7" x2="105.5" y2="90.94"/><line class="cls-30" x1="105.5" y1="103.37" x2="105.5" y2="213.45"/><line class="cls-18" x1="94" y1="58.7" x2="178.5" y2="58.7"/><line class="cls-18" x1="105" y1="65.7" x2="167.81" y2="65.7"/><line class="cls-7" x1="132.5" y1="166.7" x2="143" y2="166.7"/><line class="cls-7" x1="132.5" y1="172.7" x2="143" y2="172.7"/><circle class="cls-2" cx="137.61" cy="103.41" r="9.29"/><rect class="cls-3" x="133.52" y="108.12" width="8.35" height="6.16"/><line class="cls-18" x1="142.66" y1="144.7" x2="179" y2="144.7"/><line class="cls-7" x1="132.5" y1="154.7" x2="143" y2="154.7"/><line class="cls-7" x1="132.5" y1="160.7" x2="143" y2="160.7"/><line class="cls-7" x1="132.21" y1="121.34" x2="143.13" y2="121.34"/><line class="cls-7" x1="132.21" y1="127.39" x2="143.13" y2="127.39"/><line class="cls-7" x1="132.21" y1="115.33" x2="143.13" y2="115.33"/><path class="cls-7" d="M164.5,207.38" transform="translate(-32.28 -28.68)"/><line class="cls-7" x1="132.21" y1="133.28" x2="143.13" y2="133.28"/><line class="cls-7" x1="132.21" y1="139.39" x2="143.13" y2="139.39"/><line class="cls-31" x1="132.5" y1="111.22" x2="132.5" y2="183.2"/><line class="cls-2" x1="142.88" y1="110.97" x2="142.88" y2="144.7"/><line class="cls-18" x1="143" y1="150.7" x2="168" y2="150.7"/><line class="cls-2" x1="142.5" y1="150.41" x2="142.5" y2="183.2"/><text class="cls-13" transform="translate(103.12 223.61)">3<tspan class="cls-14" x="5.32" y="0">’</tspan></text><line class="cls-32" x1="167.5" y1="182.7" x2="178" y2="182.7"/><line class="cls-32" x1="167.5" y1="170.7" x2="178" y2="170.7"/><line class="cls-32" x1="167.5" y1="176.7" x2="178" y2="176.7"/><line class="cls-32" x1="167.5" y1="154.7" x2="178" y2="154.7"/><line class="cls-32" x1="167.5" y1="160.7" x2="178" y2="160.7"/><line class="cls-32" x1="167.21" y1="120.34" x2="178.45" y2="120.34"/><line class="cls-32" x1="167.21" y1="126.39" x2="178.45" y2="126.39"/><line class="cls-32" x1="167.21" y1="114.33" x2="178.45" y2="114.33"/><path class="cls-32" d="M199.5,207.38" transform="translate(-32.28 -28.68)"/><line class="cls-32" x1="167.21" y1="132.28" x2="178.45" y2="132.28"/><line class="cls-32" x1="167.21" y1="138.39" x2="178.45" y2="138.39"/><line class="cls-2" x1="178.5" y1="147.44" x2="178.5" y2="183.21"/><line class="cls-33" x1="167.5" y1="65.47" x2="167.5" y2="147.49"/><line class="cls-2" x1="178.5" y1="58.45" x2="178.5" y2="144.83"/><line class="cls-34" x1="167.5" y1="150.43" x2="167.5" y2="186.7"/><line class="cls-18" x1="167" y1="147.7" x2="178" y2="147.7"/><rect class="cls-3" x="168.81" y="185.66" width="16.56" height="32.04"/><circle class="cls-2" cx="173.03" cy="254.86" r="9.29"/><rect class="cls-3" x="168.9" y="244.37" width="8.63" height="6.17"/><line class="cls-32" x1="167.92" y1="243.15" x2="178.42" y2="243.15"/><line class="cls-32" x1="167.92" y1="231.15" x2="178.42" y2="231.15"/><line class="cls-32" x1="167.92" y1="237.15" x2="178.42" y2="237.15"/><line class="cls-32" x1="167.92" y1="219.15" x2="178.42" y2="219.15"/><line class="cls-32" x1="167.92" y1="225.15" x2="178.42" y2="225.15"/><line class="cls-35" x1="167.92" y1="214.65" x2="167.92" y2="247.18"/><line class="cls-2" x1="178.5" y1="191.26" x2="178.5" y2="247.53"/><text class="cls-16" transform="translate(109.31 84.27)">P5</text><text class="cls-36" transform="translate(147.31 132.27)">P8</text><text class="cls-36" transform="translate(147.31 169.27)">P9</text><text class="cls-37" transform="translate(183.31 133.27)">P7</text><text class="cls-37" transform="translate(180.64 160.27)">P10</text><text class="cls-37" transform="translate(149.06 237.82)">P12</text><text class="cls-16" transform="translate(109.31 181.27)">P1</text><rect class="cls-6" x="80" y="133.51" width="17" height="6.38"/><text class="cls-38" transform="translate(81.23 138.7)">GGAA</text><text x="-32.28" y="-28.68"></text><text class="cls-39" transform="translate(82 144.14)">AAGACA</text><rect class="cls-6" x="52.5" y="94.29" width="4.06" height="11.28"/><text class="cls-39" transform="translate(54.5 93.91)">AG</text><rect class="cls-6" x="69.89" y="101.11" width="4.06" height="11.88"/><text class="cls-39" transform="translate(72.72 100.97)">AU</text><text class="cls-38" transform="translate(87.5 144.7)">CR<tspan class="cls-40" x="6.71" y="0">Ⅰ</tspan></text><text class="cls-38" transform="translate(40 99.53)">CR<tspan class="cls-40" x="6.71" y="0">Ⅳ</tspan></text><text class="cls-38" transform="translate(63.89 163.37)">CR<tspan class="cls-40" x="6.71" y="0">Ⅴ</tspan></text><text class="cls-38" transform="translate(160.24 198.81)">A</text><text class="cls-38" transform="translate(159.43 203.75)">G</text><text class="cls-38" transform="translate(161.29 211.2)">A</text><text class="cls-38" transform="translate(146.92 207.87)">CR<tspan class="cls-40" x="6.71" y="0">Ⅱ</tspan></text><line class="cls-11" x1="100.91" y1="55.54" x2="100.91" y2="55.1"/><line class="cls-2" x1="123.7" y1="264.45" x2="123.7" y2="261.95"/><line class="cls-41" x1="123.7" y1="256.81" x2="123.7" y2="84.72"/><line class="cls-2" x1="123.7" y1="82.15" x2="123.7" y2="79.65"/><line class="cls-2" x1="237.75" y1="79.72" x2="235.25" y2="79.72"/><line class="cls-42" x1="230.03" y1="79.72" x2="128.24" y2="79.72"/><line class="cls-2" x1="125.63" y1="79.72" x2="123.13" y2="79.72"/><text class="cls-43" transform="translate(192.35 106.6)"><tspan class="cls-44">S</tspan><tspan class="cls-45" x="4.98" y="0">-</tspan><tspan x="8.23" y="0">domain</tspan></text><text class="cls-43" transform="translate(162.31 37.43)">C<tspan class="cls-45" x="5.8" y="0">-</tspan><tspan x="9.05" y="0">domain</tspan></text><text class="cls-46" transform="translate(48.06 186.71) scale(0.55 1)">→</text><text class="cls-46" transform="translate(58.45 182.72) rotate(179.94) scale(0.55 1)">→</text><text class="cls-46" transform="translate(68.78 139.62) rotate(90.1) scale(0.55 1)">→</text><text class="cls-46" transform="translate(46.83 140.44) scale(0.55 1)">→</text><text class="cls-46" transform="translate(85.71 121.91) rotate(-90.11) scale(0.55 1)">→</text><text class="cls-46" transform="translate(159.42 140.98) rotate(179.94) scale(0.55 1)">→</text><text class="cls-46" transform="translate(152.25 154.45) scale(0.55 1)">→</text><text class="cls-46" transform="translate(182.32 154.97) rotate(-90.11) scale(0.55 1)">→</text><rect class="cls-3" x="71.25" y="135.7" width="2.38" height="2"/><line class="cls-18" x1="28.66" y1="136.7" x2="81.16" y2="136.7"/><path class="cls-47" d="M76.46,81" transform="translate(-32.28 -28.68)"/><path class="cls-48" d="M86.57,81.15" transform="translate(-32.28 -28.68)"/><rect class="cls-3" x="44.51" y="48.95" width="8.99" height="6.5"/><path class="cls-49" d="M149.82,80.4" transform="translate(-32.28 -28.68)"/><path class="cls-50" d="M161.07,79.4" transform="translate(-32.28 -28.68)"/><line class="cls-9" x1="116.85" y1="58.82" x2="116.85" y2="47.59"/><line class="cls-9" x1="123.65" y1="58.82" x2="123.65" y2="47.59"/><path class="cls-51" d="M162.13,76.75" transform="translate(-32.28 -28.68)"/><path class="cls-51" d="M162.13,88" transform="translate(-32.28 -28.68)"/><line class="cls-9" x1="130.15" y1="59.08" x2="130.15" y2="47.85"/><line class="cls-9" x1="136.68" y1="59.06" x2="136.68" y2="47.83"/><path class="cls-51" d="M175.33,77" transform="translate(-32.28 -28.68)"/><path class="cls-51" d="M175.33,88.26" transform="translate(-32.28 -28.68)"/><path class="cls-52" d="M153,70.76" transform="translate(-32.28 -28.68)"/><path class="cls-53" d="M163.07,70.9" transform="translate(-32.28 -28.68)"/><line class="cls-54" x1="43.5" y1="4.83" x2="43.5" y2="52.57"/><line class="cls-2" x1="54.5" y1="15.84" x2="54.5" y2="52.62"/><path class="cls-55" d="M154.21,60.26" transform="translate(-32.28 -28.68)"/><path class="cls-56" d="M164.32,57.4" transform="translate(-32.28 -28.68)"/><rect class="cls-3" x="122.25" y="32.53" width="9" height="3.25"/><line class="cls-2" x1="114.88" y1="58.61" x2="139.44" y2="58.61"/><line class="cls-2" x1="116.31" y1="47.98" x2="137.18" y2="47.98"/><line class="cls-1" x1="121.34" y1="25.71" x2="132.57" y2="25.71"/><line class="cls-1" x1="121.34" y1="31.76" x2="132.57" y2="31.76"/><line class="cls-1" x1="121.34" y1="19.7" x2="132.57" y2="19.7"/><line class="cls-57" x1="121.25" y1="15.84" x2="121.25" y2="34.2"/><line class="cls-2" x1="132.25" y1="4.82" x2="132.25" y2="34.12"/><line class="cls-18" x1="43.04" y1="5.08" x2="132.56" y2="5.08"/><line class="cls-18" x1="54.01" y1="16.08" x2="121.75" y2="16.08"/><path class="cls-51" d="M120.8,33.91" transform="translate(-32.28 -28.68)"/><path class="cls-51" d="M120.8,45.14" transform="translate(-32.28 -28.68)"/><path class="cls-51" d="M134,34" transform="translate(-32.28 -28.68)"/><path class="cls-51" d="M134,45.22" transform="translate(-32.28 -28.68)"/><path class="cls-51" d="M140.92,33.58" transform="translate(-32.28 -28.68)"/><path class="cls-51" d="M140.92,44.82" transform="translate(-32.28 -28.68)"/><path class="cls-51" d="M147.28,27.11" transform="translate(-32.28 -28.68)"/><path class="cls-51" d="M147.28,38.34" transform="translate(-32.28 -28.68)"/><circle class="cls-2" cx="212.47" cy="222.78" r="9.29"/><rect class="cls-3" x="208.33" y="212.16" width="8.38" height="7.09"/><line class="cls-58" x1="207.47" y1="210.66" x2="217.97" y2="210.66"/><line class="cls-58" x1="207.47" y1="198.66" x2="217.97" y2="198.66"/><line class="cls-58" x1="207.47" y1="204.66" x2="217.97" y2="204.66"/><circle class="cls-2" cx="212.58" cy="135.37" r="9.29"/><rect class="cls-3" x="208.31" y="141.01" width="8.42" height="5.25"/><line class="cls-58" x1="207.47" y1="177.66" x2="217.97" y2="177.66"/><line class="cls-58" x1="207.47" y1="192.66" x2="217.97" y2="192.66"/><line class="cls-58" x1="207.18" y1="153.29" x2="217.86" y2="153.29"/><line class="cls-58" x1="207.18" y1="159.34" x2="217.86" y2="159.34"/><line class="cls-58" x1="207.18" y1="147.28" x2="217.86" y2="147.28"/><path class="cls-58" d="M239.46,239.33" transform="translate(-32.28 -28.68)"/><line class="cls-58" x1="207.18" y1="165.23" x2="217.89" y2="165.23"/><line class="cls-58" x1="207.18" y1="171.34" x2="217.89" y2="171.34"/><line class="cls-59" x1="207.3" y1="143.17" x2="207.3" y2="182.88"/><line class="cls-60" x1="207.3" y1="188.65" x2="207.3" y2="214.99"/><line class="cls-2" x1="217.72" y1="142.82" x2="217.72" y2="215.07"/><rect class="cls-3" x="175.03" y="194.95" width="5.94" height="11.94"/><text class="cls-38" transform="translate(176.37 200.08)">G</text><text class="cls-38" transform="translate(176.54 205.95)">U</text><line class="cls-18" x1="178.85" y1="182.96" x2="207.8" y2="182.96"/><line class="cls-18" x1="180.78" y1="188.9" x2="207.05" y2="188.9"/><rect class="cls-3" x="168.54" y="184" width="8.25" height="5.1"/><rect class="cls-3" x="174.52" y="185.45" width="6.54" height="5.1"/><text class="cls-38" transform="translate(176.45 190.33)">A</text><text class="cls-37" transform="translate(180.81 180.69)">P11</text><text class="cls-19" transform="translate(81.18 27.26)">P16</text><text class="cls-19" transform="translate(136.56 29.89)">P17</text><text class="cls-16" transform="translate(95.56 56.39)">P6</text><text class="cls-46" transform="translate(114.7 12.22) rotate(179.94) scale(0.55 1)">→</text><text class="cls-46" transform="translate(148.05 62.41) scale(0.55 1)">→</text><text class="cls-46" transform="translate(160.42 61.97) rotate(179.94) scale(0.55 1)">→</text><text class="cls-46" transform="translate(190.04 192.62) scale(0.55 1)">→</text><text class="cls-46" transform="translate(203.42 179.23) rotate(179.94) scale(0.55 1)">→</text><text class="cls-61" transform="translate(221.81 206.57)">P13</text><text class="cls-61" transform="translate(222.56 164.32)">P14</text><text class="cls-46" transform="translate(98.29 99.3) rotate(-90.11) scale(0.55 1)">→</text><text class="cls-46" transform="translate(82.07 86.79) rotate(179.94) scale(0.55 1)">→</text><text class="cls-46" transform="translate(60.26 8.8) scale(0.55 1)">→</text><text class="cls-38" transform="translate(182.22 200.12)">CR<tspan class="cls-40" x="6.71" y="0">Ⅲ</tspan></text></svg>