<svg id="Layer_1" data-name="Layer 1" xmlns="http://www.w3.org/2000/svg" viewBox="0 0 119.2 186.6"><defs><style>.cls-1,.cls-10,.cls-2,.cls-3,.cls-4,.cls-5,.cls-7,.cls-8,.cls-9{fill:none;}.cls-1{stroke:#009444;}.cls-2{stroke:#eb8fbc;}.cls-3{stroke:#e48dbb;}.cls-4{stroke:#eb96c0;}.cls-5,.cls-6{stroke:#221e1f;}.cls-11,.cls-15,.cls-6{fill:#fff;}.cls-11,.cls-7{stroke:#fff;}.cls-8{stroke:#ea9ac2;}.cls-9{stroke:#ed1b23;}.cls-10,.cls-12{stroke:#00aeef;}.cls-12,.cls-18{fill:#00aeef;}.cls-13,.cls-17,.cls-18,.cls-19,.cls-20,.cls-21,.cls-22{font-size:8px;}.cls-13{fill:#221e1f;font-family:HelveticaNeue;}.cls-14{letter-spacing:-0.09em;}.cls-15{stroke:#0071bc;}.cls-16{font-size:6.42px;}.cls-16,.cls-17{fill:#0071bc;}.cls-16,.cls-17,.cls-19,.cls-20,.cls-21,.cls-22,.cls-23{font-family:HelveticaNeue-Light, HelveticaNeue Light;font-weight:300;}.cls-18{font-family:MyriadPro-Regular, Myriad Pro;}.cls-19{fill:#ed1b23;}.cls-20{fill:#009444;}.cls-21{fill:#ea9ac2;}.cls-22{fill:#eb8fbc;}.cls-23{font-size:6px;fill:#ed2123;}</style></defs><line class="cls-1" x1="96.8" y1="35.5" x2="106.9" y2="35.5"/><line class="cls-1" x1="96.8" y1="41.5" x2="106.9" y2="41.5"/><line class="cls-1" x1="96.8" y1="48.5" x2="106.9" y2="48.5"/><line class="cls-1" x1="96.3" y1="106.3" x2="108.1" y2="106.3"/><line class="cls-1" x1="96.3" y1="112.4" x2="108.1" y2="112.4"/><line class="cls-1" x1="96.3" y1="119.3" x2="108.1" y2="119.3"/><line class="cls-2" x1="55.8" y1="152.6" x2="68.3" y2="152.6"/><line class="cls-3" x1="55.8" y1="158.6" x2="68.3" y2="158.6"/><line class="cls-4" x1="55.8" y1="165.5" x2="68.3" y2="165.5"/><path class="cls-5" d="M218.5,437.2a9.3,9.3,0,1,1-9.3-9.3A9.3,9.3,0,0,1,218.5,437.2Z" transform="translate(-172.6 -427.4)"/><line class="cls-5" x1="42.6" y1="52.8" x2="73.7" y2="52.8"/><line class="cls-5" x1="43.2" y1="67.5" x2="62.9" y2="67.5"/><line class="cls-5" x1="54.7" y1="113.7" x2="73.7" y2="113.7"/><line class="cls-5" x1="43.5" y1="147.8" x2="43.5" y2="170.7"/><line class="cls-5" x1="55.8" y1="124.5" x2="96.4" y2="124.5"/><line class="cls-5" x1="54.7" y1="89.5" x2="62.9" y2="89.5"/><line class="cls-5" x1="43.5" y1="170.7" x2="56.2" y2="170.7"/><line class="cls-5" x1="96.4" y1="23" x2="96.4" y2="124.5"/><line class="cls-5" x1="107.4" y1="23" x2="107.4" y2="125.3"/><path class="cls-5" d="M283.5,443.5a9.3,9.3,0,1,1-9.3-9.3A9.3,9.3,0,0,1,283.5,443.5Z" transform="translate(-172.6 -427.4)"/><line class="cls-5" x1="69" y1="148.2" x2="69" y2="178.1"/><line class="cls-5" x1="68.3" y1="148.2" x2="107.4" y2="148.2"/><path class="cls-6" d="M286,506.7c0,11.4-5.1,20.6-11.3,20.6s-11.4-9.2-11.4-20.6,5.1-20.5,11.4-20.5S286,495.4,286,506.7Z" transform="translate(-172.6 -427.4)"/><line class="cls-7" x1="13.5" y1="123.6" x2="13.5" y2="123.2"/><line class="cls-8" x1="43.3" y1="130.5" x2="55.8" y2="130.5"/><line class="cls-8" x1="43.3" y1="136.6" x2="55.8" y2="136.6"/><line class="cls-8" x1="43.3" y1="143.5" x2="55.8" y2="143.5"/><line class="cls-9" x1="43.3" y1="99" x2="55.3" y2="99"/><line class="cls-9" x1="43.3" y1="105" x2="55.3" y2="105"/><line class="cls-9" x1="43.3" y1="112" x2="55.3" y2="112"/><line class="cls-9" x1="62.7" y1="72.6" x2="73.9" y2="72.6"/><line class="cls-9" x1="62.7" y1="78.7" x2="73.9" y2="78.7"/><line class="cls-9" x1="62.7" y1="85.6" x2="73.9" y2="85.6"/><line class="cls-10" x1="31.4" y1="71.3" x2="43.3" y2="71.3"/><line class="cls-10" x1="31.4" y1="77.4" x2="43.3" y2="77.4"/><line class="cls-10" x1="31.4" y1="84.3" x2="43.3" y2="84.3"/><rect class="cls-11" x="33" y="13.9" width="8.1" height="22.03"/><line class="cls-10" x1="31.2" y1="27.7" x2="42.4" y2="27.7"/><line class="cls-10" x1="31.2" y1="33.8" x2="42.4" y2="33.8"/><line class="cls-10" x1="31.2" y1="40.7" x2="42.4" y2="40.7"/><line class="cls-5" x1="31.6" y1="17.3" x2="31.6" y2="99"/><line class="cls-5" x1="43.5" y1="67.5" x2="43.5" y2="147.8"/><line class="cls-5" x1="55.2" y1="89.5" x2="55.2" y2="113.9"/><line class="cls-5" x1="56" y1="124.5" x2="56" y2="171.1"/><line class="cls-5" x1="73.7" y1="66.6" x2="73.7" y2="89.9"/><line class="cls-5" x1="62.5" y1="67.5" x2="62.5" y2="89.5"/><rect class="cls-11" x="97.7" y="56.4" width="8.3" height="45.36"/><line class="cls-5" x1="42.6" y1="17.3" x2="42.6" y2="53.2"/><line class="cls-12" y1="90.4" x2="17.7" y2="90.4"/><path class="cls-12" d="M193.4,516.5c-2.1-.7-3.5-1.3-5.2-2v6.6c.6-.3,3.1-1.3,5.2-2l5.7-1.3A42.2,42.2,0,0,1,193.4,516.5Z" transform="translate(-172.6 -427.4)"/><text class="cls-13" transform="translate(23.6 106.3)">5<tspan class="cls-14" x="4.1" y="0">’</tspan></text><text class="cls-13" transform="translate(70.7 184.6)">3<tspan class="cls-14" x="4.1" y="0">’</tspan></text><line class="cls-5" x1="107.4" y1="125.3" x2="107.4" y2="148.7"/><line class="cls-5" x1="73.7" y1="89.9" x2="73.7" y2="113.7"/><line class="cls-5" x1="73.7" y1="52.8" x2="73.7" y2="67.5"/><rect class="cls-11" x="97.6" y="14.9" width="8.4" height="16.52"/><path class="cls-12" d="M207.6,517.7a3.2,3.2,0,0,1-3.3,3.2,3.2,3.2,0,0,1-3.2-3.2,3.2,3.2,0,0,1,3.2-3.3A3.3,3.3,0,0,1,207.6,517.7Z" transform="translate(-172.6 -427.4)"/><path class="cls-15" d="M251.1,518.2c-.2,2.5-2.7,4.4-5.6,4.2a4.7,4.7,0,0,1-4.8-4.8c.2-2.5,2.7-4.4,5.5-4.3S251.3,515.7,251.1,518.2Z" transform="translate(-172.6 -427.4)"/><text class="cls-16" transform="translate(70.7 92.9) scale(1.14 1)">G</text><text class="cls-17" transform="translate(80.3 92.7)">40</text><text class="cls-18" transform="translate(20.6 39.2)">P1</text><text class="cls-19" transform="translate(33 110)">P2</text><text class="cls-20" transform="translate(110.9 115.3)">P4</text><text class="cls-21" transform="translate(33 140.7)">P3</text><text class="cls-22" transform="translate(71.9 163.1)">P3.1</text><text class="cls-23" transform="translate(56.4 103.2)">Glc6P</text><text class="cls-19" transform="translate(74.9 74.3)">P2.1</text></svg>