<svg width="369" height="379" xmlns="http://www.w3.org/2000/svg" xmlns:xlink="http://www.w3.org/1999/xlink" overflow="hidden"><defs><clipPath id="clip0"><rect x="108" y="178" width="369" height="379"/></clipPath><clipPath id="clip1"><rect x="109" y="179" width="367" height="377"/></clipPath><clipPath id="clip2"><rect x="109" y="179" width="368" height="377"/></clipPath></defs><g clip-path="url(#clip0)" transform="translate(-108 -178)"><g clip-path="url(#clip1)"><g clip-path="url(#clip2)"><path d="M451.103 774.939 468.005 774.939" stroke="#009444" stroke-width="1.67397" fill="none" transform="matrix(1.12574 0 0 1 -173.591 -496.235)"/><path d="M451.103 785.06 468.005 785.06" stroke="#009444" stroke-width="1.67397" fill="none" transform="matrix(1.12574 0 0 1 -173.591 -496.235)"/><path d="M451.103 796.632 468.005 796.632" stroke="#009444" stroke-width="1.67397" fill="none" transform="matrix(1.12574 0 0 1 -173.591 -496.235)"/><path d="M450.197 893.533 469.903 893.533" stroke="#009444" stroke-width="1.67397" fill="none" transform="matrix(1.12574 0 0 1 -173.591 -496.235)"/><path d="M450.197 903.656 469.903 903.656" stroke="#009444" stroke-width="1.67397" fill="none" transform="matrix(1.12574 0 0 1 -173.591 -496.235)"/><path d="M450.197 915.23 469.903 915.23" stroke="#009444" stroke-width="1.67397" fill="none" transform="matrix(1.12574 0 0 1 -173.591 -496.235)"/><path d="M382.402 970.913 403.375 970.913" stroke="#EB8FBC" stroke-width="1.67397" fill="none" transform="matrix(1.12574 0 0 1 -173.591 -496.235)"/><path d="M382.402 981.038 403.375 981.038" stroke="#E48DBB" stroke-width="1.67397" fill="none" transform="matrix(1.12574 0 0 1 -173.591 -496.235)"/><path d="M382.402 992.609 403.375 992.609" stroke="#EB96C0" stroke-width="1.67397" fill="none" transform="matrix(1.12574 0 0 1 -173.591 -496.235)"/><path d="M365.771 731.908C365.771 740.495 358.81 747.456 350.223 747.456 341.636 747.456 334.675 740.495 334.675 731.908 334.675 723.321 341.636 716.36 350.223 716.36 358.81 716.36 365.771 723.321 365.771 731.908Z" stroke="#000000" stroke-width="1.67397" fill="none" transform="matrix(1.12574 0 0 1 -173.591 -496.235)"/><path d="M360.347 803.867 412.413 803.867" stroke="#000000" stroke-width="1.67397" fill="none" transform="matrix(1.12574 0 0 1 -173.591 -496.235)"/><path d="M361.251 828.453 394.245 828.453" stroke="#000000" stroke-width="1.67397" fill="none" transform="matrix(1.12574 0 0 1 -173.591 -496.235)"/><path d="M380.597 905.829 412.413 905.829" stroke="#000000" stroke-width="1.67397" fill="none" transform="matrix(1.12574 0 0 1 -173.591 -496.235)"/><path d="M361.795 962.955 361.795 1001.29" stroke="#000000" stroke-width="1.67397" fill="none" transform="matrix(1.12574 0 0 1 -173.591 -496.235)"/><path d="M382.402 923.908 450.382 923.908" stroke="#000000" stroke-width="1.67397" fill="none" transform="matrix(1.12574 0 0 1 -173.591 -496.235)"/><path d="M380.597 865.334 394.245 865.334" stroke="#000000" stroke-width="1.67397" fill="none" transform="matrix(1.12574 0 0 1 -173.591 -496.235)"/><path d="M361.793 1001.29 383.128 1001.29" stroke="#000000" stroke-width="1.67397" fill="none" transform="matrix(1.12574 0 0 1 -173.591 -496.235)"/><path d="M450.382 753.966 450.382 923.908" stroke="#000000" stroke-width="1.67397" fill="none" transform="matrix(1.12574 0 0 1 -173.591 -496.235)"/><path d="M468.819 753.966 468.819 925.356" stroke="#000000" stroke-width="1.67397" fill="none" transform="matrix(1.12574 0 0 1 -173.591 -496.235)"/><path d="M474.606 742.397C474.606 750.984 467.645 757.945 459.058 757.945 450.471 757.945 443.51 750.984 443.51 742.397 443.51 733.81 450.471 726.849 459.058 726.849 467.645 726.849 474.606 733.81 474.606 742.397Z" stroke="#000000" stroke-width="1.67397" fill="none" transform="matrix(1.12574 0 0 1 -173.591 -496.235)"/><path d="M404.46 963.683 404.46 1013.58" stroke="#000000" stroke-width="1.67397" fill="none" transform="matrix(1.12574 0 0 1 -173.591 -496.235)"/><path d="M403.281 963.683 468.822 963.683" stroke="#000000" stroke-width="1.67397" fill="none" transform="matrix(1.12574 0 0 1 -173.591 -496.235)"/><path d="M478.76 848.249C478.76 867.269 470.262 882.688 459.779 882.688 449.296 882.688 440.798 867.269 440.798 848.249 440.798 829.229 449.296 813.811 459.779 813.811 470.262 813.811 478.76 829.229 478.76 848.249Z" stroke="#000000" stroke-width="1.67397" fill="#FFFFFF" transform="matrix(1.12574 0 0 1 -173.591 -496.235)"/><path d="M311.533 922.461 311.533 921.738" stroke="#FFFFFF" stroke-width="1.67397" fill="none" transform="matrix(1.12574 0 0 1 -173.591 -496.235)"/><path d="M361.432 934.033 382.405 934.033" stroke="#EA9AC2" stroke-width="1.67397" fill="none" transform="matrix(1.12574 0 0 1 -173.591 -496.235)"/><path d="M361.432 944.154 382.405 944.154" stroke="#EA9AC2" stroke-width="1.67397" fill="none" transform="matrix(1.12574 0 0 1 -173.591 -496.235)"/><path d="M361.432 955.726 382.405 955.726" stroke="#EA9AC2" stroke-width="1.67397" fill="none" transform="matrix(1.12574 0 0 1 -173.591 -496.235)"/><path d="M361.435 881.241 381.575 881.241" stroke="#FFF200" stroke-width="1.67397" fill="none" transform="matrix(1.12574 0 0 1 -173.591 -496.235)"/><path d="M361.435 891.364 381.575 891.364" stroke="#FFF200" stroke-width="1.67397" fill="none" transform="matrix(1.12574 0 0 1 -173.591 -496.235)"/><path d="M361.435 902.934 381.575 902.934" stroke="#FFF200" stroke-width="1.67397" fill="none" transform="matrix(1.12574 0 0 1 -173.591 -496.235)"/><path d="M393.974 837.127 412.776 837.127" stroke="#FFF200" stroke-width="1.67397" fill="none" transform="matrix(1.12574 0 0 1 -173.591 -496.235)"/><path d="M393.974 847.25 412.776 847.25" stroke="#FFF200" stroke-width="1.67397" fill="none" transform="matrix(1.12574 0 0 1 -173.591 -496.235)"/><path d="M393.974 858.822 412.776 858.822" stroke="#FFF200" stroke-width="1.67397" fill="none" transform="matrix(1.12574 0 0 1 -173.591 -496.235)"/><path d="M341.634 834.958 361.435 834.958" stroke="#00AEEF" stroke-width="1.67397" fill="none" transform="matrix(1.12574 0 0 1 -173.591 -496.235)"/><path d="M341.634 845.082 361.435 845.082" stroke="#00AEEF" stroke-width="1.67397" fill="none" transform="matrix(1.12574 0 0 1 -173.591 -496.235)"/><path d="M341.634 856.652 361.435 856.652" stroke="#00AEEF" stroke-width="1.67397" fill="none" transform="matrix(1.12574 0 0 1 -173.591 -496.235)"/><path d="M344.255 738.782 357.816 738.782 357.816 775.661 344.255 775.661Z" stroke="#FFFFFF" stroke-width="1.67397" fill="#FFFFFF" transform="matrix(1.12574 0 0 1 -173.591 -496.235)"/><path d="M341.184 761.919 359.986 761.919" stroke="#00AEEF" stroke-width="1.67397" fill="none" transform="matrix(1.12574 0 0 1 -173.591 -496.235)"/><path d="M341.184 772.045 359.986 772.045" stroke="#00AEEF" stroke-width="1.67397" fill="none" transform="matrix(1.12574 0 0 1 -173.591 -496.235)"/><path d="M341.184 783.615 359.986 783.615" stroke="#00AEEF" stroke-width="1.67397" fill="none" transform="matrix(1.12574 0 0 1 -173.591 -496.235)"/><path d="M341.905 744.565 341.905 881.241" stroke="#000000" stroke-width="1.67397" fill="none" transform="matrix(1.12574 0 0 1 -173.591 -496.235)"/><path d="M361.793 828.453 361.793 962.958" stroke="#000000" stroke-width="1.67397" fill="none" transform="matrix(1.12574 0 0 1 -173.591 -496.235)"/><path d="M381.315 865.334 381.315 906.177" stroke="#000000" stroke-width="1.67397" fill="none" transform="matrix(1.12574 0 0 1 -173.591 -496.235)"/><path d="M382.765 923.908 382.765 1002.01" stroke="#000000" stroke-width="1.67397" fill="none" transform="matrix(1.12574 0 0 1 -173.591 -496.235)"/><path d="M412.413 827.005 412.413 866.055" stroke="#000000" stroke-width="1.67397" fill="none" transform="matrix(1.12574 0 0 1 -173.591 -496.235)"/><path d="M393.611 828.449 393.611 865.334" stroke="#000000" stroke-width="1.67397" fill="none" transform="matrix(1.12574 0 0 1 -173.591 -496.235)"/><path d="M452.461 810.012 466.288 810.012 466.288 885.942 452.461 885.942Z" stroke="#FFFFFF" stroke-width="1.67397" fill="#FFFFFF" transform="matrix(1.12574 0 0 1 -173.591 -496.235)"/><path d="M360.347 744.565 360.347 804.587" stroke="#000000" stroke-width="1.67397" fill="none" transform="matrix(1.12574 0 0 1 -173.591 -496.235)"/><path d="M288.991 866.782 318.64 866.782" stroke="#00AEEF" stroke-width="1.67397" fill="none" transform="matrix(1.12574 0 0 1 -173.591 -496.235)"/><path d="M323.768 864.555C320.177 863.474 317.847 862.476 314.969 861.321L314.969 872.264C315.999 871.777 320.177 870.11 323.768 869.026 327.606 867.87 331.084 867.075 333.341 866.79 331.084 866.509 327.606 865.715 323.768 864.555Z" stroke="#00AEEF" stroke-width="1.67397" fill="#00AFEF" transform="matrix(1.12574 0 0 1 -173.591 -496.235)"/><text font-family="Arial,Arial_MSFontService,sans-serif" font-weight="400" font-size="8" transform="matrix(1.88446 0 0 1.67397 196.187 397)">5<tspan font-size="8" x="4" y="0">’</tspan><tspan font-size="8" x="47.1162" y="78.2571">3</tspan><tspan font-size="8" x="51.1162" y="78.2571">’</tspan></text><path d="M468.819 925.352 468.819 964.406" stroke="#000000" stroke-width="1.67397" fill="none" transform="matrix(1.12574 0 0 1 -173.591 -496.235)"/><path d="M412.409 866.055 412.409 905.829" stroke="#000000" stroke-width="1.67397" fill="none" transform="matrix(1.12574 0 0 1 -173.591 -496.235)"/><path d="M412.409 803.867 412.409 828.453" stroke="#000000" stroke-width="1.67397" fill="none" transform="matrix(1.12574 0 0 1 -173.591 -496.235)"/><path d="M452.412 740.497 466.514 740.497 466.514 768.156 452.412 768.156Z" stroke="#FFFFFF" stroke-width="1.67397" fill="#FFFFFF" transform="matrix(1.12574 0 0 1 -173.591 -496.235)"/><path d="M347.54 866.557C347.54 869.591 345.081 872.05 342.047 872.05 339.014 872.05 336.555 869.591 336.555 866.557 336.555 863.524 339.014 861.065 342.047 861.065 345.081 861.065 347.54 863.524 347.54 866.557Z" stroke="#00AEEF" stroke-width="1.67397" fill="#00AFEF" transform="matrix(1.12574 0 0 1 -173.591 -496.235)"/><path d="M420.275 867.43C419.954 871.624 415.801 874.795 410.998 874.515 406.196 874.234 402.565 870.605 402.888 866.408 403.211 862.212 407.364 859.041 412.165 859.321 416.966 859.604 420.598 863.233 420.275 867.43Z" stroke="#0071BC" stroke-width="1.67397" fill="#FFFFFF" transform="matrix(1.12574 0 0 1 -173.591 -496.235)"/><text fill="#0071BC" font-family="Arial,Arial_MSFontService,sans-serif" font-weight="400" font-size="6" transform="matrix(2.15658 0 0 1.67397 284.976 375)">G</text><text fill="#0071BC" font-family="Arial,Arial_MSFontService,sans-serif" font-weight="400" font-size="8" transform="matrix(1.88446 0 0 1.67397 303.012 374)">40<tspan fill="#00AEEF" font-size="8" x="-59.6875" y="-53.167">P</tspan><tspan fill="#00AEEF" font-size="8" x="-54.6875" y="-53.167">1</tspan><tspan fill="#FFF200" font-size="8" x="-47.2598" y="17.3241">P</tspan><tspan fill="#FFF200" font-size="8" x="-42.2598" y="17.3241">2</tspan><tspan fill="#009444" font-size="8" x="30.6089" y="22.7005">P</tspan><tspan fill="#009444" font-size="8" x="35.6089" y="22.7005">4</tspan><tspan fill="#EA9AC2" font-size="8" x="-47.2598" y="48.388">P</tspan><tspan fill="#EA9AC2" font-size="8" x="-42.2598" y="48.388">3</tspan><tspan fill="#EB8FBC" font-size="8" x="-8.33451" y="70.4911">P</tspan><tspan fill="#EB8FBC" font-size="8" x="-3.33451" y="70.4911">3</tspan><tspan fill="#EB8FBC" font-size="8" x="0.66549" y="70.4911">.</tspan><tspan fill="#EB8FBC" font-size="8" x="2.66549" y="70.4911">1</tspan><tspan fill="#ED2123" font-size="6" x="-23.897" y="10.7529">Glc</tspan><tspan fill="#ED2123" font-size="6" x="-14.897" y="10.7529">6</tspan><tspan fill="#ED2123" font-size="6" x="-11.897" y="10.7529">P</tspan><tspan fill="#FFF200" font-size="8" x="-6.16701" y="-17.9215">P</tspan><tspan fill="#FFF200" font-size="8" x="-1.16701" y="-17.9215">2</tspan><tspan fill="#FFF200" font-size="8" x="2.83299" y="-17.9215">.</tspan><tspan fill="#FFF200" font-size="8" x="4.83299" y="-17.9215">1</tspan></text></g></g></g></svg>