<svg id="Layer_1" data-name="Layer 1" xmlns="http://www.w3.org/2000/svg" viewBox="0 0 112.8 153.3"><defs><style>.cls-1,.cls-17,.cls-19,.cls-22,.cls-5,.cls-6{fill:none;}.cls-1,.cls-17,.cls-2{stroke:#221e1f;}.cls-18,.cls-2,.cls-20,.cls-3,.cls-9{fill:#fff;}.cls-18,.cls-3{stroke:#fff;}.cls-13,.cls-4{fill:#00aeef;}.cls-4,.cls-6{stroke:#00aeef;}.cls-5{stroke:#009444;}.cls-11,.cls-12,.cls-13,.cls-14,.cls-15,.cls-16,.cls-7{font-size:10px;}.cls-7{fill:#221e1f;}.cls-10,.cls-11,.cls-12,.cls-13,.cls-14,.cls-15,.cls-16,.cls-21,.cls-7{font-family:HelveticaNeue-Light, HelveticaNeue Light;font-weight:300;}.cls-8{letter-spacing:-0.09em;}.cls-9{stroke:#0071bc;}.cls-10{font-size:6.32px;}.cls-10,.cls-11{fill:#0071bc;}.cls-12,.cls-21{fill:#ed2123;}.cls-14{fill:#fbb03f;}.cls-15{fill:#ed1b23;}.cls-16{fill:#009444;}.cls-17{stroke-width:0.75px;stroke-dasharray:4;}.cls-18{stroke-width:2px;}.cls-19{stroke:#ed1b23;}.cls-20{stroke:#ef4444;}.cls-21{font-size:7.12px;}.cls-22{stroke:#fbb03f;}</style></defs><line class="cls-1" x1="74.5" y1="61.5" x2="74.5" y2="135.8"/><line class="cls-1" x1="85.6" y1="62" x2="85.6" y2="135.8"/><line class="cls-1" x1="7.5" y1="61.8" x2="74.3" y2="61.8"/><line class="cls-1" x1="8" y1="50.8" x2="74.3" y2="50.8"/><path class="cls-2" d="M267.1,105.6c0,5.8-6.7,10.5-14.9,10.5s-14.9-4.7-14.9-10.5,6.7-10.5,14.9-10.5S267.1,99.8,267.1,105.6Z" transform="translate(-208.3 -49.9)"/><rect class="cls-3" x="24.2" y="52.2" width="37.4" height="8.42"/><line class="cls-4" x1="51.2" y1="13.5" x2="51.2" y2="31.2"/><path class="cls-4" d="M260.8,84.1a44.1,44.1,0,0,1,1.9-5.2h-6.5a42.1,42.1,0,0,1,1.9,5.2,42.6,42.6,0,0,1,1.4,5.8A29.9,29.9,0,0,1,260.8,84.1Z" transform="translate(-208.3 -49.9)"/><path class="cls-1" d="M297.6,59.6a9.3,9.3,0,1,1-9.3-9.2A9.3,9.3,0,0,1,297.6,59.6Z" transform="translate(-208.3 -49.9)"/><path class="cls-1" d="M297.8,193.4a9.3,9.3,0,1,1-9.3-9.3A9.3,9.3,0,0,1,297.8,193.4Z" transform="translate(-208.3 -49.9)"/><line class="cls-5" x1="91.8" y1="62.3" x2="91.8" y2="51"/><line class="cls-5" x1="97.9" y1="62.3" x2="97.9" y2="51"/><line class="cls-5" x1="104.8" y1="62.3" x2="104.8" y2="51"/><line class="cls-6" x1="58.8" y1="61.2" x2="58.8" y2="51.5"/><line class="cls-6" x1="64.8" y1="61.2" x2="64.8" y2="51.5"/><line class="cls-6" x1="71.7" y1="61.2" x2="71.7" y2="51.5"/><line class="cls-6" x1="15.4" y1="61.2" x2="15.4" y2="51.5"/><line class="cls-6" x1="21.4" y1="61.2" x2="21.4" y2="51.5"/><line class="cls-6" x1="28.3" y1="61.2" x2="28.3" y2="51.5"/><line class="cls-1" x1="85.8" y1="61.8" x2="112.8" y2="61.8"/><line class="cls-1" x1="86" y1="50.8" x2="112.8" y2="50.8"/><line class="cls-1" x1="74.5" y1="17" x2="74.5" y2="50.6"/><line class="cls-1" x1="85.6" y1="17.2" x2="85.6" y2="50.6"/><text class="cls-7" transform="translate(0 64.9)">5<tspan class="cls-8" x="5.1" y="0">’</tspan></text><text class="cls-7" transform="translate(0 52.4)">3<tspan class="cls-8" x="5.1" y="0">’</tspan></text><path class="cls-4" d="M261.6,96a3.3,3.3,0,0,1-3.3,3.3,3.3,3.3,0,0,1,0-6.6A3.3,3.3,0,0,1,261.6,96Z" transform="translate(-208.3 -49.9)"/><path class="cls-9" d="M250.7,116.2a4.2,4.2,0,1,1-8.4-.6,4.2,4.2,0,0,1,4.4-4.2A4.5,4.5,0,0,1,250.7,116.2Z" transform="translate(-208.3 -49.9)"/><text class="cls-10" transform="translate(36.1 68.4) scale(0.94 1)">G</text><text class="cls-11" transform="translate(35.3 81)">8</text><text class="cls-12" transform="translate(102 108.3)">38</text><text class="cls-13" transform="translate(18.8 45.2)">A</text><text class="cls-14" transform="translate(95.7 37.3)">D</text><text class="cls-15" transform="translate(61.6 131.6)">B</text><text class="cls-16" transform="translate(99.4 74.8)">C</text><line class="cls-17" x1="49.1" y1="70.2" x2="66" y2="96.6"/><path class="cls-2" d="M299.8,151.4c0,11.5-5.3,20.8-11.8,20.8s-11.8-9.3-11.8-20.8,5.3-20.7,11.8-20.7S299.8,140,299.8,151.4Z" transform="translate(-208.3 -49.9)"/><rect class="cls-18" x="75.9" y="10.7" width="8.3" height="130.9"/><line class="cls-19" x1="74.9" y1="65.3" x2="85.1" y2="65.3"/><line class="cls-19" x1="74.9" y1="71.3" x2="85.1" y2="71.3"/><line class="cls-19" x1="74.9" y1="78.3" x2="85.1" y2="78.3"/><line class="cls-19" x1="75" y1="121" x2="85.2" y2="121"/><line class="cls-19" x1="75" y1="127.1" x2="85.2" y2="127.1"/><line class="cls-19" x1="75" y1="134" x2="85.2" y2="134"/><path class="cls-20" d="M302.9,155.7a4.9,4.9,0,0,1-5.1,4.7,5.1,5.1,0,0,1-4.5-5.4,4.8,4.8,0,1,1,9.6.7Z" transform="translate(-208.3 -49.9)"/><text class="cls-21" transform="translate(87.5 108.3) scale(0.95 1)">A</text><line class="cls-22" x1="74.7" y1="28.1" x2="85.3" y2="28.1"/><line class="cls-22" x1="74.7" y1="34.2" x2="85.3" y2="34.2"/><line class="cls-22" x1="74.7" y1="41.1" x2="85.3" y2="41.1"/></svg>