<svg width="146" height="137" xmlns="http://www.w3.org/2000/svg" xmlns:xlink="http://www.w3.org/1999/xlink" overflow="hidden"><defs><clipPath id="clip0"><rect x="567" y="268" width="146" height="137"/></clipPath><clipPath id="clip1"><rect x="567" y="269" width="145" height="135"/></clipPath><clipPath id="clip2"><rect x="567" y="269" width="145" height="135"/></clipPath><clipPath id="clip3"><rect x="567" y="269" width="145" height="182"/></clipPath></defs><g clip-path="url(#clip0)" transform="translate(-567 -268)"><g clip-path="url(#clip1)"><g clip-path="url(#clip2)"><g clip-path="url(#clip3)"><path d="M127.191 62.8716 127.191 52.1649" stroke="#18529A" stroke-width="0.998754" stroke-miterlimit="10" fill="none" transform="matrix(1.00026 0 0 1 567.042 269)"/><path d="M133.224 62.8716 133.224 52.1649" stroke="#18529A" stroke-width="0.998754" stroke-miterlimit="10" fill="none" transform="matrix(1.00026 0 0 1 567.042 269)"/><path d="M140.135 62.8716 140.135 52.1649" stroke="#18529A" stroke-width="0.998754" stroke-miterlimit="10" fill="none" transform="matrix(1.00026 0 0 1 567.042 269)"/><path d="M30.2722 68.4246 30.2722 57.9077" stroke="#C06D23" stroke-width="0.998754" stroke-miterlimit="10" fill="none" transform="matrix(1.00026 0 0 1 567.042 269)"/><path d="M36.3047 68.4246 36.3047 57.9077" stroke="#C06D23" stroke-width="0.998754" stroke-miterlimit="10" fill="none" transform="matrix(1.00026 0 0 1 567.042 269)"/><path d="M43.2161 68.4246 43.2161 57.9077" stroke="#C06D23" stroke-width="0.998754" stroke-miterlimit="10" fill="none" transform="matrix(1.00026 0 0 1 567.042 269)"/><path d="M87.2212 63.8703 87.2212 53.0039" stroke="#19529B" stroke-width="0.998754" stroke-miterlimit="10" fill="none" transform="matrix(1.00026 0 0 1 567.042 269)"/><path d="M93.2636 63.8703 93.2636 53.0039" stroke="#19529B" stroke-width="0.998754" stroke-miterlimit="10" fill="none" transform="matrix(1.00026 0 0 1 567.042 269)"/><path d="M100.165 63.8703 100.165 53.0039" stroke="#19529B" stroke-width="0.998754" stroke-miterlimit="10" fill="none" transform="matrix(1.00026 0 0 1 567.042 269)"/><path d="M63.9202 26.417 74.6469 26.417" stroke="#68AF31" stroke-width="0.998754" stroke-miterlimit="10" fill="none" transform="matrix(1.00026 0 0 1 567.042 269)"/><path d="M63.9202 32.4495 74.6469 32.4495" stroke="#68AF31" stroke-width="0.998754" stroke-miterlimit="10" fill="none" transform="matrix(1.00026 0 0 1 567.042 269)"/><path d="M63.9202 39.3609 74.6469 39.3609" stroke="#68AF31" stroke-width="0.998754" stroke-miterlimit="10" fill="none" transform="matrix(1.00026 0 0 1 567.042 269)"/><path d="M16.8989 68.6943 51.0863 68.6943" stroke="#231815" stroke-width="0.998754" fill="none" transform="matrix(1.00026 0 0 1 567.042 269)"/><path d="M17.1186 57.688 51.0863 57.688" stroke="#231815" stroke-width="0.998754" fill="none" transform="matrix(1.00026 0 0 1 567.042 269)"/><path d="M82.0476 63.5207 144.879 63.5207" stroke="#231815" stroke-width="0.998754" fill="none" transform="matrix(1.00026 0 0 1 567.042 269)"/><path d="M82.4671 52.5145 144.879 52.5145" stroke="#231815" stroke-width="0.998754" fill="none" transform="matrix(1.00026 0 0 1 567.042 269)"/><path d="M74.4371 45.663 74.4371 11.1461" stroke="#231815" stroke-width="0.998754" fill="none" transform="matrix(1.00026 0 0 1 567.042 269)"/><path d="M63.4408 45.4333 63.4408 11.1461" stroke="#231815" stroke-width="0.998754" fill="none" transform="matrix(1.00026 0 0 1 567.042 269)"/><path d="M49.9976 57.738 63.8503 45.0837" stroke="#231815" stroke-width="0.998754" fill="none" transform="matrix(1.00026 0 0 1 567.042 269)"/><path d="M64.2998 81.5882 82.8566 63.0314" stroke="#231815" stroke-width="0.998754" fill="none" transform="matrix(1.00026 0 0 1 567.042 269)"/><path d="M51.0863 68.6943 64.2498 82.1775" stroke="#231815" stroke-width="0.998754" fill="none" transform="matrix(1.00026 0 0 1 567.042 269)"/><path d="M74.4371 45.3434 82.4671 52.5145" stroke="#231815" stroke-width="0.998754" fill="none" transform="matrix(1.00026 0 0 1 567.042 269)"/><path d="M101.264 26.5269 88.7493 39.0313" stroke="#00A0E9" stroke-width="0.998754" fill="#00A1E9" transform="matrix(1.00026 0 0 1 567.042 269)"/><path d="M296.021 388.365C298.018 387.307 299.396 386.747 301.104 386.018L296.48 381.404C295.8 383.139 295.019 384.833 294.143 386.478 293.237 388.219 292.199 389.889 291.037 391.472 292.618 390.313 294.284 389.275 296.021 388.365Z" stroke="#00A0E9" stroke-width="0.998754" fill="#00A1E9" transform="matrix(1.00026 0 0 1 358.488 -77.238)"/><text fill="#231815" font-family="Arial,Arial_MSFontService,sans-serif" font-weight="400" font-size="10" transform="matrix(0.999012 0 0 0.998754 640.369 278)">5<tspan font-size="10" x="5.32001" y="0">’</tspan><tspan font-size="10" x="-14.42" y="0">3</tspan><tspan font-size="10" x="-9.09999" y="0">’</tspan><tspan font-size="13" x="-39.25" y="170.212">hamme</tspan><tspan font-size="13" x="2.3" y="170.212">r</tspan><tspan font-size="13" x="6.59001" y="170.212">head</tspan></text><path d="M227.546 409.1C227.546 414.224 223.392 418.378 218.268 418.378 213.143 418.378 208.989 414.224 208.989 409.1 208.989 403.975 213.143 399.821 218.268 399.821 218.271 399.821 218.274 399.821 218.278 399.821 223.396 399.821 227.546 403.971 227.546 409.09 227.546 409.093 227.546 409.096 227.546 409.1Z" stroke="#231815" stroke-width="0.998754" fill="none" transform="matrix(1.00026 0 0 1 358.488 -77.238)"/><path d="M14.6517 59.0363 22.2522 59.0363 22.2522 67.4458 14.6517 67.4458Z" stroke="#FFFFFF" stroke-width="0.998754" fill="#FFFFFF" transform="matrix(1.00026 0 0 1 567.042 269)"/><path d="M330.937 403.766C330.937 408.891 326.783 413.045 321.659 413.045 316.534 413.045 312.38 408.891 312.38 403.766 312.38 398.642 316.534 394.488 321.659 394.488 321.662 394.488 321.665 394.488 321.669 394.488 326.787 394.488 330.937 398.637 330.937 403.756 330.937 403.76 330.937 403.763 330.937 403.766Z" stroke="#231815" stroke-width="0.998754" fill="#FFFFFF" transform="matrix(1.00026 0 0 1 358.488 -77.238)"/><path d="M101.703 54.0226 125.473 54.0226 125.473 62.1125 101.703 62.1125Z" stroke="#FFFFFF" stroke-width="1.99751" fill="#FFFFFF" transform="matrix(1.00026 0 0 1 567.042 269)"/><path d="M289.978 395.037C289.984 396.852 288.517 398.327 286.702 398.333 284.888 398.338 283.412 396.872 283.406 395.057 283.401 393.242 284.868 391.767 286.682 391.761 286.686 391.761 286.689 391.761 286.692 391.761 288.501 391.756 289.973 393.218 289.978 395.027 289.978 395.03 289.978 395.034 289.978 395.037Z" stroke="#00A0E9" stroke-width="0.998754" fill="#00A1E9" transform="matrix(1.00026 0 0 1 358.488 -77.238)"/><path d="M271.811 421.384C271.621 424.506 268.937 426.883 265.815 426.694 262.694 426.504 260.316 423.82 260.506 420.698 260.695 417.576 263.379 415.199 266.501 415.389 266.517 415.39 266.532 415.391 266.547 415.392 269.647 415.611 271.994 418.282 271.811 421.384Z" stroke="#DA3534" stroke-width="0.998754" stroke-miterlimit="10" fill="#FFFFFF" transform="matrix(1.00026 0 0 1 358.488 -77.238)"/><path d="M3.54636-6.14468C4.19919-6.14468 4.75188-6.04064 5.20444-5.83257L5.20444-4.98987C4.72067-5.29418 4.14457-5.44633 3.47613-5.44633 2.8181-5.44633 2.27581-5.22135 1.84926-4.77139 1.4227-4.32143 1.20943-3.72842 1.20943-2.99236 1.20943-2.23549 1.4058-1.64638 1.79854-1.22503 2.19128-0.803685 2.72186-0.59301 3.3903-0.59301 3.85066-0.59301 4.2421-0.681441 4.56462-0.858304L4.56462-2.49298 3.25375-2.49298 3.25375-3.18353 5.34879-3.18353 5.34879-0.413546C4.74538-0.0702249 4.06394 0.101436 3.30447 0.101436 2.43056 0.101436 1.72636-0.174912 1.19187-0.727608 0.657383-1.2803 0.390138-2.01831 0.390138-2.94164 0.390138-3.87537 0.685343-4.64264 1.27575-5.24346 1.86616-5.84427 2.62303-6.14468 3.54636-6.14468Z" stroke="#DA3534" stroke-width="0.998754" stroke-miterlimit="10" fill="#FFFFFF" fill-rule="evenodd" transform="matrix(1.00026 0 0 1 621.628 346.863)"/><text fill="#000000" fill-opacity="0" font-family="Arial,Arial_MSFontService,sans-serif" font-size="6.24611" x="0.390138" y="-0.679328">G</text><text fill="#DA3534" font-family="Arial,Arial_MSFontService,sans-serif" font-weight="400" font-size="10" transform="matrix(0.999012 0 0 0.998754 616.872 359)">8<tspan fill="#083A8A" font-size="10" x="-12.34" y="-43.0537">12</tspan><tspan fill="#18529A" font-size="10" x="85.99" y="-10.0125">I</tspan><tspan fill="#C06D23" font-size="10" x="-26.67" y="-7.00873">II</tspan><tspan fill="#68AF31" font-size="10" x="1.32999" y="-62.0774">III</tspan></text><path d="M7.62049 78.1025 7.62049 107.396" stroke="#8FC31F" stroke-width="0.998754" stroke-dasharray="3.99502 3.99502" fill="none" transform="matrix(1.00026 0 0 1 567.042 269)"/><path d="M7.62049 107.396 115.486 107.396" stroke="#8FC31F" stroke-width="0.998754" stroke-dasharray="3.99502 3.99502" fill="none" transform="matrix(1.00026 0 0 1 567.042 269)"/><path d="M115.486 107.396 115.486 74.7767" stroke="#8FC31F" stroke-width="0.998754" stroke-dasharray="3.99502 3.99502" fill="none" transform="matrix(1.00026 0 0 1 567.042 269)"/><path d="M269.903 400.64C269.714 403.762 267.03 406.139 263.908 405.95 260.786 405.76 258.409 403.076 258.598 399.954 258.788 396.832 261.472 394.455 264.594 394.645 264.609 394.646 264.624 394.647 264.64 394.648 267.745 394.856 270.097 397.534 269.903 400.64Z" stroke="#083A8A" stroke-width="0.998754" stroke-miterlimit="10" fill="#FFFFFF" transform="matrix(1.00026 0 0 1 358.488 -77.238)"/><path d="M3.54636-6.14468C4.19919-6.14468 4.75188-6.04064 5.20444-5.83257L5.20444-4.98987C4.72067-5.29418 4.14457-5.44633 3.47613-5.44633 2.8181-5.44633 2.27581-5.22135 1.84926-4.77139 1.4227-4.32143 1.20943-3.72842 1.20943-2.99236 1.20943-2.23549 1.4058-1.64638 1.79854-1.22503 2.19128-0.803685 2.72186-0.59301 3.3903-0.59301 3.85066-0.59301 4.2421-0.681441 4.56462-0.858304L4.56462-2.49298 3.25375-2.49298 3.25375-3.18353 5.34879-3.18353 5.34879-0.413546C4.74538-0.0702249 4.06394 0.101436 3.30447 0.101436 2.43056 0.101436 1.72636-0.174912 1.19187-0.727608 0.657383-1.2803 0.390138-2.01831 0.390138-2.94164 0.390138-3.87537 0.685343-4.64264 1.27575-5.24346 1.86616-5.84427 2.62303-6.14468 3.54636-6.14468Z" stroke="#083A8A" stroke-width="0.998754" stroke-miterlimit="10" fill="#FFFFFF" fill-rule="evenodd" transform="matrix(1.00026 0 0 1 619.62 325.559)"/><text fill="#000000" fill-opacity="0" font-family="Arial,Arial_MSFontService,sans-serif" font-size="6.24611" x="0.390138" y="-0.679328">G</text></g></g></g></g></svg>