<svg width="150" height="164" xmlns="http://www.w3.org/2000/svg" xmlns:xlink="http://www.w3.org/1999/xlink" overflow="hidden"><defs><clipPath id="clip0"><rect x="567" y="268" width="150" height="164"/></clipPath><clipPath id="clip1"><rect x="567" y="269" width="150" height="162"/></clipPath><clipPath id="clip2"><rect x="567" y="269" width="149" height="162"/></clipPath><clipPath id="clip3"><rect x="567" y="269" width="149" height="182"/></clipPath></defs><g clip-path="url(#clip0)" transform="translate(-567 -268)"><g clip-path="url(#clip1)"><g clip-path="url(#clip2)"><g clip-path="url(#clip3)"><path d="M127.111 62.832 127.111 52.1321" stroke="#18529A" stroke-width="0.998126" stroke-miterlimit="10" fill="none" transform="matrix(1.02479 0 0 1 567.043 269)"/><path d="M133.14 62.832 133.14 52.1321" stroke="#18529A" stroke-width="0.998126" stroke-miterlimit="10" fill="none" transform="matrix(1.02479 0 0 1 567.043 269)"/><path d="M140.047 62.832 140.047 52.1321" stroke="#18529A" stroke-width="0.998126" stroke-miterlimit="10" fill="none" transform="matrix(1.02479 0 0 1 567.043 269)"/><path d="M30.2532 68.3816 30.2532 57.8713" stroke="#C06D23" stroke-width="0.998126" stroke-miterlimit="10" fill="none" transform="matrix(1.02479 0 0 1 567.043 269)"/><path d="M36.2819 68.3816 36.2819 57.8713" stroke="#C06D23" stroke-width="0.998126" stroke-miterlimit="10" fill="none" transform="matrix(1.02479 0 0 1 567.043 269)"/><path d="M43.1889 68.3816 43.1889 57.8713" stroke="#C06D23" stroke-width="0.998126" stroke-miterlimit="10" fill="none" transform="matrix(1.02479 0 0 1 567.043 269)"/><path d="M87.1663 63.8302 87.1663 52.9705" stroke="#19529B" stroke-width="0.998126" stroke-miterlimit="10" fill="none" transform="matrix(1.02479 0 0 1 567.043 269)"/><path d="M93.205 63.8302 93.205 52.9705" stroke="#19529B" stroke-width="0.998126" stroke-miterlimit="10" fill="none" transform="matrix(1.02479 0 0 1 567.043 269)"/><path d="M100.102 63.8302 100.102 52.9705" stroke="#19529B" stroke-width="0.998126" stroke-miterlimit="10" fill="none" transform="matrix(1.02479 0 0 1 567.043 269)"/><path d="M63.8801 26.4004 74.5999 26.4004" stroke="#68AF31" stroke-width="0.998126" stroke-miterlimit="10" fill="none" transform="matrix(1.02479 0 0 1 567.043 269)"/><path d="M63.8801 32.4291 74.5999 32.4291" stroke="#68AF31" stroke-width="0.998126" stroke-miterlimit="10" fill="none" transform="matrix(1.02479 0 0 1 567.043 269)"/><path d="M63.8801 39.3361 74.5999 39.3361" stroke="#68AF31" stroke-width="0.998126" stroke-miterlimit="10" fill="none" transform="matrix(1.02479 0 0 1 567.043 269)"/><path d="M16.8883 68.6511 51.0541 68.6511" stroke="#231815" stroke-width="0.998126" fill="none" transform="matrix(1.02479 0 0 1 567.043 269)"/><path d="M17.1079 57.6518 51.0541 57.6518" stroke="#231815" stroke-width="0.998126" fill="none" transform="matrix(1.02479 0 0 1 567.043 269)"/><path d="M81.996 63.4808 144.788 63.4808" stroke="#231815" stroke-width="0.998126" fill="none" transform="matrix(1.02479 0 0 1 567.043 269)"/><path d="M82.4153 52.4815 144.788 52.4815" stroke="#231815" stroke-width="0.998126" fill="none" transform="matrix(1.02479 0 0 1 567.043 269)"/><path d="M74.3903 45.6343 74.3903 11.1391" stroke="#231815" stroke-width="0.998126" fill="none" transform="matrix(1.02479 0 0 1 567.043 269)"/><path d="M63.401 45.4048 63.401 11.1391" stroke="#231815" stroke-width="0.998126" fill="none" transform="matrix(1.02479 0 0 1 567.043 269)"/><path d="M49.9662 57.7017 63.8102 45.0554" stroke="#231815" stroke-width="0.998126" fill="none" transform="matrix(1.02479 0 0 1 567.043 269)"/><path d="M64.2593 81.5369 82.8045 62.9917" stroke="#231815" stroke-width="0.998126" fill="none" transform="matrix(1.02479 0 0 1 567.043 269)"/><path d="M51.0541 68.6511 64.2094 82.1258" stroke="#231815" stroke-width="0.998126" fill="none" transform="matrix(1.02479 0 0 1 567.043 269)"/><path d="M74.3903 45.3149 82.4153 52.4815" stroke="#231815" stroke-width="0.998126" fill="none" transform="matrix(1.02479 0 0 1 567.043 269)"/><path d="M101.2 26.5102 88.6935 39.0068" stroke="#00A0E9" stroke-width="0.998126" fill="#00A1E9" transform="matrix(1.02479 0 0 1 567.043 269)"/><path d="M295.835 388.121C297.831 387.063 299.208 386.504 300.915 385.776L296.294 381.164C295.614 382.898 294.834 384.591 293.958 386.235 293.053 387.975 292.015 389.644 290.854 391.225 292.434 390.068 294.099 389.03 295.835 388.121Z" stroke="#00A0E9" stroke-width="0.998126" fill="#00A1E9" transform="matrix(1.02479 0 0 1 353.508 -77.0203)"/><text fill="#231815" font-family="Arial,Arial_MSFontService,sans-serif" font-weight="400" font-size="10" transform="matrix(1.02287 0 0 0.998126 642.122 278)">5<tspan font-size="10" x="5.32002" y="0">’</tspan><tspan font-size="10" x="-14.42" y="0">3</tspan><tspan font-size="10" x="-9.09995" y="0">’</tspan><tspan font-size="13" x="-39.25" y="170.319">hamme</tspan><tspan font-size="13" x="2.29999" y="170.319">r</tspan><tspan font-size="13" x="6.59004" y="170.319">head</tspan></text><path d="M227.403 408.842C227.403 413.964 223.252 418.115 218.13 418.115 213.009 418.115 208.858 413.964 208.858 408.842 208.858 403.721 213.009 399.57 218.13 399.57 218.134 399.57 218.137 399.57 218.14 399.57 223.256 399.57 227.403 403.717 227.403 408.832 227.403 408.836 227.403 408.839 227.403 408.842Z" stroke="#231815" stroke-width="0.998126" fill="none" transform="matrix(1.02479 0 0 1 353.508 -77.0203)"/><path d="M14.6425 58.9992 22.2382 58.9992 22.2382 67.4034 14.6425 67.4034Z" stroke="#FFFFFF" stroke-width="0.998126" fill="#FFFFFF" transform="matrix(1.02479 0 0 1 567.043 269)"/><path d="M330.729 403.512C330.729 408.633 326.578 412.785 321.456 412.785 316.335 412.785 312.184 408.633 312.184 403.512 312.184 398.391 316.335 394.24 321.456 394.24 321.46 394.24 321.463 394.24 321.466 394.24 326.582 394.24 330.729 398.387 330.729 403.502 330.729 403.506 330.729 403.509 330.729 403.512Z" stroke="#231815" stroke-width="0.998126" fill="#FFFFFF" transform="matrix(1.02479 0 0 1 353.508 -77.0203)"/><path d="M101.639 53.9886 125.395 53.9886 125.395 62.0735 101.639 62.0735Z" stroke="#FFFFFF" stroke-width="1.99625" fill="#FFFFFF" transform="matrix(1.02479 0 0 1 567.043 269)"/><path d="M289.796 394.789C289.801 396.602 288.336 398.077 286.522 398.083 284.708 398.088 283.234 396.622 283.228 394.809 283.223 392.995 284.688 391.52 286.502 391.515 286.505 391.515 286.509 391.515 286.512 391.515 288.32 391.509 289.79 392.971 289.796 394.779 289.796 394.782 289.796 394.785 289.796 394.789Z" stroke="#00A0E9" stroke-width="0.998126" fill="#00A1E9" transform="matrix(1.02479 0 0 1 353.508 -77.0203)"/><path d="M272.199 421.788C272.01 424.908 269.328 427.284 266.208 427.095 263.088 426.906 260.712 424.224 260.901 421.104 261.09 417.984 263.772 415.608 266.892 415.797 266.904 415.798 266.917 415.798 266.929 415.799 270.036 416.002 272.393 418.681 272.199 421.788Z" stroke="#DA3534" stroke-width="0.998126" stroke-miterlimit="10" fill="#FFFFFF" transform="matrix(1.02479 0 0 1 353.508 -77.0203)"/><path d="M3.2868-5.8133C3.70008-5.8133 4.07373-5.74637 4.40774-5.61251 4.74175-5.47865 5.00363-5.29215 5.19337-5.05301 5.38312-4.81388 5.52738-4.50196 5.62616-4.11727L4.94384-3.93012C4.85807-4.22124 4.7515-4.44998 4.62413-4.61633 4.49677-4.78269 4.31482-4.9159 4.07828-5.01597 3.84175-5.11605 3.57922-5.16608 3.2907-5.16608 2.94499-5.16608 2.64607-5.11345 2.39394-5.00817 2.14181-4.9029 1.93842-4.76449 1.78376-4.59294 1.6291-4.42139 1.50889-4.23294 1.42311-4.02759 1.27755-3.67409 1.20477-3.2907 1.20477-2.87741 1.20477-2.36795 1.2925-1.94167 1.46795-1.59856 1.6434-1.25546 1.89878-1.00073 2.23409-0.834371 2.56939-0.668017 2.9255-0.584839 3.30239-0.584839 3.6299-0.584839 3.94962-0.647872 4.26153-0.773938 4.57344-0.900003 4.80998-1.03452 4.97114-1.17748L4.97114-2.24188 3.2907-2.24188 3.2907-2.9125 5.71193-2.9164 5.71193-0.795382C5.34023-0.499063 4.95684-0.276174 4.56175-0.126715 4.16666 0.0227438 3.76117 0.0974733 3.34528 0.0974733 2.78384 0.0974733 2.27373-0.0227438 1.81495-0.263178 1.35618-0.503612 1.00982-0.851266 0.775887-1.30614 0.541951-1.76102 0.424983-2.26918 0.424983-2.83062 0.424983-3.38687 0.541301-3.90608 0.773938-4.38825 1.00657-4.87041 1.34123-5.22846 1.77791-5.4624 2.21459-5.69634 2.71755-5.8133 3.2868-5.8133Z" stroke="#DA3534" stroke-width="0.998126" stroke-miterlimit="10" fill="#FFFFFF" fill-rule="evenodd" transform="matrix(1.02479 0 0 1 623.853 347.483)"/><text fill="#000000" fill-opacity="0" font-family="Arial,Arial_MSFontService,sans-serif" font-size="5.91078" x="0.424983" y="-0.641374">G</text><text fill="#DA3534" font-family="Arial,Arial_MSFontService,sans-serif" font-weight="400" font-size="10" transform="matrix(1.02287 0 0 0.998126 618.064 358)">8</text><path d="M264.214 402.484C264.025 405.604 261.343 407.98 258.223 407.791 255.103 407.602 252.727 404.92 252.916 401.8 253.105 398.68 255.787 396.304 258.907 396.493 258.919 396.494 258.932 396.495 258.944 396.496 262.051 396.699 264.408 399.377 264.214 402.484Z" stroke="#073989" stroke-width="0.998126" stroke-miterlimit="10" fill="#FFFFFF" transform="matrix(1.02479 0 0 1 353.508 -77.0203)"/><path d="M3.12694-5.16608C2.59149-5.16608 2.13076-4.98218 1.74477-4.61438 1.35878-4.24658 1.16578-3.6325 1.16578-2.77214 1.16578-2.08333 1.35098-1.54073 1.72138-1.14434 2.09178-0.747945 2.5564-0.549749 3.11524-0.549749 3.68449-0.549749 4.15301-0.749894 4.52081-1.15018 4.88861-1.55047 5.07251-2.11842 5.07251-2.85402 5.07251-3.31929 4.99388-3.72543 4.83662-4.07243 4.67937-4.41944 4.44933-4.68846 4.14651-4.87951 3.84369-5.07056 3.50384-5.16608 3.12694-5.16608ZM3.12304-5.8172C3.6507-5.8172 4.12637-5.69114 4.55005-5.43901 4.97373-5.18688 5.2967-4.83532 5.51893-4.38435 5.74117-3.93337 5.85229-3.42196 5.85229-2.85012 5.85229-2.27048 5.73533-1.75192 5.50139-1.29444 5.26745-0.83697 4.93604-0.490615 4.50716-0.25538 4.07828-0.0201444 3.61561 0.0974732 3.11914 0.0974732 2.58109 0.0974732 2.10022-0.0324911 1.67654-0.29242 1.25286-0.552348 0.931844-0.907151 0.713504-1.35683 0.495164-1.8065 0.385994-2.28217 0.385994-2.78384 0.385994-3.73258 0.640724-4.47532 1.15018-5.01207 1.65964-5.54883 2.31726-5.8172 3.12304-5.8172Z" stroke="#073989" stroke-width="0.998126" stroke-miterlimit="10" fill="#FFFFFF" fill-rule="evenodd" transform="matrix(1.02479 0 0 1 615.67 328.189)"/><text fill="#000000" fill-opacity="0" font-family="Arial,Arial_MSFontService,sans-serif" font-size="5.91468" x="0.385994" y="-0.641861">O</text><text fill="#083A8A" font-family="Arial,Arial_MSFontService,sans-serif" font-weight="400" font-size="10" transform="matrix(1.02287 0 0 0.998126 605.441 316)">12<tspan fill="#18529A" font-size="10" x="98.33" y="32.0601">I</tspan><tspan fill="#C06D23" font-size="10" x="-14.33" y="36.0676">II</tspan><tspan fill="#68AF31" font-size="10" x="13.67" y="-19.0357">III</tspan></text><path d="M7.6157 78.0535 7.6157 107.328" stroke="#8FC31F" stroke-width="0.998126" stroke-dasharray="3.9925 3.9925" fill="none" transform="matrix(1.02479 0 0 1 567.043 269)"/><path d="M7.6157 107.328 115.413 107.328" stroke="#8FC31F" stroke-width="0.998126" stroke-dasharray="3.9925 3.9925" fill="none" transform="matrix(1.02479 0 0 1 567.043 269)"/><path d="M115.413 107.328 115.413 74.7297" stroke="#8FC31F" stroke-width="0.998126" stroke-dasharray="3.9925 3.9925" fill="none" transform="matrix(1.02479 0 0 1 567.043 269)"/></g></g></g></g></svg>