<svg id="图层_1" data-name="图层 1" xmlns="http://www.w3.org/2000/svg" xmlns:xlink="http://www.w3.org/1999/xlink" viewBox="0 0 109.1 171.8"><defs><style>.cls-1,.cls-2,.cls-21,.cls-22,.cls-3,.cls-4,.cls-7{fill:none;}.cls-2{stroke:#faee00;}.cls-3{stroke:#e60012;}.cls-4{stroke:#2ea7e0;}.cls-24,.cls-5{fill:#036eb8;}.cls-5{stroke:#036eb8;}.cls-6{fill:#ee96bd;stroke:#ee96bd;}.cls-21,.cls-7{stroke:#231815;}.cls-13,.cls-23,.cls-8{fill:#fff;}.cls-22,.cls-8{stroke:#fff;}.cls-9{fill:#00a1e9;stroke:#00a0e9;}.cls-10{font-size:10.37px;}.cls-10,.cls-20{fill:#231815;}.cls-10,.cls-14,.cls-15,.cls-20{font-family:HelveticaNeue-Light, HelveticaNeue Light;font-weight:300;}.cls-11{letter-spacing:-0.09em;}.cls-12{letter-spacing:-0.09em;}.cls-13{stroke:#e83c37;}.cls-14{font-size:8px;}.cls-14,.cls-15{fill:#e60a11;}.cls-15,.cls-24,.cls-25,.cls-26,.cls-27,.cls-28{font-size:10px;}.cls-16{clip-path:url(#clip-path);}.cls-17{fill:#050000;}.cls-18{fill:#2ab06e;}.cls-19{fill:#e7271c;}.cls-20{font-size:6px;}.cls-21{stroke-miterlimit:10;}.cls-24,.cls-25,.cls-26,.cls-27,.cls-28{font-family:AdobeFangsongStd-Regular, AdobeFangsongStd Regular-GBpc-EUC-H;}.cls-25{fill:#e7202b;}.cls-26{fill:#2ea7e0;}.cls-27{fill:#faee00;}.cls-28{fill:#e1a4c7;}</style><clipPath id="clip-path" transform="translate(-176.1 -219.4)"><rect class="cls-1" x="234.9" y="330.4" width="27.6" height="25.5"/></clipPath></defs><line class="cls-2" x1="26.5" y1="66.3" x2="37.7" y2="66.3"/><line class="cls-2" x1="26.5" y1="72.3" x2="37.7" y2="72.3"/><line class="cls-3" x1="25.6" y1="26.3" x2="36.8" y2="26.3"/><line class="cls-3" x1="25.6" y1="32.3" x2="36.8" y2="32.3"/><line class="cls-3" x1="25.6" y1="39.2" x2="36.8" y2="39.2"/><line class="cls-4" x1="66.2" y1="50.7" x2="77.1" y2="50.7"/><line class="cls-4" x1="66.2" y1="56.8" x2="77.1" y2="56.8"/><line class="cls-4" x1="66.2" y1="62.4" x2="77.1" y2="62.4"/><line class="cls-5" x1="65.3" y1="17.9" x2="76.6" y2="17.9"/><line class="cls-5" x1="65.3" y1="24" x2="76.6" y2="24"/><line class="cls-5" x1="65.3" y1="30.9" x2="76.6" y2="30.9"/><line class="cls-6" x1="26.3" y1="97.4" x2="37.6" y2="97.4"/><line class="cls-6" x1="26.3" y1="103.4" x2="37.6" y2="103.4"/><line class="cls-6" x1="26.3" y1="110.4" x2="37.6" y2="110.4"/><line class="cls-6" x1="26.3" y1="128.1" x2="37.6" y2="128.1"/><line class="cls-6" x1="26.5" y1="134.4" x2="37.7" y2="134.4"/><line class="cls-6" x1="26.5" y1="140.4" x2="37.7" y2="140.4"/><line class="cls-6" x1="26.5" y1="147.3" x2="37.7" y2="147.3"/><line class="cls-7" x1="25.6" y1="11.9" x2="25.6" y2="46"/><line class="cls-7" x1="36.6" y1="20.1" x2="36.6" y2="46.3"/><line class="cls-7" x1="15.2" y1="46" x2="25.8" y2="46"/><line class="cls-7" x1="26.5" y1="63" x2="26.5" y2="74.2"/><line class="cls-7" x1="37.5" y1="63.2" x2="37.5" y2="73.7"/><line class="cls-7" x1="26.5" y1="85" x2="26.5" y2="154.6"/><line class="cls-7" x1="37.9" y1="85.9" x2="37.9" y2="154.6"/><path class="cls-7" d="M217.8,381.4a9.3,9.3,0,0,1-18.6,0,9.3,9.3,0,0,1,18.6,0Z" transform="translate(-176.1 -219.4)"/><line class="cls-7" x1="65.8" y1="49.4" x2="65.8" y2="63.6"/><line class="cls-7" x1="76.8" y1="49.3" x2="76.8" y2="73.2"/><line class="cls-7" x1="98.4" y1="62.1" x2="98.4" y2="84.4"/><line class="cls-7" x1="65.3" y1="11.9" x2="65.3" y2="36.7"/><line class="cls-7" x1="76.4" y1="11.3" x2="76.4" y2="36.7"/><line class="cls-7" x1="27.3" y1="10.2" x2="63.3" y2="10.2"/><line class="cls-7" x1="36.6" y1="20.4" x2="65.9" y2="49.8"/><line class="cls-7" x1="65.1" y1="36.3" x2="77.1" y2="49.6"/><line class="cls-7" x1="76.1" y1="35.9" x2="98.6" y2="62.4"/><line class="cls-7" x1="40" y1="84.4" x2="97.4" y2="84.4"/><line class="cls-7" x1="37.3" y1="63.7" x2="66.2" y2="63.7"/><line class="cls-7" x1="37" y1="73.2" x2="77.2" y2="73.2"/><line class="cls-7" x1="36.6" y1="46" x2="26.4" y2="63.5"/><rect class="cls-8" x="27.8" y="149.4" width="9.1" height="14.26"/><line class="cls-9" x1="0.4" y1="19.5" x2="12.9" y2="32"/><path class="cls-9" d="M192.1,252.6c-1.1-2-1.6-3.4-2.4-5.1l-4.6,4.7a35,35,0,0,1,5.1,2.3,41.8,41.8,0,0,1,5,3.1A41.8,41.8,0,0,1,192.1,252.6Z" transform="translate(-176.1 -219.4)"/><text class="cls-10" transform="translate(78.9 8.7)">3<tspan class="cls-11" x="5.3" y="0">’</tspan></text><text class="cls-10" transform="translate(0.4 49.1)">5<tspan class="cls-12" x="5.3" y="0">’</tspan></text><path class="cls-7" d="M202.9,304.7a5.9,5.9,0,0,1,0-11.7" transform="translate(-176.1 -219.4)"/><path class="cls-9" d="M203.5,265.2a3.3,3.3,0,0,1-6.6,0,3.3,3.3,0,1,1,6.6,0Z" transform="translate(-176.1 -219.4)"/><path class="cls-13" d="M278.2,302.5a5.8,5.8,0,0,1-6.1,5.3,5.7,5.7,0,0,1-5.3-6,5.8,5.8,0,0,1,6.1-5.3A5.7,5.7,0,0,1,278.2,302.5Z" transform="translate(-176.1 -219.4)"/><text class="cls-14" transform="translate(93.6 85.9)">C</text><text class="cls-15" transform="translate(91.3 100.6)">75</text><g class="cls-16"><g class="cls-16"><polygon class="cls-17" points="61.4 130.5 60.3 128.1 72.4 123.7 72.7 123.9 72.4 124.3 61.4 130.5"/><polygon class="cls-17" points="61.3 120.7 62.3 118.2 62.8 118.4 61.8 120.9 61.3 120.7"/><polygon class="cls-17" points="63.2 121.2 64 119.1 64.5 119.3 63.6 121.3 63.2 121.2"/><polygon class="cls-17" points="65 121.7 65.7 120 66.1 120.2 65.5 121.9 65 121.7"/><polygon class="cls-17" points="66.8 122.2 67.3 120.9 67.8 121.1 67.3 122.4 66.8 122.2"/><polygon class="cls-17" points="68.6 122.7 69 121.8 69.5 122 69.1 122.9 68.6 122.7"/><polygon class="cls-17" points="70.4 123.3 70.7 122.7 71.1 122.9 70.9 123.4 70.4 123.3"/><polygon class="cls-17" points="83 118.2 84.1 120.7 83.6 120.9 82.6 118.4 83 118.2"/><polygon class="cls-17" points="81.4 119.1 82.2 121.2 81.7 121.3 80.9 119.3 81.4 119.1"/><polygon class="cls-17" points="79.7 120 80.4 121.7 79.9 121.9 79.3 120.2 79.7 120"/><polygon class="cls-17" points="78 120.9 78.6 122.2 78.1 122.4 77.6 121.1 78 120.9"/><polygon class="cls-17" points="76.4 121.8 76.8 122.7 76.3 122.9 75.9 122 76.4 121.8"/><polygon class="cls-17" points="74.7 122.7 75 123.3 74.5 123.4 74.3 122.9 74.7 122.7"/><polygon class="cls-17" points="84.7 128.1 83.5 130.5 72.9 124.3 72.7 123.9 72.9 123.7 84.7 128.1"/><polygon class="cls-17" points="72.4 112.6 72.9 112.6 72.9 123.7 72.7 123.9 72.4 123.7 72.4 112.6"/><polygon class="cls-17" points="72.9 135.1 72.4 135.1 72.4 124.3 72.7 123.9 72.9 124.3 72.9 135.1"/></g></g><circle class="cls-18" cx="72.4" cy="124.3" r="4"/><circle class="cls-19" cx="59.9" cy="129.8" r="1.5"/><circle class="cls-19" cx="60.4" cy="117.8" r="1.5"/><circle class="cls-19" cx="85.4" cy="117.8" r="1.5"/><circle class="cls-19" cx="72.9" cy="110.8" r="1.5"/><circle class="cls-19" cx="72.9" cy="136.8" r="1.5"/><circle class="cls-19" cx="85.4" cy="129.3" r="1.5"/><text class="cls-20" transform="translate(76.1 115.5)">2+</text><path class="cls-21" d="M29.7,226" transform="translate(-176.1 -219.4)"/><path class="cls-21" d="M27,234.8" transform="translate(-176.1 -219.4)"/><path class="cls-21" d="M158.1,226" transform="translate(-176.1 -219.4)"/><path class="cls-21" d="M29.7,226" transform="translate(-176.1 -219.4)"/><line class="cls-21" x1="25.6" y1="12" x2="25.6" y2="15.4"/><line class="cls-21" x1="27.4" y1="10.2" x2="32.4" y2="10.2"/><path class="cls-21" d="M201.7,231.6a2,2,0,0,1,2.1-2" transform="translate(-176.1 -219.4)"/><line class="cls-21" x1="63.5" y1="10.2" x2="60.1" y2="10.2"/><line class="cls-21" x1="65.3" y1="11.9" x2="65.3" y2="16.9"/><path class="cls-21" d="M239.4,229.6a2.1,2.1,0,0,1,2.1,2" transform="translate(-176.1 -219.4)"/><rect class="cls-22" x="77.8" y="49" height="0.41"/><polygon class="cls-22" points="75.7 36.9 75.7 36.9 75.5 36.5 75.5 36.5 75.7 36.9"/><rect class="cls-23" x="63.9" y="36.4" width="0.9" height="2.58"/><rect class="cls-23" x="213.7" y="238.6" width="0.9" height="2.58" transform="translate(-283.5 26.2) rotate(-49.2)"/><rect class="cls-23" x="199.2" y="280.1" width="4.3" height="2.41" transform="translate(-316.4 116.2) rotate(-63.4)"/><rect class="cls-23" x="98.9" y="61.1" width="4.1" height="2.13"/><line class="cls-21" x1="37.9" y1="86.3" x2="37.9" y2="89.7"/><line class="cls-21" x1="39.7" y1="84.4" x2="44.7" y2="84.4"/><path class="cls-21" d="M214,305.9a2.1,2.1,0,0,1,2.1-2.1" transform="translate(-176.1 -219.4)"/><text class="cls-24" transform="translate(85.6 25.4)">P2</text><text class="cls-25" transform="translate(7.7 21.7)">P1</text><text class="cls-26" transform="translate(79.8 63.8)">P3</text><text class="cls-27" transform="translate(1.8 72.9)">P1.1</text><text class="cls-28" transform="translate(4.2 123)">P4</text></svg>