<svg width="218" height="222" xmlns="http://www.w3.org/2000/svg" xmlns:xlink="http://www.w3.org/1999/xlink" overflow="hidden"><defs><clipPath id="clip0"><rect x="423" y="180" width="218" height="222"/></clipPath><clipPath id="clip1"><rect x="424" y="180" width="216" height="222"/></clipPath><clipPath id="clip2"><rect x="424" y="180" width="216" height="222"/></clipPath><clipPath id="clip3"><rect x="424" y="13" width="509" height="723"/></clipPath><clipPath id="clip4"><rect x="523" y="297" width="24" height="22"/></clipPath><clipPath id="clip5"><rect x="523" y="297" width="24" height="22"/></clipPath><clipPath id="clip6"><rect x="523" y="297" width="24" height="22"/></clipPath><clipPath id="clip7"><rect x="523" y="297" width="24" height="22"/></clipPath><clipPath id="clip8"><rect x="523" y="297" width="24" height="22"/></clipPath><clipPath id="clip9"><rect x="523" y="297" width="24" height="22"/></clipPath><clipPath id="clip10"><rect x="523" y="297" width="24" height="22"/></clipPath><clipPath id="clip11"><rect x="523" y="297" width="24" height="22"/></clipPath><clipPath id="clip12"><rect x="523" y="297" width="24" height="22"/></clipPath><clipPath id="clip13"><rect x="523" y="297" width="24" height="22"/></clipPath><clipPath id="clip14"><rect x="523" y="297" width="24" height="22"/></clipPath><clipPath id="clip15"><rect x="523" y="297" width="24" height="22"/></clipPath><clipPath id="clip16"><rect x="523" y="297" width="24" height="22"/></clipPath><clipPath id="clip17"><rect x="523" y="297" width="24" height="22"/></clipPath><clipPath id="clip18"><rect x="523" y="297" width="24" height="22"/></clipPath><clipPath id="clip19"><rect x="523" y="297" width="24" height="22"/></clipPath><clipPath id="clip20"><rect x="523" y="297" width="24" height="22"/></clipPath></defs><g clip-path="url(#clip0)" transform="translate(-423 -180)"><g clip-path="url(#clip1)"><g clip-path="url(#clip2)"><g clip-path="url(#clip3)"><path d="M71.4786 244.145 81.0769 244.145" stroke="#FAEE00" stroke-width="0.8547" fill="none" transform="matrix(1 0 0 1.00356 424 13.6449)"/><path d="M71.4786 249.316 81.0769 249.316" stroke="#FAEE00" stroke-width="0.8547" fill="none" transform="matrix(1 0 0 1.00356 424 13.6449)"/><path d="M70.7435 209.949 80.3418 209.949" stroke="#E60012" stroke-width="0.8547" fill="none" transform="matrix(1 0 0 1.00356 424 13.6449)"/><path d="M70.7435 215.111 80.3418 215.111" stroke="#E60012" stroke-width="0.8547" fill="none" transform="matrix(1 0 0 1.00356 424 13.6449)"/><path d="M70.7435 221.025 80.3418 221.025" stroke="#E60012" stroke-width="0.8547" fill="none" transform="matrix(1 0 0 1.00356 424 13.6449)"/><path d="M105.453 230.855 114.744 230.855" stroke="#2EA7E0" stroke-width="0.8547" fill="none" transform="matrix(1 0 0 1.00356 424 13.6449)"/><path d="M105.453 236.025 114.744 236.025" stroke="#2EA7E0" stroke-width="0.8547" fill="none" transform="matrix(1 0 0 1.00356 424 13.6449)"/><path d="M105.453 240.82 114.744 240.82" stroke="#2EA7E0" stroke-width="0.8547" fill="none" transform="matrix(1 0 0 1.00356 424 13.6449)"/><path d="M104.709 202.795 114.308 202.795" stroke="#036EB8" stroke-width="0.8547" fill="none" transform="matrix(1 0 0 1.00356 424 13.6449)"/><path d="M104.709 207.966 114.308 207.966" stroke="#036EB8" stroke-width="0.8547" fill="none" transform="matrix(1 0 0 1.00356 424 13.6449)"/><path d="M104.709 213.872 114.308 213.872" stroke="#036EB8" stroke-width="0.8547" fill="none" transform="matrix(1 0 0 1.00356 424 13.6449)"/><path d="M71.3675 270.735 80.9658 270.735" stroke="#EE96BD" stroke-width="0.8547" fill="none" transform="matrix(1 0 0 1.00356 424 13.6449)"/><path d="M71.3675 275.897 80.9658 275.897" stroke="#EE96BD" stroke-width="0.8547" fill="none" transform="matrix(1 0 0 1.00356 424 13.6449)"/><path d="M71.3675 281.812 80.9658 281.812" stroke="#EE96BD" stroke-width="0.8547" fill="none" transform="matrix(1 0 0 1.00356 424 13.6449)"/><path d="M71.3675 296.94 80.9658 296.94" stroke="#EE96BD" stroke-width="0.8547" fill="none" transform="matrix(1 0 0 1.00356 424 13.6449)"/><path d="M71.4786 302.325 81.0769 302.325" stroke="#EE96BD" stroke-width="0.8547" fill="none" transform="matrix(1 0 0 1.00356 424 13.6449)"/><path d="M71.4786 307.496 81.0769 307.496" stroke="#EE96BD" stroke-width="0.8547" fill="none" transform="matrix(1 0 0 1.00356 424 13.6449)"/><path d="M71.4786 313.401 81.0769 313.401" stroke="#EE96BD" stroke-width="0.8547" fill="none" transform="matrix(1 0 0 1.00356 424 13.6449)"/><path d="M70.7435 197.615 70.7435 226.795" stroke="#000000" stroke-width="0.8547" fill="none" transform="matrix(1 0 0 1.00356 424 13.6449)"/><path d="M80.1538 204.649 80.1538 227.025" stroke="#000000" stroke-width="0.8547" fill="none" transform="matrix(1 0 0 1.00356 424 13.6449)"/><path d="M61.8803 226.795 70.923 226.795" stroke="#000000" stroke-width="0.8547" fill="none" transform="matrix(1 0 0 1.00356 424 13.6449)"/><path d="M71.4786 241.333 71.4786 250.889" stroke="#000000" stroke-width="0.8547" fill="none" transform="matrix(1 0 0 1.00356 424 13.6449)"/><path d="M80.8974 241.513 80.8974 250.444" stroke="#000000" stroke-width="0.8547" fill="none" transform="matrix(1 0 0 1.00356 424 13.6449)"/><path d="M71.4786 260.111 71.4786 319.658" stroke="#000000" stroke-width="0.8547" fill="none" transform="matrix(1 0 0 1.00356 424 13.6449)"/><path d="M81.2649 260.88 81.2649 319.658" stroke="#000000" stroke-width="0.8547" fill="none" transform="matrix(1 0 0 1.00356 424 13.6449)"/><path d="M84.4529 325.948C84.4529 330.333 80.8974 333.889 76.5128 333.889 72.1282 333.889 68.5726 330.333 68.5726 325.948 68.5726 321.564 72.1282 318.008 76.5128 318.008 80.9059 318.008 84.4529 321.564 84.4529 325.948Z" stroke="#000000" stroke-width="0.8547" fill="none" transform="matrix(1 0 0 1.00356 424 13.6449)"/><path d="M105.077 229.701 105.077 241.872" stroke="#000000" stroke-width="0.8547" fill="none" transform="matrix(1 0 0 1.00356 424 13.6449)"/><path d="M114.496 229.598 114.496 250.051" stroke="#000000" stroke-width="0.8547" fill="none" transform="matrix(1 0 0 1.00356 424 13.6449)"/><path d="M132.957 240.598 132.957 259.658" stroke="#000000" stroke-width="0.8547" fill="none" transform="matrix(1 0 0 1.00356 424 13.6449)"/><path d="M104.709 197.692 104.709 218.855" stroke="#000000" stroke-width="0.8547" fill="none" transform="matrix(1 0 0 1.00356 424 13.6449)"/><path d="M114.128 197.154 114.128 218.855" stroke="#000000" stroke-width="0.8547" fill="none" transform="matrix(1 0 0 1.00356 424 13.6449)"/><path d="M72.1538 196.196 102.932 196.196" stroke="#000000" stroke-width="0.8547" fill="none" transform="matrix(1 0 0 1.00356 424 13.6449)"/><path d="M80.1025 204.94 105.171 230.025" stroke="#000000" stroke-width="0.8547" fill="none" transform="matrix(1 0 0 1.00356 424 13.6449)"/><path d="M104.461 218.478 114.744 229.863" stroke="#000000" stroke-width="0.8547" fill="none" transform="matrix(1 0 0 1.00356 424 13.6449)"/><path d="M113.932 218.145 133.145 240.829" stroke="#000000" stroke-width="0.8547" fill="none" transform="matrix(1 0 0 1.00356 424 13.6449)"/><path d="M83.0427 259.658 132.128 259.658" stroke="#000000" stroke-width="0.8547" fill="none" transform="matrix(1 0 0 1.00356 424 13.6449)"/><path d="M80.7093 241.931 105.453 241.931" stroke="#000000" stroke-width="0.8547" fill="none" transform="matrix(1 0 0 1.00356 424 13.6449)"/><path d="M80.4444 250.051 114.872 250.051" stroke="#000000" stroke-width="0.8547" fill="none" transform="matrix(1 0 0 1.00356 424 13.6449)"/><path d="M80.1538 226.795 71.4188 241.726" stroke="#000000" stroke-width="0.8547" fill="none" transform="matrix(1 0 0 1.00356 424 13.6449)"/><path d="M72.641 315.137 80.3931 315.137 80.3931 327.325 72.641 327.325Z" stroke="#FFFFFF" stroke-width="0.8547" fill="#FFFFFF" transform="matrix(1 0 0 1.00356 424 13.6449)"/><path d="M49.1624 204.145 59.8632 214.855" stroke="#00A0E9" stroke-width="0.8547" fill="#00A1E9" transform="matrix(1 0 0 1.00356 424 13.6449)"/><path d="M62.5213 215.897C61.6153 214.214 61.1367 213.008 60.5128 211.555L56.5641 215.504C57.1111 215.701 59.2222 216.607 60.9059 217.513 62.7094 218.478 64.2564 219.453 65.1709 220.162 64.4529 219.248 63.4871 217.701 62.5213 215.897Z" stroke="#00A0E9" stroke-width="0.8547" fill="#00A1E9" transform="matrix(1 0 0 1.00356 424 13.6449)"/><text font-family="Arial,Arial_MSFontService,sans-serif" font-weight="400" font-size="10" transform="matrix(0.8547 0 0 0.857746 540.252 209)">3<tspan font-size="10" x="6.00004" y="0">’</tspan><tspan font-size="10" x="-78.497" y="40.8046">5</tspan><tspan font-size="10" x="-72.497" y="40.8046">’</tspan></text><path d="M71.7948 260.393C69.0427 260.393 66.8119 258.162 66.8119 255.41 66.8119 252.658 69.0427 250.427 71.7948 250.427" stroke="#000000" stroke-width="0.8547" fill="none" transform="matrix(1 0 0 1.00356 424 13.6449)"/><text font-family="Arial,Arial_MSFontService,sans-serif" font-weight="400" font-size="13" transform="matrix(0.8547 0 0 0.857746 493.451 369)">HDV <tspan font-size="13" x="31" y="0">(</tspan><tspan font-size="13" x="35" y="0">genomic</tspan>)</text><path d="M72.2564 226.632C72.2564 228.179 71 229.436 69.4529 229.436 67.9059 229.436 66.6495 228.179 66.6495 226.632 66.6495 225.085 67.9059 223.829 69.4529 223.829 71 223.829 72.2564 225.085 72.2564 226.632Z" stroke="#00A0E9" stroke-width="0.8547" fill="#00A1E9" transform="matrix(1 0 0 1.00356 424 13.6449)"/><path d="M136.077 258.555C135.897 261.222 133.59 263.239 130.923 263.06 128.256 262.88 126.239 260.572 126.419 257.906 126.598 255.239 128.906 253.222 131.573 253.402 134.239 253.581 136.256 255.889 136.077 258.555Z" stroke="#E83C37" stroke-width="0.8547" fill="#FFFFFF" transform="matrix(1 0 0 1.00356 424 13.6449)"/><text fill="#E60A11" font-family="Arial,Arial_MSFontService,sans-serif" font-weight="400" font-size="8" transform="matrix(0.8547 0 0 0.857746 552.891 275)">C<tspan font-size="10" x="-2.2988" y="15.156">75</tspan></text><g clip-path="url(#clip4)"><g clip-path="url(#clip5)"><path d="M101.333 299.025 100.367 296.931 110.761 293.196 111 293.342 110.761 293.726Z" fill="#050000" transform="matrix(1 0 0 1.00356 424 13.6449)"/></g><g clip-path="url(#clip6)"><path d="M101.282 290.632 102.137 288.513 102.547 288.718 101.718 290.778Z" fill="#050000" transform="matrix(1 0 0 1.00356 424 13.6449)"/></g><g clip-path="url(#clip7)"><path d="M102.838 291.077 103.573 289.282 103.957 289.487 103.248 291.196Z" fill="#050000" transform="matrix(1 0 0 1.00356 424 13.6449)"/></g><g clip-path="url(#clip8)"><path d="M104.402 291.513 104.991 290.043 105.376 290.248 104.812 291.632Z" fill="#050000" transform="matrix(1 0 0 1.00356 424 13.6449)"/></g><g clip-path="url(#clip9)"><path d="M105.957 291.957 106.402 290.812 106.812 291.017 106.376 292.077Z" fill="#050000" transform="matrix(1 0 0 1.00356 424 13.6449)"/></g><g clip-path="url(#clip10)"><path d="M107.496 292.401 107.846 291.572 108.231 291.778 107.932 292.521Z" fill="#050000" transform="matrix(1 0 0 1.00356 424 13.6449)"/></g><g clip-path="url(#clip11)"><path d="M109.051 292.837 109.256 292.342 109.641 292.547 109.496 292.957Z" fill="#050000" transform="matrix(1 0 0 1.00356 424 13.6449)"/></g><g clip-path="url(#clip12)"><path d="M119.838 288.513 120.718 290.632 120.273 290.778 119.453 288.718Z" fill="#050000" transform="matrix(1 0 0 1.00356 424 13.6449)"/></g><g clip-path="url(#clip13)"><path d="M118.419 289.282 119.154 291.077 118.718 291.196 118.034 289.487Z" fill="#050000" transform="matrix(1 0 0 1.00356 424 13.6449)"/></g><g clip-path="url(#clip14)"><path d="M117.008 290.043 117.598 291.513 117.154 291.632 116.59 290.248Z" fill="#050000" transform="matrix(1 0 0 1.00356 424 13.6449)"/></g><g clip-path="url(#clip15)"><path d="M115.564 290.812 116.034 291.957 115.624 292.077 115.179 291.017Z" fill="#050000" transform="matrix(1 0 0 1.00356 424 13.6449)"/></g><g clip-path="url(#clip16)"><path d="M114.145 291.572 114.47 292.401 114.06 292.521 113.769 291.778Z" fill="#050000" transform="matrix(1 0 0 1.00356 424 13.6449)"/></g><g clip-path="url(#clip17)"><path d="M112.735 292.342 112.94 292.837 112.496 292.957 112.325 292.547Z" fill="#050000" transform="matrix(1 0 0 1.00356 424 13.6449)"/></g><g clip-path="url(#clip18)"><path d="M121.214 296.966 120.214 299.025 111.205 293.726 111 293.342 111.205 293.196Z" fill="#050000" transform="matrix(1 0 0 1.00356 424 13.6449)"/></g><g clip-path="url(#clip19)"><path d="M110.761 283.743 111.205 283.743 111.205 293.196 111 293.342 110.761 293.196Z" fill="#050000" transform="matrix(1 0 0 1.00356 424 13.6449)"/></g><g clip-path="url(#clip20)"><path d="M111.205 302.94 110.761 302.94 110.761 293.726 111 293.342 111.205 293.726Z" fill="#050000" transform="matrix(1 0 0 1.00356 424 13.6449)"/></g></g><path d="M114.179 293.726C114.179 295.614 112.649 297.145 110.761 297.145 108.872 297.145 107.342 295.614 107.342 293.726 107.342 291.838 108.872 290.307 110.761 290.307 112.649 290.307 114.179 291.838 114.179 293.726Z" fill="#2AB06E" transform="matrix(1 0 0 1.00356 424 13.6449)"/><path d="M101.359 298.427C101.359 299.135 100.785 299.709 100.077 299.709 99.3688 299.709 98.7948 299.135 98.7948 298.427 98.7948 297.719 99.3688 297.145 100.077 297.145 100.785 297.145 101.359 297.719 101.359 298.427Z" fill="#E7271C" transform="matrix(1 0 0 1.00356 424 13.6449)"/><path d="M101.786 288.171C101.786 288.879 101.212 289.453 100.504 289.453 99.7961 289.453 99.2222 288.879 99.2222 288.171 99.2222 287.463 99.7961 286.889 100.504 286.889 101.212 286.889 101.786 287.463 101.786 288.171Z" fill="#E7271C" transform="matrix(1 0 0 1.00356 424 13.6449)"/><path d="M123.154 288.171C123.154 288.879 122.58 289.453 121.872 289.453 121.164 289.453 120.59 288.879 120.59 288.171 120.59 287.463 121.164 286.889 121.872 286.889 122.58 286.889 123.154 287.463 123.154 288.171Z" fill="#E7271C" transform="matrix(1 0 0 1.00356 424 13.6449)"/><path d="M112.47 282.188C112.47 282.896 111.896 283.47 111.188 283.47 110.48 283.47 109.906 282.896 109.906 282.188 109.906 281.48 110.48 280.906 111.188 280.906 111.896 280.906 112.47 281.48 112.47 282.188Z" fill="#E7271C" transform="matrix(1 0 0 1.00356 424 13.6449)"/><path d="M112.47 304.41C112.47 305.118 111.896 305.692 111.188 305.692 110.48 305.692 109.906 305.118 109.906 304.41 109.906 303.702 110.48 303.128 111.188 303.128 111.896 303.128 112.47 303.702 112.47 304.41Z" fill="#E7271C" transform="matrix(1 0 0 1.00356 424 13.6449)"/><path d="M123.154 298C123.154 298.708 122.58 299.282 121.872 299.282 121.164 299.282 120.59 298.708 120.59 298 120.59 297.292 121.164 296.718 121.872 296.718 122.58 296.718 123.154 297.292 123.154 298Z" fill="#E7271C" transform="matrix(1 0 0 1.00356 424 13.6449)"/><text font-family="Arial,Arial_MSFontService,sans-serif" font-weight="400" font-size="6" transform="matrix(0.8547 0 0 0.857746 537.932 301)">2<tspan font-size="6" x="2.99998" y="0">+</tspan></text><path d="" stroke="#000000" stroke-width="0.8547" stroke-miterlimit="10" fill="none" transform="matrix(1 0 0 1.00356 424 13.6449)"/><path d="" stroke="#000000" stroke-width="0.8547" stroke-miterlimit="10" fill="none" transform="matrix(1 0 0 1.00356 424 13.6449)"/><path d="" stroke="#000000" stroke-width="0.8547" stroke-miterlimit="10" fill="none" transform="matrix(1 0 0 1.00356 424 13.6449)"/><path d="" stroke="#000000" stroke-width="0.8547" stroke-miterlimit="10" fill="none" transform="matrix(1 0 0 1.00356 424 13.6449)"/><path d="M11.2564 166.949 11.2564 169.855" stroke="#000000" stroke-width="0.8547" stroke-miterlimit="10" fill="none" transform="matrix(1 0 0 1.00356 424 13.6449)"/><path d="M12.7436 165.385 17.0256 165.385" stroke="#000000" stroke-width="0.8547" stroke-miterlimit="10" fill="none" transform="matrix(1 0 0 1.00356 424 13.6449)"/><path d="M11.2564 167.162C11.2564 166.179 12.0513 165.385 13.0342 165.385" stroke="#000000" stroke-width="0.8547" stroke-miterlimit="10" fill="none" transform="matrix(1 0 0 1.00356 424 13.6449)"/><path d="M70.7435 197.761 70.7435 200.658" stroke="#000000" stroke-width="0.8547" stroke-miterlimit="10" fill="none" transform="matrix(1 0 0 1.00356 424 13.6449)"/><path d="M72.2393 196.196 76.5128 196.196" stroke="#000000" stroke-width="0.8547" stroke-miterlimit="10" fill="none" transform="matrix(1 0 0 1.00356 424 13.6449)"/><path d="M70.7435 197.974C70.7435 196.991 71.5384 196.196 72.5213 196.196" stroke="#000000" stroke-width="0.8547" stroke-miterlimit="10" fill="none" transform="matrix(1 0 0 1.00356 424 13.6449)"/><path d="M103.145 196.196 100.239 196.196" stroke="#000000" stroke-width="0.8547" stroke-miterlimit="10" fill="none" transform="matrix(1 0 0 1.00356 424 13.6449)"/><path d="M104.709 197.692 104.709 201.966" stroke="#000000" stroke-width="0.8547" stroke-miterlimit="10" fill="none" transform="matrix(1 0 0 1.00356 424 13.6449)"/><path d="M102.932 196.196C103.914 196.196 104.709 196.991 104.709 197.974" stroke="#000000" stroke-width="0.8547" stroke-miterlimit="10" fill="none" transform="matrix(1 0 0 1.00356 424 13.6449)"/><path d="M115.376 229.367 115.402 229.367 115.402 229.718 115.376 229.718Z" stroke="#FFFFFF" stroke-width="0.8547" fill="none" transform="matrix(1 0 0 1.00356 424 13.6449)"/><path d="M113.606 218.946 113.632 218.946 113.632 219.297 113.606 219.297Z" stroke="#FFFFFF" stroke-width="0.855725" fill="none" transform="matrix(0.813425 -0.58167 0.579605 0.816323 318.062 120.489)"/><path d="M103.47 218.572 104.273 218.572 104.273 220.778 103.47 220.778Z" fill="#FFFFFF" transform="matrix(1 0 0 1.00356 424 13.6449)"/><path d="M81.1036 204.201 81.9082 204.201 81.9082 206.41 81.1036 206.41Z" fill="#FFFFFF" transform="matrix(0.651828 -0.759068 0.756372 0.654151 296.964 146.936)"/><path d="M68.6565 239.558 72.36 239.558 72.36 241.619 68.6565 241.619Z" fill="#FFFFFF" transform="matrix(0.446976 -0.896938 0.893753 0.448569 247.923 210.234)"/><path d="M133.393 239.692 136.889 239.692 136.889 241.504 133.393 241.504Z" fill="#FFFFFF" transform="matrix(1 0 0 1.00356 424 13.6449)"/><path d="M81.2649 261.222 81.2649 264.119" stroke="#000000" stroke-width="0.8547" stroke-miterlimit="10" fill="none" transform="matrix(1 0 0 1.00356 424 13.6449)"/><path d="M82.7606 259.658 87.0341 259.658" stroke="#000000" stroke-width="0.8547" stroke-miterlimit="10" fill="none" transform="matrix(1 0 0 1.00356 424 13.6449)"/><path d="M81.2649 261.436C81.2649 260.453 82.0598 259.658 83.0427 259.658" stroke="#000000" stroke-width="0.8547" stroke-miterlimit="10" fill="none" transform="matrix(1 0 0 1.00356 424 13.6449)"/><text fill="#036EB8" font-family="Arial,Arial_MSFontService,sans-serif" font-weight="400" font-size="10" transform="matrix(0.8547 0 0 0.857746 546.034 224)">P<tspan font-size="10" x="7.00001" y="0">2</tspan><tspan fill="#E7202B" font-size="10" x="-77.9224" y="-4.66338">P</tspan><tspan fill="#E7202B" font-size="10" x="-70.9224" y="-4.66338">1</tspan><tspan fill="#2EA7E0" font-size="10" x="-5.83351" y="38.4729">P</tspan><tspan fill="#2EA7E0" font-size="10" x="1.1665" y="38.4729">3</tspan><tspan fill="#FAEE00" font-size="10" x="-83.8213" y="46.6338">P</tspan><tspan fill="#FAEE00" font-size="10" x="-76.8213" y="46.6338">1</tspan><tspan fill="#FAEE00" font-size="10" x="-70.8213" y="46.6338">.</tspan><tspan fill="#FAEE00" font-size="10" x="-67.8213" y="46.6338">1</tspan><tspan fill="#E1A4C7" font-size="10" x="-81.461" y="96.7652">P</tspan><tspan fill="#E1A4C7" font-size="10" x="-74.461" y="96.7652">4</tspan></text></g></g></g></g></svg>