<svg width="209" height="218" xmlns="http://www.w3.org/2000/svg" xmlns:xlink="http://www.w3.org/1999/xlink" overflow="hidden"><defs><clipPath id="clip0"><rect x="83" y="214" width="209" height="218"/></clipPath><clipPath id="clip1"><rect x="84" y="214" width="207" height="217"/></clipPath><clipPath id="clip2"><rect x="121" y="214" width="170" height="217"/></clipPath><clipPath id="clip3"><rect x="121" y="53" width="509" height="722"/></clipPath><clipPath id="clip4"><rect x="190" y="340" width="25" height="23"/></clipPath><clipPath id="clip5"><rect x="190" y="340" width="25" height="23"/></clipPath><clipPath id="clip6"><rect x="190" y="340" width="25" height="23"/></clipPath><clipPath id="clip7"><rect x="190" y="340" width="25" height="23"/></clipPath><clipPath id="clip8"><rect x="190" y="340" width="25" height="23"/></clipPath><clipPath id="clip9"><rect x="190" y="340" width="25" height="23"/></clipPath><clipPath id="clip10"><rect x="190" y="340" width="25" height="23"/></clipPath><clipPath id="clip11"><rect x="190" y="340" width="25" height="23"/></clipPath><clipPath id="clip12"><rect x="190" y="340" width="25" height="23"/></clipPath><clipPath id="clip13"><rect x="190" y="340" width="25" height="23"/></clipPath><clipPath id="clip14"><rect x="190" y="340" width="25" height="23"/></clipPath><clipPath id="clip15"><rect x="190" y="340" width="25" height="23"/></clipPath><clipPath id="clip16"><rect x="190" y="340" width="25" height="23"/></clipPath><clipPath id="clip17"><rect x="190" y="340" width="25" height="23"/></clipPath><clipPath id="clip18"><rect x="190" y="340" width="25" height="23"/></clipPath><clipPath id="clip19"><rect x="190" y="340" width="25" height="23"/></clipPath><clipPath id="clip20"><rect x="190" y="340" width="25" height="23"/></clipPath></defs><g clip-path="url(#clip0)" transform="translate(-83 -214)"><g clip-path="url(#clip1)"><g clip-path="url(#clip2)"><g clip-path="url(#clip3)"><path d="M41.6107 248 51.1893 248" stroke="#EF872D" stroke-width="0.852941" stroke-miterlimit="10" fill="none" transform="matrix(1 0 0 1.0027 121.527 53.8296)"/><path d="M41.6107 253.159 51.1893 253.159" stroke="#EF872D" stroke-width="0.852941" stroke-miterlimit="10" fill="none" transform="matrix(1 0 0 1.0027 121.527 53.8296)"/><path d="M40.8721 213.872 50.4523 213.872" stroke="#E60012" stroke-width="0.852941" fill="none" transform="matrix(1 0 0 1.0027 121.527 53.8296)"/><path d="M40.8721 219.028 50.4523 219.028" stroke="#E60012" stroke-width="0.852941" fill="none" transform="matrix(1 0 0 1.0027 121.527 53.8296)"/><path d="M40.8721 224.926 50.4523 224.926" stroke="#E60012" stroke-width="0.852941" fill="none" transform="matrix(1 0 0 1.0027 121.527 53.8296)"/><path d="M75.5083 234.736 84.7832 234.736" stroke="#2EA7E0" stroke-width="0.852941" fill="none" transform="matrix(1 0 0 1.0027 121.527 53.8296)"/><path d="M75.5083 239.894 84.7832 239.894" stroke="#2EA7E0" stroke-width="0.852941" fill="none" transform="matrix(1 0 0 1.0027 121.527 53.8296)"/><path d="M75.5083 244.686 84.7832 244.686" stroke="#2EA7E0" stroke-width="0.852941" fill="none" transform="matrix(1 0 0 1.0027 121.527 53.8296)"/><path d="M74.7731 206.734 84.3516 206.734" stroke="#036EB8" stroke-width="0.852941" fill="none" transform="matrix(1 0 0 1.0027 121.527 53.8296)"/><path d="M74.7731 211.892 84.3516 211.892" stroke="#036EB8" stroke-width="0.852941" fill="none" transform="matrix(1 0 0 1.0027 121.527 53.8296)"/><path d="M74.7731 217.788 84.3516 217.788" stroke="#036EB8" stroke-width="0.852941" fill="none" transform="matrix(1 0 0 1.0027 121.527 53.8296)"/><path d="M41.493 274.533 51.0733 274.533" stroke="#E1A4C7" stroke-width="0.852941" stroke-miterlimit="10" fill="none" transform="matrix(1 0 0 1.0027 121.527 53.8296)"/><path d="M41.493 279.69 51.0733 279.69" stroke="#E1A4C7" stroke-width="0.852941" stroke-miterlimit="10" fill="none" transform="matrix(1 0 0 1.0027 121.527 53.8296)"/><path d="M41.493 285.587 51.0733 285.587" stroke="#E1A4C7" stroke-width="0.852941" stroke-miterlimit="10" fill="none" transform="matrix(1 0 0 1.0027 121.527 53.8296)"/><path d="M41.493 300.683 51.0733 300.683" stroke="#E1A4C7" stroke-width="0.852941" stroke-miterlimit="10" fill="none" transform="matrix(1 0 0 1.0027 121.527 53.8296)"/><path d="M41.6107 306.063 51.1893 306.063" stroke="#E1A4C7" stroke-width="0.852941" stroke-miterlimit="10" fill="none" transform="matrix(1 0 0 1.0027 121.527 53.8296)"/><path d="M41.6107 311.221 51.1893 311.221" stroke="#E1A4C7" stroke-width="0.852941" stroke-miterlimit="10" fill="none" transform="matrix(1 0 0 1.0027 121.527 53.8296)"/><path d="M41.6107 317.117 51.1893 317.117" stroke="#E1A4C7" stroke-width="0.852941" stroke-miterlimit="10" fill="none" transform="matrix(1 0 0 1.0027 121.527 53.8296)"/><path d="M40.8721 201.564 40.8721 230.684" stroke="#000000" stroke-width="0.852941" fill="none" transform="matrix(1 0 0 1.0027 121.527 53.8296)"/><path d="M50.2689 208.582 50.2689 230.92" stroke="#000000" stroke-width="0.852941" fill="none" transform="matrix(1 0 0 1.0027 121.527 53.8296)"/><path d="M32.0313 230.684 41.0572 230.684" stroke="#000000" stroke-width="0.852941" fill="none" transform="matrix(1 0 0 1.0027 121.527 53.8296)"/><path d="M41.6082 245.19 41.6082 254.728" stroke="#000000" stroke-width="0.852941" fill="none" transform="matrix(1 0 0 1.0027 121.527 53.8296)"/><path d="M51.005 245.37 51.005 254.287" stroke="#000000" stroke-width="0.852941" fill="none" transform="matrix(1 0 0 1.0027 121.527 53.8296)"/><path d="M41.6107 263.932 41.6107 323.355" stroke="#000000" stroke-width="0.852941" fill="none" transform="matrix(1 0 0 1.0027 121.527 53.8296)"/><path d="M51.3726 264.697 51.3726 323.355" stroke="#000000" stroke-width="0.852941" fill="none" transform="matrix(1 0 0 1.0027 121.527 53.8296)"/><path d="M54.5592 329.632C54.5592 334.007 51.0124 337.554 46.6371 337.554 42.2618 337.554 38.715 334.007 38.715 329.632 38.715 325.257 42.2618 321.71 46.6371 321.71 51.0124 321.71 54.5592 325.257 54.5592 329.632Z" stroke="#000000" stroke-width="0.852941" fill="none" transform="matrix(1 0 0 1.0027 121.527 53.8296)"/><path d="M75.1398 233.586 75.1398 245.733" stroke="#000000" stroke-width="0.852941" fill="none" transform="matrix(1 0 0 1.0027 121.527 53.8296)"/><path d="M84.535 233.483 84.535 253.898" stroke="#000000" stroke-width="0.852941" fill="none" transform="matrix(1 0 0 1.0027 121.527 53.8296)"/><path d="M102.957 244.461 102.957 263.479" stroke="#000000" stroke-width="0.852941" fill="none" transform="matrix(1 0 0 1.0027 121.527 53.8296)"/><path d="M74.7714 201.644 74.7714 222.763" stroke="#000000" stroke-width="0.852941" fill="none" transform="matrix(1 0 0 1.0027 121.527 53.8296)"/><path d="M84.1665 201.102 84.1665 222.763" stroke="#000000" stroke-width="0.852941" fill="none" transform="matrix(1 0 0 1.0027 121.527 53.8296)"/><path d="M42.2828 200.147 72.993 200.147" stroke="#000000" stroke-width="0.852941" fill="none" transform="matrix(1 0 0 1.0027 121.527 53.8296)"/><path d="M50.2101 208.874 75.2328 233.909" stroke="#000000" stroke-width="0.852941" fill="none" transform="matrix(1 0 0 1.0027 121.527 53.8296)"/><path d="M74.5215 222.391 84.7832 233.745" stroke="#000000" stroke-width="0.852941" fill="none" transform="matrix(1 0 0 1.0027 121.527 53.8296)"/><path d="M83.9746 222.056 103.15 244.687" stroke="#000000" stroke-width="0.852941" fill="none" transform="matrix(1 0 0 1.0027 121.527 53.8296)"/><path d="M53.1502 263.479 102.13 263.479" stroke="#000000" stroke-width="0.852941" fill="none" transform="matrix(1 0 0 1.0027 121.527 53.8296)"/><path d="M50.8208 245.792 75.5092 245.792" stroke="#000000" stroke-width="0.852941" fill="none" transform="matrix(1 0 0 1.0027 121.527 53.8296)"/><path d="M50.5589 253.892 84.9094 253.892" stroke="#000000" stroke-width="0.852941" fill="none" transform="matrix(1 0 0 1.0027 121.527 53.8296)"/><path d="M50.2689 230.684 41.5485 245.586" stroke="#000000" stroke-width="0.852941" fill="none" transform="matrix(1 0 0 1.0027 121.527 53.8296)"/><path d="M42.7699 318.845 50.5061 318.845 50.5061 331.004 42.7699 331.004Z" stroke="#FFFFFF" stroke-width="0.852941" fill="#FFFFFF" transform="matrix(1 0 0 1.0027 121.527 53.8296)"/><path d="M19.3353 208.085 30.0184 218.768" stroke="#00A0E9" stroke-width="0.852941" fill="#00A1E9" transform="matrix(1 0 0 1.0027 121.527 53.8296)"/><path d="M32.6668 219.813C31.7627 218.13 31.2833 216.931 30.6624 215.479L26.7201 219.421C27.2668 219.616 29.3719 220.523 31.0556 221.424 32.8561 222.39 34.3957 223.357 35.3109 224.069 34.6004 223.154 33.6306 221.615 32.6668 219.813Z" stroke="#00A0E9" stroke-width="0.852941" fill="#00A1E9" transform="matrix(1 0 0 1.0027 121.527 53.8296)"/><text font-family="Arial,Arial_MSFontService,sans-serif" font-weight="400" font-size="10" transform="matrix(0.852941 0 0 0.855241 206.062 252)">3<tspan font-size="10" x="6.00002" y="0">’</tspan><tspan font-size="10" x="-76.441" y="42.0934">5</tspan>’</text><path d="M41.9229 264.216C39.1764 264.216 36.9477 261.989 36.9477 259.241 36.9477 256.493 39.1756 254.266 41.9229 254.266" stroke="#000000" stroke-width="0.852941" fill="none" transform="matrix(1 0 0 1.0027 121.527 53.8296)"/><path d="M42.3826 230.521C42.3826 232.067 41.1297 233.319 39.5841 233.319 38.0386 233.319 36.7856 232.067 36.7856 230.521 36.7856 228.975 38.0386 227.722 39.5841 227.722 41.1297 227.722 42.3826 228.975 42.3826 230.521Z" stroke="#00A0E9" stroke-width="0.852941" fill="#00A1E9" transform="matrix(1 0 0 1.0027 121.527 53.8296)"/><path d="M106.084 262.057C106.084 264.726 103.92 266.89 101.251 266.89 98.5819 266.89 96.4182 264.726 96.4182 262.057 96.4182 259.388 98.5819 257.224 101.251 257.224 103.92 257.224 106.084 259.388 106.084 262.057Z" stroke="#E83C37" stroke-width="0.852941" fill="#FFFFFF" transform="matrix(1 0 0 1.0027 121.527 53.8296)"/><text fill="#E60A11" font-family="Arial,Arial_MSFontService,sans-serif" font-weight="400" font-size="8" transform="matrix(0.852941 0 0 0.855241 220.429 319)">C<tspan font-size="10" x="-2.2988" y="15.2004">75</tspan></text><g clip-path="url(#clip4)"><g clip-path="url(#clip5)"><path d="M71.4048 302.768 70.435 300.681 80.8102 296.948 81.0447 297.096 80.8102 297.478Z" fill="#050000" transform="matrix(1 0 0 1.0027 121.527 53.8296)"/></g><g clip-path="url(#clip6)"><path d="M71.346 294.391 72.1981 292.275 72.6092 292.481 71.7869 294.538Z" fill="#050000" transform="matrix(1 0 0 1.0027 121.527 53.8296)"/></g><g clip-path="url(#clip7)"><path d="M72.9034 294.833 73.6378 293.04 74.0208 293.245 73.3154 294.95Z" fill="#050000" transform="matrix(1 0 0 1.0027 121.527 53.8296)"/></g><g clip-path="url(#clip8)"><path d="M74.4618 295.274 75.0494 293.803 75.4315 294.01 74.8729 295.391Z" fill="#050000" transform="matrix(1 0 0 1.0027 121.527 53.8296)"/></g><g clip-path="url(#clip9)"><path d="M76.0192 295.714 76.4602 294.567 76.8713 294.774 76.4303 295.832Z" fill="#050000" transform="matrix(1 0 0 1.0027 121.527 53.8296)"/></g><g clip-path="url(#clip10)"><path d="M77.5477 296.155 77.9 295.332 78.2821 295.538 77.9887 296.272Z" fill="#050000" transform="matrix(1 0 0 1.0027 121.527 53.8296)"/></g><g clip-path="url(#clip11)"><path d="M79.1052 296.596 79.3107 296.097 79.6937 296.301 79.5461 296.713Z" fill="#050000" transform="matrix(1 0 0 1.0027 121.527 53.8296)"/></g><g clip-path="url(#clip12)"><path d="M89.8625 292.275 90.7444 294.391 90.3043 294.538 89.4812 292.481Z" fill="#050000" transform="matrix(1 0 0 1.0027 121.527 53.8296)"/></g><g clip-path="url(#clip13)"><path d="M88.4517 293.04 89.1869 294.833 88.746 294.95 88.0696 293.245Z" fill="#050000" transform="matrix(1 0 0 1.0027 121.527 53.8296)"/></g><g clip-path="url(#clip14)"><path d="M87.0409 293.803 87.6286 295.274 87.1885 295.391 86.6298 294.01Z" fill="#050000" transform="matrix(1 0 0 1.0027 121.527 53.8296)"/></g><g clip-path="url(#clip15)"><path d="M85.6012 294.567 86.0711 295.714 85.6592 295.832 85.219 294.774Z" fill="#050000" transform="matrix(1 0 0 1.0027 121.527 53.8296)"/></g><g clip-path="url(#clip16)"><path d="M84.1904 295.332 84.5128 296.155 84.1017 296.272 83.8083 295.538Z" fill="#050000" transform="matrix(1 0 0 1.0027 121.527 53.8296)"/></g><g clip-path="url(#clip17)"><path d="M82.7788 296.097 82.9852 296.596 82.5442 296.713 82.3677 296.301Z" fill="#050000" transform="matrix(1 0 0 1.0027 121.527 53.8296)"/></g><g clip-path="url(#clip18)"><path d="M91.2442 300.711 90.2446 302.768 81.2512 297.478 81.0447 297.096 81.2512 296.948Z" fill="#050000" transform="matrix(1 0 0 1.0027 121.527 53.8296)"/></g><g clip-path="url(#clip19)"><path d="M80.8102 287.514 81.2512 287.514 81.2512 296.948 81.0447 297.096 80.8102 296.948Z" fill="#050000" transform="matrix(1 0 0 1.0027 121.527 53.8296)"/></g><g clip-path="url(#clip20)"><path d="M81.2512 306.677 80.8102 306.677 80.8102 297.478 81.0447 297.096 81.2512 297.478Z" fill="#050000" transform="matrix(1 0 0 1.0027 121.527 53.8296)"/></g></g><path d="M84.222 297.478C84.222 299.362 82.6945 300.889 80.8102 300.889 78.9259 300.889 77.3984 299.362 77.3984 297.478 77.3984 295.593 78.9259 294.066 80.8102 294.066 82.6945 294.066 84.222 295.593 84.222 297.478Z" fill="#2AB06E" transform="matrix(1 0 0 1.0027 121.527 53.8296)"/><path d="M71.4278 302.169C71.4278 302.875 70.855 303.448 70.1484 303.448 69.4418 303.448 68.869 302.875 68.869 302.169 68.869 301.462 69.4418 300.889 70.1484 300.889 70.855 300.889 71.4278 301.462 71.4278 302.169Z" fill="#E7271C" transform="matrix(1 0 0 1.0027 121.527 53.8296)"/><path d="M71.8543 291.934C71.8543 292.64 71.2815 293.213 70.5749 293.213 69.8683 293.213 69.2955 292.64 69.2955 291.934 69.2955 291.227 69.8683 290.654 70.5749 290.654 71.2815 290.654 71.8543 291.227 71.8543 291.934Z" fill="#E7271C" transform="matrix(1 0 0 1.0027 121.527 53.8296)"/><path d="M93.1778 291.934C93.1778 292.64 92.605 293.213 91.8984 293.213 91.1918 293.213 90.619 292.64 90.619 291.934 90.619 291.227 91.1918 290.654 91.8984 290.654 92.605 290.654 93.1778 291.227 93.1778 291.934Z" fill="#E7271C" transform="matrix(1 0 0 1.0027 121.527 53.8296)"/><path d="M82.5161 285.963C82.5161 286.67 81.9433 287.242 81.2367 287.242 80.5301 287.242 79.9572 286.67 79.9572 285.963 79.9572 285.256 80.5301 284.684 81.2367 284.684 81.9433 284.684 82.5161 285.256 82.5161 285.963Z" fill="#E7271C" transform="matrix(1 0 0 1.0027 121.527 53.8296)"/><path d="M82.5161 308.139C82.5161 308.846 81.9433 309.419 81.2367 309.419 80.5301 309.419 79.9572 308.846 79.9572 308.139 79.9572 307.433 80.5301 306.86 81.2367 306.86 81.9433 306.86 82.5161 307.433 82.5161 308.139Z" fill="#E7271C" transform="matrix(1 0 0 1.0027 121.527 53.8296)"/><path d="M93.1778 301.742C93.1778 302.449 92.605 303.022 91.8984 303.022 91.1918 303.022 90.619 302.449 90.619 301.742 90.619 301.036 91.1918 300.463 91.8984 300.463 92.605 300.463 93.1778 301.036 93.1778 301.742Z" fill="#E7271C" transform="matrix(1 0 0 1.0027 121.527 53.8296)"/><text font-family="Arial,Arial_MSFontService,sans-serif" font-weight="400" font-size="6" transform="matrix(0.852941 0 0 0.855241 205.501 345)">2+</text><path d="" stroke="#000000" stroke-width="0.852941" stroke-miterlimit="10" fill="none" transform="matrix(1 0 0 1.0027 121.527 53.8296)"/><path d="" stroke="#000000" stroke-width="0.852941" stroke-miterlimit="10" fill="none" transform="matrix(1 0 0 1.0027 121.527 53.8296)"/><path d="" stroke="#000000" stroke-width="0.852941" stroke-miterlimit="10" fill="none" transform="matrix(1 0 0 1.0027 121.527 53.8296)"/><path d="" stroke="#000000" stroke-width="0.852941" stroke-miterlimit="10" fill="none" transform="matrix(1 0 0 1.0027 121.527 53.8296)"/><path d="M40.8721 201.71 40.8721 204.605" stroke="#000000" stroke-width="0.852941" stroke-miterlimit="10" fill="none" transform="matrix(1 0 0 1.0027 121.527 53.8296)"/><path d="M42.3647 200.147 46.6294 200.147" stroke="#000000" stroke-width="0.852941" stroke-miterlimit="10" fill="none" transform="matrix(1 0 0 1.0027 121.527 53.8296)"/><path d="M40.8721 201.924C40.8721 200.943 41.6679 200.147 42.6496 200.147" stroke="#000000" stroke-width="0.852941" stroke-miterlimit="10" fill="none" transform="matrix(1 0 0 1.0027 121.527 53.8296)"/><path d="M73.2079 200.147 70.3122 200.147" stroke="#000000" stroke-width="0.852941" stroke-miterlimit="10" fill="none" transform="matrix(1 0 0 1.0027 121.527 53.8296)"/><path d="M74.7714 201.639 74.7714 205.904" stroke="#000000" stroke-width="0.852941" stroke-miterlimit="10" fill="none" transform="matrix(1 0 0 1.0027 121.527 53.8296)"/><path d="M72.993 200.147C73.9756 200.147 74.7714 200.943 74.7705 201.924" stroke="#000000" stroke-width="0.852941" stroke-miterlimit="10" fill="none" transform="matrix(1 0 0 1.0027 121.527 53.8296)"/><path d="M85.411 233.256 85.4357 233.256 85.4357 233.603 85.411 233.603Z" stroke="#FFFFFF" stroke-width="0.852941" fill="none" transform="matrix(1 0 0 1.0027 121.527 53.8296)"/><path d="M83.5835 222.788 83.6091 222.788 83.6091 223.134 83.5835 223.134Z" stroke="#FFFFFF" stroke-width="0.853694" fill="none" transform="matrix(0.818477 -0.574539 0.572994 0.820684 8.87862 142.233)"/><path d="M73.5355 222.484 74.3355 222.484 74.3355 224.683 73.5355 224.683Z" fill="#FFFFFF" transform="matrix(1 0 0 1.0027 121.527 53.8296)"/><path d="M51.1503 208.073 51.9504 208.073 51.9504 210.274 51.1503 210.274Z" fill="#FFFFFF" transform="matrix(0.652068 -0.75869 0.75665 0.653826 -18.8716 165.68)"/><path d="M38.7645 243.382 42.4624 243.382 42.4624 245.436 38.7645 245.436Z" fill="#FFFFFF" transform="matrix(0.447053 -0.896317 0.893907 0.448259 -74.5132 225.604)"/><path d="M103.393 243.554 106.879 243.554 106.879 245.366 103.393 245.366Z" fill="#FFFFFF" transform="matrix(1 0 0 1.0027 121.527 53.8296)"/><path d="M51.3726 265.042 51.3726 267.937" stroke="#000000" stroke-width="0.852941" stroke-miterlimit="10" fill="none" transform="matrix(1 0 0 1.0027 121.527 53.8296)"/><path d="M52.8644 263.479 57.1291 263.479" stroke="#000000" stroke-width="0.852941" stroke-miterlimit="10" fill="none" transform="matrix(1 0 0 1.0027 121.527 53.8296)"/><path d="M51.3726 265.256C51.3726 264.274 52.1684 263.479 53.1502 263.479" stroke="#000000" stroke-width="0.852941" stroke-miterlimit="10" fill="none" transform="matrix(1 0 0 1.0027 121.527 53.8296)"/><text fill="#036EB8" font-family="Arial,Arial_MSFontService,sans-serif" font-weight="400" font-size="10" transform="matrix(0.852941 0 0 0.855241 213.586 268)">P<tspan font-size="10" x="6.99999" y="0">2</tspan><tspan fill="#E7202B" font-size="10" x="-77.9223" y="-4.67705">P</tspan><tspan fill="#E7202B" font-size="10" x="-70.9223" y="-4.67705">1</tspan><tspan fill="#2EA7E0" font-size="10" x="-5.8335" y="37.4164">P</tspan><tspan fill="#2EA7E0" font-size="10" x="1.16649" y="37.4164">3</tspan><tspan fill="#E1A4C7" font-size="10" x="-81.4609" y="97.0487">P</tspan><tspan fill="#E1A4C7" font-size="10" x="-74.4609" y="97.0487">4</tspan><tspan fill="#2AB06E" font-size="10" x="-5.8335" y="118.095">Mg</tspan><tspan fill="#EF872D" font-size="10" x="-83.2719" y="45.6012">P</tspan><tspan fill="#EF872D" font-size="10" x="-76.2719" y="45.6012">1</tspan><tspan fill="#EF872D" font-size="10" x="-70.2719" y="45.6012">.</tspan><tspan fill="#EF872D" font-size="10" x="-67.2719" y="45.6012">1</tspan></text></g></g></g></g></svg>