<?xml version="1.0" encoding="utf-8"?>
<!-- Generator: Adobe Illustrator 16.0.0, SVG Export Plug-In . SVG Version: 6.00 Build 0)  -->
<!DOCTYPE svg PUBLIC "-//W3C//DTD SVG 1.1//EN" "http://www.w3.org/Graphics/SVG/1.1/DTD/svg11.dtd">
<svg version="1.1" id="图层_1" xmlns="http://www.w3.org/2000/svg" xmlns:xlink="http://www.w3.org/1999/xlink" x="0px" y="0px"
	 width="262.667px" height="267.334px" viewBox="0 0 262.667 267.334" enable-background="new 0 0 262.667 267.334"
	 xml:space="preserve">
<g>
	<g>
		<line fill="#73C8D5" stroke="#73C8D5" x1="94.067" y1="69.367" x2="104.164" y2="69.367"/>
		<line fill="#73C8D5" stroke="#73C8D5" x1="94.067" y1="75.414" x2="104.164" y2="75.414"/>
		<line fill="#73C8D5" stroke="#73C8D5" x1="94.067" y1="82.328" x2="104.164" y2="82.328"/>
	</g>
</g>
<line fill="none" stroke="#000000" x1="93.636" y1="62.34" x2="93.636" y2="110.668"/>
<line fill="none" stroke="#000000" x1="104.649" y1="62.209" x2="104.649" y2="87.459"/>
<line fill="#6BB82D" stroke="#6BB82D" x1="93.901" y1="99.367" x2="104.831" y2="99.367"/>
<line fill="#6BB82D" stroke="#6BB82D" x1="93.901" y1="105.414" x2="104.831" y2="105.414"/>
<line fill="none" stroke="#000000" x1="104.649" y1="93.834" x2="104.649" y2="110.668"/>
<line fill="#6BB82D" stroke="#6BB82D" x1="93.734" y1="123.867" x2="104.195" y2="123.867"/>
<line fill="#6BB82D" stroke="#6BB82D" x1="93.907" y1="129.914" x2="104.367" y2="129.914"/>
<line fill="none" stroke="#000000" x1="93.636" y1="120.506" x2="93.636" y2="145.668"/>
<line fill="none" stroke="#000000" x1="104.649" y1="120.506" x2="104.649" y2="133.168"/>
<line fill="none" stroke="#000000" x1="104.649" y1="87.059" x2="138.508" y2="87.059"/>
<line fill="none" stroke="#000000" x1="103.982" y1="94.008" x2="133.05" y2="94.008"/>
<line fill="none" stroke="#000000" x1="104.649" y1="110.668" x2="93.636" y2="120.506"/>
<line fill="none" stroke="#000000" x1="93.342" y1="109.834" x2="104.341" y2="120.668"/>
<g>
	<g>
		<line fill="#DDC156" stroke="#DDC156" x1="122.734" y1="122.701" x2="132.83" y2="122.701"/>
		<line fill="#DDC156" stroke="#DDC156" x1="122.734" y1="128.748" x2="132.83" y2="128.748"/>
		<line fill="#DDC156" stroke="#DDC156" x1="122.734" y1="135.66" x2="132.83" y2="135.66"/>
	</g>
</g>
<line fill="none" stroke="#000000" x1="122.303" y1="115.502" x2="122.303" y2="140.668"/>
<line fill="none" stroke="#000000" x1="133.316" y1="114.84" x2="133.316" y2="140.668"/>
<line fill="#E60012" stroke="#E60012" x1="122.4" y1="105.365" x2="133.175" y2="105.365"/>
<line fill="none" stroke="#000000" x1="122.303" y1="102.506" x2="122.303" y2="108.834"/>
<line fill="none" stroke="#000000" x1="133.247" y1="94.008" x2="133.247" y2="108.762"/>
<line fill="none" stroke="#000000" x1="122.303" y1="115.502" x2="133.342" y2="108.334"/>
<line fill="none" stroke="#000000" x1="104.508" y1="133.168" x2="109.342" y2="133.168"/>
<line fill="none" stroke="#000000" stroke-width="0.75" x1="118.675" y1="102.834" x2="122.136" y2="102.834"/>
<line fill="none" stroke="#000000" x1="109.342" y1="133.334" x2="118.675" y2="102.834"/>
<line fill="none" stroke="#000000" x1="104.508" y1="138.168" x2="112.174" y2="138.168"/>
<line fill="none" stroke="#000000" x1="112.174" y1="138.668" x2="122.303" y2="108.834"/>
<path fill="none" stroke="#000000" d="M133.237,140.123c1.597,1.42,2.604,3.49,2.604,5.795v5.332c0,4.281-3.471,7.75-7.75,7.75l0,0
	c-4.281,0-7.75-3.469-7.75-7.75v-5.332c0-2.004,0.761-3.83,2.01-5.207"/>
<g>
	<g>
		<line fill="#EAACCC" stroke="#EAACCC" x1="123.067" y1="163.533" x2="133.164" y2="163.533"/>
		<line fill="#EAACCC" stroke="#EAACCC" x1="123.067" y1="169.58" x2="133.164" y2="169.58"/>
		<line fill="#EAACCC" stroke="#EAACCC" x1="123.067" y1="176.494" x2="133.164" y2="176.494"/>
	</g>
</g>
<line fill="none" stroke="#000000" x1="122.636" y1="157" x2="122.636" y2="181.5"/>
<line fill="none" stroke="#000000" x1="122.636" y1="156.334" x2="122.636" y2="157"/>
<line fill="none" stroke="#000000" x1="133.649" y1="156.666" x2="133.649" y2="181.5"/>
<line fill="none" stroke="#000000" x1="133.649" y1="155.674" x2="133.649" y2="156.666"/>
<rect x="123.674" y="151.502" fill="#FFFFFF" stroke="#FFFFFF" width="9" height="8.332"/>
<path fill="none" stroke="#000000" d="M105.387,145.787c0.939,1.049,1.496,2.35,1.496,3.758v4.33c0,3.475-3.386,6.293-7.563,6.293
	l0,0c-4.177,0-7.563-2.818-7.563-6.293v-4.33c0-1.678,0.789-3.203,2.076-4.332"/>
<line fill="none" stroke="#000000" x1="133.316" y1="114.84" x2="138.415" y2="109.742"/>
<line fill="none" stroke="#000000" x1="138.415" y1="109.742" x2="138.415" y2="86.834"/>
<line fill="#6BB82D" stroke="#6BB82D" x1="94.08" y1="141.246" x2="104.539" y2="141.246"/>
<line fill="none" stroke="#000000" x1="104.982" y1="137.674" x2="104.982" y2="145.834"/>
<circle fill="#00A1E9" stroke="#00A0E9" cx="136.007" cy="148.667" r="3.281"/>
<g>
	<line fill="#00A1E9" stroke="#00A0E9" x1="169.123" y1="149.334" x2="151.412" y2="149.334"/>
	<path fill="#00A1E9" stroke="#00A0E9" d="M148.35,148.005c2.145-0.646,3.537-1.242,5.256-1.933v6.537
		c-0.615-0.291-3.111-1.286-5.256-1.934c-2.293-0.691-4.371-1.166-5.719-1.335C143.979,149.171,146.057,148.698,148.35,148.005z"/>
</g>
<g>
	<circle fill="#FFFFFF" stroke="#E83C37" cx="121.341" cy="154.667" r="5.667"/>
	<text transform="matrix(1 0 0 1 118.5859 157.7617)" fill="#E60A11" font-family="'HelveticaNeue-Light'" font-size="8">C</text>
</g>
<g>
	<text transform="matrix(1 0 0 1 74.5869 134.7617)" fill="#68B82E" font-family="'HelveticaNeue-Light'" font-size="10">P4</text>
</g>
<g>
	<text transform="matrix(1 0 0 1 75.9209 78.7617)" fill="#6AC5D0" font-family="'HelveticaNeue-Light'" font-size="10">P5</text>
</g>
<g>
	<text transform="matrix(1 0 0 1 140.2549 174.7617)" fill="#EAACCC" font-family="'HelveticaNeue-Light'" font-size="10">P1</text>
</g>
<g>
	<text transform="matrix(1 0 0 1 139.5869 132.0957)" fill="#DDC156" font-family="'HelveticaNeue-Light'" font-size="10">P2</text>
</g>
<text transform="matrix(1 0 0 1 122.7959 102.5117)" fill="#E60012" font-family="'HelveticaNeue-Light'" font-size="8">T2</text>
<text transform="matrix(1 0 0 1 102.1123 58.4785)" font-family="'HelveticaNeue-Light'" font-size="10.368">5’</text>
<text transform="matrix(1 0 0 1 87.6934 58.48)" font-family="'HelveticaNeue-Light'" font-size="10.368">3’</text>
<text transform="matrix(1 0 0 1 117.083 191.8281)" font-family="'HelveticaNeue-Light'" font-size="10.368">5’</text>
<text transform="matrix(1 0 0 1 132.5303 191.8281)" font-family="'HelveticaNeue-Light'" font-size="10.368">3’</text>
<line fill="none" stroke="#000000" x1="133.247" y1="102.038" x2="133.247" y2="108.365"/>
<g>
	<defs>
		<rect id="SVGID_5_" x="161.06" y="109.934" width="27.566" height="25.5"/>
	</defs>
	<clipPath id="SVGID_2_">
		<use xlink:href="#SVGID_5_"  overflow="visible"/>
	</clipPath>
	<g clip-path="url(#SVGID_2_)">
		<defs>
			<rect id="SVGID_7_" x="161.06" y="109.934" width="27.566" height="25.5"/>
		</defs>
		<clipPath id="SVGID_4_">
			<use xlink:href="#SVGID_7_"  overflow="visible"/>
		</clipPath>
		<polygon clip-path="url(#SVGID_4_)" fill="#050000" points="163.644,129.403 162.506,126.957 174.671,122.58 174.946,122.752 
			174.671,123.201 		"/>
		<polygon clip-path="url(#SVGID_4_)" fill="#050000" points="163.575,119.582 164.575,117.102 165.056,117.342 164.091,119.754 		
			"/>
		<polygon clip-path="url(#SVGID_4_)" fill="#050000" points="165.401,120.1 166.263,117.997 166.71,118.238 165.884,120.237 		"/>
		<polygon clip-path="url(#SVGID_4_)" fill="#050000" points="167.227,120.616 167.917,118.893 168.364,119.134 167.71,120.754 		
			"/>
		<polygon clip-path="url(#SVGID_4_)" fill="#050000" points="169.053,121.133 169.571,119.789 170.053,120.03 169.535,121.271 		
			"/>
		<polygon clip-path="url(#SVGID_4_)" fill="#050000" points="170.847,121.65 171.259,120.685 171.708,120.926 171.363,121.787 		
			"/>
		<polygon clip-path="url(#SVGID_4_)" fill="#050000" points="172.673,122.166 172.913,121.581 173.362,121.822 173.188,122.305 		
			"/>
		<polygon clip-path="url(#SVGID_4_)" fill="#050000" points="185.284,117.102 186.317,119.582 185.802,119.754 184.836,117.342 		
			"/>
		<polygon clip-path="url(#SVGID_4_)" fill="#050000" points="183.63,117.997 184.491,120.1 183.976,120.237 183.182,118.238 		"/>
		<polygon clip-path="url(#SVGID_4_)" fill="#050000" points="181.976,118.893 182.664,120.616 182.148,120.754 181.493,119.134 		
			"/>
		<polygon clip-path="url(#SVGID_4_)" fill="#050000" points="180.288,119.789 180.839,121.133 180.355,121.271 179.839,120.03 		
			"/>
		<polygon clip-path="url(#SVGID_4_)" fill="#050000" points="178.634,120.685 179.013,121.65 178.53,121.787 178.186,120.926 		"/>
		<polygon clip-path="url(#SVGID_4_)" fill="#050000" points="176.979,121.581 177.222,122.166 176.704,122.305 176.497,121.822 		
			"/>
		<polygon clip-path="url(#SVGID_4_)" fill="#050000" points="186.903,126.991 185.731,129.403 175.188,123.201 174.946,122.752 
			175.188,122.58 		"/>
		<polygon clip-path="url(#SVGID_4_)" fill="#050000" points="174.671,111.519 175.188,111.519 175.188,122.58 174.946,122.752 
			174.671,122.58 		"/>
		<polygon clip-path="url(#SVGID_4_)" fill="#050000" points="175.188,133.986 174.671,133.986 174.671,123.201 174.946,122.752 
			175.188,123.201 		"/>
	</g>
</g>
<circle fill="#2AB06E" cx="174.671" cy="123.201" r="4"/>
<circle fill="#E7271C" cx="162.171" cy="128.701" r="1.5"/>
<circle fill="#E7271C" cx="162.671" cy="116.701" r="1.5"/>
<circle fill="#E7271C" cx="187.671" cy="116.701" r="1.5"/>
<circle fill="#E7271C" cx="175.171" cy="109.701" r="1.5"/>
<circle fill="#E7271C" cx="175.171" cy="135.701" r="1.5"/>
<circle fill="#E7271C" cx="187.671" cy="128.201" r="1.5"/>
<text transform="matrix(1 0 0 1 178.3799 114.4453)" font-family="'HelveticaNeue-Light'" font-size="6">2+</text>
<line fill="#E60012" stroke="#E60012" x1="107.009" y1="147.698" x2="120.009" y2="147.698"/>
<text transform="matrix(1 0 0 1 109.4619 145.8447)" fill="#E60012" font-family="'HelveticaNeue-Light'" font-size="8">T1</text>
</svg>
