<svg id="图层_1" data-name="图层 1" xmlns="http://www.w3.org/2000/svg" xmlns:xlink="http://www.w3.org/1999/xlink" viewBox="0 0 114.6 144.6"><defs><style>.cls-1,.cls-10,.cls-11,.cls-3,.cls-7{fill:none;}.cls-2{fill:#73c8d5;stroke:#73c8d5;}.cls-3,.cls-7{stroke:#231815;}.cls-4{fill:#6bb82d;stroke:#6bb82d;}.cls-18,.cls-5{fill:#ddc156;}.cls-5{stroke:#ddc156;}.cls-19,.cls-6{fill:#e60012;}.cls-6{stroke:#e60012;}.cls-7{stroke-width:0.75px;}.cls-17,.cls-8{fill:#eaaccc;}.cls-8{stroke:#eaaccc;}.cls-13,.cls-9{fill:#fff;}.cls-9{stroke:#fff;}.cls-10,.cls-11{stroke:#8fc31f;}.cls-11{stroke-dasharray:3 3;}.cls-12{fill:#00a1e9;stroke:#00a0e9;}.cls-13{stroke:#e83c37;}.cls-14{font-size:8px;fill:#e60a11;}.cls-14,.cls-15,.cls-16,.cls-17,.cls-18,.cls-19,.cls-20,.cls-27{font-family:HelveticaNeue-Light, HelveticaNeue Light;font-weight:300;}.cls-15,.cls-16,.cls-17,.cls-18,.cls-19{font-size:10px;}.cls-15{fill:#68b82e;}.cls-16{fill:#6ac5d0;}.cls-20{font-size:10.37px;}.cls-20,.cls-27{fill:#231815;}.cls-21{letter-spacing:-0.09em;}.cls-22{letter-spacing:-0.09em;}.cls-23{clip-path:url(#clip-path);}.cls-24{fill:#050000;}.cls-25{fill:#2ab06e;}.cls-26{fill:#e7271c;}.cls-27{font-size:6px;}</style><clipPath id="clip-path" transform="translate(-240.7 -348.7)"><rect class="cls-1" x="327.2" y="408.8" width="27.6" height="25.5"/></clipPath></defs><line class="cls-2" x1="19.5" y1="19.6" x2="29.6" y2="19.6"/><line class="cls-2" x1="19.5" y1="25.6" x2="29.6" y2="25.6"/><line class="cls-2" x1="19.5" y1="32.5" x2="29.6" y2="32.5"/><line class="cls-3" x1="19" y1="12.5" x2="19" y2="60.9"/><line class="cls-3" x1="30.1" y1="12.4" x2="30.1" y2="37.7"/><line class="cls-4" x1="19.3" y1="49.6" x2="30.2" y2="49.6"/><line class="cls-4" x1="19.3" y1="55.6" x2="30.2" y2="55.6"/><line class="cls-3" x1="30.1" y1="44" x2="30.1" y2="60.9"/><line class="cls-4" x1="19.1" y1="74.1" x2="29.6" y2="74.1"/><line class="cls-4" x1="19.3" y1="80.1" x2="29.8" y2="80.1"/><line class="cls-3" x1="19" y1="70.7" x2="19" y2="95.9"/><line class="cls-3" x1="30.1" y1="70.7" x2="30.1" y2="83.4"/><line class="cls-3" x1="30.1" y1="37.3" x2="63.9" y2="37.3"/><line class="cls-3" x1="29.4" y1="44.2" x2="58.5" y2="44.2"/><line class="cls-3" x1="30.1" y1="60.9" x2="19" y2="70.7"/><line class="cls-3" x1="18.8" y1="60" x2="29.8" y2="70.9"/><line class="cls-5" x1="48.1" y1="72.9" x2="58.2" y2="72.9"/><line class="cls-5" x1="48.1" y1="78.9" x2="58.2" y2="78.9"/><line class="cls-5" x1="48.1" y1="85.9" x2="58.2" y2="85.9"/><line class="cls-3" x1="47.7" y1="65.7" x2="47.7" y2="90.9"/><line class="cls-3" x1="58.7" y1="65" x2="58.7" y2="90.9"/><line class="cls-6" x1="47.8" y1="55.6" x2="58.6" y2="55.6"/><line class="cls-3" x1="47.7" y1="52.7" x2="47.7" y2="59"/><line class="cls-3" x1="58.7" y1="44.2" x2="58.7" y2="59"/><line class="cls-3" x1="47.7" y1="65.7" x2="58.8" y2="58.5"/><line class="cls-3" x1="29.9" y1="83.4" x2="34.8" y2="83.4"/><line class="cls-7" x1="44.1" y1="53" x2="47.5" y2="53"/><line class="cls-3" x1="34.8" y1="83.5" x2="44.1" y2="53"/><line class="cls-3" x1="29.9" y1="88.4" x2="37.6" y2="88.4"/><line class="cls-3" x1="37.6" y1="88.9" x2="47.7" y2="59"/><path class="cls-3" d="M299.4,439a7.7,7.7,0,0,1,2.6,5.8v5.3a7.8,7.8,0,0,1-7.8,7.8h0a7.7,7.7,0,0,1-7.7-7.8v-5.3a7.5,7.5,0,0,1,2-5.2" transform="translate(-240.7 -348.7)"/><line class="cls-8" x1="48.5" y1="113.7" x2="58.6" y2="113.7"/><line class="cls-8" x1="48.5" y1="119.8" x2="58.6" y2="119.8"/><line class="cls-8" x1="48.5" y1="126.7" x2="58.6" y2="126.7"/><line class="cls-3" x1="48" y1="107.2" x2="48" y2="131.7"/><line class="cls-3" x1="48" y1="106.5" x2="48" y2="107.2"/><line class="cls-3" x1="59.1" y1="106.9" x2="59.1" y2="131.7"/><line class="cls-3" x1="59.1" y1="105.9" x2="59.1" y2="106.9"/><rect class="cls-9" x="49.1" y="101.7" width="9" height="8.33"/><path class="cls-3" d="M271.5,444.7a5.6,5.6,0,0,1,1.5,3.7v4.4c0,3.4-3.4,6.3-7.6,6.3h0c-4.1,0-7.5-2.9-7.5-6.3v-4.4a5.8,5.8,0,0,1,2.1-4.3" transform="translate(-240.7 -348.7)"/><line class="cls-10" x1="32.4" y1="97.7" x2="34.4" y2="97.7"/><line class="cls-11" x1="37.4" y1="97.7" x2="41.9" y2="97.7"/><line class="cls-10" x1="43.4" y1="97.7" x2="45.4" y2="97.7"/><line class="cls-3" x1="58.7" y1="65" x2="63.8" y2="59.9"/><line class="cls-3" x1="63.8" y1="59.9" x2="63.8" y2="37"/><line class="cls-4" x1="19.5" y1="91.4" x2="30" y2="91.4"/><line class="cls-3" x1="30.4" y1="87.9" x2="30.4" y2="96"/><path class="cls-12" d="M305.4,447.6a3.3,3.3,0,1,1-3.3-3.3A3.2,3.2,0,0,1,305.4,447.6Z" transform="translate(-240.7 -348.7)"/><line class="cls-12" x1="94.5" y1="99.5" x2="76.8" y2="99.5"/><path class="cls-12" d="M314.5,446.9l5.2-1.9v6.5a42.1,42.1,0,0,0-5.2-1.9,45.6,45.6,0,0,0-5.7-1.4A30.9,30.9,0,0,0,314.5,446.9Z" transform="translate(-240.7 -348.7)"/><path class="cls-13" d="M293.1,453.9a5.6,5.6,0,0,1-6,5.3,5.7,5.7,0,0,1,.7-11.3A5.6,5.6,0,0,1,293.1,453.9Z" transform="translate(-240.7 -348.7)"/><text class="cls-14" transform="translate(44 108)">C</text><text class="cls-15" transform="translate(0 85)">P4</text><text class="cls-16" transform="translate(1.3 29)">P5</text><text class="cls-17" transform="translate(65.7 125)">P1</text><text class="cls-18" transform="translate(65 82.3)">P2</text><text class="cls-19" transform="translate(46.2 52.7)">T2</text><text class="cls-20" transform="translate(27.5 8.7)">5<tspan class="cls-21" x="5.3" y="0">’</tspan></text><text class="cls-20" transform="translate(13.1 8.7)">3<tspan class="cls-22" x="5.3" y="0">’</tspan></text><text class="cls-20" transform="translate(42.5 142)">5<tspan class="cls-21" x="5.3" y="0">’</tspan></text><text class="cls-20" transform="translate(57.9 142)">3<tspan class="cls-21" x="5.3" y="0">’</tspan></text><line class="cls-3" x1="58.7" y1="52.2" x2="58.7" y2="58.6"/><g class="cls-23"><g class="cls-23"><polygon class="cls-24" points="89.1 79.6 87.9 77.2 100.1 72.8 100.4 73 100.1 73.4 89.1 79.6"/><polygon class="cls-24" points="89 69.8 90 67.3 90.5 67.5 89.5 70 89 69.8"/><polygon class="cls-24" points="90.8 70.3 91.7 68.2 92.1 68.4 91.3 70.4 90.8 70.3"/><polygon class="cls-24" points="92.6 70.8 93.3 69.1 93.8 69.3 93.1 71 92.6 70.8"/><polygon class="cls-24" points="94.5 71.3 95 70 95.5 70.2 94.9 71.5 94.5 71.3"/><polygon class="cls-24" points="96.3 71.8 96.7 70.9 97.1 71.1 96.8 72 96.3 71.8"/><polygon class="cls-24" points="98.1 72.4 98.3 71.8 98.8 72 98.6 72.5 98.1 72.4"/><polygon class="cls-24" points="110.7 67.3 111.7 69.8 111.2 70 110.2 67.5 110.7 67.3"/><polygon class="cls-24" points="109 68.2 109.9 70.3 109.4 70.4 108.6 68.4 109 68.2"/><polygon class="cls-24" points="107.4 69.1 108.1 70.8 107.6 71 106.9 69.3 107.4 69.1"/><polygon class="cls-24" points="105.7 70 106.3 71.3 105.8 71.5 105.3 70.2 105.7 70"/><polygon class="cls-24" points="104 70.9 104.4 71.8 103.9 72 103.6 71.1 104 70.9"/><polygon class="cls-24" points="102.4 71.8 102.6 72.4 102.1 72.5 101.9 72 102.4 71.8"/><polygon class="cls-24" points="112.3 77.2 111.1 79.6 100.6 73.4 100.4 73 100.6 72.8 112.3 77.2"/><polygon class="cls-24" points="100.1 61.7 100.6 61.7 100.6 72.8 100.4 73 100.1 72.8 100.1 61.7"/><polygon class="cls-24" points="100.6 84.2 100.1 84.2 100.1 73.4 100.4 73 100.6 73.4 100.6 84.2"/></g></g><circle class="cls-25" cx="100.1" cy="73.4" r="4"/><circle class="cls-26" cx="87.6" cy="78.9" r="1.5"/><circle class="cls-26" cx="88.1" cy="66.9" r="1.5"/><circle class="cls-26" cx="113.1" cy="66.9" r="1.5"/><circle class="cls-26" cx="100.6" cy="59.9" r="1.5"/><path class="cls-26" d="M342.8,434.6a1.5,1.5,0,1,1-1.5-1.5A1.5,1.5,0,0,1,342.8,434.6Z" transform="translate(-240.7 -348.7)"/><circle class="cls-26" cx="113.1" cy="78.4" r="1.5"/><text class="cls-27" transform="translate(103.8 64.6)">2+</text></svg>