<svg id="图层_1" data-name="图层 1" xmlns="http://www.w3.org/2000/svg" viewBox="0 0 287.15 340.16"><defs><style>.cls-1,.cls-3{fill:none;}.cls-1,.cls-6{stroke:#231815;}.cls-2,.cls-6{fill:#fff;}.cls-2,.cls-5{stroke:#fff;}.cls-3{stroke:#e60012;}.cls-4{font-size:10px;fill:#e60012;font-family:AdobeFangsongStd-Regular, AdobeFangsongStd Regular-GBpc-EUC-H;}.cls-5{fill:#231815;}</style></defs><path class="cls-1" d="M332,227.67c0,21-18.94,38.09-42.31,38.09s-42.3-17.06-42.3-38.09,18.94-38.1,42.3-38.1S332,206.63,332,227.67Z" transform="translate(-109.52 -71.32)"/><line class="cls-1" x1="185.84" y1="90.6" x2="185.84" y2="118.73"/><rect class="cls-2" x="175.53" y="112.02" width="9.19" height="14.26"/><line class="cls-1" x1="174.4" y1="90.6" x2="174.4" y2="118.73"/><line class="cls-1" x1="185.84" y1="90.6" x2="185.84" y2="102.49"/><line class="cls-1" x1="221.53" y1="162.07" x2="281.3" y2="162.07"/><line class="cls-1" x1="222.3" y1="150.63" x2="281.3" y2="150.63"/><rect class="cls-2" x="208.17" y="151.76" width="14.26" height="9.19"/><path class="cls-1" d="M363.51,233.39a5.84,5.84,0,0,1-11.67,0" transform="translate(-109.52 -71.32)"/><rect class="cls-2" x="243.49" y="153.5" width="9.32" height="9.34"/><path class="cls-1" d="M342.39,221.94a4,4,0,0,1,7.95,0" transform="translate(-109.52 -71.32)"/><rect class="cls-2" x="234.06" y="150.46" width="5.57" height="4.14"/><rect class="cls-2" x="272.4" y="151.67" width="14.26" height="9.36"/><line class="cls-1" x1="174.4" y1="193.34" x2="174.4" y2="313.83"/><path class="cls-1" d="M295.37,266.2v119" transform="translate(-109.52 -71.32)"/><path class="cls-1" d="M283.41,274.15a4,4,0,0,1,0-7.95" transform="translate(-109.52 -71.32)"/><rect class="cls-2" x="173.89" y="196.07" width="5.12" height="5.58"/><rect class="cls-2" x="173.89" y="218.56" width="5.12" height="5.77"/><rect class="cls-2" x="174.25" y="226.87" width="5.12" height="5.77"/><path class="cls-1" d="M241.19,275.49a9.29,9.29,0,1,1-9.29-9.29A9.29,9.29,0,0,1,241.19,275.49Z" transform="translate(-109.52 -71.32)"/><path class="cls-1" d="M293.3,345.83a9.29,9.29,0,1,1-9.29-9.29A9.29,9.29,0,0,1,293.3,345.83Z" transform="translate(-109.52 -71.32)"/><path class="cls-1" d="M298.93,392.71a9.29,9.29,0,1,1-9.29-9.28A9.29,9.29,0,0,1,298.93,392.71Z" transform="translate(-109.52 -71.32)"/><rect class="cls-2" x="175.53" y="261.79" width="3.85" height="4.12"/><rect class="cls-2" x="210.54" y="249.07" width="9.19" height="16.34"/><rect class="cls-2" x="175.53" y="280.23" width="9.19" height="7.24"/><rect class="cls-2" x="172.35" y="223.98" width="5.12" height="5.77"/><line class="cls-1" x1="131.56" y1="202.72" x2="151.05" y2="183.97"/><line class="cls-1" x1="123.19" y1="194.88" x2="143.41" y2="175.44"/><rect class="cls-2" x="228.81" y="265.58" width="16.34" height="9.19" transform="translate(-230.7 169.15) rotate(-44)"/><line class="cls-1" x1="86.33" y1="162.07" x2="138.34" y2="162.07"/><line class="cls-1" x1="86.33" y1="150.63" x2="137.82" y2="150.63"/><path class="cls-1" d="M233,221.61a4,4,0,0,1,7.94,0" transform="translate(-109.52 -71.32)"/><rect class="cls-2" x="124.63" y="150.29" width="5.66" height="5.91"/><path class="cls-1" d="M242.81,233.68a5.83,5.83,0,0,1-11.66,0" transform="translate(-109.52 -71.32)"/><rect class="cls-2" x="122.67" y="155.13" width="9.56" height="7.23"/><path class="cls-1" d="M209.13,221.61a4,4,0,0,1,8,0" transform="translate(-109.52 -71.32)"/><rect class="cls-2" x="100.75" y="150.29" width="5.66" height="5.91"/><path class="cls-1" d="M283.68,175.3a4,4,0,0,1,0-8" transform="translate(-109.52 -71.32)"/><rect class="cls-2" x="174.15" y="97.12" width="6.17" height="5.78"/><rect class="cls-2" x="174.33" y="266.34" width="10.39" height="16.34"/><rect class="cls-2" x="205.75" y="253.44" width="9.38" height="10.68"/><path class="cls-1" d="M240.78,258.74a4,4,0,0,1,5.26-6" transform="translate(-109.52 -71.32)"/><rect class="cls-2" x="242.32" y="254.85" width="5.74" height="5.58" transform="translate(-219.74 172.67) rotate(-44.22)"/><path class="cls-2" d="M154.15,87.19s22.47-23.61,27.57-12.31" transform="translate(-109.52 -71.32)"/><line class="cls-3" x1="222.3" y1="161.59" x2="222.3" y2="151.1"/><line class="cls-3" x1="230.64" y1="161.59" x2="230.64" y2="151.1"/><line class="cls-3" x1="256.94" y1="161.79" x2="256.94" y2="151.3"/><line class="cls-3" x1="263.42" y1="161.79" x2="263.42" y2="151.3"/><line class="cls-3" x1="269.9" y1="161.79" x2="269.9" y2="151.3"/><line class="cls-3" x1="276.35" y1="161.79" x2="276.35" y2="151.3"/><line class="cls-3" x1="241.79" y1="161.59" x2="241.79" y2="151.1"/><rect class="cls-2" x="136.28" y="151.76" width="14.26" height="9.19"/><rect class="cls-2" x="252.93" y="243.2" width="14.26" height="9.19" transform="translate(-208.61 183.23) rotate(-44.69)"/><rect class="cls-2" x="174.91" y="186.84" width="9.63" height="14.26"/><line class="cls-3" x1="174.49" y1="194.44" x2="184.98" y2="194.44"/><line class="cls-3" x1="174.87" y1="205.19" x2="185.36" y2="205.19"/><line class="cls-3" x1="174.87" y1="211.67" x2="185.36" y2="211.67"/><line class="cls-3" x1="174.87" y1="218.15" x2="185.36" y2="218.15"/><line class="cls-3" x1="174.89" y1="241.42" x2="185.38" y2="241.42"/><line class="cls-3" x1="174.89" y1="247.9" x2="185.38" y2="247.9"/><line class="cls-3" x1="174.89" y1="254.38" x2="185.38" y2="254.38"/><line class="cls-3" x1="174.89" y1="260.84" x2="185.38" y2="260.84"/><rect class="cls-2" x="312.08" y="115.13" width="9.31" height="14.26" transform="translate(-124.63 -20.82) rotate(-8.9)"/><line class="cls-3" x1="93.87" y1="161.59" x2="93.87" y2="151.1"/><line class="cls-3" x1="100.35" y1="161.59" x2="100.35" y2="151.1"/><line class="cls-3" x1="106.83" y1="161.59" x2="106.83" y2="151.1"/><line class="cls-3" x1="113.29" y1="161.59" x2="113.29" y2="151.1"/><line class="cls-3" x1="119.69" y1="161.59" x2="119.69" y2="151.1"/><line class="cls-3" x1="133.24" y1="161.59" x2="133.24" y2="151.1"/><line class="cls-3" x1="141.15" y1="178.17" x2="148.44" y2="185.71"/><line class="cls-3" x1="136.49" y1="182.67" x2="143.78" y2="190.21"/><line class="cls-3" x1="131.83" y1="187.18" x2="139.12" y2="194.72"/><line class="cls-3" x1="127.19" y1="191.66" x2="134.48" y2="199.21"/><text class="cls-4" transform="translate(217.09 34.4)">P-loop</text><text class="cls-4" transform="translate(195.97 336.72)">A-loop</text><path class="cls-1" d="M284.38,289.47a5.83,5.83,0,0,0,0,11.66" transform="translate(-109.52 -71.32)"/><path class="cls-1" d="M284,301.13a5.84,5.84,0,0,0,0,11.67" transform="translate(-109.52 -71.32)"/><rect class="cls-2" x="281.96" y="305.34" width="7.64" height="5.12" transform="translate(-145.56 506.6) rotate(-87.13)"/><line class="cls-3" x1="174.87" y1="93.36" x2="185.36" y2="93.36"/><line class="cls-3" x1="174.87" y1="104.47" x2="185.36" y2="104.47"/><line class="cls-3" x1="174.87" y1="110.95" x2="185.36" y2="110.95"/><line class="cls-3" x1="174.87" y1="117.41" x2="185.36" y2="117.41"/><rect class="cls-2" x="175.53" y="300.94" width="9.23" height="16.34"/><rect class="cls-2" x="180.65" y="266.34" width="10.39" height="15.83"/><path class="cls-2" d="M295.37,332.68" transform="translate(-109.52 -71.32)"/><line class="cls-1" x1="189.82" y1="280.23" x2="201.4" y2="280.23"/><line class="cls-1" x1="189.82" y1="268.79" x2="201.4" y2="268.79"/><path class="cls-1" d="M295.65,335.17a3.59,3.59,0,0,0,0,2.76,4.65,4.65,0,0,0,4.93,2.16" transform="translate(-109.52 -71.32)"/><path class="cls-1" d="M295.46,356.53a3.52,3.52,0,0,1,0-2.77,4.63,4.63,0,0,1,4.92-2.15" transform="translate(-109.52 -71.32)"/><rect class="cls-2" x="186.86" y="261.15" width="2.93" height="3.57"/><rect class="cls-2" x="292.29" y="336.38" width="2.11" height="1.91" transform="translate(-150.38 -30.89) rotate(-7.37)"/><rect class="cls-2" x="180.65" y="283.52" width="4.1" height="1.7"/><rect class="cls-2" x="186.85" y="284.01" width="0.93" height="1.7"/><rect class="cls-2" x="187.42" y="283.72" width="0.93" height="1.7"/><rect class="cls-2" x="190.57" y="281.24" width="0.93" height="1.7"/><path class="cls-2" d="M189.89,127l12.26-6.13" transform="translate(-109.52 -71.32)"/><path class="cls-5" d="M109.72,126.51l18.9-8.17" transform="translate(-109.52 -71.32)"/><line class="cls-1" x1="197.7" y1="48.55" x2="201.11" y2="75.29"/><line class="cls-1" x1="209.1" y1="47.46" x2="212.27" y2="72.3"/><path class="cls-1" d="M321.2,112.33a9.29,9.29,0,1,1-9.29-9.29A9.29,9.29,0,0,1,321.2,112.33Z" transform="translate(-109.52 -71.32)"/><rect class="cls-2" x="308.09" y="111.19" width="9.36" height="14.26" transform="translate(-121.91 -31.08) rotate(-7.22)"/><line class="cls-3" x1="198.55" y1="53.3" x2="208.92" y2="51.78"/><line class="cls-3" x1="199.49" y1="59.71" x2="209.87" y2="58.19"/><line class="cls-3" x1="200.43" y1="66.12" x2="210.81" y2="64.6"/><line class="cls-3" x1="201.37" y1="72.51" x2="211.75" y2="70.99"/><path class="cls-6" d="M298.8,148.63c2-.48,4.11-.94,6.29-1.36s4-.74,6-1" transform="translate(-109.52 -71.32)"/><line class="cls-3" x1="174.89" y1="229.75" x2="185.38" y2="229.75"/><line class="cls-3" x1="174.87" y1="289.69" x2="185.36" y2="289.69"/><line class="cls-3" x1="174.87" y1="296.17" x2="185.36" y2="296.17"/><line class="cls-3" x1="174.87" y1="302.65" x2="185.36" y2="302.65"/><line class="cls-3" x1="174.87" y1="309.11" x2="185.36" y2="309.11"/><line class="cls-3" x1="197.48" y1="279.76" x2="197.48" y2="269.27"/><line class="cls-3" x1="174.4" y1="283.23" x2="174.4" y2="265.7"/></svg>