<svg id="图层_1" data-name="图层 1" xmlns="http://www.w3.org/2000/svg" viewBox="0 0 349.28 346.28"><defs><style>.cls-1,.cls-11,.cls-12,.cls-13,.cls-14,.cls-15,.cls-16,.cls-17,.cls-18,.cls-19,.cls-2,.cls-20,.cls-21,.cls-22,.cls-23,.cls-24,.cls-25,.cls-4,.cls-5,.cls-6,.cls-8,.cls-9{fill:none;}.cls-2,.cls-6,.cls-8{stroke:#231815;}.cls-3,.cls-44,.cls-7{fill:#fff;}.cls-3,.cls-5{stroke:#fff;}.cls-4{stroke:#2bac38;}.cls-11,.cls-12,.cls-13,.cls-14,.cls-15,.cls-16,.cls-17,.cls-18,.cls-19,.cls-20,.cls-21,.cls-22,.cls-23,.cls-24,.cls-25,.cls-4,.cls-6,.cls-7,.cls-8,.cls-9{stroke-miterlimit:10;}.cls-7{stroke:#d09f9f;}.cls-7,.cls-8{stroke-dasharray:11 4;}.cls-9{stroke:#73c8d5;}.cls-10,.cls-27{fill:#231815;}.cls-10{stroke:#2066b1;}.cls-11{stroke:#1a62af;}.cls-12{stroke:#83556e;}.cls-13{stroke:#86b133;}.cls-14{stroke:#e6ca5a;}.cls-15{stroke:#543c94;}.cls-16{stroke:#74c8d5;}.cls-17{stroke:#e7312b;}.cls-18{stroke:#e27e28;}.cls-19{stroke:#78789f;}.cls-20{stroke:#6b216e;}.cls-21{stroke:#e62380;}.cls-22{stroke:#e6237f;}.cls-23{stroke:#c17575;}.cls-24{stroke:#003692;}.cls-25{stroke:#cfac89;}.cls-26,.cls-28,.cls-29,.cls-30,.cls-31,.cls-32,.cls-33,.cls-34,.cls-35,.cls-36,.cls-37,.cls-38,.cls-39,.cls-40,.cls-41,.cls-42,.cls-43{font-size:10px;font-family:AdobeFangsongStd-Regular, AdobeFangsongStd Regular-GBpc-EUC-H;}.cls-26{fill:#1a62af;}.cls-27{font-size:12px;font-family:AdobeSongStd-Light-GBpc-EUC-H, Adobe Song Std;}.cls-28{fill:#7e536c;}.cls-29{fill:#e6ca5a;}.cls-30{fill:#543c94;}.cls-31{fill:#c17575;}.cls-32{fill:#e7322d;}.cls-33{fill:#e27e28;}.cls-34{fill:#74c8d5;}.cls-35{fill:#7878a0;}.cls-36{fill:#2bac38;}.cls-37{fill:#b5d34c;}.cls-38{fill:#6d216f;}.cls-39{fill:#003692;}.cls-40{fill:#e62381;}.cls-41{fill:#d2ae8a;}.cls-42{fill:#c8a684;}.cls-43{fill:#d09f9f;}</style></defs><polyline class="cls-1" points="-95.43 -151.97 -95.43 -151.97 -95.43 -151.97"/><path class="cls-2" d="M161.7,346c.3,17,.3,34,0,50.64" transform="translate(-95.43 -151.97)"/><path class="cls-2" d="M173.08,355.59q-.11,20.54.07,41.07" transform="translate(-95.43 -151.97)"/><line class="cls-2" x1="102.61" y1="274.88" x2="179.03" y2="319"/><path class="cls-2" d="M204.74,417.5c20.91,13,42.87,24.28,64.07,36.84" transform="translate(-95.43 -151.97)"/><path class="cls-2" d="M204.38,417.59a9.29,9.29,0,1,1-9.28-9.29A9.27,9.27,0,0,1,204.38,417.59Z" transform="translate(-95.43 -151.97)"/><rect class="cls-3" x="195.04" y="414.17" width="9.35" height="14.26" transform="translate(-360.42 231.65) rotate(-60)"/><path class="cls-2" d="M176.71,403.88a9.29,9.29,0,1,1-9.29-9.28A9.29,9.29,0,0,1,176.71,403.88Z" transform="translate(-95.43 -151.97)"/><rect class="cls-3" x="67.46" y="235.5" width="9.07" height="14.26"/><line class="cls-4" x1="81.29" y1="251.92" x2="93.59" y2="258.61"/><line class="cls-4" x1="81.29" y1="256.33" x2="91.09" y2="261.2"/><line class="cls-4" x1="77.72" y1="259.22" x2="90.38" y2="265.62"/><path class="cls-2" d="M194.9,333.49l-23-.45" transform="translate(-95.43 -151.97)"/><path class="cls-2" d="M197.34,345.13l-14.5-.43" transform="translate(-95.43 -151.97)"/><path class="cls-2" d="M180.58,343.78" transform="translate(-95.43 -151.97)"/><path class="cls-2" d="M205.16,345.15q.06,23.55.19,47.1" transform="translate(-95.43 -151.97)"/><path class="cls-2" d="M205.05,302.4q0,15.53.06,31.07" transform="translate(-95.43 -151.97)"/><path class="cls-2" d="M205.35,231.7q-.24,23.64-.29,47.29" transform="translate(-95.43 -151.97)"/><path class="cls-2" d="M216.79,238.67c.21,50.6.21,102.48,0,153.58" transform="translate(-95.43 -151.97)"/><path class="cls-2" d="M220.36,399.29a9.29,9.29,0,1,1-9.29-9.29A9.29,9.29,0,0,1,220.36,399.29Z" transform="translate(-95.43 -151.97)"/><rect class="cls-3" x="110.97" y="235.5" width="9.36" height="13.88"/><path class="cls-2" d="M248.88,287.78C249,331,249,375,248.73,417.59" transform="translate(-95.43 -151.97)"/><path class="cls-2" d="M248.73,229.47q.08,23.94.12,47.89" transform="translate(-95.43 -151.97)"/><path class="cls-2" d="M260.05,339.77q0,38.91.13,77.82" transform="translate(-95.43 -151.97)"/><path class="cls-2" d="M260.18,288.78q-.09,20.88-.12,41.75" transform="translate(-95.43 -151.97)"/><path class="cls-2" d="M260.18,238.76c-.18,12.62-.18,26.53,0,39" transform="translate(-95.43 -151.97)"/><path class="cls-2" d="M263.9,424.91a9.29,9.29,0,1,1-9.29-9.29A9.28,9.28,0,0,1,263.9,424.91Z" transform="translate(-95.43 -151.97)"/><rect class="cls-3" x="154.39" y="261.35" width="9.36" height="14.26"/><path class="cls-5" d="M220.3,232.72h30.06" transform="translate(-95.43 -151.97)"/><line class="cls-5" y1="51.14" x2="33.57" y2="51.14"/><path class="cls-2" d="M220.9,232.77c17,.34,16.73.36,33.72-.05" transform="translate(-95.43 -151.97)"/><path class="cls-2" d="M223.14,232.72a6.75,6.75,0,0,0-3.22.65" transform="translate(-95.43 -151.97)"/><path class="cls-2" d="M211.07,225.56C222,226,234,226,245.14,226" transform="translate(-95.43 -151.97)"/><path class="cls-2" d="M249.27,289a5.83,5.83,0,0,1,0-11.66" transform="translate(-95.43 -151.97)"/><path class="cls-2" d="M259.81,289a5.83,5.83,0,0,0,0-11.66" transform="translate(-95.43 -151.97)"/><path class="cls-2" d="M280.75,247.42a9.29,9.29,0,1,1-9.29-9.29A9.29,9.29,0,0,1,280.75,247.42Z" transform="translate(-95.43 -151.97)"/><path class="cls-2" d="M278.31,253.76c19.29.24,38.91.24,58.43,0" transform="translate(-95.43 -151.97)"/><path class="cls-2" d="M279.4,242.32c27.6-.32,55.61-.32,83.7,0" transform="translate(-95.43 -151.97)"/><line class="cls-2" x1="297.06" y1="207.61" x2="297.06" y2="306.23"/><line class="cls-2" x1="308.5" y1="207.49" x2="308.5" y2="319"/><rect class="cls-3" x="179.32" y="91.29" width="14.26" height="9.38"/><line class="cls-2" x1="247.41" y1="103.5" x2="247.41" y2="162.72"/><path class="cls-2" d="M354.28,291.15v29.52" transform="translate(-95.43 -151.97)"/><path class="cls-2" d="M354.28,256.23v15.83" transform="translate(-95.43 -151.97)"/><line class="cls-6" x1="247.43" y1="103.24" x2="247.43" y2="106.03"/><line class="cls-6" x1="245.68" y1="101.74" x2="240.68" y2="101.74"/><path class="cls-6" d="M342.86,255.42a1.93,1.93,0,0,0-2.09-1.71" transform="translate(-95.43 -151.97)"/><line class="cls-2" x1="237.65" y1="171.54" x2="237.65" y2="222.6"/><line class="cls-6" x1="237.65" y1="169.35" x2="237.65" y2="172.74"/><line class="cls-6" x1="239.4" y1="167.51" x2="244.4" y2="167.51"/><path class="cls-6" d="M333.07,321.57a2.09,2.09,0,0,1,2.09-2.09" transform="translate(-95.43 -151.97)"/><line class="cls-6" x1="247.42" y1="165.97" x2="247.42" y2="162.58"/><line class="cls-6" x1="245.67" y1="167.81" x2="240.67" y2="167.81"/><path class="cls-6" d="M342.85,317.69a2.08,2.08,0,0,1-2.09,2.08" transform="translate(-95.43 -151.97)"/><line class="cls-2" x1="247.41" y1="226.37" x2="247.41" y2="290.12"/><line class="cls-2" x1="258.86" y1="177.08" x2="258.86" y2="290.12"/><line class="cls-6" x1="237.65" y1="220.67" x2="237.65" y2="217.27"/><line class="cls-6" x1="239.4" y1="222.5" x2="244.4" y2="222.5"/><path class="cls-6" d="M333.07,372.38a2.1,2.1,0,0,0,2.09,2.09" transform="translate(-95.43 -151.97)"/><line class="cls-6" x1="247.42" y1="224.29" x2="247.42" y2="227.69"/><line class="cls-6" x1="245.67" y1="222.46" x2="240.67" y2="222.46"/><path class="cls-6" d="M342.85,376.51a2.08,2.08,0,0,0-2.09-2.08" transform="translate(-95.43 -151.97)"/><line class="cls-2" x1="199.14" y1="323.64" x2="305.64" y2="323.64"/><line class="cls-2" x1="200.32" y1="312.2" x2="291.33" y2="312.2"/><line class="cls-2" x1="193.67" y1="223.5" x2="193.67" y2="308.21"/><line class="cls-6" x1="193.79" y1="310.49" x2="193.79" y2="307.1"/><line class="cls-6" x1="195.54" y1="312.32" x2="200.54" y2="312.32"/><path class="cls-6" d="M289.22,462.21a2.08,2.08,0,0,0,2.08,2.08" transform="translate(-95.43 -151.97)"/><path class="cls-5" d="M274.46,489.21c0,1.37,10.47,2.75,20.84,2.75" transform="translate(-95.43 -151.97)"/><path class="cls-2" d="M274.14,470.71c0,1.28,15,4.64,20.74,4.64" transform="translate(-95.43 -151.97)"/><line class="cls-7" x1="186.45" y1="299.82" x2="234.42" y2="300.38"/><path class="cls-8" d="M284.51,451.82c-3.22,0-8.09-.07-10.32,2.76" transform="translate(-95.43 -151.97)"/><path class="cls-8" d="M274.19,464.17" transform="translate(-95.43 -151.97)"/><path class="cls-8" d="M277.74,452.42" transform="translate(-95.43 -151.97)"/><path class="cls-2" d="M274.46,454.43a20.66,20.66,0,0,1-6.23-.28" transform="translate(-95.43 -151.97)"/><path class="cls-2" d="M358,449.41a9.29,9.29,0,1,1-9.29-9.29A9.28,9.28,0,0,1,358,449.41Z" transform="translate(-95.43 -151.97)"/><rect class="cls-3" x="248.7" y="279.52" width="9.11" height="16.25"/><path class="cls-2" d="M353.81,329.05c2.76,0,5-1.88,5-4.2s-2.24-4.19-5-4.19" transform="translate(-95.43 -151.97)"/><line class="cls-2" x1="247.23" y1="186.81" x2="247.21" y2="216.61"/><line class="cls-6" x1="247.21" y1="216.82" x2="247.21" y2="214.03"/><line class="cls-6" x1="245.61" y1="218.32" x2="241.05" y2="218.32"/><path class="cls-6" d="M342.64,368.58a1.82,1.82,0,0,1-1.91,1.71" transform="translate(-95.43 -151.97)"/><line class="cls-6" x1="199.88" y1="218.3" x2="245.61" y2="218.32"/><line class="cls-6" x1="193.74" y1="220.14" x2="193.74" y2="223.53"/><line class="cls-6" x1="195.48" y1="218.3" x2="200.48" y2="218.3"/><path class="cls-6" d="M289.16,372.36a2.08,2.08,0,0,1,2.09-2.09" transform="translate(-95.43 -151.97)"/><line class="cls-6" x1="247.23" y1="186.56" x2="247.23" y2="189.95"/><line class="cls-6" x1="245.48" y1="184.72" x2="240.48" y2="184.72"/><path class="cls-6" d="M342.66,338.78a2.08,2.08,0,0,0-2.08-2.09" transform="translate(-95.43 -151.97)"/><line class="cls-2" x1="172.54" y1="184.72" x2="240.48" y2="184.72"/><path class="cls-2" d="M260.06,330.53c0,4.23,2.48,6.16,7.91,6.16" transform="translate(-95.43 -151.97)"/><path class="cls-2" d="M260.06,339.77c0-4.23,2.48-6.16,7.91-6.16" transform="translate(-95.43 -151.97)"/><line class="cls-2" x1="172.04" y1="181.41" x2="221.68" y2="180.16"/><path class="cls-2" d="M325,326c0,4.23-2.47,6.16-7.9,6.16" transform="translate(-95.43 -151.97)"/><line class="cls-2" x1="229.58" y1="174" x2="229.12" y2="138.89"/><line class="cls-2" x1="237.02" y1="132.73" x2="253.69" y2="133.11"/><path class="cls-2" d="M324.54,290.86c0-4.23,2.48-6.16,7.91-6.16" transform="translate(-95.43 -151.97)"/><path class="cls-2" d="M354.31,291.15c0-4.24-2.47-6.17-7.9-6.17" transform="translate(-95.43 -151.97)"/><path class="cls-2" d="M255.39,161.76a9.29,9.29,0,1,1-9.29-9.29A9.28,9.28,0,0,1,255.39,161.76Z" transform="translate(-95.43 -151.97)"/><polygon class="cls-3" points="163.15 11.37 158.16 20.09 145.93 12.95 150.93 4.23 163.15 11.37"/><path class="cls-2" d="M248.85,170.5C271,184,293.17,197.32,315.75,210q9.58,5.37,19.25,10.56" transform="translate(-95.43 -151.97)"/><path class="cls-2" d="M254.81,160.35l91.37,55.4,25.71,15.59" transform="translate(-95.43 -151.97)"/><path class="cls-2" d="M338.41,223.2c10.68,7,14.7,21.17,15.71,33.22" transform="translate(-95.43 -151.97)"/><line class="cls-2" x1="237.02" y1="66.88" x2="242.98" y2="71.23"/><line class="cls-2" x1="272.85" y1="96.07" x2="272.85" y2="249.38"/><line class="cls-2" x1="284.3" y1="96.07" x2="284.3" y2="249.38"/><path class="cls-2" d="M368.28,401.35a5.73,5.73,0,1,0,11.44,0" transform="translate(-95.43 -151.97)"/><path class="cls-2" d="M368.18,248.41c0-4.23-2.47-6.16-7.9-6.16" transform="translate(-95.43 -151.97)"/><path class="cls-2" d="M386.49,238.75a9.29,9.29,0,1,1-9.29-9.28A9.29,9.29,0,0,1,386.49,238.75Z" transform="translate(-95.43 -151.97)"/><rect class="cls-3" x="367.47" y="232.79" width="7.89" height="16.08" transform="translate(-166.61 81.44) rotate(-32)"/><path class="cls-2" d="M392.48,458.19a5.86,5.86,0,0,1-5.72,6" transform="translate(-95.43 -151.97)"/><path class="cls-2" d="M403.93,469.87a5.85,5.85,0,0,1-5.73,6" transform="translate(-95.43 -151.97)"/><path class="cls-2" d="M392.48,360.05a5.73,5.73,0,1,1,11.45,0" transform="translate(-95.43 -151.97)"/><path class="cls-2" d="M260.18,238.92c0-4.23-2.48-6.16-7.91-6.16" transform="translate(-95.43 -151.97)"/><path class="cls-2" d="M216.69,239c0-4.23,2.47-6.16,7.9-6.16" transform="translate(-95.43 -151.97)"/><path class="cls-2" d="M205.43,231.7c0-4.23,2.48-6.16,7.91-6.16" transform="translate(-95.43 -151.97)"/><path class="cls-2" d="M249.09,232.19c0-4.23-2.47-6.16-7.9-6.16" transform="translate(-95.43 -151.97)"/><path class="cls-2" d="M161.7,346c0-6.46,5.14-13,10.22-13" transform="translate(-95.43 -151.97)"/><path class="cls-2" d="M182.86,344.7c-7.63,0-9.82,3.18-9.82,14.19" transform="translate(-95.43 -151.97)"/><path class="cls-2" d="M204.94,346.43c0-6.45-5.14-13-10.22-13" transform="translate(-95.43 -151.97)"/><path class="cls-2" d="M205,332.32c0,6.46-5.14,13-10.22,13" transform="translate(-95.43 -151.97)"/><path class="cls-2" d="M200.76,289.25c-.91-3.8-3.06-6.27-5.36-6.27-2.46,0-4,2.82-4.33,3.36-2.45,4.58-.79,10.88-.52,11.9.45,1.71,1.07,4.05,2.63,5.05,2,1.28,4.27-.37,5.55-2.18a12.13,12.13,0,0,0,1.87-4.95" transform="translate(-95.43 -151.97)"/><path class="cls-2" d="M200.07,296.16c1.38,0,5-12.42,5-17.17" transform="translate(-95.43 -151.97)"/><path class="cls-2" d="M200.51,289.25c1.25,0,4.51,12.05,4.51,16.66" transform="translate(-95.43 -151.97)"/><line class="cls-9" x1="66.38" y1="214.73" x2="77.61" y2="214.73"/><line class="cls-9" x1="66.38" y1="220.78" x2="77.61" y2="220.78"/><line class="cls-9" x1="66.38" y1="227.69" x2="77.61" y2="227.69"/><line class="cls-10" x1="110.34" y1="279.63" x2="115.95" y2="269.9"/><line class="cls-10" x1="115.87" y1="282.67" x2="121.48" y2="272.94"/><line class="cls-10" x1="121.11" y1="285.69" x2="126.72" y2="275.96"/><line class="cls-10" x1="127.09" y1="289.15" x2="132.71" y2="279.42"/><line class="cls-11" x1="132.86" y1="292.83" x2="138.48" y2="283.11"/><line class="cls-11" x1="138.39" y1="295.87" x2="144.01" y2="286.14"/><line class="cls-11" x1="143.63" y1="298.89" x2="149.24" y2="289.17"/><line class="cls-11" x1="149.62" y1="302.35" x2="155.23" y2="292.62"/><line class="cls-11" x1="154.69" y1="305.84" x2="160.3" y2="296.12"/><line class="cls-11" x1="160.68" y1="309.3" x2="166.29" y2="299.57"/><line class="cls-12" x1="200.8" y1="323.59" x2="200.8" y2="312.36"/><line class="cls-12" x1="207.11" y1="323.45" x2="207.11" y2="312.22"/><line class="cls-12" x1="213.16" y1="323.45" x2="213.16" y2="312.22"/><line class="cls-12" x1="220.07" y1="323.45" x2="220.07" y2="312.22"/><line class="cls-12" x1="225.55" y1="323.52" x2="225.55" y2="312.29"/><line class="cls-12" x1="231.86" y1="323.38" x2="231.86" y2="312.15"/><line class="cls-12" x1="237.9" y1="323.38" x2="237.9" y2="312.15"/><line class="cls-12" x1="244.82" y1="323.38" x2="244.82" y2="312.15"/><line class="cls-12" x1="251.07" y1="323.66" x2="251.07" y2="312.43"/><line class="cls-12" x1="257.38" y1="323.52" x2="257.38" y2="312.29"/><line class="cls-12" x1="263.43" y1="323.52" x2="263.43" y2="312.29"/><line class="cls-12" x1="270.34" y1="323.52" x2="270.34" y2="312.29"/><line class="cls-12" x1="275.59" y1="323.45" x2="275.59" y2="312.22"/><line class="cls-12" x1="281.9" y1="323.31" x2="281.9" y2="312.08"/><line class="cls-13" x1="284.99" y1="210.5" x2="296.22" y2="210.5"/><line class="cls-13" x1="285.13" y1="216.81" x2="296.36" y2="216.81"/><line class="cls-13" x1="285.13" y1="222.86" x2="296.36" y2="222.86"/><line class="cls-13" x1="285.13" y1="229.77" x2="296.36" y2="229.77"/><line class="cls-13" x1="284.92" y1="235.4" x2="296.16" y2="235.4"/><line class="cls-13" x1="285.06" y1="241.71" x2="296.29" y2="241.71"/><line class="cls-14" x1="247.36" y1="191.78" x2="258.59" y2="191.78"/><line class="cls-14" x1="247.5" y1="198.09" x2="258.73" y2="198.09"/><line class="cls-14" x1="247.5" y1="204.13" x2="258.73" y2="204.13"/><line class="cls-14" x1="247.5" y1="211.05" x2="258.73" y2="211.05"/><line class="cls-15" x1="247.29" y1="235.65" x2="258.53" y2="235.65"/><line class="cls-15" x1="247.43" y1="241.96" x2="258.66" y2="241.96"/><line class="cls-15" x1="247.43" y1="248.01" x2="258.66" y2="248.01"/><line class="cls-15" x1="247.43" y1="254.92" x2="258.66" y2="254.92"/><line class="cls-15" x1="248" y1="261.04" x2="259.23" y2="261.04"/><line class="cls-15" x1="248.14" y1="267.35" x2="259.37" y2="267.35"/><line class="cls-15" x1="248.14" y1="273.4" x2="259.37" y2="273.4"/><line class="cls-16" x1="109.96" y1="86.44" x2="121.19" y2="86.44"/><line class="cls-16" x1="110.1" y1="92.75" x2="121.33" y2="92.75"/><line class="cls-16" x1="110.1" y1="98.8" x2="121.33" y2="98.8"/><line class="cls-16" x1="110.1" y1="105.71" x2="121.33" y2="105.71"/><line class="cls-16" x1="109.83" y1="112.42" x2="121.06" y2="112.42"/><line class="cls-16" x1="109.96" y1="118.73" x2="121.19" y2="118.73"/><line class="cls-16" x1="109.96" y1="124.77" x2="121.19" y2="124.77"/><line class="cls-16" x1="109.89" y1="154.79" x2="121.13" y2="154.79"/><line class="cls-16" x1="110.03" y1="161.1" x2="121.26" y2="161.1"/><line class="cls-16" x1="110.03" y1="167.14" x2="121.26" y2="167.14"/><line class="cls-16" x1="110.03" y1="174.06" x2="121.26" y2="174.06"/><line class="cls-9" x1="109.96" y1="197.29" x2="121.2" y2="197.29"/><line class="cls-9" x1="110.1" y1="203.6" x2="121.33" y2="203.6"/><line class="cls-9" x1="110.1" y1="209.64" x2="121.33" y2="209.64"/><line class="cls-9" x1="110.1" y1="216.56" x2="121.33" y2="216.56"/><line class="cls-9" x1="110.48" y1="222.53" x2="121.71" y2="222.53"/><line class="cls-9" x1="110.48" y1="229.44" x2="121.71" y2="229.44"/><line class="cls-17" x1="153.71" y1="96.07" x2="164.94" y2="96.07"/><line class="cls-17" x1="153.84" y1="102.38" x2="165.07" y2="102.38"/><line class="cls-17" x1="153.84" y1="108.43" x2="165.07" y2="108.43"/><line class="cls-17" x1="153.84" y1="115.34" x2="165.07" y2="115.34"/><line class="cls-18" x1="153.51" y1="144.31" x2="164.74" y2="144.31"/><line class="cls-18" x1="153.64" y1="150.61" x2="164.87" y2="150.61"/><line class="cls-18" x1="153.64" y1="156.66" x2="164.87" y2="156.66"/><line class="cls-18" x1="153.64" y1="163.57" x2="164.87" y2="163.57"/><line class="cls-18" x1="153.44" y1="169.57" x2="164.67" y2="169.57"/><line class="cls-18" x1="153.58" y1="175.88" x2="164.8" y2="175.88"/><line class="cls-19" x1="153.37" y1="191.08" x2="164.6" y2="191.08"/><line class="cls-19" x1="153.51" y1="197.39" x2="164.74" y2="197.39"/><line class="cls-19" x1="153.51" y1="203.44" x2="164.74" y2="203.44"/><line class="cls-19" x1="153.51" y1="210.35" x2="164.74" y2="210.35"/><line class="cls-19" x1="153.37" y1="217.08" x2="164.6" y2="217.08"/><line class="cls-19" x1="153.51" y1="223.38" x2="164.74" y2="223.38"/><line class="cls-19" x1="153.51" y1="229.43" x2="164.74" y2="229.43"/><line class="cls-19" x1="153.51" y1="236.34" x2="164.74" y2="236.34"/><line class="cls-19" x1="153.3" y1="242.86" x2="164.53" y2="242.86"/><line class="cls-19" x1="153.44" y1="249.17" x2="164.67" y2="249.17"/><line class="cls-20" x1="189.5" y1="102.13" x2="189.5" y2="90.89"/><line class="cls-20" x1="195.81" y1="101.99" x2="195.81" y2="90.76"/><line class="cls-20" x1="201.86" y1="101.99" x2="201.86" y2="90.76"/><line class="cls-20" x1="208.77" y1="101.99" x2="208.77" y2="90.76"/><line class="cls-20" x1="215.13" y1="101.76" x2="215.13" y2="90.53"/><line class="cls-20" x1="221.44" y1="101.62" x2="221.44" y2="90.39"/><line class="cls-21" x1="160.21" y1="22.74" x2="165.82" y2="13.02"/><line class="cls-21" x1="165.74" y1="25.78" x2="171.35" y2="16.05"/><line class="cls-21" x1="170.98" y1="28.8" x2="176.59" y2="19.08"/><line class="cls-21" x1="176.96" y1="32.26" x2="182.58" y2="22.53"/><line class="cls-21" x1="182.15" y1="35.5" x2="187.77" y2="25.78"/><line class="cls-21" x1="187.68" y1="38.54" x2="193.3" y2="28.81"/><line class="cls-21" x1="192.92" y1="41.56" x2="198.53" y2="31.84"/><line class="cls-21" x1="198.91" y1="45.02" x2="204.52" y2="35.29"/><line class="cls-22" x1="204.52" y1="48.97" x2="210.14" y2="39.24"/><line class="cls-22" x1="210.05" y1="52.01" x2="215.67" y2="42.28"/><line class="cls-22" x1="215.29" y1="55.03" x2="220.91" y2="45.3"/><line class="cls-22" x1="221.28" y1="58.49" x2="226.89" y2="48.76"/><line class="cls-22" x1="226.28" y1="62.33" x2="231.9" y2="52.6"/><line class="cls-22" x1="231.82" y1="65.36" x2="237.43" y2="55.64"/><line class="cls-23" x1="247.22" y1="144.3" x2="258.45" y2="144.3"/><line class="cls-23" x1="247.35" y1="150.61" x2="258.58" y2="150.61"/><line class="cls-23" x1="247.35" y1="156.66" x2="258.58" y2="156.66"/><line class="cls-23" x1="247.35" y1="163.57" x2="258.58" y2="163.57"/><line class="cls-24" x1="246.77" y1="108.39" x2="258.01" y2="108.39"/><line class="cls-24" x1="246.91" y1="114.7" x2="258.14" y2="114.7"/><line class="cls-25" x1="272.89" y1="117.39" x2="284.12" y2="117.39"/><line class="cls-25" x1="273.03" y1="123.7" x2="284.26" y2="123.7"/><line class="cls-25" x1="273.03" y1="129.75" x2="284.26" y2="129.75"/><line class="cls-25" x1="273.03" y1="136.66" x2="284.26" y2="136.66"/><line class="cls-25" x1="272.89" y1="142.14" x2="284.12" y2="142.14"/><line class="cls-25" x1="273.03" y1="148.45" x2="284.26" y2="148.45"/><line class="cls-25" x1="273.03" y1="154.5" x2="284.26" y2="154.5"/><line class="cls-25" x1="273.03" y1="161.41" x2="284.26" y2="161.41"/><line class="cls-25" x1="273.06" y1="168.39" x2="284.29" y2="168.39"/><line class="cls-25" x1="273.2" y1="174.69" x2="284.43" y2="174.69"/><text class="cls-26" transform="translate(117.38 307.12)">P2</text><text class="cls-27" transform="translate(3.51 120.26)"><tspan xml:space="preserve"> </tspan></text><text class="cls-28" transform="translate(246.21 342.84)">P2.1</text><text class="cls-29" transform="translate(259.6 206.12)">P3</text><text class="cls-30" transform="translate(261.62 265.1)">P8</text><text x="-95.43" y="-151.97"/><text class="cls-31" transform="translate(260.08 151.26)">P7</text><text class="cls-32" transform="translate(134.91 108.98)">P5</text><text class="cls-33" transform="translate(133.61 164.09)">P4</text><text class="cls-34" transform="translate(86.29 160.91)">P5a</text><text class="cls-34" transform="translate(89.26 216.71)">P5b</text><text class="cls-34" transform="translate(42.64 217.41)">P5c</text><text class="cls-35" transform="translate(134.35 196.73)">P6</text><text class="cls-35" transform="translate(166.93 213.73)">P6a</text><text class="cls-35" transform="translate(167.87 238.08)">P6b</text><text class="cls-36" transform="translate(69.1 275.62)">P14</text><text class="cls-37" transform="translate(310.88 225.54)">P13</text><text class="cls-38" transform="translate(193.49 83.43)">P9</text><text class="cls-39" transform="translate(225.51 114.86)">P9a</text><text class="cls-40" transform="translate(208.8 25.21)">P9.2</text><text class="cls-41" transform="translate(292.38 130.61)">P9.1</text><text class="cls-42" transform="translate(292.03 167.45)">P9.1a</text><text x="-95.43" y="-151.97"/><text class="cls-43" transform="translate(195.4 292.8)">apo L-21 IGS</text><path class="cls-44" d="M198.11,350.46c3.21,0,3.22-5,0-5s-3.23,5,0,5Z" transform="translate(-95.43 -151.97)"/><path class="cls-44" d="M198.83,350.12c3.22,0,3.22-5,0-5s-3.22,5,0,5Z" transform="translate(-95.43 -151.97)"/><path class="cls-44" d="M198.4,350.24c3.22,0,3.23-5,0-5s-3.22,5,0,5Z" transform="translate(-95.43 -151.97)"/><path class="cls-44" d="M197.68,345.67h-.08a1.9,1.9,0,0,0-1,.22,1.83,1.83,0,0,0-.8.51,1.85,1.85,0,0,0-.52.81,1.76,1.76,0,0,0-.21,1l.09.66a2.39,2.39,0,0,0,.64,1.11l.5.39a2.44,2.44,0,0,0,1.27.34h.08a1.84,1.84,0,0,0,1-.22,1.93,1.93,0,0,0,.81-.51,2.05,2.05,0,0,0,.52-.81,2,2,0,0,0,.21-1l-.09-.66a2.48,2.48,0,0,0-.64-1.11l-.51-.39a2.53,2.53,0,0,0-1.26-.34Z" transform="translate(-95.43 -151.97)"/><path class="cls-44" d="M197.47,350.54c3.22,0,3.22-5,0-5s-3.22,5,0,5Z" transform="translate(-95.43 -151.97)"/><path class="cls-44" d="M195.34,350.67c3.22,0,3.22-5,0-5s-3.22,5,0,5Z" transform="translate(-95.43 -151.97)"/><path class="cls-44" d="M194.91,350.67c3.22,0,3.23-5,0-5s-3.22,5,0,5Z" transform="translate(-95.43 -151.97)"/><path class="cls-44" d="M195.77,350.71c3.21,0,3.22-5,0-5s-3.23,5,0,5Z" transform="translate(-95.43 -151.97)"/><path class="cls-44" d="M197.47,350.41c3.22,0,3.22-5,0-5s-3.22,5,0,5Z" transform="translate(-95.43 -151.97)"/><path class="cls-44" d="M197.72,350.37c3.22,0,3.23-5,0-5s-3.22,5,0,5Z" transform="translate(-95.43 -151.97)"/><path class="cls-44" d="M198.15,350.24c3.22,0,3.22-5,0-5s-3.22,5,0,5Z" transform="translate(-95.43 -151.97)"/><path class="cls-44" d="M196.15,350.67c3.22,0,3.22-5,0-5s-3.22,5,0,5Z" transform="translate(-95.43 -151.97)"/><path class="cls-44" d="M195,350.67c3.22,0,3.23-5,0-5s-3.22,5,0,5Z" transform="translate(-95.43 -151.97)"/><path class="cls-44" d="M195,350.67c3.21,0,3.22-5,0-5s-3.23,5,0,5Z" transform="translate(-95.43 -151.97)"/><path class="cls-44" d="M194.87,350.67c3.22,0,3.22-5,0-5s-3.22,5,0,5Z" transform="translate(-95.43 -151.97)"/><path class="cls-44" d="M194.7,350.67c3.22,0,3.22-5,0-5s-3.22,5,0,5Z" transform="translate(-95.43 -151.97)"/><path class="cls-44" d="M194.45,350.63c3.21,0,3.22-5,0-5s-3.23,5,0,5Z" transform="translate(-95.43 -151.97)"/><path class="cls-44" d="M194.83,350.76c3.22,0,3.22-5,0-5s-3.22,5,0,5Z" transform="translate(-95.43 -151.97)"/><path class="cls-44" d="M194.74,350.63c3.22,0,3.23-5,0-5s-3.22,5,0,5Z" transform="translate(-95.43 -151.97)"/><path class="cls-44" d="M207.81,304.37c3.22,0,3.22-5,0-5s-3.22,5,0,5Z" transform="translate(-95.43 -151.97)"/><path class="cls-44" d="M207.77,304.54c3.21,0,3.22-5,0-5s-3.23,5,0,5Z" transform="translate(-95.43 -151.97)"/><path class="cls-44" d="M207.81,304.71c3.22,0,3.22-5,0-5s-3.22,5,0,5Z" transform="translate(-95.43 -151.97)"/><path class="cls-44" d="M207.81,304.71c3.22,0,3.22-5,0-5s-3.22,5,0,5Z" transform="translate(-95.43 -151.97)"/><path class="cls-44" d="M206,300.23l-.05,0a1.93,1.93,0,0,0-.51.81,2.58,2.58,0,0,0,.51,2.73l.51.39a2.43,2.43,0,0,0,1.26.34l.67-.09a2.5,2.5,0,0,0,1.1-.64l0,0A2,2,0,0,0,210,303a2.3,2.3,0,0,0,0-1.92,2,2,0,0,0-.52-.81l-.5-.39a2.57,2.57,0,0,0-1.27-.34l-.66.09a2.5,2.5,0,0,0-1.1.64Z" transform="translate(-95.43 -151.97)"/><path class="cls-44" d="M209,300.32h0l-.34-.05-.34,0a.06.06,0,0,0-.06,0,4.3,4.3,0,0,0-.72.09l-.07,0-.31.13-.31.13,0,0,0,0h0l-.51.39-.05.05h0l-.39.51,0,0a1.85,1.85,0,0,0-.29.93,1.89,1.89,0,0,0,0,1,2.8,2.8,0,0,0,1.15,1.49l.6.25a2.5,2.5,0,0,0,1.33,0l.6-.25a2.48,2.48,0,0,0,.89-.9l0,0-.39.51.07-.06-.51.39.09,0-.6.25a.2.2,0,0,1,.11,0l-.67.09a.17.17,0,0,1,.1,0l-.67-.09h.06a1.85,1.85,0,0,0,1,0,1.79,1.79,0,0,0,.93-.29,1.83,1.83,0,0,0,.7-.65,1.89,1.89,0,0,0,.45-.85l.09-.66a2.43,2.43,0,0,0-.34-1.26l-.39-.51a2.48,2.48,0,0,0-1.11-.64Z" transform="translate(-95.43 -151.97)"/><path class="cls-44" d="M207.85,305.44c3.22,0,3.22-5,0-5s-3.22,5,0,5Z" transform="translate(-95.43 -151.97)"/><path class="cls-44" d="M207.85,305.44c3.22,0,3.22-5,0-5s-3.22,5,0,5Z" transform="translate(-95.43 -151.97)"/><path class="cls-44" d="M206.27,304.09l0,0-.39-.5a.41.41,0,0,1,.05.09l-.25-.6a.31.31,0,0,1,0,.13l-.09-.67a.28.28,0,0,1,0,.13l.09-.66a.23.23,0,0,1,0,.11l.25-.6,0,.07a1.9,1.9,0,0,0-.3.93,1.86,1.86,0,0,0,.05,1,1.78,1.78,0,0,0,.44.85,1.85,1.85,0,0,0,.71.65l.59.25a2.5,2.5,0,0,0,1.33,0l.6-.25a2.59,2.59,0,0,0,.9-.9l0,0v0h0l.25-.6,0-.08c0-.12,0-.27.05-.37s0-.24,0-.37v-.08c0-.23-.06-.46-.1-.7a0,0,0,0,0,0,0s0,0,0,0c-.08-.22-.17-.42-.26-.63l0-.07,0,0-.39-.5h0l0,0A1.93,1.93,0,0,0,209,300a1.88,1.88,0,0,0-1-.22,1.86,1.86,0,0,0-1,.22,1.93,1.93,0,0,0-.81.51l-.39.51a2.43,2.43,0,0,0-.34,1.26l.09.67a2.5,2.5,0,0,0,.64,1.1Z" transform="translate(-95.43 -151.97)"/><path class="cls-44" d="M245.34,225.69c3.22,0,3.22-5,0-5s-3.22,5,0,5Z" transform="translate(-95.43 -151.97)"/><path class="cls-44" d="M245.47,225.82c3.22,0,3.22-5,0-5s-3.22,5,0,5Z" transform="translate(-95.43 -151.97)"/><path class="cls-44" d="M246,226.07c3.22,0,3.22-5,0-5s-3.22,5,0,5Z" transform="translate(-95.43 -151.97)"/><path class="cls-44" d="M244.7,225.52c3.22,0,3.22-5,0-5s-3.22,5,0,5Z" transform="translate(-95.43 -151.97)"/><path class="cls-44" d="M244.66,225.56c3.22,0,3.22-5,0-5s-3.22,5,0,5Z" transform="translate(-95.43 -151.97)"/><path class="cls-44" d="M244.65,225.62l.7.07v-5h-.46v5h.29l-.66-.09a1.29,1.29,0,0,1,.26.08l.66-4.91h-.14a1.84,1.84,0,0,0-1,.22,1.93,1.93,0,0,0-.81.51,2,2,0,0,0-.52.81,2,2,0,0,0-.21,1l.09.67a2.5,2.5,0,0,0,.64,1.1l.51.39a2.43,2.43,0,0,0,1.26.34h.14a1.9,1.9,0,0,0,1-.22,1.82,1.82,0,0,0,.8-.52l.39-.5a2,2,0,0,0,.3-.93,1.27,1.27,0,0,0,0-.67,2,2,0,0,0-.3-.93l-.39-.5a2.41,2.41,0,0,0-1.1-.64l-.14-.05a7,7,0,0,0-.79-.12h-.29a1.88,1.88,0,0,0-1,.22,1.83,1.83,0,0,0-.8.51,1.85,1.85,0,0,0-.52.81,1.88,1.88,0,0,0-.22,1l.09.67a2.52,2.52,0,0,0,.65,1.1l.5.39a2.43,2.43,0,0,0,1.26.34h.46a1.9,1.9,0,0,0,1-.22,2.54,2.54,0,0,0,1.53-2.28l-.09-.67a2.41,2.41,0,0,0-.64-1.1l-.5-.39a2.44,2.44,0,0,0-1.27-.34l-.7-.07a1.9,1.9,0,0,0-1,.22,1.83,1.83,0,0,0-.8.51,1.85,1.85,0,0,0-.52.81,1.78,1.78,0,0,0-.21,1l.08.66a2.5,2.5,0,0,0,.65,1.11l.5.39a2.44,2.44,0,0,0,1.27.34Z" transform="translate(-95.43 -151.97)"/><path class="cls-44" d="M245.26,225.82c3.21,0,3.22-5,0-5s-3.23,5,0,5Z" transform="translate(-95.43 -151.97)"/><path class="cls-44" d="M245.92,220.91l-.11,0-.77-.1h-.22a1.83,1.83,0,0,0-1,.21,2,2,0,0,0-.81.52,1.92,1.92,0,0,0-.52.8,2,2,0,0,0-.21,1l.09.66a2.5,2.5,0,0,0,.64,1.1l.51.4a2.53,2.53,0,0,0,1.26.34H245a2.83,2.83,0,0,0,1.77-.74,1.83,1.83,0,0,0,.51-.8,1.88,1.88,0,0,0,.22-1l-.09-.67a2.5,2.5,0,0,0-.64-1.1l-.51-.39a2.43,2.43,0,0,0-1.26-.34h-.18v5a.82.82,0,0,1,.27,0l-.66-.09.16,0a1.89,1.89,0,0,0,1,0,1.85,1.85,0,0,0,.93-.29,2.87,2.87,0,0,0,1.15-1.5l.09-.66a2.54,2.54,0,0,0-.35-1.26l-.39-.51a2.5,2.5,0,0,0-1.1-.64Z" transform="translate(-95.43 -151.97)"/><path class="cls-44" d="M255.3,232.46c3.22,0,3.22-5,0-5s-3.22,5,0,5Z" transform="translate(-95.43 -151.97)"/><path class="cls-44" d="M255.3,232.46c3.22,0,3.22-5,0-5s-3.22,5,0,5Z" transform="translate(-95.43 -151.97)"/><path class="cls-44" d="M254.53,232.24c3.22,0,3.22-5,0-5s-3.22,5,0,5Z" transform="translate(-95.43 -151.97)"/><path class="cls-44" d="M254.45,232.24c3.21,0,3.22-5,0-5s-3.23,5,0,5Z" transform="translate(-95.43 -151.97)"/><path class="cls-44" d="M254.19,232.2c3.22,0,3.22-5,0-5s-3.22,5,0,5Z" transform="translate(-95.43 -151.97)"/><path class="cls-44" d="M254.23,232.29c3.22,0,3.23-5,0-5s-3.22,5,0,5Z" transform="translate(-95.43 -151.97)"/><path class="cls-44" d="M249.68,288.2c3.22,0,3.22-5,0-5s-3.22,5,0,5Z" transform="translate(-95.43 -151.97)"/><path class="cls-44" d="M247.9,287.92l.34.21,1.26-4.66-.54-.05a2.69,2.69,0,0,0-1.77.73,2,2,0,0,0-.52.81,1.85,1.85,0,0,0-.21,1l.09.66a2.48,2.48,0,0,0,.64,1.11l.51.39a2.53,2.53,0,0,0,1.26.34l.54.05.66-.09a1.89,1.89,0,0,0,.85-.45,1.21,1.21,0,0,0,.45-.45,1.89,1.89,0,0,0,.45-.85L252,286l-.09-.67a2,2,0,0,0-.45-.85,2,2,0,0,0-.7-.64l-.34-.21a1.9,1.9,0,0,0-.93-.3,1.86,1.86,0,0,0-1,.05,1.71,1.71,0,0,0-.85.45,1.83,1.83,0,0,0-.65.7l-.25.59a2.5,2.5,0,0,0,0,1.33l.25.6a2.59,2.59,0,0,0,.9.9Z" transform="translate(-95.43 -151.97)"/><path class="cls-44" d="M248.7,288.41c3.22,0,3.22-5,0-5s-3.22,5,0,5Z" transform="translate(-95.43 -151.97)"/><path class="cls-44" d="M246.94,287.51a.46.46,0,0,0,.07.07c.16.14.37.3.54.42l.15.08a3.62,3.62,0,0,0,.74.3,5.27,5.27,0,0,0,.81.11l-.67-4.91h0l.67-.09h0l.66.09h0l.6.25,0,0,.51.39h0v3.53h0l-.51.39a3.84,3.84,0,0,1,.9-.52l-.6.25.22-.09a1.8,1.8,0,0,0,.85-.45,1.83,1.83,0,0,0,.65-.7,1.79,1.79,0,0,0,.29-.93,1.85,1.85,0,0,0,0-1l-.25-.6a2.59,2.59,0,0,0-.9-.9l-.6-.25a2.5,2.5,0,0,0-1.33,0c-.3.11-.6.24-.89.37l-.3.15a7.71,7.71,0,0,0-1,.75,1.77,1.77,0,0,0-.52.8,1.89,1.89,0,0,0-.21,1l.09.66a2.41,2.41,0,0,0,.64,1.1.71.71,0,0,0,.27.21l.27.21a1.73,1.73,0,0,0,.31.14,1.79,1.79,0,0,0,.32.13,2.1,2.1,0,0,0,.71.09l.66-.09h0a2.87,2.87,0,0,0,1.5-1.15l.25-.6a1.85,1.85,0,0,0,0-1,1.24,1.24,0,0,0-.17-.63,1.85,1.85,0,0,0-.52-.81l-.5-.39a2.53,2.53,0,0,0-1.26-.34h-.08l.67.09a.73.73,0,0,1-.21-.06l.59.26-.16-.1.5.39-.09-.08a1.77,1.77,0,0,0-.8-.52,2.23,2.23,0,0,0-1.93,0,1.77,1.77,0,0,0-.8.52l-.39.5a2.54,2.54,0,0,0-.35,1.26l.09.67a2.52,2.52,0,0,0,.65,1.1Z" transform="translate(-95.43 -151.97)"/><path class="cls-44" d="M336.62,325.27c3.21,0,3.22-5,0-5s-3.23,5,0,5Z" transform="translate(-95.43 -151.97)"/><path class="cls-44" d="M336.32,325.05h0a1.83,1.83,0,0,0,1-.21,2,2,0,0,0,.81-.52,1.92,1.92,0,0,0,.52-.8,2,2,0,0,0,.21-1l-.09-.66a2.5,2.5,0,0,0-.64-1.1l-.51-.4a2.53,2.53,0,0,0-1.26-.34h0a2.83,2.83,0,0,0-1.77.74,2,2,0,0,0-.52.8,2,2,0,0,0-.21,1l.09.67a2.5,2.5,0,0,0,.64,1.1l.51.39a2.43,2.43,0,0,0,1.26.34Z" transform="translate(-95.43 -151.97)"/><path class="cls-44" d="M336.87,325.22c3.22,0,3.22-5,0-5s-3.22,5,0,5Z" transform="translate(-95.43 -151.97)"/><path class="cls-44" d="M337.21,325.22c3.22,0,3.23-5,0-5s-3.22,5,0,5Z" transform="translate(-95.43 -151.97)"/><path class="cls-44" d="M336.91,325.22c3.22,0,3.23-5,0-5s-3.22,5,0,5Z" transform="translate(-95.43 -151.97)"/><path class="cls-44" d="M335.8,324.84a3.78,3.78,0,0,0,2.32.5,12.35,12.35,0,0,1,1.49,0c1,0,2,.11,3,.17v-5l-3.76.19a2.67,2.67,0,0,0-1.77.74,2.5,2.5,0,0,0,0,3.53,2.46,2.46,0,0,0,1.77.73l3.76-.19a2.66,2.66,0,0,0,1.77-.73,2.57,2.57,0,0,0,.73-1.77,2.53,2.53,0,0,0-.73-1.77,2.76,2.76,0,0,0-1.77-.73c-.85-.05-1.7-.12-2.56-.16-.42,0-.85,0-1.27,0a10,10,0,0,1-1.22.08l.66.09a1.13,1.13,0,0,1-.24-.08l.59.25-.23-.12a2.51,2.51,0,0,0-3.42.9,2.55,2.55,0,0,0,.9,3.42Z" transform="translate(-95.43 -151.97)"/><path class="cls-44" d="M339.51,319.1c3.22,0,3.22-5,0-5s-3.22,5,0,5Z" transform="translate(-95.43 -151.97)"/><path class="cls-44" d="M338.15,319.1c3.22,0,3.22-5,0-5s-3.22,5,0,5Z" transform="translate(-95.43 -151.97)"/><path class="cls-44" d="M336.64,312.48h-.13a2,2,0,0,0-1,.21A2.61,2.61,0,0,0,334,315l.09.66a2.55,2.55,0,0,0,.65,1.11l.5.39a2.53,2.53,0,0,0,1.26.34h.13a2.83,2.83,0,0,0,1.77-.73,2,2,0,0,0,.52-.81,1.88,1.88,0,0,0,.21-1l-.09-.67a2.5,2.5,0,0,0-.64-1.1l-.51-.39a2.43,2.43,0,0,0-1.26-.34Z" transform="translate(-95.43 -151.97)"/><path class="cls-44" d="M335.32,318.57c.22.1.43.2.65.28l.08,0,.13,0c.27,0,.53.08.8.1h.15a1.88,1.88,0,0,0,1-.21,2,2,0,0,0,.81-.52,2.83,2.83,0,0,0,.73-1.77l-.09-.66a2.53,2.53,0,0,0-.64-1.11l-.51-.39a2.53,2.53,0,0,0-1.26-.34.87.87,0,0,1-.23,0l.66.09a1.18,1.18,0,0,1-.31-.08l.6.25h0a1.86,1.86,0,0,0-.93-.3,2.21,2.21,0,0,0-1.85.49,2,2,0,0,0-.64.7l-.25.6a2.5,2.5,0,0,0,0,1.33l.25.6a2.48,2.48,0,0,0,.9.89Z" transform="translate(-95.43 -151.97)"/><path class="cls-44" d="M338.23,318.93c3.22,0,3.23-5,0-5s-3.22,5,0,5Z" transform="translate(-95.43 -151.97)"/><path class="cls-44" d="M338.23,319c3.22,0,3.23-5,0-5s-3.22,5,0,5Z" transform="translate(-95.43 -151.97)"/><path class="cls-44" d="M338.45,319c3.21,0,3.22-5,0-5s-3.23,5,0,5Z" transform="translate(-95.43 -151.97)"/><path class="cls-44" d="M338.53,319.05c3.22,0,3.22-5,0-5s-3.22,5,0,5Z" transform="translate(-95.43 -151.97)"/><path class="cls-44" d="M338.32,319.05c3.22,0,3.22-5,0-5s-3.22,5,0,5Z" transform="translate(-95.43 -151.97)"/><path class="cls-44" d="M337.94,319.05c3.21,0,3.22-5,0-5s-3.23,5,0,5Z" transform="translate(-95.43 -151.97)"/><path class="cls-44" d="M337.94,319.05c3.21,0,3.22-5,0-5s-3.23,5,0,5Z" transform="translate(-95.43 -151.97)"/><path class="cls-44" d="M337.77,319.05c3.21,0,3.22-5,0-5s-3.23,5,0,5Z" transform="translate(-95.43 -151.97)"/><path class="cls-44" d="M335.68,315.61c3.22,0,3.22-5,0-5s-3.22,5,0,5Z" transform="translate(-95.43 -151.97)"/><path class="cls-44" d="M338.15,325.22c3.22,0,3.22-5,0-5s-3.22,5,0,5Z" transform="translate(-95.43 -151.97)"/><path class="cls-44" d="M337.64,325.22c3.22,0,3.22-5,0-5s-3.22,5,0,5Z" transform="translate(-95.43 -151.97)"/><path class="cls-44" d="M337.64,325.22c3.22,0,3.22-5,0-5s-3.22,5,0,5Z" transform="translate(-95.43 -151.97)"/><path class="cls-44" d="M337.64,325.22c3.22,0,3.22-5,0-5s-3.22,5,0,5Z" transform="translate(-95.43 -151.97)"/><path class="cls-44" d="M331.38,378.63c3.22,0,3.23-5,0-5s-3.22,5,0,5Z" transform="translate(-95.43 -151.97)"/><path class="cls-44" d="M331.6,378.67c3.21,0,3.22-5,0-5s-3.23,5,0,5Z" transform="translate(-95.43 -151.97)"/><path class="cls-44" d="M331.94,378.93c3.21,0,3.22-5,0-5s-3.23,5,0,5Z" transform="translate(-95.43 -151.97)"/><path class="cls-44" d="M330.83,378.07c3.22,0,3.22-5,0-5s-3.22,5,0,5Z" transform="translate(-95.43 -151.97)"/><path class="cls-44" d="M330.4,377.44c3.22,0,3.23-5,0-5s-3.22,5,0,5Z" transform="translate(-95.43 -151.97)"/><path class="cls-44" d="M329.74,377.34l.13,0a1.89,1.89,0,0,0,1,.05,2.26,2.26,0,0,0,1.63-.94,1.88,1.88,0,0,0,.44-.85L333,375a2.43,2.43,0,0,0-.34-1.26l-.39-.51a2.5,2.5,0,0,0-1.1-.64l-.13,0a2,2,0,0,0-1,0,2,2,0,0,0-.93.3,1.9,1.9,0,0,0-.7.65,1.78,1.78,0,0,0-.44.85l-.09.66a2.43,2.43,0,0,0,.34,1.26l.39.51a2.5,2.5,0,0,0,1.1.64Z" transform="translate(-95.43 -151.97)"/><path class="cls-44" d="M327.61,374.17v.26a1.88,1.88,0,0,0,.21,1,1.77,1.77,0,0,0,.52.8,1.82,1.82,0,0,0,.8.52,1.9,1.9,0,0,0,1,.22l.66-.09a2.52,2.52,0,0,0,1.1-.65l.4-.5a2.64,2.64,0,0,0,.34-1.26v-.26a2.83,2.83,0,0,0-.74-1.77,1.83,1.83,0,0,0-.8-.51,1.88,1.88,0,0,0-1-.22l-.67.09a2.5,2.5,0,0,0-1.1.64l-.39.51a2.43,2.43,0,0,0-.34,1.26Z" transform="translate(-95.43 -151.97)"/><path class="cls-44" d="M339,319.18c3.22,0,3.22-5,0-5s-3.22,5,0,5Z" transform="translate(-95.43 -151.97)"/><path class="cls-44" d="M339.55,319.18c3.22,0,3.23-5,0-5s-3.22,5,0,5Z" transform="translate(-95.43 -151.97)"/><rect class="cls-3" x="274.04" y="82.25" width="9.07" height="16.79"/></svg>