<svg id="图层_1" data-name="图层 1" xmlns="http://www.w3.org/2000/svg" viewBox="0 0 349.3 346.3"><defs><style>.cls-1,.cls-11,.cls-12,.cls-13,.cls-14,.cls-15,.cls-16,.cls-17,.cls-18,.cls-19,.cls-2,.cls-20,.cls-21,.cls-22,.cls-23,.cls-24,.cls-25,.cls-4,.cls-5,.cls-6,.cls-8,.cls-9{fill:none;}.cls-2,.cls-6,.cls-8{stroke:#231815;}.cls-3,.cls-44,.cls-7{fill:#fff;}.cls-3,.cls-5{stroke:#fff;}.cls-4{stroke:#2bac38;}.cls-11,.cls-12,.cls-13,.cls-14,.cls-15,.cls-16,.cls-17,.cls-18,.cls-19,.cls-20,.cls-21,.cls-22,.cls-23,.cls-24,.cls-25,.cls-4,.cls-6,.cls-7,.cls-8,.cls-9{stroke-miterlimit:10;}.cls-7{stroke:#d09f9f;}.cls-7,.cls-8{stroke-dasharray:11 4;}.cls-9{stroke:#73c8d5;}.cls-10,.cls-27{fill:#231815;}.cls-10{stroke:#2066b1;}.cls-11{stroke:#1a62af;}.cls-12{stroke:#83556e;}.cls-13{stroke:#86b133;}.cls-14{stroke:#e6ca5a;}.cls-15{stroke:#543c94;}.cls-16{stroke:#74c8d5;}.cls-17{stroke:#e7312b;}.cls-18{stroke:#e27e28;}.cls-19{stroke:#78789f;}.cls-20{stroke:#6b216e;}.cls-21{stroke:#e62380;}.cls-22{stroke:#e6237f;}.cls-23{stroke:#c17575;}.cls-24{stroke:#003692;}.cls-25{stroke:#cfac89;}.cls-26,.cls-28,.cls-29,.cls-30,.cls-31,.cls-32,.cls-33,.cls-34,.cls-35,.cls-36,.cls-37,.cls-38,.cls-39,.cls-40,.cls-41,.cls-42,.cls-43{font-size:10px;font-family:AdobeFangsongStd-Regular, AdobeFangsongStd Regular-GBpc-EUC-H;}.cls-26{fill:#1a62af;}.cls-27{font-size:12px;font-family:AdobeSongStd-Light-GBpc-EUC-H, Adobe Song Std;}.cls-28{fill:#7e536c;}.cls-29{fill:#e6ca5a;}.cls-30{fill:#543c94;}.cls-31{fill:#c17575;}.cls-32{fill:#e7322d;}.cls-33{fill:#e27e28;}.cls-34{fill:#74c8d5;}.cls-35{fill:#7878a0;}.cls-36{fill:#2bac38;}.cls-37{fill:#b5d34c;}.cls-38{fill:#6d216f;}.cls-39{fill:#003692;}.cls-40{fill:#e62381;}.cls-41{fill:#d2ae8a;}.cls-42{fill:#c8a684;}.cls-43{fill:#d09f9f;}</style></defs><polyline class="cls-1" points="-95.4 -152 -95.4 -152 -95.4 -152"/><path class="cls-2" d="M161.7,346c.3,17,.3,34,0,50.7" transform="translate(-95.4 -152)"/><path class="cls-2" d="M173.1,355.6q-.2,20.5,0,41.1" transform="translate(-95.4 -152)"/><line class="cls-2" x1="102.6" y1="274.9" x2="179" y2="319"/><path class="cls-2" d="M204.7,417.5c21,13,42.9,24.3,64.1,36.8" transform="translate(-95.4 -152)"/><path class="cls-2" d="M204.4,417.6a9.3,9.3,0,1,1-9.3-9.3A9.3,9.3,0,0,1,204.4,417.6Z" transform="translate(-95.4 -152)"/><rect class="cls-3" x="195" y="414.2" width="9.4" height="14.26" transform="translate(-360.4 231.6) rotate(-60)"/><path class="cls-2" d="M176.7,403.9a9.3,9.3,0,1,1-9.3-9.3A9.3,9.3,0,0,1,176.7,403.9Z" transform="translate(-95.4 -152)"/><rect class="cls-3" x="67.5" y="235.5" width="9.1" height="14.26"/><line class="cls-4" x1="81.3" y1="251.9" x2="93.6" y2="258.6"/><line class="cls-4" x1="81.3" y1="256.3" x2="91.1" y2="261.2"/><line class="cls-4" x1="77.7" y1="259.2" x2="90.4" y2="265.6"/><path class="cls-2" d="M194.9,333.5l-23-.5" transform="translate(-95.4 -152)"/><path class="cls-2" d="M197.3,345.1l-14.5-.4" transform="translate(-95.4 -152)"/><path class="cls-2" d="M180.6,343.8" transform="translate(-95.4 -152)"/><path class="cls-2" d="M205.2,345.1c0,15.8.1,31.5.1,47.2" transform="translate(-95.4 -152)"/><path class="cls-2" d="M205,302.4c.1,10.4.1,20.7.1,31.1" transform="translate(-95.4 -152)"/><path class="cls-2" d="M205.3,231.7c-.1,15.8-.2,31.5-.2,47.3" transform="translate(-95.4 -152)"/><path class="cls-2" d="M216.8,238.7c.2,50.6.2,102.4,0,153.6" transform="translate(-95.4 -152)"/><path class="cls-2" d="M220.4,399.3a9.3,9.3,0,1,1-9.3-9.3A9.3,9.3,0,0,1,220.4,399.3Z" transform="translate(-95.4 -152)"/><rect class="cls-3" x="111" y="235.5" width="9.4" height="13.88"/><path class="cls-2" d="M248.9,287.8c.1,43.2.1,87.2-.2,129.8" transform="translate(-95.4 -152)"/><path class="cls-2" d="M248.7,229.5c.1,15.9.1,31.9.2,47.9" transform="translate(-95.4 -152)"/><path class="cls-2" d="M260,339.8q0,38.8.2,77.8" transform="translate(-95.4 -152)"/><path class="cls-2" d="M260.2,288.8c-.1,13.9-.1,27.8-.1,41.7" transform="translate(-95.4 -152)"/><path class="cls-2" d="M260.2,238.8c-.2,12.6-.2,26.5,0,39" transform="translate(-95.4 -152)"/><path class="cls-2" d="M263.9,424.9a9.3,9.3,0,1,1-9.3-9.3A9.3,9.3,0,0,1,263.9,424.9Z" transform="translate(-95.4 -152)"/><rect class="cls-3" x="154.4" y="261.3" width="9.4" height="14.26"/><path class="cls-5" d="M220.3,232.7h30.1" transform="translate(-95.4 -152)"/><line class="cls-5" y1="51.1" x2="33.6" y2="51.1"/><path class="cls-2" d="M220.9,232.8c17,.3,16.7.3,33.7-.1" transform="translate(-95.4 -152)"/><path class="cls-2" d="M223.1,232.7a7.1,7.1,0,0,0-3.2.7" transform="translate(-95.4 -152)"/><path class="cls-2" d="M211.1,225.6c10.9.4,22.9.4,34,.4" transform="translate(-95.4 -152)"/><path class="cls-2" d="M249.3,289a5.8,5.8,0,1,1,0-11.6" transform="translate(-95.4 -152)"/><path class="cls-2" d="M259.8,289a5.8,5.8,0,0,0,0-11.6" transform="translate(-95.4 -152)"/><path class="cls-2" d="M280.7,247.4a9.3,9.3,0,1,1-9.2-9.3A9.2,9.2,0,0,1,280.7,247.4Z" transform="translate(-95.4 -152)"/><path class="cls-2" d="M278.3,253.8c19.3.2,38.9.2,58.4,0" transform="translate(-95.4 -152)"/><path class="cls-2" d="M279.4,242.3c27.6-.3,55.6-.3,83.7,0" transform="translate(-95.4 -152)"/><line class="cls-2" x1="297.1" y1="207.6" x2="297.1" y2="306.2"/><line class="cls-2" x1="308.5" y1="207.5" x2="308.5" y2="319"/><rect class="cls-3" x="179.3" y="91.3" width="14.3" height="9.38"/><line class="cls-2" x1="247.4" y1="103.5" x2="247.4" y2="162.7"/><path class="cls-2" d="M354.3,291.1v29.6" transform="translate(-95.4 -152)"/><path class="cls-2" d="M354.3,256.2v15.9" transform="translate(-95.4 -152)"/><line class="cls-6" x1="247.4" y1="103.2" x2="247.4" y2="106"/><line class="cls-6" x1="245.7" y1="101.7" x2="240.7" y2="101.7"/><path class="cls-6" d="M342.9,255.4a2,2,0,0,0-2.1-1.7" transform="translate(-95.4 -152)"/><line class="cls-2" x1="237.6" y1="171.5" x2="237.6" y2="222.6"/><line class="cls-6" x1="237.6" y1="169.3" x2="237.6" y2="172.7"/><line class="cls-6" x1="239.4" y1="167.5" x2="244.4" y2="167.5"/><path class="cls-6" d="M333.1,321.6a2.1,2.1,0,0,1,2.1-2.1" transform="translate(-95.4 -152)"/><line class="cls-6" x1="247.4" y1="166" x2="247.4" y2="162.6"/><line class="cls-6" x1="245.7" y1="167.8" x2="240.7" y2="167.8"/><path class="cls-6" d="M342.8,317.7a2.1,2.1,0,0,1-2,2.1" transform="translate(-95.4 -152)"/><line class="cls-2" x1="247.4" y1="226.4" x2="247.4" y2="290.1"/><line class="cls-2" x1="258.9" y1="177.1" x2="258.9" y2="290.1"/><line class="cls-6" x1="237.6" y1="220.7" x2="237.6" y2="217.3"/><line class="cls-6" x1="239.4" y1="222.5" x2="244.4" y2="222.5"/><path class="cls-6" d="M333.1,372.4a2.1,2.1,0,0,0,2.1,2.1" transform="translate(-95.4 -152)"/><line class="cls-6" x1="247.4" y1="224.3" x2="247.4" y2="227.7"/><line class="cls-6" x1="245.7" y1="222.5" x2="240.7" y2="222.5"/><path class="cls-6" d="M342.8,376.5a2.1,2.1,0,0,0-2-2.1" transform="translate(-95.4 -152)"/><line class="cls-2" x1="199.1" y1="323.6" x2="305.6" y2="323.6"/><line class="cls-2" x1="200.3" y1="312.2" x2="291.3" y2="312.2"/><line class="cls-2" x1="193.7" y1="223.5" x2="193.7" y2="308.2"/><line class="cls-6" x1="193.8" y1="310.5" x2="193.8" y2="307.1"/><line class="cls-6" x1="195.5" y1="312.3" x2="200.5" y2="312.3"/><path class="cls-6" d="M289.2,462.2a2.1,2.1,0,0,0,2.1,2.1" transform="translate(-95.4 -152)"/><path class="cls-5" d="M274.5,489.2c0,1.4,10.4,2.8,20.8,2.8" transform="translate(-95.4 -152)"/><path class="cls-2" d="M274.1,470.7c0,1.3,15,4.7,20.8,4.7" transform="translate(-95.4 -152)"/><line class="cls-7" x1="186.5" y1="299.8" x2="234.4" y2="300.4"/><path class="cls-8" d="M284.5,451.8c-3.2,0-8.1,0-10.3,2.8" transform="translate(-95.4 -152)"/><path class="cls-8" d="M274.2,464.2" transform="translate(-95.4 -152)"/><path class="cls-8" d="M277.7,452.4" transform="translate(-95.4 -152)"/><path class="cls-2" d="M274.5,454.4a19.1,19.1,0,0,1-6.3-.3" transform="translate(-95.4 -152)"/><path class="cls-2" d="M358,449.4a9.3,9.3,0,1,1-9.3-9.3A9.3,9.3,0,0,1,358,449.4Z" transform="translate(-95.4 -152)"/><rect class="cls-3" x="248.7" y="279.5" width="9.1" height="16.25"/><path class="cls-2" d="M353.8,329c2.8,0,5-1.8,5-4.1s-2.2-4.2-5-4.2" transform="translate(-95.4 -152)"/><line class="cls-2" x1="247.2" y1="186.8" x2="247.2" y2="216.6"/><line class="cls-6" x1="247.2" y1="216.8" x2="247.2" y2="214"/><line class="cls-6" x1="245.6" y1="218.3" x2="241" y2="218.3"/><path class="cls-6" d="M342.6,368.6a1.8,1.8,0,0,1-1.9,1.7" transform="translate(-95.4 -152)"/><line class="cls-6" x1="199.9" y1="218.3" x2="245.6" y2="218.3"/><line class="cls-6" x1="193.7" y1="220.1" x2="193.7" y2="223.5"/><line class="cls-6" x1="195.5" y1="218.3" x2="200.5" y2="218.3"/><path class="cls-6" d="M289.2,372.4a2,2,0,0,1,2-2.1" transform="translate(-95.4 -152)"/><line class="cls-6" x1="247.2" y1="186.6" x2="247.2" y2="189.9"/><line class="cls-6" x1="245.5" y1="184.7" x2="240.5" y2="184.7"/><path class="cls-6" d="M342.7,338.8a2.1,2.1,0,0,0-2.1-2.1" transform="translate(-95.4 -152)"/><line class="cls-2" x1="172.5" y1="184.7" x2="240.5" y2="184.7"/><path class="cls-2" d="M260.1,330.5c0,4.3,2.4,6.2,7.9,6.2" transform="translate(-95.4 -152)"/><path class="cls-2" d="M260.1,339.8c0-4.3,2.4-6.2,7.9-6.2" transform="translate(-95.4 -152)"/><line class="cls-2" x1="172" y1="181.4" x2="221.7" y2="180.2"/><path class="cls-2" d="M325,326c0,4.2-2.5,6.1-7.9,6.1" transform="translate(-95.4 -152)"/><line class="cls-2" x1="229.6" y1="174" x2="229.1" y2="138.9"/><line class="cls-2" x1="237" y1="132.7" x2="253.7" y2="133.1"/><path class="cls-2" d="M324.5,290.9c0-4.3,2.5-6.2,7.9-6.2" transform="translate(-95.4 -152)"/><path class="cls-2" d="M354.3,291.1c0-4.2-2.5-6.1-7.9-6.1" transform="translate(-95.4 -152)"/><path class="cls-2" d="M255.4,161.8a9.3,9.3,0,1,1-9.3-9.3A9.3,9.3,0,0,1,255.4,161.8Z" transform="translate(-95.4 -152)"/><polygon class="cls-3" points="163.2 11.4 158.2 20.1 145.9 13 150.9 4.2 163.2 11.4"/><path class="cls-2" d="M248.8,170.5c22.2,13.5,44.4,26.8,67,39.5,6.3,3.6,12.7,7.1,19.2,10.6" transform="translate(-95.4 -152)"/><path class="cls-2" d="M254.8,160.4l91.4,55.3,25.7,15.6" transform="translate(-95.4 -152)"/><path class="cls-2" d="M338.4,223.2c10.7,7,14.7,21.2,15.7,33.2" transform="translate(-95.4 -152)"/><line class="cls-2" x1="237" y1="66.9" x2="243" y2="71.2"/><line class="cls-2" x1="272.9" y1="96.1" x2="272.9" y2="249.4"/><line class="cls-2" x1="284.3" y1="96.1" x2="284.3" y2="249.4"/><path class="cls-2" d="M368.3,401.4a5.7,5.7,0,1,0,11.4,0" transform="translate(-95.4 -152)"/><path class="cls-2" d="M368.2,248.4c0-4.2-2.5-6.2-7.9-6.2" transform="translate(-95.4 -152)"/><path class="cls-2" d="M386.5,238.8a9.3,9.3,0,1,1-9.3-9.3A9.3,9.3,0,0,1,386.5,238.8Z" transform="translate(-95.4 -152)"/><rect class="cls-3" x="367.5" y="232.8" width="7.9" height="16.08" transform="translate(-166.6 81.4) rotate(-32)"/><path class="cls-2" d="M392.5,458.2a5.9,5.9,0,0,1-5.7,6" transform="translate(-95.4 -152)"/><path class="cls-2" d="M403.9,469.9a5.7,5.7,0,0,1-5.7,5.9" transform="translate(-95.4 -152)"/><path class="cls-2" d="M392.5,360.1a5.7,5.7,0,1,1,11.4,0" transform="translate(-95.4 -152)"/><path class="cls-2" d="M260.2,238.9c0-4.2-2.5-6.1-7.9-6.1" transform="translate(-95.4 -152)"/><path class="cls-2" d="M216.7,238.9c0-4.2,2.5-6.1,7.9-6.1" transform="translate(-95.4 -152)"/><path class="cls-2" d="M205.4,231.7c0-4.2,2.5-6.2,7.9-6.2" transform="translate(-95.4 -152)"/><path class="cls-2" d="M249.1,232.2c0-4.2-2.5-6.2-7.9-6.2" transform="translate(-95.4 -152)"/><path class="cls-2" d="M161.7,346c0-6.4,5.1-13,10.2-13" transform="translate(-95.4 -152)"/><path class="cls-2" d="M182.9,344.7c-7.7,0-9.9,3.2-9.9,14.2" transform="translate(-95.4 -152)"/><path class="cls-2" d="M204.9,346.4c0-6.4-5.1-12.9-10.2-12.9" transform="translate(-95.4 -152)"/><path class="cls-2" d="M205,332.3c0,6.5-5.1,13-10.2,13" transform="translate(-95.4 -152)"/><path class="cls-2" d="M200.8,289.3c-1-3.8-3.1-6.3-5.4-6.3s-4,2.8-4.3,3.3c-2.5,4.6-.8,10.9-.6,11.9s1.1,4.1,2.7,5.1,4.3-.4,5.5-2.2a12.3,12.3,0,0,0,1.9-4.9" transform="translate(-95.4 -152)"/><path class="cls-2" d="M200.1,296.2c1.3,0,5-12.5,5-17.2" transform="translate(-95.4 -152)"/><path class="cls-2" d="M200.5,289.3c1.3,0,4.5,12,4.5,16.6" transform="translate(-95.4 -152)"/><line class="cls-9" x1="66.4" y1="214.7" x2="77.6" y2="214.7"/><line class="cls-9" x1="66.4" y1="220.8" x2="77.6" y2="220.8"/><line class="cls-9" x1="66.4" y1="227.7" x2="77.6" y2="227.7"/><line class="cls-10" x1="110.3" y1="279.6" x2="116" y2="269.9"/><line class="cls-10" x1="115.9" y1="282.7" x2="121.5" y2="272.9"/><line class="cls-10" x1="121.1" y1="285.7" x2="126.7" y2="276"/><line class="cls-10" x1="127.1" y1="289.1" x2="132.7" y2="279.4"/><line class="cls-11" x1="132.9" y1="292.8" x2="138.5" y2="283.1"/><line class="cls-11" x1="138.4" y1="295.9" x2="144" y2="286.1"/><line class="cls-11" x1="143.6" y1="298.9" x2="149.2" y2="289.2"/><line class="cls-11" x1="149.6" y1="302.3" x2="155.2" y2="292.6"/><line class="cls-11" x1="154.7" y1="305.8" x2="160.3" y2="296.1"/><line class="cls-11" x1="160.7" y1="309.3" x2="166.3" y2="299.6"/><line class="cls-12" x1="200.8" y1="323.6" x2="200.8" y2="312.4"/><line class="cls-12" x1="207.1" y1="323.5" x2="207.1" y2="312.2"/><line class="cls-12" x1="213.2" y1="323.5" x2="213.2" y2="312.2"/><line class="cls-12" x1="220.1" y1="323.5" x2="220.1" y2="312.2"/><line class="cls-12" x1="225.5" y1="323.5" x2="225.5" y2="312.3"/><line class="cls-12" x1="231.9" y1="323.4" x2="231.9" y2="312.2"/><line class="cls-12" x1="237.9" y1="323.4" x2="237.9" y2="312.2"/><line class="cls-12" x1="244.8" y1="323.4" x2="244.8" y2="312.2"/><line class="cls-12" x1="251.1" y1="323.7" x2="251.1" y2="312.4"/><line class="cls-12" x1="257.4" y1="323.5" x2="257.4" y2="312.3"/><line class="cls-12" x1="263.4" y1="323.5" x2="263.4" y2="312.3"/><line class="cls-12" x1="270.3" y1="323.5" x2="270.3" y2="312.3"/><line class="cls-12" x1="275.6" y1="323.5" x2="275.6" y2="312.2"/><line class="cls-12" x1="281.9" y1="323.3" x2="281.9" y2="312.1"/><line class="cls-13" x1="285" y1="210.5" x2="296.2" y2="210.5"/><line class="cls-13" x1="285.1" y1="216.8" x2="296.4" y2="216.8"/><line class="cls-13" x1="285.1" y1="222.9" x2="296.4" y2="222.9"/><line class="cls-13" x1="285.1" y1="229.8" x2="296.4" y2="229.8"/><line class="cls-13" x1="284.9" y1="235.4" x2="296.2" y2="235.4"/><line class="cls-13" x1="285.1" y1="241.7" x2="296.3" y2="241.7"/><line class="cls-14" x1="247.4" y1="191.8" x2="258.6" y2="191.8"/><line class="cls-14" x1="247.5" y1="198.1" x2="258.7" y2="198.1"/><line class="cls-14" x1="247.5" y1="204.1" x2="258.7" y2="204.1"/><line class="cls-14" x1="247.5" y1="211" x2="258.7" y2="211"/><line class="cls-15" x1="247.3" y1="235.7" x2="258.5" y2="235.7"/><line class="cls-15" x1="247.4" y1="242" x2="258.7" y2="242"/><line class="cls-15" x1="247.4" y1="248" x2="258.7" y2="248"/><line class="cls-15" x1="247.4" y1="254.9" x2="258.7" y2="254.9"/><line class="cls-15" x1="248" y1="261" x2="259.2" y2="261"/><line class="cls-15" x1="248.1" y1="267.4" x2="259.4" y2="267.4"/><line class="cls-15" x1="248.1" y1="273.4" x2="259.4" y2="273.4"/><line class="cls-16" x1="110" y1="86.4" x2="121.2" y2="86.4"/><line class="cls-16" x1="110.1" y1="92.7" x2="121.3" y2="92.7"/><line class="cls-16" x1="110.1" y1="98.8" x2="121.3" y2="98.8"/><line class="cls-16" x1="110.1" y1="105.7" x2="121.3" y2="105.7"/><line class="cls-16" x1="109.8" y1="112.4" x2="121.1" y2="112.4"/><line class="cls-16" x1="110" y1="118.7" x2="121.2" y2="118.7"/><line class="cls-16" x1="110" y1="124.8" x2="121.2" y2="124.8"/><line class="cls-16" x1="109.9" y1="154.8" x2="121.1" y2="154.8"/><line class="cls-16" x1="110" y1="161.1" x2="121.3" y2="161.1"/><line class="cls-16" x1="110" y1="167.1" x2="121.3" y2="167.1"/><line class="cls-16" x1="110" y1="174.1" x2="121.3" y2="174.1"/><line class="cls-9" x1="110" y1="197.3" x2="121.2" y2="197.3"/><line class="cls-9" x1="110.1" y1="203.6" x2="121.3" y2="203.6"/><line class="cls-9" x1="110.1" y1="209.6" x2="121.3" y2="209.6"/><line class="cls-9" x1="110.1" y1="216.6" x2="121.3" y2="216.6"/><line class="cls-9" x1="110.5" y1="222.5" x2="121.7" y2="222.5"/><line class="cls-9" x1="110.5" y1="229.4" x2="121.7" y2="229.4"/><line class="cls-17" x1="153.7" y1="96.1" x2="164.9" y2="96.1"/><line class="cls-17" x1="153.8" y1="102.4" x2="165.1" y2="102.4"/><line class="cls-17" x1="153.8" y1="108.4" x2="165.1" y2="108.4"/><line class="cls-17" x1="153.8" y1="115.3" x2="165.1" y2="115.3"/><line class="cls-18" x1="153.5" y1="144.3" x2="164.7" y2="144.3"/><line class="cls-18" x1="153.6" y1="150.6" x2="164.9" y2="150.6"/><line class="cls-18" x1="153.6" y1="156.7" x2="164.9" y2="156.7"/><line class="cls-18" x1="153.6" y1="163.6" x2="164.9" y2="163.6"/><line class="cls-18" x1="153.4" y1="169.6" x2="164.7" y2="169.6"/><line class="cls-18" x1="153.6" y1="175.9" x2="164.8" y2="175.9"/><line class="cls-19" x1="153.4" y1="191.1" x2="164.6" y2="191.1"/><line class="cls-19" x1="153.5" y1="197.4" x2="164.7" y2="197.4"/><line class="cls-19" x1="153.5" y1="203.4" x2="164.7" y2="203.4"/><line class="cls-19" x1="153.5" y1="210.3" x2="164.7" y2="210.3"/><line class="cls-19" x1="153.4" y1="217.1" x2="164.6" y2="217.1"/><line class="cls-19" x1="153.5" y1="223.4" x2="164.7" y2="223.4"/><line class="cls-19" x1="153.5" y1="229.4" x2="164.7" y2="229.4"/><line class="cls-19" x1="153.5" y1="236.3" x2="164.7" y2="236.3"/><line class="cls-19" x1="153.3" y1="242.9" x2="164.5" y2="242.9"/><line class="cls-19" x1="153.4" y1="249.2" x2="164.7" y2="249.2"/><line class="cls-20" x1="189.5" y1="102.1" x2="189.5" y2="90.9"/><line class="cls-20" x1="195.8" y1="102" x2="195.8" y2="90.8"/><line class="cls-20" x1="201.9" y1="102" x2="201.9" y2="90.8"/><line class="cls-20" x1="208.8" y1="102" x2="208.8" y2="90.8"/><line class="cls-20" x1="215.1" y1="101.8" x2="215.1" y2="90.5"/><line class="cls-20" x1="221.4" y1="101.6" x2="221.4" y2="90.4"/><line class="cls-21" x1="160.2" y1="22.7" x2="165.8" y2="13"/><line class="cls-21" x1="165.7" y1="25.8" x2="171.4" y2="16.1"/><line class="cls-21" x1="171" y1="28.8" x2="176.6" y2="19.1"/><line class="cls-21" x1="177" y1="32.3" x2="182.6" y2="22.5"/><line class="cls-21" x1="182.2" y1="35.5" x2="187.8" y2="25.8"/><line class="cls-21" x1="187.7" y1="38.5" x2="193.3" y2="28.8"/><line class="cls-21" x1="192.9" y1="41.6" x2="198.5" y2="31.8"/><line class="cls-21" x1="198.9" y1="45" x2="204.5" y2="35.3"/><line class="cls-22" x1="204.5" y1="49" x2="210.1" y2="39.2"/><line class="cls-22" x1="210.1" y1="52" x2="215.7" y2="42.3"/><line class="cls-22" x1="215.3" y1="55" x2="220.9" y2="45.3"/><line class="cls-22" x1="221.3" y1="58.5" x2="226.9" y2="48.8"/><line class="cls-22" x1="226.3" y1="62.3" x2="231.9" y2="52.6"/><line class="cls-22" x1="231.8" y1="65.4" x2="237.4" y2="55.6"/><line class="cls-23" x1="247.2" y1="144.3" x2="258.4" y2="144.3"/><line class="cls-23" x1="247.4" y1="150.6" x2="258.6" y2="150.6"/><line class="cls-23" x1="247.4" y1="156.7" x2="258.6" y2="156.7"/><line class="cls-23" x1="247.4" y1="163.6" x2="258.6" y2="163.6"/><line class="cls-24" x1="246.8" y1="108.4" x2="258" y2="108.4"/><line class="cls-24" x1="246.9" y1="114.7" x2="258.1" y2="114.7"/><line class="cls-25" x1="272.9" y1="117.4" x2="284.1" y2="117.4"/><line class="cls-25" x1="273" y1="123.7" x2="284.3" y2="123.7"/><line class="cls-25" x1="273" y1="129.7" x2="284.3" y2="129.7"/><line class="cls-25" x1="273" y1="136.7" x2="284.3" y2="136.7"/><line class="cls-25" x1="272.9" y1="142.1" x2="284.1" y2="142.1"/><line class="cls-25" x1="273" y1="148.4" x2="284.3" y2="148.4"/><line class="cls-25" x1="273" y1="154.5" x2="284.3" y2="154.5"/><line class="cls-25" x1="273" y1="161.4" x2="284.3" y2="161.4"/><line class="cls-25" x1="273.1" y1="168.4" x2="284.3" y2="168.4"/><line class="cls-25" x1="273.2" y1="174.7" x2="284.4" y2="174.7"/><text class="cls-26" transform="translate(117.4 307.1)">P2</text><text class="cls-27" transform="translate(3.5 120.3)"><tspan xml:space="preserve"> </tspan></text><text class="cls-28" transform="translate(246.2 342.8)">P2.1</text><text class="cls-29" transform="translate(259.6 206.1)">P3</text><text class="cls-30" transform="translate(261.6 265.1)">P8</text><text x="-95.4" y="-152"/><text class="cls-31" transform="translate(260.1 151.3)">P7</text><text class="cls-32" transform="translate(134.9 109)">P5</text><text class="cls-33" transform="translate(133.6 164.1)">P4</text><text class="cls-34" transform="translate(86.3 160.9)">P5a</text><text class="cls-34" transform="translate(89.3 216.7)">P5b</text><text class="cls-34" transform="translate(42.6 217.4)">P5c</text><text class="cls-35" transform="translate(134.3 196.7)">P6</text><text class="cls-35" transform="translate(166.9 213.7)">P6a</text><text class="cls-35" transform="translate(167.9 238.1)">P6b</text><text class="cls-36" transform="translate(69.1 275.6)">P14</text><text class="cls-37" transform="translate(310.9 225.5)">P13</text><text class="cls-38" transform="translate(193.5 83.4)">P9</text><text class="cls-39" transform="translate(225.5 114.9)">P9a</text><text class="cls-40" transform="translate(208.8 25.2)">P9.2</text><text class="cls-41" transform="translate(292.4 130.6)">P9.1</text><text class="cls-42" transform="translate(292 167.5)">P9.1a</text><text x="-95.4" y="-152"/><text class="cls-43" transform="translate(195.4 292.8)">apo L-21 IGS</text><path class="cls-44" d="M198.1,350.5c3.2,0,3.2-5,0-5s-3.2,5,0,5Z" transform="translate(-95.4 -152)"/><path class="cls-44" d="M198.8,350.1c3.2,0,3.3-5,0-5s-3.2,5,0,5Z" transform="translate(-95.4 -152)"/><path class="cls-44" d="M198.4,350.2c3.2,0,3.2-5,0-5s-3.2,5,0,5Z" transform="translate(-95.4 -152)"/><path class="cls-44" d="M197.7,345.7h-.1a1.8,1.8,0,0,0-1,.2l-.8.5a2.2,2.2,0,0,0-.5.8,3,3,0,0,0-.2,1v.6a2,2,0,0,0,.6,1.1l.5.4a2,2,0,0,0,1.3.4h.1l.9-.2a1.2,1.2,0,0,0,.8-.6,1.6,1.6,0,0,0,.6-.8,2.9,2.9,0,0,0,.2-.9v-.7a1.9,1.9,0,0,0-.7-1.1l-.5-.4a2.4,2.4,0,0,0-1.2-.3Z" transform="translate(-95.4 -152)"/><path class="cls-44" d="M197.5,350.5c3.2,0,3.2-5,0-5s-3.3,5,0,5Z" transform="translate(-95.4 -152)"/><path class="cls-44" d="M195.3,350.7c3.3,0,3.3-5,0-5s-3.2,5,0,5Z" transform="translate(-95.4 -152)"/><path class="cls-44" d="M194.9,350.7c3.2,0,3.2-5,0-5s-3.2,5,0,5Z" transform="translate(-95.4 -152)"/><path class="cls-44" d="M195.8,350.7c3.2,0,3.2-5,0-5s-3.3,5,0,5Z" transform="translate(-95.4 -152)"/><path class="cls-44" d="M197.5,350.4c3.2,0,3.2-5,0-5s-3.3,5,0,5Z" transform="translate(-95.4 -152)"/><path class="cls-44" d="M197.7,350.4c3.2,0,3.2-5,0-5s-3.2,5,0,5Z" transform="translate(-95.4 -152)"/><path class="cls-44" d="M198.1,350.2c3.3,0,3.3-5,0-5s-3.2,5,0,5Z" transform="translate(-95.4 -152)"/><path class="cls-44" d="M196.1,350.7c3.3,0,3.3-5,0-5s-3.2,5,0,5Z" transform="translate(-95.4 -152)"/><path class="cls-44" d="M195,350.7c3.3,0,3.3-5,0-5s-3.2,5,0,5Z" transform="translate(-95.4 -152)"/><path class="cls-44" d="M195,350.7c3.2,0,3.2-5,0-5s-3.3,5,0,5Z" transform="translate(-95.4 -152)"/><path class="cls-44" d="M194.9,350.7c3.2,0,3.2-5,0-5s-3.3,5,0,5Z" transform="translate(-95.4 -152)"/><path class="cls-44" d="M194.7,350.7c3.2,0,3.2-5,0-5s-3.2,5,0,5Z" transform="translate(-95.4 -152)"/><path class="cls-44" d="M194.4,350.6c3.3,0,3.3-5,0-5s-3.2,5,0,5Z" transform="translate(-95.4 -152)"/><path class="cls-44" d="M194.8,350.8c3.2,0,3.3-5,0-5s-3.2,5,0,5Z" transform="translate(-95.4 -152)"/><path class="cls-44" d="M194.7,350.6c3.3,0,3.3-5,0-5s-3.2,5,0,5Z" transform="translate(-95.4 -152)"/><path class="cls-44" d="M207.8,304.4c3.2,0,3.2-5,0-5s-3.2,5,0,5Z" transform="translate(-95.4 -152)"/><path class="cls-44" d="M207.8,304.5c3.2,0,3.2-5,0-5s-3.3,5,0,5Z" transform="translate(-95.4 -152)"/><path class="cls-44" d="M207.8,304.7c3.2,0,3.2-5,0-5s-3.2,5,0,5Z" transform="translate(-95.4 -152)"/><path class="cls-44" d="M207.8,304.7c3.2,0,3.2-5,0-5s-3.2,5,0,5Z" transform="translate(-95.4 -152)"/><path class="cls-44" d="M206,300.2h-.1a2.2,2.2,0,0,0-.5.8,1.5,1.5,0,0,0-.2.9,1.6,1.6,0,0,0,.2,1,2.2,2.2,0,0,0,.5.8l.5.4a2.8,2.8,0,0,0,1.3.3h.6a3,3,0,0,0,1.1-.7h.1a3.5,3.5,0,0,0,.5-.8,2.6,2.6,0,0,0,0-2,3.5,3.5,0,0,0-.5-.8l-.5-.4a2.8,2.8,0,0,0-1.3-.3h-.6a2,2,0,0,0-1.1.6Z" transform="translate(-95.4 -152)"/><path class="cls-44" d="M209,300.3h-1.5l-.4.2h-.3l-.5.4a.1.1,0,0,0-.1.1h0l-.4.5h0a3.5,3.5,0,0,0-.3,2,1.4,1.4,0,0,0,.5.8,1.6,1.6,0,0,0,.7.7l.6.2h1.3l.6-.2a3.8,3.8,0,0,0,.9-.9h0l-.4.5h.1l-.5.4c0-.1,0-.1.1-.1l-.6.3h-1.1a1.7,1.7,0,0,0,1,.1,1.6,1.6,0,0,0,.9-.3,2.3,2.3,0,0,0,.7-.7,2.2,2.2,0,0,0,.5-.8v-.7a2.8,2.8,0,0,0-.4-1.2l-.4-.5a2.6,2.6,0,0,0-1.1-.7Z" transform="translate(-95.4 -152)"/><path class="cls-44" d="M207.9,305.4c3.2,0,3.2-5,0-5s-3.3,5,0,5Z" transform="translate(-95.4 -152)"/><path class="cls-44" d="M207.9,305.4c3.2,0,3.2-5,0-5s-3.3,5,0,5Z" transform="translate(-95.4 -152)"/><path class="cls-44" d="M206.3,304.1h0l-.4-.5h.1l-.3-.6h.1v-.6h0v-.5l.3-.6h-.1l-.3,1a3.8,3.8,0,0,0,.1,1,2,2,0,0,0,.4.8,1.3,1.3,0,0,0,.7.6l.6.3h1.4l.6-.3.9-.9h0l.2-.6a.1.1,0,0,0,.1-.1V303c0-.1.1-.2.1-.3h0a1.7,1.7,0,0,1-.1-.7h0l-.3-.6h-.1l-.4-.5h0a1.6,1.6,0,0,0-.8-.6l-1-.2-.9.2a1.6,1.6,0,0,0-.8.6l-.4.5a2.8,2.8,0,0,0-.4,1.2v.7a2.6,2.6,0,0,0,.7,1.1Z" transform="translate(-95.4 -152)"/><path class="cls-44" d="M245.3,225.7c3.3,0,3.3-5,0-5s-3.2,5,0,5Z" transform="translate(-95.4 -152)"/><path class="cls-44" d="M245.5,225.8c3.2,0,3.2-5,0-5s-3.3,5,0,5Z" transform="translate(-95.4 -152)"/><path class="cls-44" d="M246,226.1c3.2,0,3.2-5,0-5s-3.2,5,0,5Z" transform="translate(-95.4 -152)"/><path class="cls-44" d="M244.7,225.5c3.2,0,3.2-5,0-5s-3.2,5,0,5Z" transform="translate(-95.4 -152)"/><path class="cls-44" d="M244.7,225.6c3.2,0,3.2-5,0-5s-3.3,5,0,5Z" transform="translate(-95.4 -152)"/><path class="cls-44" d="M244.6,225.6h.8v-5h-.5v5h-.1l.6-4.9h-.1a1.8,1.8,0,0,0-1,.2l-.8.5a2.2,2.2,0,0,0-.5.8,3,3,0,0,0-.2,1v.6a2,2,0,0,0,.6,1.1l.5.4a2,2,0,0,0,1.3.4h.1l1-.2a2.4,2.4,0,0,0,.8-.6l.4-.5a1.6,1.6,0,0,0,.3-.9.8.8,0,0,0,0-.7,1.6,1.6,0,0,0-.3-.9l-.4-.5a2.4,2.4,0,0,0-1.1-.6h-1.2l-1,.2-.8.5a3.5,3.5,0,0,0-.5.8,3,3,0,0,0-.2,1v.7a3,3,0,0,0,.6,1.1l.5.4a2.8,2.8,0,0,0,1.3.3h.5l.9-.2.8-.5a1.8,1.8,0,0,0,.5-.8,1.9,1.9,0,0,0,.3-1v-.7a4.1,4.1,0,0,0-.7-1.1l-.5-.4-1.2-.3h-.8l-.9.2a1.6,1.6,0,0,0-.8.6,1.1,1.1,0,0,0-.5.8,1.6,1.6,0,0,0-.3.9v.7a4.1,4.1,0,0,0,.7,1.1l.5.4,1.2.3Z" transform="translate(-95.4 -152)"/><path class="cls-44" d="M245.3,225.8c3.2,0,3.2-5,0-5s-3.3,5,0,5Z" transform="translate(-95.4 -152)"/><path class="cls-44" d="M245.9,220.9h-1.1a1.5,1.5,0,0,0-.9.2,1.6,1.6,0,0,0-.8.5,1.6,1.6,0,0,0-.6.8,3,3,0,0,0-.2,1v.6a1.6,1.6,0,0,0,.7,1.1l.5.4a1.7,1.7,0,0,0,1.2.4h.2l1-.2a2.1,2.1,0,0,0,.8-.6,2.2,2.2,0,0,0,.5-.8,2.9,2.9,0,0,0,.2-.9v-.7a2.4,2.4,0,0,0-.6-1.1l-.5-.4a2.8,2.8,0,0,0-1.3-.3h-.2v5h.8l.9-.3a2.3,2.3,0,0,0,.7-.7,2.2,2.2,0,0,0,.5-.8v-.7a2.5,2.5,0,0,0-.4-1.2l-.4-.5a1.9,1.9,0,0,0-1.1-.7Z" transform="translate(-95.4 -152)"/><path class="cls-44" d="M255.3,232.5c3.2,0,3.2-5,0-5s-3.2,5,0,5Z" transform="translate(-95.4 -152)"/><path class="cls-44" d="M255.3,232.5c3.2,0,3.2-5,0-5s-3.2,5,0,5Z" transform="translate(-95.4 -152)"/><path class="cls-44" d="M254.5,232.2c3.2,0,3.3-5,0-5s-3.2,5,0,5Z" transform="translate(-95.4 -152)"/><path class="cls-44" d="M254.4,232.2c3.3,0,3.3-5,0-5s-3.2,5,0,5Z" transform="translate(-95.4 -152)"/><path class="cls-44" d="M254.2,232.2c3.2,0,3.2-5,0-5s-3.2,5,0,5Z" transform="translate(-95.4 -152)"/><path class="cls-44" d="M254.2,232.3c3.3,0,3.3-5,0-5s-3.2,5,0,5Z" transform="translate(-95.4 -152)"/><path class="cls-44" d="M249.7,288.2c3.2,0,3.2-5,0-5s-3.2,5,0,5Z" transform="translate(-95.4 -152)"/><path class="cls-44" d="M247.9,287.9l.3.2,1.3-4.6H249l-1,.2a1.6,1.6,0,0,0-.8.6,1.1,1.1,0,0,0-.5.8,1,1,0,0,0-.2.9v.7a4.1,4.1,0,0,0,.7,1.1l.5.4a2.8,2.8,0,0,0,1.3.3h1.2a1.4,1.4,0,0,0,.8-.5,1,1,0,0,0,.5-.4,2.5,2.5,0,0,0,.4-.9v-1.3a2,2,0,0,0-.4-.8,2.3,2.3,0,0,0-.7-.7l-.4-.2a1.6,1.6,0,0,0-.9-.3,1.7,1.7,0,0,0-1,0l-.9.5-.6.7-.2.6a1.5,1.5,0,0,0,0,1.3l.2.6a2,2,0,0,0,.9.9Z" transform="translate(-95.4 -152)"/><path class="cls-44" d="M248.7,288.4c3.2,0,3.2-5,0-5s-3.2,5,0,5Z" transform="translate(-95.4 -152)"/><path class="cls-44" d="M246.9,287.5a.1.1,0,0,1,.1.1l.6.4a.1.1,0,0,0,.1.1l.7.3h.8l-.6-4.9h1.2l.6.2h0l.5.4h0v3.5h0l-.5.4.9-.5-.6.2h.2a1.8,1.8,0,0,0,.9-.4l.6-.7a1.6,1.6,0,0,0,.3-.9,1.1,1.1,0,0,0-.1-1l-.2-.6a2,2,0,0,0-.9-.9l-.6-.3h-1.3l-.9.4h-.3l-1.1.8a2.2,2.2,0,0,0-.5.8,3,3,0,0,0-.2,1v.6a2.4,2.4,0,0,0,.6,1.1l.3.2.3.2.3.2h1.7l.9-.4.6-.7.3-.6a1.7,1.7,0,0,0,0-1,1.4,1.4,0,0,0-.2-.7,1.4,1.4,0,0,0-.5-.8l-.5-.4a2.8,2.8,0,0,0-1.3-.3h.4l.6.3a.1.1,0,0,0-.1-.1l.5.4h-.1a1.8,1.8,0,0,0-.8-.5,1.8,1.8,0,0,0-2,0,1.8,1.8,0,0,0-.8.5l-.4.5a2.7,2.7,0,0,0-.3,1.2v.7a2.4,2.4,0,0,0,.6,1.1Z" transform="translate(-95.4 -152)"/><path class="cls-44" d="M336.6,325.3c3.2,0,3.2-5,0-5s-3.2,5,0,5Z" transform="translate(-95.4 -152)"/><path class="cls-44" d="M336.3,325.1h.1a1.6,1.6,0,0,0,.9-.3,2.1,2.1,0,0,0,1.3-1.3,1.6,1.6,0,0,0,.3-.9v-.7a2.6,2.6,0,0,0-.7-1.1l-.5-.4a2.7,2.7,0,0,0-1.2-.3h-.1a1,1,0,0,0-.9.2,1.1,1.1,0,0,0-.8.5,1.6,1.6,0,0,0-.6.8,3,3,0,0,0-.2,1v.6a1.9,1.9,0,0,0,.7,1.1l.5.4a2.5,2.5,0,0,0,1.2.4Z" transform="translate(-95.4 -152)"/><path class="cls-44" d="M336.9,325.2c3.2,0,3.2-5,0-5s-3.3,5,0,5Z" transform="translate(-95.4 -152)"/><path class="cls-44" d="M337.2,325.2c3.2,0,3.2-5,0-5s-3.2,5,0,5Z" transform="translate(-95.4 -152)"/><path class="cls-44" d="M336.9,325.2c3.2,0,3.2-5,0-5s-3.2,5,0,5Z" transform="translate(-95.4 -152)"/><path class="cls-44" d="M335.8,324.8a3.2,3.2,0,0,0,2.3.5h1.5l3,.2v-5l-3.8.2a2.2,2.2,0,0,0-1.7.7,2.5,2.5,0,0,0-.8,1.8,2.7,2.7,0,0,0,.8,1.7,2.3,2.3,0,0,0,1.7.8l3.8-.2a3,3,0,0,0,1.8-.8,2.6,2.6,0,0,0,.7-1.7,2.4,2.4,0,0,0-2.5-2.5l-2.6-.2h-2l.6.2h-.3a2.5,2.5,0,0,0-1.9-.2,2.4,2.4,0,0,0-1.5,1.1,2.5,2.5,0,0,0,.9,3.4Z" transform="translate(-95.4 -152)"/><path class="cls-44" d="M339.5,319.1c3.2,0,3.2-5,0-5s-3.2,5,0,5Z" transform="translate(-95.4 -152)"/><path class="cls-44" d="M338.1,319.1c3.3,0,3.3-5,0-5s-3.2,5,0,5Z" transform="translate(-95.4 -152)"/><path class="cls-44" d="M336.6,312.5h-.1a1.3,1.3,0,0,0-.9.2,2.6,2.6,0,0,0-.9.5,2.2,2.2,0,0,0-.5.8,3,3,0,0,0-.2,1v.6a2,2,0,0,0,.6,1.1l.6.4a1.7,1.7,0,0,0,1.2.4h.1l1-.2a1.6,1.6,0,0,0,.8-.6,1.1,1.1,0,0,0,.5-.8,1,1,0,0,0,.2-.9v-.7a4.1,4.1,0,0,0-.7-1.1l-.5-.4a2.8,2.8,0,0,0-1.3-.3Z" transform="translate(-95.4 -152)"/><path class="cls-44" d="M335.3,318.6l.7.3h1.1a1.6,1.6,0,0,0,1-.2l.8-.5a2.2,2.2,0,0,0,.5-.8,1.6,1.6,0,0,0,.2-1v-.7a3,3,0,0,0-.6-1.1l-.5-.3a2,2,0,0,0-1.3-.4h.2l.5.3h0a1.4,1.4,0,0,0-.9-.3,1.7,1.7,0,0,0-1,0,1.4,1.4,0,0,0-.8.5,1.6,1.6,0,0,0-.7.7l-.2.6a1.5,1.5,0,0,0,0,1.3l.2.6a2,2,0,0,0,.9.9Z" transform="translate(-95.4 -152)"/><path class="cls-44" d="M338.2,318.9c3.3,0,3.3-5,0-5s-3.2,5,0,5Z" transform="translate(-95.4 -152)"/><path class="cls-44" d="M338.2,319c3.3,0,3.3-5,0-5s-3.2,5,0,5Z" transform="translate(-95.4 -152)"/><path class="cls-44" d="M338.4,319c3.3,0,3.3-5,0-5s-3.2,5,0,5Z" transform="translate(-95.4 -152)"/><path class="cls-44" d="M338.5,319.1c3.2,0,3.3-5,0-5s-3.2,5,0,5Z" transform="translate(-95.4 -152)"/><path class="cls-44" d="M338.3,319.1c3.2,0,3.2-5,0-5s-3.2,5,0,5Z" transform="translate(-95.4 -152)"/><path class="cls-44" d="M337.9,319.1c3.3,0,3.3-5,0-5s-3.2,5,0,5Z" transform="translate(-95.4 -152)"/><path class="cls-44" d="M337.9,319.1c3.3,0,3.3-5,0-5s-3.2,5,0,5Z" transform="translate(-95.4 -152)"/><path class="cls-44" d="M337.8,319.1c3.2,0,3.2-5,0-5s-3.3,5,0,5Z" transform="translate(-95.4 -152)"/><path class="cls-44" d="M335.7,315.6c3.2,0,3.2-5,0-5s-3.2,5,0,5Z" transform="translate(-95.4 -152)"/><path class="cls-44" d="M338.1,325.2c3.3,0,3.3-5,0-5s-3.2,5,0,5Z" transform="translate(-95.4 -152)"/><path class="cls-44" d="M337.6,325.2c3.3,0,3.3-5,0-5s-3.2,5,0,5Z" transform="translate(-95.4 -152)"/><path class="cls-44" d="M337.6,325.2c3.3,0,3.3-5,0-5s-3.2,5,0,5Z" transform="translate(-95.4 -152)"/><path class="cls-44" d="M337.6,325.2c3.3,0,3.3-5,0-5s-3.2,5,0,5Z" transform="translate(-95.4 -152)"/><path class="cls-44" d="M331.4,378.6c3.2,0,3.2-5,0-5s-3.2,5,0,5Z" transform="translate(-95.4 -152)"/><path class="cls-44" d="M331.6,378.7c3.2,0,3.2-5,0-5s-3.2,5,0,5Z" transform="translate(-95.4 -152)"/><path class="cls-44" d="M331.9,378.9c3.3,0,3.3-5,0-5s-3.2,5,0,5Z" transform="translate(-95.4 -152)"/><path class="cls-44" d="M330.8,378.1c3.2,0,3.3-5,0-5s-3.2,5,0,5Z" transform="translate(-95.4 -152)"/><path class="cls-44" d="M330.4,377.4c3.2,0,3.2-5,0-5s-3.2,5,0,5Z" transform="translate(-95.4 -152)"/><path class="cls-44" d="M329.7,377.3h.2a1.7,1.7,0,0,0,1,0,1.6,1.6,0,0,0,.9-.3,1.3,1.3,0,0,0,.7-.6,1.5,1.5,0,0,0,.4-.9V375a2.8,2.8,0,0,0-.3-1.3l-.4-.5a2.4,2.4,0,0,0-1.1-.6h-.1a3.5,3.5,0,0,0-2,.3,1.9,1.9,0,0,0-.7.6,2.5,2.5,0,0,0-.4.9v.6a2.8,2.8,0,0,0,.3,1.3l.4.5a3,3,0,0,0,1.1.6Z" transform="translate(-95.4 -152)"/><path class="cls-44" d="M327.6,374.2v.2a3,3,0,0,0,.2,1,2.2,2.2,0,0,0,.5.8l.8.5a1.8,1.8,0,0,0,1,.2h.7a2.4,2.4,0,0,0,1.1-.6l.4-.5a2.8,2.8,0,0,0,.3-1.3v-.2a3,3,0,0,0-.2-1,2.2,2.2,0,0,0-.5-.8l-.8-.5a1.6,1.6,0,0,0-1-.2h-.7a3,3,0,0,0-1.1.6l-.4.5a2.8,2.8,0,0,0-.3,1.3Z" transform="translate(-95.4 -152)"/><path class="cls-44" d="M339,319.2c3.2,0,3.2-5,0-5s-3.2,5,0,5Z" transform="translate(-95.4 -152)"/><path class="cls-44" d="M339.6,319.2c3.2,0,3.2-5,0-5s-3.3,5,0,5Z" transform="translate(-95.4 -152)"/><rect class="cls-3" x="274" y="82.3" width="9.1" height="16.79"/></svg>