<svg width="310" height="306" xmlns="http://www.w3.org/2000/svg" xmlns:xlink="http://www.w3.org/1999/xlink" overflow="hidden"><defs><clipPath id="clip0"><rect x="601" y="216" width="310" height="306"/></clipPath><clipPath id="clip1"><rect x="602" y="217" width="309" height="305"/></clipPath><clipPath id="clip2"><rect x="602" y="217" width="309" height="305"/></clipPath></defs><g clip-path="url(#clip0)" transform="translate(-601 -216)"><g clip-path="url(#clip1)"><g clip-path="url(#clip2)"><path d="M1305.29 1450.87 1318.25 1450.87" stroke="#3AAA3B" stroke-width="1.28366" fill="none" transform="matrix(1 0 0 1.00072 -562.186 -1071.28)"/><path d="M1305.29 1458.63 1318.25 1458.63" stroke="#3AAA3B" stroke-width="1.28366" fill="none" transform="matrix(1 0 0 1.00072 -562.186 -1071.28)"/><path d="M1305.29 1467.51 1318.25 1467.51" stroke="#3AAA3B" stroke-width="1.28366" fill="none" transform="matrix(1 0 0 1.00072 -562.186 -1071.28)"/><path d="M1291.04 1476.66 1304 1476.66" stroke="#DFC750" stroke-width="1.28366" fill="none" transform="matrix(1 0 0 1.00072 -562.186 -1071.28)"/><path d="M1291.04 1484.43 1304 1484.43" stroke="#DFC750" stroke-width="1.28366" fill="none" transform="matrix(1 0 0 1.00072 -562.186 -1071.28)"/><path d="M1291.04 1493.3 1304 1493.3" stroke="#DFC750" stroke-width="1.28366" fill="none" transform="matrix(1 0 0 1.00072 -562.186 -1071.28)"/><path d="M1291.04 1501.6 1304 1501.6" stroke="#DFC750" stroke-width="1.28366" fill="none" transform="matrix(1 0 0 1.00072 -562.186 -1071.28)"/><path d="M1291.04 1509.36 1304 1509.36" stroke="#DFC750" stroke-width="1.28366" fill="none" transform="matrix(1 0 0 1.00072 -562.186 -1071.28)"/><path d="M1291.04 1518.24 1304 1518.24" stroke="#DFC750" stroke-width="1.28366" fill="none" transform="matrix(1 0 0 1.00072 -562.186 -1071.28)"/><path d="M1318.25 1436.58 1318.25 1474.85" stroke="#000000" stroke-width="1.28366" fill="none" transform="matrix(1 0 0 1.00072 -562.186 -1071.28)"/><path d="M1291.25 1467.81 1291.25 1523.76" stroke="#000000" stroke-width="1.28366" fill="none" transform="matrix(1 0 0 1.00072 -562.186 -1071.28)"/><path d="M1304.62 1523.76 1304.62 1440.26" stroke="#000000" stroke-width="1.28366" fill="none" transform="matrix(1 0 0 1.00072 -562.186 -1071.28)"/><path d="M1289.76 1405.95 1303.2 1405.95" stroke="#E8A5C6" stroke-width="1.28366" fill="none" transform="matrix(1 0 0 1.00072 -562.186 -1071.28)"/><path d="M1289.76 1413.71 1303.2 1413.71" stroke="#E8A5C6" stroke-width="1.28366" fill="none" transform="matrix(1 0 0 1.00072 -562.186 -1071.28)"/><path d="M1289.76 1422.58 1303.2 1422.58" stroke="#E8A5C6" stroke-width="1.28366" fill="none" transform="matrix(1 0 0 1.00072 -562.186 -1071.28)"/><path d="M1318.25 1368.52 1318.25 1393.35" stroke="#000000" stroke-width="1.28366" fill="none" transform="matrix(1 0 0 1.00072 -562.186 -1071.28)"/><path d="M1282.01 1467.86 1282.01 1437.08" stroke="#000000" stroke-width="1.28366" fill="none" transform="matrix(1 0 0 1.00072 -562.186 -1071.28)"/><path d="M1291.89 1467.81 1281.36 1467.81" stroke="#000000" stroke-width="1.28366" fill="none" transform="matrix(1 0 0 1.00072 -562.186 -1071.28)"/><path d="M1282.01 1437.08 1303.85 1427.78" stroke="#000000" stroke-width="1.28366" fill="none" transform="matrix(1 0 0 1.00072 -562.186 -1071.28)"/><path d="M1304.62 1440.26 1289.76 1427.78" stroke="#000000" stroke-width="1.28366" fill="none" transform="matrix(1 0 0 1.00072 -562.186 -1071.28)"/><path d="M1304 1379.89 1317.76 1379.89" stroke="#3AAA3B" stroke-width="1.28366" fill="none" transform="matrix(1 0 0 1.00072 -562.186 -1071.28)"/><path d="M1304 1387.65 1317.76 1387.65" stroke="#3AAA3B" stroke-width="1.28366" fill="none" transform="matrix(1 0 0 1.00072 -562.186 -1071.28)"/><path d="M1289.76 1396.35 1303.2 1396.35" stroke="#E8A5C6" stroke-width="1.28366" fill="none" transform="matrix(1 0 0 1.00072 -562.186 -1071.28)"/><path d="M1345.55 1384.13 1358.51 1384.13" stroke="#D34941" stroke-width="1.28366" fill="none" transform="matrix(1 0 0 1.00072 -562.186 -1071.28)"/><path d="M1345.55 1391.89 1358.51 1391.89" stroke="#D34941" stroke-width="1.28366" fill="none" transform="matrix(1 0 0 1.00072 -562.186 -1071.28)"/><path d="M1345.55 1400.77 1358.51 1400.77" stroke="#D34941" stroke-width="1.28366" fill="none" transform="matrix(1 0 0 1.00072 -562.186 -1071.28)"/><path d="M1345.55 1374.53 1358.51 1374.53" stroke="#D34941" stroke-width="1.28366" fill="none" transform="matrix(1 0 0 1.00072 -562.186 -1071.28)"/><path d="M1326.93 1368.52 1326.93 1409.88" stroke="#000000" stroke-width="1.28366" fill="none" transform="matrix(1 0 0 1.00072 -562.186 -1071.28)"/><path d="M1317.6 1368.52 1327.5 1368.52" stroke="#000000" stroke-width="1.28366" fill="none" transform="matrix(1 0 0 1.00072 -562.186 -1071.28)"/><path d="M1326.78 1409.88 1318.25 1436.58" stroke="#000000" stroke-width="1.28366" transform="matrix(1 0 0 1.00072 -562.186 -1071.28)"/><path d="M1317.6 1474.85 1332.86 1474.85" stroke="#000000" stroke-width="1.28366" fill="none" transform="matrix(1 0 0 1.00072 -562.186 -1071.28)"/><path d="M1332.1 1475.19 1359.35 1415.97" stroke="#000000" stroke-width="1.28366" transform="matrix(1 0 0 1.00072 -562.186 -1071.28)"/><path d="M1289.76 1427.78 1289.76 1352.16" stroke="#000000" stroke-width="1.28366" fill="none" transform="matrix(1 0 0 1.00072 -562.186 -1071.28)"/><path d="M1345.07 1407.37 1345.07 1352.16" stroke="#000000" stroke-width="1.28366" fill="none" transform="matrix(1 0 0 1.00072 -562.186 -1071.28)"/><path d="M1303.85 1427.78 1303.85 1360.33" stroke="#000000" stroke-width="1.28366" fill="none" transform="matrix(1 0 0 1.00072 -562.186 -1071.28)"/><path d="M1236.92 1456.68 1259.66 1456.68" stroke="#00A0E9" stroke-width="1.28366" fill="none" transform="matrix(1 0 0 1.00072 -562.186 -1071.28)"/><path d="M1263.59 1454.97C1260.84 1454.14 1259.05 1453.38 1256.84 1452.49L1256.84 1460.88C1257.63 1460.51 1260.84 1459.23 1263.59 1458.4 1266.53 1457.51 1269.2 1456.9 1270.93 1456.69 1269.2 1456.47 1266.53 1455.86 1263.59 1454.97Z" stroke="#00A0E9" stroke-width="1.28366" fill="#00A1E9" transform="matrix(1 0 0 1.00072 -562.186 -1071.28)"/><text font-family="Arial,Arial_MSFontService,sans-serif" font-weight="400" font-size="10" transform="matrix(1.28366 0 0 1.28459 721.263 469)">5<tspan font-size="10" x="6.00002" y="0">’</tspan><tspan font-size="10" x="15.4473" y="0">3</tspan><tspan font-size="10" x="21.4473" y="0">’</tspan></text><path d="M1285.2 1455.83C1285.2 1458.15 1283.31 1460.04 1280.99 1460.04 1278.66 1460.04 1276.77 1458.15 1276.77 1455.83 1276.77 1453.5 1278.66 1451.61 1280.99 1451.61 1283.31 1451.61 1285.2 1453.5 1285.2 1455.83Z" stroke="#00A0E9" stroke-width="1.28366" fill="#00A1E9" transform="matrix(1 0 0 1.00072 -562.186 -1071.28)"/><path d="M1288.33 1444.7C1288.33 1448.72 1285.07 1451.97 1281.05 1451.97 1277.04 1451.97 1273.78 1448.72 1273.78 1444.7 1273.78 1440.68 1277.04 1437.43 1281.05 1437.43 1285.07 1437.43 1288.33 1440.68 1288.33 1444.7Z" stroke="#E83C37" stroke-width="1.28366" fill="#FFFFFF" transform="matrix(1 0 0 1.00072 -562.186 -1071.28)"/><text fill="#E60A11" font-family="Arial,Arial_MSFontService,sans-serif" font-weight="400" font-size="8" transform="matrix(1.28366 0 0 1.28459 715.33 378)">A</text><path d="M1309.72 1441.28C1309.72 1445.3 1306.46 1448.55 1302.45 1448.55 1298.43 1448.55 1295.17 1445.3 1295.17 1441.28 1295.17 1437.26 1298.43 1434 1302.45 1434 1306.46 1434 1309.72 1437.26 1309.72 1441.28Z" stroke="#0068B7" stroke-width="1.28366" fill="#FFFFFF" transform="matrix(1 0 0 1.00072 -562.186 -1071.28)"/><text fill="#0068B7" font-family="Arial,Arial_MSFontService,sans-serif" font-weight="400" font-size="8" transform="matrix(1.28366 0 0 1.28459 736.726 375)">G<tspan fill="#D34941" font-size="10" x="50.999" y="-42.0368">P</tspan><tspan fill="#D34941" font-size="10" x="57.999" y="-42.0368">4</tspan><tspan fill="#DFC750" font-size="10" x="-20.334" y="46.7076">P</tspan><tspan fill="#DFC750" font-size="10" x="-13.334" y="46.7076">1</tspan><tspan fill="#E8A5C6" font-size="10" x="-25.0015" y="-23.3538">P</tspan><tspan fill="#E8A5C6" font-size="10" x="-18.0015" y="-23.3538">2</tspan><tspan fill="#3DAA3B" font-size="10" x="17.6655" y="9.34152">T</tspan><tspan fill="#3DAA3B" font-size="10" x="24.6655" y="9.34152">1</tspan><tspan fill="#3AAA3B" font-size="8" x="4.70752" y="-55.2707">T</tspan><tspan fill="#3AAA3B" font-size="8" x="9.70751" y="-55.2707">2</tspan></text><path d="M1359.2 1360.33 1359.2 1416.28" stroke="#000000" stroke-width="1.28366" fill="none" transform="matrix(1 0 0 1.00072 -562.186 -1071.28)"/><path d="M1318.27 1390.02 1318.27 1407.79" stroke="#000000" stroke-width="1.28366" fill="none" transform="matrix(1 0 0 1.00072 -562.186 -1071.28)"/><path d="M1317.63 1407.37 1345.52 1407.37" stroke="#000000" stroke-width="1.28366" fill="none" transform="matrix(1 0 0 1.00072 -562.186 -1071.28)"/><path d="M1292.33 1348.54 1338.55 1348.54" stroke="#000000" stroke-width="1.28366" fill="none" transform="matrix(1 0 0 1.00072 -562.186 -1071.28)"/><path d="M1289.76 1350.89 1289.76 1355.25" stroke="#000000" stroke-width="1.28366" stroke-miterlimit="10" fill="none" transform="matrix(1 0 0 1.00072 -562.186 -1071.28)"/><path d="M1292 1348.54 1298.42 1348.54" stroke="#000000" stroke-width="1.28366" stroke-miterlimit="10" fill="none" transform="matrix(1 0 0 1.00072 -562.186 -1071.28)"/><path d="M1289.76 1351.22C1289.76 1349.74 1290.96 1348.54 1292.43 1348.54" stroke="#000000" stroke-width="1.28366" stroke-miterlimit="10" fill="none" transform="matrix(1 0 0 1.00072 -562.186 -1071.28)"/><path d="M1342.72 1348.54 1338.36 1348.54" stroke="#000000" stroke-width="1.28366" stroke-miterlimit="10" fill="none" transform="matrix(1 0 0 1.00072 -562.186 -1071.28)"/><path d="M1345.07 1350.79 1345.07 1357.21" stroke="#000000" stroke-width="1.28366" stroke-miterlimit="10" fill="none" transform="matrix(1 0 0 1.00072 -562.186 -1071.28)"/><path d="M1342.4 1348.54C1343.88 1348.54 1345.07 1349.74 1345.07 1351.22" stroke="#000000" stroke-width="1.28366" stroke-miterlimit="10" fill="none" transform="matrix(1 0 0 1.00072 -562.186 -1071.28)"/><path d="M1306.45 1356.24 1352.67 1356.24" stroke="#000000" stroke-width="1.28366" fill="none" transform="matrix(1 0 0 1.00072 -562.186 -1071.28)"/><path d="M1303.84 1358.6 1303.84 1362.95" stroke="#000000" stroke-width="1.28366" stroke-miterlimit="10" fill="none" transform="matrix(1 0 0 1.00072 -562.186 -1071.28)"/><path d="M1306.09 1356.24 1312.51 1356.24" stroke="#000000" stroke-width="1.28366" stroke-miterlimit="10" fill="none" transform="matrix(1 0 0 1.00072 -562.186 -1071.28)"/><path d="M1303.84 1358.92C1303.84 1357.44 1305.04 1356.24 1306.52 1356.24" stroke="#000000" stroke-width="1.28366" stroke-miterlimit="10" fill="none" transform="matrix(1 0 0 1.00072 -562.186 -1071.28)"/><path d="M1356.84 1356.24 1352.48 1356.24" stroke="#000000" stroke-width="1.28366" stroke-miterlimit="10" fill="none" transform="matrix(1 0 0 1.00072 -562.186 -1071.28)"/><path d="M1359.2 1358.49 1359.2 1364.91" stroke="#000000" stroke-width="1.28366" stroke-miterlimit="10" fill="none" transform="matrix(1 0 0 1.00072 -562.186 -1071.28)"/><path d="M1356.52 1356.24C1358 1356.24 1359.2 1357.44 1359.19 1358.92" stroke="#000000" stroke-width="1.28366" stroke-miterlimit="10" fill="none" transform="matrix(1 0 0 1.00072 -562.186 -1071.28)"/><text fill="#DFC750" font-family="Arial,Arial_MSFontService,sans-serif" font-weight="400" font-size="10" transform="matrix(1.28366 0 0 1.28459 986.93 448)">P<tspan font-size="10" x="7" y="0">1</tspan><tspan fill="#3DAA3B" font-size="10" x="0.500013" y="-22.5753">T</tspan><tspan fill="#3DAA3B" font-size="10" x="7.50001" y="-22.5753">1</tspan><tspan fill="#3AAA3B" font-size="8" x="3.54198" y="-108.206">T</tspan><tspan fill="#3AAA3B" font-size="8" x="8.54202" y="-108.206">2</tspan><tspan fill="#E8A5C6" font-size="10" x="-21.667" y="-71.6183">P</tspan><tspan fill="#E8A5C6" font-size="10" x="-14.667" y="-71.6183">2</tspan><tspan fill="#D34941" font-size="10" x="77.8339" y="-67.726">P</tspan><tspan fill="#D34941" font-size="10" x="84.834" y="-67.726">4</tspan></text></g></g></g></svg>