<svg id="图层_1" data-name="图层 1" xmlns="http://www.w3.org/2000/svg" viewBox="0 0 95.2 203.7"><defs><style>.cls-1{fill:none;stroke:#231815;}.cls-1,.cls-2,.cls-3,.cls-5,.cls-6{stroke-miterlimit:10;}.cls-2{fill:#f1cade;stroke:#f1cade;}.cls-3,.cls-8{fill:#f2ee82;}.cls-3{stroke:#f2ee82;}.cls-11,.cls-4{font-size:10px;}.cls-4{fill:#e72e11;}.cls-10,.cls-11,.cls-4,.cls-7,.cls-8,.cls-9{font-family:HelveticaNeue-Light, HelveticaNeue Light;font-weight:300;}.cls-5{fill:#aed397;stroke:#aed397;}.cls-6{fill:#7cc7d1;stroke:#7cc7d1;}.cls-10,.cls-7,.cls-8,.cls-9{font-size:12px;}.cls-7{fill:#f2d2e3;}.cls-9{fill:#16a13c;}.cls-10{fill:#76c4ce;}.cls-11{fill:#231815;}</style></defs><line class="cls-1" x1="28.3" y1="138.5" x2="28.3" y2="192.5"/><line class="cls-1" x1="39.7" y1="138.5" x2="39.7" y2="192.5"/><line class="cls-2" x1="28.3" y1="160.5" x2="39.7" y2="160.5"/><line class="cls-2" x1="28.3" y1="151.2" x2="39.7" y2="151.2"/><line class="cls-2" x1="28.3" y1="142.8" x2="39.7" y2="142.8"/><line class="cls-2" x1="28.3" y1="187.5" x2="39.7" y2="187.5"/><line class="cls-2" x1="28.3" y1="178.1" x2="39.7" y2="178.1"/><line class="cls-2" x1="28.3" y1="169.8" x2="39.7" y2="169.8"/><path class="cls-1" d="M275.9,457.1a11.7,11.7,0,1,1,11.2,0" transform="translate(-247.5 -318.6)"/><line class="cls-1" x1="65.8" y1="144.8" x2="65.8" y2="192.5"/><line class="cls-1" x1="77.2" y1="144.8" x2="77.2" y2="192.5"/><line class="cls-3" x1="65.8" y1="160.5" x2="77.2" y2="160.5"/><line class="cls-3" x1="65.8" y1="151.2" x2="77.2" y2="151.2"/><line class="cls-3" x1="65.8" y1="187.5" x2="77.2" y2="187.5"/><line class="cls-3" x1="65.8" y1="178.1" x2="77.2" y2="178.1"/><line class="cls-3" x1="65.8" y1="169.8" x2="77.2" y2="169.8"/><text x="-247.5" y="-318.6"/><text x="-247.5" y="-318.6"/><text x="-247.5" y="-318.6"/><text class="cls-4" transform="translate(53.3 143.8)"><tspan xml:space="preserve">  </tspan></text><line class="cls-1" x1="65.8" y1="83.8" x2="65.8" y2="111.8"/><line class="cls-1" x1="77.2" y1="83.8" x2="77.2" y2="111.8"/><line class="cls-5" x1="65.8" y1="106.8" x2="77.2" y2="106.8"/><line class="cls-5" x1="65.8" y1="97.5" x2="77.2" y2="97.5"/><line class="cls-5" x1="65.8" y1="89.1" x2="77.2" y2="89.1"/><path class="cls-1" d="M324.7,389.3a9,9,0,0,1,.7,13.3" transform="translate(-247.5 -318.6)"/><path class="cls-1" d="M313.4,402.3a8.8,8.8,0,0,1-3.4-7,9.1,9.1,0,0,1,2.6-6.4" transform="translate(-247.5 -318.6)"/><line class="cls-1" x1="65.8" y1="16.5" x2="65.8" y2="70.5"/><line class="cls-1" x1="77.2" y1="15.9" x2="77.2" y2="70.5"/><line class="cls-6" x1="65.8" y1="38.5" x2="77.2" y2="38.5"/><line class="cls-6" x1="65.8" y1="29.2" x2="77.2" y2="29.2"/><line class="cls-6" x1="65.8" y1="20.8" x2="77.2" y2="20.8"/><line class="cls-6" x1="65.8" y1="65.5" x2="77.2" y2="65.5"/><line class="cls-6" x1="65.8" y1="56.1" x2="77.2" y2="56.1"/><line class="cls-6" x1="65.8" y1="47.8" x2="77.2" y2="47.8"/><path class="cls-1" d="M313.3,335.1a8.9,8.9,0,0,1-3.3-7,9,9,0,1,1,15.4,6.4" transform="translate(-247.5 -318.6)"/><path class="cls-1" d="M313,464.6c-2-4.3-3.2-11-3-18.5s1.3-12.3,3.1-16.5" transform="translate(-247.5 -318.6)"/><path class="cls-1" d="M325.1,464.6c2-4.3,3.1-11,3-18.5a50,50,0,0,0-3.1-16.5" transform="translate(-247.5 -318.6)"/><text x="-247.5" y="-318.6"/><text class="cls-7" transform="translate(9.4 172.5)">P1</text><text class="cls-8" transform="translate(82.7 172.5)">P2</text><text class="cls-9" transform="translate(46.3 102.5)">P3</text><text class="cls-10" transform="translate(46.3 46.2)">P4</text><text class="cls-11" transform="translate(0 200.2)">5’</text><line class="cls-1" x1="39.8" y1="192.4" x2="65.8" y2="192.4"/><text class="cls-11" transform="translate(83 201.2)">3’</text></svg>