<svg id="图层_1" data-name="图层 1" xmlns="http://www.w3.org/2000/svg" viewBox="0 0 158.4 183.2"><defs><style>.cls-1,.cls-23,.cls-33{fill:#e60012;}.cls-1{stroke:#62c4dc;}.cls-1,.cls-33{stroke-width:1.18px;}.cls-10,.cls-11,.cls-12,.cls-13,.cls-15,.cls-16,.cls-2,.cls-26,.cls-27,.cls-29,.cls-3,.cls-30,.cls-31,.cls-6,.cls-7{fill:none;}.cls-2,.cls-33{stroke:#5dc4e7;}.cls-16,.cls-17,.cls-2,.cls-3{stroke-width:1.01px;}.cls-3,.cls-9{stroke:#e60012;}.cls-14,.cls-17,.cls-28,.cls-32,.cls-34,.cls-35,.cls-36,.cls-37,.cls-38,.cls-39,.cls-4,.cls-40,.cls-41,.cls-42,.cls-43,.cls-8,.cls-9{fill:#fff;}.cls-4{stroke:#f9d789;}.cls-34,.cls-35,.cls-36,.cls-37,.cls-38,.cls-39,.cls-4,.cls-40,.cls-41,.cls-42,.cls-43,.cls-9{stroke-miterlimit:10;}.cls-37,.cls-38,.cls-4,.cls-40,.cls-41,.cls-42,.cls-8,.cls-9{stroke-width:0.96px;}.cls-5{fill:#2ea7e0;}.cls-40,.cls-5{stroke:#8fc31f;}.cls-6{stroke:#e6a8ca;}.cls-10,.cls-11,.cls-12,.cls-13,.cls-15,.cls-16,.cls-26,.cls-27,.cls-29,.cls-30,.cls-31,.cls-7{stroke:#231815;}.cls-14,.cls-17,.cls-28,.cls-32,.cls-8{stroke:#fff;}.cls-10{stroke-width:0.88px;}.cls-11{stroke-width:1.03px;}.cls-12{stroke-width:0.77px;}.cls-13{stroke-width:1.13px;}.cls-15{stroke-width:0.95px;}.cls-18{font-size:10.37px;fill:#231815;}.cls-18,.cls-20,.cls-21,.cls-22,.cls-23,.cls-24,.cls-25,.cls-44,.cls-45,.cls-46,.cls-47{font-family:HelveticaNeue-Light, HelveticaNeue Light;font-weight:300;}.cls-19{letter-spacing:-0.09em;}.cls-20,.cls-21,.cls-22,.cls-23,.cls-24,.cls-25,.cls-44,.cls-45,.cls-46,.cls-47{font-size:10px;}.cls-20{fill:#e6a8ca;}.cls-21{fill:#9fa0a0;}.cls-22{fill:#b28247;}.cls-24{fill:#f39800;}.cls-25{fill:#8fc31f;}.cls-26{stroke-width:1px;}.cls-28{stroke-width:1.08px;}.cls-29{stroke-width:1.09px;}.cls-30{stroke-width:1.14px;}.cls-31{stroke-width:1.03px;}.cls-32{stroke-width:1.02px;}.cls-34{stroke:#b5b5b6;stroke-width:1.05px;}.cls-35,.cls-36,.cls-42{stroke:#036eb8;}.cls-35{stroke-width:1.06px;}.cls-37{stroke:#7e318e;}.cls-38,.cls-39{stroke:#f39731;}.cls-41{stroke:#a48b78;}.cls-43{stroke:#f39800;}.cls-44{fill:#7e318e;}.cls-45{fill:#1a4198;}.cls-46{fill:#35b8ec;}.cls-47{fill:#f5b81b;}.cls-48{letter-spacing:-0.03em;}.cls-49{letter-spacing:-0.02em;}</style></defs><line class="cls-1" x1="84.5" y1="148.5" x2="73.2" y2="148.5"/><line class="cls-1" x1="84.4" y1="139.1" x2="73.2" y2="139.2"/><line class="cls-1" x1="84.4" y1="129.5" x2="73.2" y2="129.6"/><path class="cls-2" d="M317.9,456.2" transform="translate(-245.7 -366)"/><path class="cls-2" d="M329.1,456.1" transform="translate(-245.7 -366)"/><line class="cls-2" x1="83.4" y1="84" x2="72.2" y2="84"/><path class="cls-3" d="M318.7,474.7" transform="translate(-245.7 -366)"/><path class="cls-3" d="M330,474.7" transform="translate(-245.7 -366)"/><path class="cls-3" d="M318.7,466.6" transform="translate(-245.7 -366)"/><path class="cls-3" d="M329.9,466.5" transform="translate(-245.7 -366)"/><line class="cls-4" x1="64.3" y1="16.2" x2="64.3" y2="27.5"/><line class="cls-4" x1="56.3" y1="16.2" x2="56.3" y2="27.5"/><line class="cls-4" x1="48.4" y1="16.2" x2="48.4" y2="27.5"/><path class="cls-5" d="M366,394.2" transform="translate(-245.7 -366)"/><path class="cls-5" d="M366,382.9" transform="translate(-245.7 -366)"/><line class="cls-5" x1="101.6" y1="17.1" x2="101.6" y2="28.4"/><line class="cls-5" x1="94.1" y1="16.8" x2="94.1" y2="28"/><line class="cls-6" x1="73.2" y1="40.4" x2="84.4" y2="40.4"/><line class="cls-6" x1="73.2" y1="48.5" x2="84.4" y2="48.5"/><path class="cls-7" d="M280.4,422.8c0,4.7-4.2,8.5-9.3,8.5s-9.3-3.8-9.3-8.5,4.2-8.5,9.3-8.5S280.4,418.1,280.4,422.8Z" transform="translate(-245.7 -366)"/><rect class="cls-8" x="20.6" y="61.3" width="8.9" height="4.6"/><line class="cls-9" x1="20.5" y1="68.6" x2="31.1" y2="68.6"/><line class="cls-9" x1="20.5" y1="77.1" x2="31.1" y2="77.1"/><path class="cls-9" d="M275.8,445.5" transform="translate(-245.7 -366)"/><path class="cls-9" d="M265.2,445.5" transform="translate(-245.7 -366)"/><line class="cls-10" x1="19.8" y1="63.2" x2="19.8" y2="85.8"/><line class="cls-7" x1="31.1" y1="63.6" x2="31.1" y2="114.1"/><line class="cls-7" x1="72.7" y1="83.3" x2="73" y2="156"/><line class="cls-7" x1="83.7" y1="83.3" x2="84" y2="148.6"/><line class="cls-7" x1="72.8" y1="33.1" x2="72.8" y2="84"/><line class="cls-7" x1="41.5" y1="27.5" x2="69.8" y2="27.5"/><line class="cls-7" x1="110.3" y1="28" x2="126.2" y2="28"/><line class="cls-7" x1="110.4" y1="17" x2="126.2" y2="17"/><line class="cls-7" x1="72.8" y1="33.1" x2="69.8" y2="27.5"/><path class="cls-11" d="M265.5,465.1c-3.7-4-3.7-10.1,0-13.6" transform="translate(-245.7 -366)"/><path class="cls-7" d="M289.7,387a9.3,9.3,0,1,1-9.2-9.3A9.2,9.2,0,0,1,289.7,387Z" transform="translate(-245.7 -366)"/><path class="cls-7" d="M388.2,388.6a9.3,9.3,0,1,1-9.3-9.3A9.3,9.3,0,0,1,388.2,388.6Z" transform="translate(-245.7 -366)"/><line class="cls-12" x1="104.3" y1="155.5" x2="104.3" y2="142.4"/><line class="cls-13" x1="31.2" y1="114.1" x2="37.3" y2="121.4"/><path class="cls-7" d="M349.2,383.9a3.5,3.5,0,1,1,6.9,0" transform="translate(-245.7 -366)"/><line class="cls-7" x1="84.2" y1="34.9" x2="84.4" y2="58.1"/><rect class="cls-14" x="38.2" y="17.7" width="8.3" height="8.48"/><rect class="cls-14" x="120.7" y="18.4" width="8.3" height="8.26"/><line class="cls-15" x1="30.7" y1="121.9" x2="36.8" y2="114"/><path class="cls-16" d="M324.6,538.7a9.5,9.5,0,1,1,9.2-9.5A9.5,9.5,0,0,1,324.6,538.7Z" transform="translate(-245.7 -366)"/><rect class="cls-17" x="320" y="517" width="8.3" height="8.37" transform="translate(-247.9 -364.7) rotate(-0.2)"/><line class="cls-7" x1="136.5" y1="81.9" x2="132.8" y2="77.2"/><text class="cls-18" transform="translate(94.2 54.9)">5<tspan class="cls-19" x="5.3" y="0">’</tspan></text><text class="cls-18" transform="translate(110.2 76.1)">3<tspan class="cls-19" x="5.3" y="0">’</tspan></text><text class="cls-20" transform="translate(51.9 48.5)">P10</text><text class="cls-21" transform="translate(147.6 135.8)">P3</text><text class="cls-22" transform="translate(0 111.6)">P4</text><text class="cls-23" transform="translate(0 77.2)">P5</text><text class="cls-24" transform="translate(146.8 97)">P7</text><text class="cls-25" transform="translate(0 134.3) scale(1.01 1)">P6</text><line class="cls-7" x1="84.1" y1="34.9" x2="88" y2="28.2"/><line class="cls-7" x1="42.5" y1="16.9" x2="87.9" y2="16.9"/><line class="cls-26" x1="83.8" y1="155" x2="104.3" y2="155.1"/><line class="cls-26" x1="104.3" y1="142.4" x2="124.8" y2="142.5"/><line class="cls-7" x1="104.3" y1="155.5" x2="104.3" y2="142.4"/><line class="cls-27" x1="36.3" y1="121.4" x2="124.1" y2="122.1"/><line class="cls-7" x1="31.2" y1="138" x2="31.2" y2="121"/><rect class="cls-28" x="277.2" y="533" width="9.5" height="8.37" transform="translate(-248 -364.8) rotate(-0.2)"/><path class="cls-16" d="M271.5,520.7a9.4,9.4,0,1,1,9.3-9.4A9.4,9.4,0,0,1,271.5,520.7Z" transform="translate(-245.7 -366)"/><rect class="cls-17" x="266.9" y="499" width="8.3" height="8.37" transform="translate(-247.8 -364.9) rotate(-0.2)"/><line class="cls-7" x1="19.8" y1="98.3" x2="19.8" y2="138.1"/><line class="cls-7" x1="37.3" y1="76.1" x2="36.8" y2="114.1"/><line class="cls-7" x1="37.7" y1="76.8" x2="133.1" y2="77.6"/><path class="cls-7" d="M373.8,409.7c0,4.7-4.2,8.5-9.3,8.5s-9.3-3.8-9.3-8.5,4.1-8.5,9.3-8.5S373.8,405,373.8,409.7Z" transform="translate(-245.7 -366)"/><rect class="cls-8" x="114" y="48.2" width="8.9" height="4.6"/><line class="cls-7" x1="136.5" y1="121.4" x2="136.5" y2="166.9"/><line class="cls-29" x1="124" y1="50.5" x2="124" y2="110.4"/><line class="cls-7" x1="83.8" y1="83.8" x2="103.1" y2="84"/><line class="cls-30" x1="113" y1="50" x2="113" y2="63.6"/><line class="cls-7" x1="125.2" y1="148.8" x2="125.2" y2="165.4"/><line class="cls-31" x1="84" y1="148.5" x2="124.8" y2="148.8"/><path class="cls-16" d="M376.5,548.7a9.4,9.4,0,1,1,9.3-9.4A9.4,9.4,0,0,1,376.5,548.7Z" transform="translate(-245.7 -366)"/><rect class="cls-32" x="372.3" y="525.1" width="8.4" height="8.37" transform="translate(-247.9 -364.4) rotate(-0.2)"/><line class="cls-7" x1="103.1" y1="83.6" x2="103.1" y2="110.5"/><line class="cls-7" x1="103.4" y1="110.4" x2="124" y2="110.6"/><path class="cls-7" d="M381.6,474.3a9.7,9.7,0,0,1,.9,13.6" transform="translate(-245.7 -366)"/><line class="cls-7" x1="135.9" y1="80.8" x2="135.9" y2="108.8"/><line class="cls-33" x1="84.4" y1="114.7" x2="73.2" y2="114.8"/><path class="cls-33" d="M318.9,472.4" transform="translate(-245.7 -366)"/><path class="cls-33" d="M330.1,472.4" transform="translate(-245.7 -366)"/><path class="cls-33" d="M318.4,461.2" transform="translate(-245.7 -366)"/><path class="cls-33" d="M329.6,461.2" transform="translate(-245.7 -366)"/><path class="cls-5" d="M385.9,394.3" transform="translate(-245.7 -366)"/><path class="cls-5" d="M385.9,383.1" transform="translate(-245.7 -366)"/><line class="cls-5" x1="121.5" y1="17.3" x2="121.5" y2="28.5"/><line class="cls-5" x1="114" y1="17" x2="114" y2="28.2"/><line class="cls-7" x1="87.2" y1="27.9" x2="103.2" y2="27.9"/><line class="cls-7" x1="87.3" y1="16.9" x2="103.2" y2="16.9"/><path class="cls-7" d="M355.9,393.7a3.5,3.5,0,1,1-6.9.1" transform="translate(-245.7 -366)"/><path class="cls-34" d="M380.7,462.1" transform="translate(-245.7 -366)"/><path class="cls-34" d="M370.1,462.1" transform="translate(-245.7 -366)"/><line class="cls-34" x1="125.1" y1="139.1" x2="135.7" y2="139.1"/><line class="cls-34" x1="125.5" y1="129.8" x2="136.1" y2="129.8"/><path class="cls-35" d="M381.9,513.8" transform="translate(-245.7 -366)"/><path class="cls-35" d="M371.3,513.8" transform="translate(-245.7 -366)"/><path class="cls-35" d="M381.9,520.5" transform="translate(-245.7 -366)"/><path class="cls-36" d="M371.3,520.5" transform="translate(-245.7 -366)"/><path class="cls-35" d="M381.9,528.3" transform="translate(-245.7 -366)"/><path class="cls-35" d="M371.3,528.3" transform="translate(-245.7 -366)"/><path class="cls-37" d="M381.8,515.1" transform="translate(-245.7 -366)"/><path class="cls-37" d="M371.2,515.1" transform="translate(-245.7 -366)"/><line class="cls-37" x1="125.6" y1="152.7" x2="136.2" y2="152.7"/><line class="cls-37" x1="125.2" y1="161.9" x2="135.8" y2="161.9"/><line class="cls-7" x1="124.5" y1="121.1" x2="124.5" y2="142.5"/><line class="cls-38" x1="125.1" y1="86" x2="135.6" y2="86"/><path class="cls-38" d="M379.9,459.9" transform="translate(-245.7 -366)"/><path class="cls-38" d="M369.4,459.9" transform="translate(-245.7 -366)"/><line class="cls-39" x1="124.6" y1="104.4" x2="135.2" y2="104.4"/><path class="cls-40" d="M276.4,486.5" transform="translate(-245.7 -366)"/><path class="cls-40" d="M265.8,486.5" transform="translate(-245.7 -366)"/><line class="cls-40" x1="20.1" y1="127" x2="30.7" y2="127"/><line class="cls-40" x1="20.1" y1="134.3" x2="30.7" y2="134.3"/><line class="cls-41" x1="19.8" y1="103.1" x2="30.4" y2="103.1"/><line class="cls-41" x1="19.8" y1="111.6" x2="30.4" y2="111.6"/><path class="cls-41" d="M276.1,483" transform="translate(-245.7 -366)"/><path class="cls-41" d="M265.5,483" transform="translate(-245.7 -366)"/><line class="cls-42" x1="113.5" y1="52.7" x2="124.1" y2="52.7"/><line class="cls-42" x1="113.5" y1="61.2" x2="124.1" y2="61.2"/><path class="cls-42" d="M369.8,432.6" transform="translate(-245.7 -366)"/><path class="cls-42" d="M359.2,432.6" transform="translate(-245.7 -366)"/><line class="cls-43" x1="124.6" y1="95.2" x2="135.2" y2="95.2"/><text class="cls-44" transform="translate(147.9 161.9)">P8</text><text class="cls-45" transform="translate(137.5 58.5)">P9</text><text class="cls-46" transform="translate(55.6 139.2)">P15</text><text class="cls-25" transform="translate(101.6 8.5)">DP2</text><text class="cls-47" transform="translate(46.4 8.4)">DP2.1</text><line class="cls-6" x1="73.2" y1="56.8" x2="84.4" y2="56.8"/><text class="cls-20" transform="translate(82.3 66.6)"><tspan class="cls-48">U</tspan><tspan class="cls-49" x="6.1" y="0">A</tspan><tspan x="12.1" y="0">C</tspan></text></svg>