<svg id="图层_1" data-name="图层 1" xmlns="http://www.w3.org/2000/svg" viewBox="0 0 242.92 146.15"><defs><style>.cls-1,.cls-13,.cls-14,.cls-3,.cls-32,.cls-33,.cls-34,.cls-35,.cls-4,.cls-5,.cls-7,.cls-8,.cls-9{fill:none;}.cls-1{stroke:#f39800;}.cls-2,.cls-31{fill:#e60012;}.cls-2,.cls-3{stroke:#e60012;}.cls-4{stroke:#e193bd;}.cls-5{stroke:#8fc31f;}.cls-29,.cls-6{fill:#2ea7e0;}.cls-6{stroke:#77cbe8;}.cls-7{stroke:#fff100;}.cls-11,.cls-8{stroke:#036eb8;}.cls-12,.cls-13,.cls-14,.cls-32,.cls-33,.cls-34,.cls-9{stroke:#231815;}.cls-10,.cls-11,.cls-12,.cls-19,.cls-21{fill:#fff;}.cls-10{stroke:#fff;}.cls-11{stroke-miterlimit:10;}.cls-13{stroke-width:1.01px;}.cls-14{stroke-width:1.02px;}.cls-15{fill:#00a1e9;stroke:#00a0e9;}.cls-16{font-size:10.37px;}.cls-16,.cls-18{fill:#231815;}.cls-16,.cls-18,.cls-20,.cls-22,.cls-23,.cls-24,.cls-25,.cls-26,.cls-27,.cls-28,.cls-29,.cls-30,.cls-31{font-family:HelveticaNeue-Light, HelveticaNeue Light;font-weight:300;}.cls-17{letter-spacing:-0.09em;}.cls-18{font-size:12.96px;}.cls-19{stroke:#0068b7;}.cls-20,.cls-22{font-size:8px;}.cls-20,.cls-23{fill:#0068b7;}.cls-21{stroke:#e83c37;}.cls-22,.cls-24{fill:#e60a11;}.cls-23,.cls-24,.cls-25,.cls-26,.cls-27,.cls-28,.cls-29,.cls-30,.cls-31{font-size:10px;}.cls-25{fill:#036eb8;}.cls-26{fill:#e493bc;}.cls-27{fill:#ffe200;}.cls-28{fill:#8fc31f;}.cls-30{fill:#f39800;}.cls-32{stroke-dasharray:4;}.cls-33{stroke-width:0.97px;stroke-dasharray:3.89;}.cls-34{stroke-width:0.95px;stroke-dasharray:3.79;}.cls-35{stroke:#e6a8ca;}</style></defs><line class="cls-1" x1="39.31" y1="101.59" x2="39.31" y2="112.82"/><line class="cls-1" x1="33.27" y1="101.59" x2="33.27" y2="112.82"/><line class="cls-1" x1="26.35" y1="101.59" x2="26.35" y2="112.82"/><line class="cls-2" x1="215.8" y1="98.14" x2="215.8" y2="109.37"/><line class="cls-2" x1="209.75" y1="98.14" x2="209.75" y2="109.37"/><line class="cls-2" x1="202.84" y1="98.14" x2="202.84" y2="109.37"/><line class="cls-3" x1="160.94" y1="98.14" x2="160.94" y2="109.37"/><line class="cls-3" x1="154.89" y1="98.14" x2="154.89" y2="109.37"/><line class="cls-3" x1="179.3" y1="97.71" x2="179.3" y2="108.94"/><line class="cls-3" x1="173.25" y1="97.71" x2="173.25" y2="108.94"/><line class="cls-4" x1="123.35" y1="102.24" x2="123.35" y2="113.47"/><line class="cls-4" x1="117.31" y1="102.24" x2="117.31" y2="113.47"/><line class="cls-5" x1="130.48" y1="34.85" x2="130.48" y2="46.08"/><line class="cls-5" x1="124.43" y1="34.85" x2="124.43" y2="46.08"/><line class="cls-5" x1="117.52" y1="34.85" x2="117.52" y2="46.08"/><line class="cls-6" x1="186.42" y1="35.5" x2="186.42" y2="46.73"/><line class="cls-6" x1="180.38" y1="35.5" x2="180.38" y2="46.73"/><line class="cls-6" x1="173.46" y1="35.5" x2="173.46" y2="46.73"/><line class="cls-7" x1="141.71" y1="83.02" x2="152.94" y2="83.02"/><line class="cls-7" x1="141.71" y1="89.06" x2="152.94" y2="89.06"/><line class="cls-7" x1="142.36" y1="59.04" x2="153.59" y2="59.04"/><line class="cls-7" x1="142.36" y1="65.09" x2="153.59" y2="65.09"/><line class="cls-8" x1="51.73" y1="85.34" x2="62.97" y2="85.34"/><line class="cls-8" x1="51.73" y1="91.39" x2="62.97" y2="91.39"/><path class="cls-9" d="M236.63,378.3a9.29,9.29,0,1,1-9.29-9.29A9.29,9.29,0,0,1,236.63,378.3Z" transform="translate(-169.83 -346.88)"/><rect class="cls-10" x="52.73" y="36.36" width="8.91" height="5.02"/><line class="cls-11" x1="51.62" y1="43.27" x2="62.21" y2="43.27"/><line class="cls-11" x1="51.62" y1="49.32" x2="62.21" y2="49.32"/><line class="cls-11" x1="51.62" y1="56.23" x2="62.21" y2="56.23"/><line class="cls-9" x1="51.92" y1="38.47" x2="51.92" y2="97"/><line class="cls-9" x1="62.94" y1="38.86" x2="62.94" y2="97.6"/><path class="cls-12" d="M236.55,416a9.29,9.29,0,1,1-9.29-9.29A9.29,9.29,0,0,1,236.55,416Z" transform="translate(-169.83 -346.88)"/><rect class="cls-10" x="53.3" y="58.34" width="8.26" height="21.6"/><line class="cls-9" x1="69.34" y1="113.04" x2="130.05" y2="113.04"/><line class="cls-9" x1="112.34" y1="102.02" x2="130.16" y2="102.02"/><line class="cls-13" x1="154.24" y1="109.15" x2="226.01" y2="109.15"/><line class="cls-14" x1="169.79" y1="98.14" x2="226.01" y2="98.14"/><line class="cls-9" x1="141.93" y1="51.7" x2="141.93" y2="91.53"/><line class="cls-9" x1="153.37" y1="79.13" x2="153.37" y2="98.35"/><line class="cls-9" x1="13.18" y1="112.45" x2="46.76" y2="112.45"/><line class="cls-9" x1="13.4" y1="101.43" x2="46.76" y2="101.43"/><line class="cls-9" x1="110.61" y1="46.08" x2="136.2" y2="46.08"/><line class="cls-9" x1="111.64" y1="35.06" x2="136.2" y2="35.06"/><line class="cls-9" x1="161.15" y1="46.67" x2="195.39" y2="46.67"/><line class="cls-9" x1="161.38" y1="35.66" x2="195.39" y2="35.66"/><line class="cls-9" x1="141.93" y1="51.7" x2="135.99" y2="45.76"/><path class="cls-9" d="M331.85,393a9.29,9.29,0,0,1-9.29,9.29" transform="translate(-169.83 -346.88)"/><path class="cls-9" d="M283,386.48a9.29,9.29,0,1,1-9.29-9.29A9.29,9.29,0,0,1,283,386.48Z" transform="translate(-169.83 -346.88)"/><path class="cls-9" d="M381.53,388a9.29,9.29,0,1,1-9.29-9.28A9.29,9.29,0,0,1,381.53,388Z" transform="translate(-169.83 -346.88)"/><line class="cls-9" x1="130.16" y1="102.02" x2="142.36" y2="90.14"/><line class="cls-9" x1="130.05" y1="113.26" x2="136.53" y2="118.66"/><line class="cls-9" x1="136.53" y1="118.66" x2="154.24" y2="109.15"/><path class="cls-9" d="M275.26,449.15a3.46,3.46,0,1,1,6.91,0" transform="translate(-169.83 -346.88)"/><path class="cls-9" d="M332.71,445a3.46,3.46,0,1,1,6.92,0" transform="translate(-169.83 -346.88)"/><path class="cls-9" d="M323.21,419.1a3.46,3.46,0,1,1,0,6.91" transform="translate(-169.83 -346.88)"/><line class="cls-9" x1="153.37" y1="55.15" x2="153.37" y2="72.22"/><line class="cls-9" x1="152.94" y1="98.14" x2="163.1" y2="98.14"/><line class="cls-9" x1="68.12" y1="102.02" x2="105.42" y2="102.02"/><rect class="cls-10" x="107.34" y="36.33" width="8.26" height="8.48"/><rect class="cls-10" x="189.85" y="36.98" width="8.26" height="8.26"/><line class="cls-9" x1="136.2" y1="35.06" x2="148.41" y2="30.31"/><line class="cls-9" x1="148.41" y1="30.31" x2="161.38" y2="35.5"/><path class="cls-9" d="M412.26,450.25A9.29,9.29,0,1,1,403,441,9.29,9.29,0,0,1,412.26,450.25Z" transform="translate(-169.83 -346.88)"/><path class="cls-12" d="M365.76,452.58c0,5.6-2.56,10.15-5.72,10.15s-5.72-4.55-5.72-10.15,2.56-10.16,5.72-10.16S365.76,447,365.76,452.58Z" transform="translate(-169.83 -346.88)"/><rect class="cls-10" x="221.01" y="99.62" width="8.26" height="8.26"/><rect class="cls-10" x="183.16" y="99.62" width="14.52" height="8.26"/><line class="cls-9" x1="68.53" y1="102.29" x2="63.34" y2="97.11"/><line class="cls-9" x1="51.68" y1="96.63" x2="46.49" y2="101.81"/><line class="cls-9" x1="46.76" y1="112.45" x2="58.16" y2="116.88"/><line class="cls-9" x1="58.16" y1="116.88" x2="69.34" y2="113.04"/><line class="cls-15" x1="15.59" y1="70.15" x2="33.3" y2="70.15"/><path class="cls-15" d="M206.2,415.7a53.54,53.54,0,0,1-5.26-1.93v6.54a52.32,52.32,0,0,1,5.26-1.94,38.53,38.53,0,0,1,5.72-1.33A37.53,37.53,0,0,1,206.2,415.7Z" transform="translate(-169.83 -346.88)"/><text class="cls-16" transform="translate(0 104.51)">5<tspan class="cls-17" x="5.32" y="0">’</tspan></text><text class="cls-16" transform="translate(0.65 119.2)">3<tspan class="cls-17" x="5.32" y="0">’</tspan></text><text class="cls-18" transform="translate(121.55 142.91)">VS</text><path class="cls-15" d="M221.26,416a3.29,3.29,0,1,1-3.28-3.28A3.28,3.28,0,0,1,221.26,416Z" transform="translate(-169.83 -346.88)"/><path class="cls-19" d="M244.12,413.08a5.67,5.67,0,1,1-5.27-6A5.66,5.66,0,0,1,244.12,413.08Z" transform="translate(-169.83 -346.88)"/><text class="cls-20" transform="translate(65.88 68.91)">G</text><path class="cls-21" d="M366.12,466.41a5.66,5.66,0,1,1-5.27-6A5.66,5.66,0,0,1,366.12,466.41Z" transform="translate(-169.83 -346.88)"/><text class="cls-22" transform="translate(187.88 122.25)">A</text><text class="cls-23" transform="translate(78.55 68.58)">638</text><text class="cls-24" transform="translate(182.55 136.58)">756</text><text class="cls-25" transform="translate(42.88 89.25)">I</text><text class="cls-26" transform="translate(97.54 94.58)">II</text><text class="cls-27" transform="translate(130.21 77.25)">III</text><text class="cls-28" transform="translate(117.55 29.25)">IV</text><text class="cls-29" transform="translate(172.21 29.25)">V</text><text class="cls-30" transform="translate(21.54 127.25)">VII</text><text class="cls-31" transform="translate(211.88 127.25)">VI</text><line class="cls-32" x1="55.97" y1="16.49" x2="55.97" y2="0.49"/><line class="cls-33" x1="55.97" y1="0.49" x2="201.3" y2="0.49"/><line class="cls-34" x1="199.3" y1="4.49" x2="199.3" y2="23.95"/><line class="cls-35" x1="97.62" y1="101.59" x2="97.62" y2="112.82"/><line class="cls-35" x1="91.58" y1="101.59" x2="91.58" y2="112.82"/><line class="cls-35" x1="84.67" y1="101.59" x2="84.67" y2="112.82"/></svg>