<svg width="271" height="222" xmlns="http://www.w3.org/2000/svg" xmlns:xlink="http://www.w3.org/1999/xlink" overflow="hidden"><defs><clipPath id="clip0"><rect x="497" y="277" width="271" height="222"/></clipPath><clipPath id="clip1"><rect x="498" y="277" width="269" height="221"/></clipPath><clipPath id="clip2"><rect x="498" y="277" width="269" height="221"/></clipPath><clipPath id="clip3"><rect x="495" y="212" width="272" height="286"/></clipPath><clipPath id="clip4"><rect x="495" y="212" width="272" height="286"/></clipPath><clipPath id="clip5"><rect x="496" y="212" width="271" height="285"/></clipPath><clipPath id="clip6"><rect x="496" y="212" width="271" height="285"/></clipPath></defs><g clip-path="url(#clip0)" transform="translate(-497 -277)"><g clip-path="url(#clip1)"><g clip-path="url(#clip2)"><g clip-path="url(#clip3)"><g clip-path="url(#clip4)"><g clip-path="url(#clip5)"><g clip-path="url(#clip6)"><path d="M0 0 0-9.9077" stroke="#A1A2A2" stroke-width="0.882096" fill="none" transform="matrix(1.037 0 0 -1 558.065 417.274)"/><path d="M0 0 0-9.9077" stroke="#A1A2A2" stroke-width="0.882096" fill="none" transform="matrix(1.037 0 0 -1 552.534 417.274)"/><path d="M0 0 0-9.9077" stroke="#A1A2A2" stroke-width="0.882096" fill="none" transform="matrix(1.037 0 0 -1 546.21 417.274)"/><path d="M0 0 0-9.90683" stroke="#A1A2A2" stroke-width="0.882096" fill="none" transform="matrix(1.037 0 0 -1 719.504 414.226)"/><path d="M0 0 0-9.90683" stroke="#A1A2A2" stroke-width="0.882096" fill="none" transform="matrix(1.037 0 0 -1 713.971 414.226)"/><path d="M0 0 0-9.90683" stroke="#A1A2A2" stroke-width="0.882096" fill="none" transform="matrix(1.037 0 0 -1 707.649 414.226)"/><path d="M0 0 0-9.90418" stroke="#A1A2A2" stroke-width="0.882096" fill="none" transform="matrix(1.037 0 0 -1 669.317 414.226)"/><path d="M0 0 0-9.90418" stroke="#A1A2A2" stroke-width="0.882096" fill="none" transform="matrix(1.037 0 0 -1 663.786 414.226)"/><path d="M0 0 0-9.90594" stroke="#A1A2A2" stroke-width="0.882096" fill="none" transform="matrix(1.037 0 0 -1 686.113 413.845)"/><path d="M0 0 0-9.90594" stroke="#A1A2A2" stroke-width="0.882096" fill="none" transform="matrix(1.037 0 0 -1 680.582 413.845)"/><path d="M0 0 0-9.90683" stroke="#A1A2A2" stroke-width="0.882096" fill="none" transform="matrix(1.037 0 0 -1 634.94 417.845)"/><path d="M0 0 0-9.90683" stroke="#A1A2A2" stroke-width="0.882096" fill="none" transform="matrix(1.037 0 0 -1 629.409 417.845)"/><path d="M0 0 0-9.90594" stroke="#A1A2A2" stroke-width="0.882096" fill="none" transform="matrix(1.037 0 0 -1 641.459 358.4)"/><path d="M0 0 0-9.90594" stroke="#A1A2A2" stroke-width="0.882096" fill="none" transform="matrix(1.037 0 0 -1 635.928 358.4)"/><path d="M0 0 0-9.90594" stroke="#A1A2A2" stroke-width="0.882096" fill="none" transform="matrix(1.037 0 0 -1 629.604 358.4)"/><path d="M0 0 0-9.90683" stroke="#A1A2A2" stroke-width="0.882096" fill="none" transform="matrix(1.037 0 0 -1 692.632 358.97)"/><path d="M0 0 0-9.90683" stroke="#A1A2A2" stroke-width="0.882096" fill="none" transform="matrix(1.037 0 0 -1 687.101 358.97)"/><path d="M0 0 0-9.90683" stroke="#A1A2A2" stroke-width="0.882096" fill="none" transform="matrix(1.037 0 0 -1 680.779 358.97)"/><path d="M0 0 9.90594 0" stroke="#A1A2A2" stroke-width="0.882096" fill="none" transform="matrix(1.037 0 0 -1 651.734 400.89)"/><path d="M0 0 9.90594 0" stroke="#A1A2A2" stroke-width="0.882096" fill="none" transform="matrix(1.037 0 0 -1 651.734 406.222)"/><path d="M0 0 9.90594 0" stroke="#A1A2A2" stroke-width="0.882096" fill="none" transform="matrix(1.037 0 0 -1 652.328 379.739)"/><path d="M0 0 9.90594 0" stroke="#A1A2A2" stroke-width="0.882096" fill="none" transform="matrix(1.037 0 0 -1 652.328 385.073)"/><path d="M0 0 9.9077 0" stroke="#A1A2A2" stroke-width="0.882096" fill="none" transform="matrix(1.037 0 0 -1 569.428 402.937)"/><path d="M0 0 9.9077 0" stroke="#A1A2A2" stroke-width="0.882096" fill="none" transform="matrix(1.037 0 0 -1 569.428 408.271)"/><path d="M0 0C0-4.52427-3.66864-8.19203-8.19468-8.19203-12.7172-8.19203-16.3867-4.52427-16.3867 0-16.3867 4.52339-12.7172 8.1929-8.19468 8.1929-3.66864 8.1929 0 4.52339 0 0Z" stroke="#3F71B6" stroke-width="0.882096" fill="none" transform="matrix(1.037 0 0 -1 583.206 355.374)"/><path d="M204.183 400.145 196.324 400.145 196.324 404.573 204.183 404.573Z" stroke="#FFFFFF" stroke-width="0.882096" fill="#FFFFFF" transform="matrix(1.037 0 0 -1 366.752 764.304)"/><path d="M0 0 9.3361 0" stroke="#A1A2A2" stroke-width="0.882096" fill="none" transform="matrix(1.037 0 0 -1 569.328 365.831)"/><path d="M0 0 9.3361 0" stroke="#A1A2A2" stroke-width="0.882096" fill="none" transform="matrix(1.037 0 0 -1 569.328 371.165)"/><path d="M0 0 9.3361 0" stroke="#A1A2A2" stroke-width="0.882096" fill="none" transform="matrix(1.037 0 0 -1 569.328 377.263)"/><path d="M0 0 0-51.6335" stroke="#2E6FB6" stroke-width="0.882096" fill="none" transform="matrix(1.037 0 0 -1 569.599 361.589)"/><path d="M0 0 0-51.8125" stroke="#3B71B7" stroke-width="0.882096" fill="none" transform="matrix(1.037 0 0 -1 579.675 361.935)"/><path d="M0 0C0-4.52339-3.66775-8.1929-8.19468-8.1929-12.7198-8.1929-16.3867-4.52339-16.3867 0-16.3867 4.52427-12.7198 8.19203-8.19468 8.19203-3.66775 8.19203 0 4.52427 0 0" fill="#FFFFFF" transform="matrix(1.037 0 0 -1 583.135 388.646)"/><path d="M0 0C0-4.52339-3.66775-8.1929-8.19468-8.1929-12.7198-8.1929-16.3867-4.52339-16.3867 0-16.3867 4.52427-12.7198 8.19203-8.19468 8.19203-3.66775 8.19203 0 4.52427 0 0Z" stroke="#3B71B7" stroke-width="0.882096" fill="none" transform="matrix(1.037 0 0 -1 583.135 388.646)"/><path d="M204.114 366.134 196.825 366.134 196.825 385.186 204.114 385.186Z" stroke="#FFFFFF" stroke-width="0.882096" fill="#FFFFFF" transform="matrix(1.037 0 0 -1 366.752 764.304)"/><path d="M0 0 53.5538 0" stroke="#CD70A8" stroke-width="1.15466" fill="none" transform="matrix(1.037 0 0 -1 585.529 427.37)"/><path d="M0 0 15.7181 0" stroke="#CD70A8" stroke-width="0.882096" fill="none" transform="matrix(1.037 0 0 -1 624.862 417.654)"/><path d="M0 0 63.3063 0" stroke="#E6232A" stroke-width="0.894445" fill="none" transform="matrix(1.037 0 0 -1 663.193 423.94)"/><path d="M0 0 49.5879 0" stroke="#E6232A" stroke-width="0.897974" fill="none" transform="matrix(1.037 0 0 -1 677.419 414.225)"/><path d="M0 0 0-35.1401" stroke="#FFF100" stroke-width="0.882096" fill="none" transform="matrix(1.037 0 0 -1 651.931 373.261)"/><path d="M0 0 0-16.9583" stroke="#FFF100" stroke-width="0.882096" fill="none" transform="matrix(1.037 0 0 -1 662.401 397.457)"/><path d="M0 0 29.626 0" stroke="#EC6723" stroke-width="0.882096" fill="none" transform="matrix(1.037 0 0 -1 534.157 426.847)"/><path d="M0 0 29.4276 0" stroke="#EC6723" stroke-width="0.882096" fill="none" transform="matrix(1.037 0 0 -1 534.362 417.129)"/><path d="M0 0 22.5772 0" stroke="#91C431" stroke-width="0.882096" fill="none" transform="matrix(1.037 0 0 -1 623.281 368.306)"/><path d="M0 0 21.6696 0" stroke="#91C431" stroke-width="0.882096" fill="none" transform="matrix(1.037 0 0 -1 624.222 358.588)"/><path d="M0 0 30.1986 0" stroke="#5CC3E7" stroke-width="0.882096" fill="none" transform="matrix(1.037 0 0 -1 669.515 368.83)"/><path d="M0 0 29.9983 0" stroke="#5CC3E7" stroke-width="0.882096" fill="none" transform="matrix(1.037 0 0 -1 669.724 359.113)"/><path d="M0 0-5.23965 5.23965" stroke="#FFF100" stroke-width="0.882096" fill="none" transform="matrix(1.037 0 0 -1 651.931 373.261)"/><path d="M0 0C0-4.52427-3.66864-8.19379-8.19555-8.19379" stroke="#332D2B" stroke-width="0.441048" fill="none" transform="matrix(1.037 0 0 -1 670.307 368.307)"/><path d="M0 0C0-4.52339-3.66775-8.19379-8.19468-8.19379-12.718-8.19379-16.3867-4.52339-16.3867 0-16.3867 4.52427-12.718 8.1929-8.19468 8.1929-3.66775 8.1929 0 4.52427 0 0Z" stroke="#91C431" stroke-width="0.882096" fill="none" transform="matrix(1.037 0 0 -1 625.654 362.59)"/><path d="M0 0C0-4.52339-3.66864-8.1929-8.19468-8.1929-12.719-8.1929-16.3867-4.52339-16.3867 0-16.3867 4.52427-12.719 8.19379-8.19468 8.19379-3.66864 8.19379 0 4.52427 0 0Z" stroke="#67B2E3" stroke-width="0.882096" fill="none" transform="matrix(1.037 0 0 -1 715.752 363.972)"/><path d="M0 0 10.7669 10.4785" stroke="#332D2B" stroke-width="0.441048" fill="none" transform="matrix(1.037 0 0 -1 641.162 417.654)"/><path d="M0 0 5.71598-4.76332" stroke="#332D2B" stroke-width="0.441048" fill="none" transform="matrix(1.037 0 0 -1 641.063 427.562)"/><path d="M0 0 15.6245 8.38433" stroke="#332D2B" stroke-width="0.441048" fill="none" transform="matrix(1.037 0 0 -1 646.991 432.324)"/><path d="M0 0C0 1.68304 1.36461 3.04764 3.04941 3.04764 4.73244 3.04764 6.09705 1.68304 6.09705 0" stroke="#C573AB" stroke-width="0.882096" fill="none" transform="matrix(1.037 0 0 -1 618.54 417.868)"/><path d="M0 0C0 1.68392 1.36461 3.04941 3.04853 3.04941 4.73156 3.04941 6.09617 1.68392 6.09617 0" stroke="#E6232A" stroke-width="0.882096" fill="none" transform="matrix(1.037 0 0 -1 671.097 414.225)"/><path d="M0 0C1.68392 0 3.04941-1.36461 3.04941-3.04853 3.04941-4.73244 1.68392-6.09617 0-6.09617" stroke="#FFF100" stroke-width="0.882096" fill="none" transform="matrix(1.037 0 0 -1 662.401 391.361)"/><path d="M0 0 0-15.053" stroke="#FFF100" stroke-width="0.882096" fill="none" transform="matrix(1.037 0 0 -1 662.401 376.309)"/><path d="M0 0 8.9568 0" stroke="#E6232A" stroke-width="0.882096" fill="none" transform="matrix(1.037 0 0 -1 662.007 414.225)"/><path d="M0 0 32.9031 0" stroke="#CE77AD" stroke-width="1.27374" fill="none" transform="matrix(1.037 0 0 -1 584.419 417.654)"/><path d="M251.781 397.119 244.496 397.119 244.496 404.597 251.781 404.597Z" stroke="#FFFFFF" stroke-width="0.882096" fill="#FFFFFF" transform="matrix(1.037 0 0 -1 366.752 764.304)"/><path d="M324.566 396.737 317.278 396.737 317.278 404.025 324.566 404.025Z" stroke="#FFFFFF" stroke-width="0.882096" fill="#FFFFFF" transform="matrix(1.037 0 0 -1 366.752 764.304)"/><path d="M0 0 10.7651 4.19084" stroke="#332D2B" stroke-width="0.441048" fill="none" transform="matrix(1.037 0 0 -1 646.694 358.588)"/><path d="M0 0 11.4426-4.57191" stroke="#332D2B" stroke-width="0.441048" fill="none" transform="matrix(1.037 0 0 -1 657.857 354.397)"/><path d="M0 0C0-4.52339-3.66688-8.1929-8.19379-8.1929-12.7172-8.1929-16.385-4.52339-16.385 0-16.385 4.52427-12.7172 8.1929-8.19379 8.1929-3.66688 8.1929 0 4.52427 0 0Z" stroke="#E6232A" stroke-width="0.882096" fill="none" transform="matrix(1.037 0 0 -1 743.857 418.844)"/><path d="M0 0C0-4.94591-2.26082-8.9568-5.05-8.9568-7.83831-8.9568-10.0982-4.94591-10.0982 0-10.0982 4.94591-7.83831 8.95415-5.05 8.95415-2.26082 8.95415 0 4.94591 0 0" fill="#FFFFFF" transform="matrix(1.037 0 0 -1 701.328 420.893)"/><path d="M0 0C0-4.94591-2.26082-8.9568-5.05-8.9568-7.83831-8.9568-10.0982-4.94591-10.0982 0-10.0982 4.94591-7.83831 8.95415-5.05 8.95415-2.26082 8.95415 0 4.94591 0 0Z" stroke="#E6232A" stroke-width="0.882096" fill="none" transform="matrix(1.037 0 0 -1 701.328 420.893)"/><path d="M352.052 341.483 344.764 341.483 344.764 348.772 352.052 348.772Z" stroke="#FFFFFF" stroke-width="0.882096" fill="#FFFFFF" transform="matrix(1.037 0 0 -1 366.752 764.304)"/><path d="M324.186 341.483 311.373 341.483 311.373 348.772 324.186 348.772Z" stroke="#FFFFFF" stroke-width="0.882096" fill="#FFFFFF" transform="matrix(1.037 0 0 -1 366.752 764.304)"/><path d="M0 0-4.57278 4.57278" stroke="#332D2B" stroke-width="0.441048" fill="none" transform="matrix(1.037 0 0 -1 584.787 417.893)"/><path d="M0 0-4.57278-4.57278" stroke="#332D2B" stroke-width="0.441048" fill="none" transform="matrix(1.037 0 0 -1 569.376 412.891)"/><path d="M0 0 10.0515-3.9068" stroke="#332D2B" stroke-width="0.441048" fill="none" transform="matrix(1.037 0 0 -1 564.879 426.847)"/><path d="M0 0 9.86096 3.38284" stroke="#332D2B" stroke-width="0.441048" fill="none" transform="matrix(1.037 0 0 -1 575.303 430.753)"/><path d="M0 0 15.6245 0" stroke="#00A3E9" stroke-width="0.882096" fill="none" transform="matrix(1.037 0 0 -1 536.364 389.54)"/><path d="M0 0C-1.88945 0.570716-3.11821 1.09645-4.63453 1.70509L-4.63453-4.06205C-4.09204-3.80537-1.88945-2.92768 0-2.35785 2.02441-1.74655 3.85653-1.32755 5.04647-1.17936 3.85653-1.02941 2.02441-0.611293 0 0" fill="#00A4E9" transform="matrix(1.037 0 0 -1 555.367 388.368)"/><path d="M0 0C-1.88945 0.570716-3.11821 1.09645-4.63453 1.70509L-4.63453-4.06205C-4.09204-3.80537-1.88945-2.92768 0-2.35785 2.02441-1.74655 3.85653-1.32755 5.04647-1.17936 3.85653-1.02941 2.02441-0.611293 0 0Z" stroke="#00A3E9" stroke-width="0.882096" fill="none" transform="matrix(1.037 0 0 -1 555.367 388.368)"/><text fill="#332D2B" font-family="Arial,Arial_MSFontService,sans-serif" font-weight="400" font-size="10" transform="matrix(0.914731 0 0 0.882093 522.105 420)">5<tspan font-size="10" x="5.31876" y="0">’</tspan><tspan font-size="10" x="0.653168" y="14.7377">3</tspan><tspan font-size="10" x="5.97199" y="14.7377">’</tspan><tspan font-size="13" x="121.547" y="38.5447">V</tspan><tspan font-size="13" x="128.779" y="38.5447">S</tspan></text><path d="M0 0C0-1.59836-1.2958-2.89504-2.89416-2.89504-4.4934-2.89504-5.78831-1.59836-5.78831 0-5.78831 1.59836-4.4934 2.89416-2.89416 2.89416-1.2958 2.89416 0 1.59836 0 0" fill="#00A4E9" transform="matrix(1.037 0 0 -1 569.143 388.646)"/><path d="M0 0C0-1.59836-1.2958-2.89504-2.89416-2.89504-4.4934-2.89504-5.78831-1.59836-5.78831 0-5.78831 1.59836-4.4934 2.89416-2.89416 2.89416-1.2958 2.89416 0 1.59836 0 0Z" stroke="#00A3E9" stroke-width="0.882096" fill="none" transform="matrix(1.037 0 0 -1 569.143 388.646)"/><path d="M0 0C-0.184358-2.7539-2.5669-4.83741-5.32169-4.65218-8.07648-4.46782-10.16-2.08528-9.97474 0.669511-9.7895 3.4243-7.40696 5.50692-4.65129 5.32257-1.89739 5.13733 0.18524 2.75479 0 0" fill="#FFFFFF" transform="matrix(1.037 0 0 -1 590.058 386.052)"/><path d="M0 0C-0.184358-2.7539-2.5669-4.83741-5.32169-4.65218-8.07648-4.46782-10.16-2.08528-9.97474 0.669511-9.7895 3.4243-7.40696 5.50692-4.65129 5.32257-1.89739 5.13733 0.18524 2.75479 0 0Z" stroke="#006DB8" stroke-width="0.882096" fill="none" transform="matrix(1.037 0 0 -1 590.058 386.052)"/><text fill="#006DB8" font-family="Arial,Arial_MSFontService,sans-serif" font-weight="400" font-size="8" transform="matrix(0.914731 0 0 0.882093 582.368 389)">G</text><path d="M0 0C-0.184358-2.75479-2.5669-4.83741-5.32169-4.65129-8.07648-4.46693-10.16-2.08439-9.97386 0.670393-9.7895 3.42518-7.40608 5.50781-4.65129 5.32169-1.89651 5.13733 0.186123 2.75479 0 0" fill="#FFFFFF" transform="matrix(1.037 0 0 -1 701.656 433.098)"/><path d="M0 0C-0.184358-2.75479-2.5669-4.83741-5.32169-4.65129-8.07648-4.46693-10.16-2.08439-9.97386 0.670393-9.7895 3.42518-7.40608 5.50781-4.65129 5.32169-1.89651 5.13733 0.186123 2.75479 0 0Z" stroke="#E84642" stroke-width="0.882096" fill="none" transform="matrix(1.037 0 0 -1 701.656 433.098)"/><text fill="#E62729" font-family="Arial,Arial_MSFontService,sans-serif" font-weight="400" font-size="8" transform="matrix(0.914731 0 0 0.882093 693.965 435)">A<tspan fill="#332D2B" font-size="10" x="-109.333" y="-53.2824">6</tspan><tspan fill="#332D2B" font-size="10" x="-104.203" y="-53.2824">3</tspan><tspan fill="#332D2B" font-size="10" x="-99.0731" y="-53.2824">8</tspan><tspan fill="#332D2B" font-size="10" x="-5.33304" y="15.8713">7</tspan><tspan fill="#332D2B" font-size="10" x="-0.203043" y="15.8713">5</tspan><tspan fill="#332D2B" font-size="10" x="4.92688" y="15.8713">6</tspan><tspan fill="#332D2B" font-size="10" x="-145.003" y="-32.8764">I</tspan><tspan fill="#332D2B" font-size="10" x="-90.3331" y="-26.0744">I</tspan><tspan fill="#332D2B" font-size="10" x="-87.9431" y="-26.0744">I</tspan><tspan fill="#332D2B" font-size="10" x="-57.6631" y="-44.213">I</tspan><tspan fill="#332D2B" font-size="10" x="-55.2731" y="-44.213">I</tspan><tspan fill="#332D2B" font-size="10" x="-52.8831" y="-44.213">I</tspan><tspan fill="#332D2B" font-size="10" x="-70.3331" y="-91.8271">I</tspan><tspan fill="#332D2B" font-size="10" x="-67.9431" y="-91.8271">V</tspan><tspan fill="#332D2B" font-size="10" x="-15.6631" y="-91.8271">V</tspan><tspan fill="#332D2B" font-size="10" x="-166.333" y="5.66834">V</tspan><tspan fill="#332D2B" font-size="10" x="-160.753" y="5.66834">I</tspan><tspan fill="#332D2B" font-size="10" x="-158.363" y="5.66834">I</tspan><tspan fill="#332D2B" font-size="10" x="23.9969" y="5.66834">V</tspan><tspan fill="#332D2B" font-size="10" x="29.5769" y="5.66834">I</tspan></text><path d="M0 0 0 14.1135" stroke="#332D2B" stroke-width="0.882096" stroke-dasharray="3.52838 3.52838" fill="none" transform="matrix(1.037 0 0 -1 573.299 342.201)"/><path d="M0 0 128.198 0" stroke="#332D2B" stroke-width="0.857397" stroke-dasharray="3.42871 3.42871" fill="none" transform="matrix(1.037 0 0 -1 573.299 328.087)"/><path d="M0 0 0-17.17" stroke="#332D2B" stroke-width="0.836227" stroke-dasharray="3.34579 3.34579" fill="none" transform="matrix(1.037 0 0 -1 704.412 331.616)"/><path d="M0 0 0-9.9077" stroke="#A1A2A2" stroke-width="0.882096" fill="none" transform="matrix(1.037 0 0 -1 611.406 417.274)"/><path d="M0 0 0-9.9077" stroke="#A1A2A2" stroke-width="0.882096" fill="none" transform="matrix(1.037 0 0 -1 605.875 417.274)"/><path d="M0 0 0-9.9077" stroke="#A1A2A2" stroke-width="0.882096" fill="none" transform="matrix(1.037 0 0 -1 599.55 417.274)"/></g></g></g></g></g></g></g></svg>