<svg id="图层_1" data-name="图层 1" xmlns="http://www.w3.org/2000/svg" viewBox="0 0 242.9 139.1"><defs><style>.cls-1,.cls-10,.cls-14,.cls-15,.cls-3,.cls-32,.cls-33,.cls-34,.cls-35,.cls-4,.cls-5,.cls-7,.cls-8,.cls-9{fill:none;}.cls-1{stroke:#f39800;}.cls-2,.cls-31{fill:#e60012;}.cls-2,.cls-3{stroke:#e60012;}.cls-4{stroke:#e193bd;}.cls-5{stroke:#8fc31f;}.cls-29,.cls-6{fill:#2ea7e0;}.cls-6{stroke:#77cbe8;}.cls-7{stroke:#eacd1f;}.cls-8{stroke:#f5d92a;}.cls-12,.cls-9{stroke:#036eb8;}.cls-10,.cls-13,.cls-14,.cls-15,.cls-32,.cls-33,.cls-34{stroke:#231815;}.cls-11,.cls-12,.cls-13,.cls-19,.cls-21{fill:#fff;}.cls-11{stroke:#fff;}.cls-12{stroke-miterlimit:10;}.cls-14{stroke-width:1.01px;}.cls-15{stroke-width:1.02px;}.cls-16{fill:#00a1e9;stroke:#00a0e9;}.cls-17{font-size:10.37px;fill:#231815;}.cls-17,.cls-20,.cls-22,.cls-23,.cls-24,.cls-25,.cls-26,.cls-27,.cls-28,.cls-29,.cls-30,.cls-31{font-family:HelveticaNeue-Light, HelveticaNeue Light;font-weight:300;}.cls-18{letter-spacing:-0.09em;}.cls-19{stroke:#0068b7;}.cls-20,.cls-22{font-size:8px;}.cls-20,.cls-23{fill:#0068b7;}.cls-21{stroke:#e83c37;}.cls-22,.cls-24{fill:#e60a11;}.cls-23,.cls-24,.cls-25,.cls-26,.cls-27,.cls-28,.cls-29,.cls-30,.cls-31{font-size:10px;}.cls-25{fill:#036eb8;}.cls-26{fill:#e493bc;}.cls-27{fill:#ffe200;}.cls-28{fill:#8fc31f;}.cls-30{fill:#f39800;}.cls-32{stroke-dasharray:4;}.cls-33{stroke-width:0.97px;stroke-dasharray:3.89;}.cls-34{stroke-width:0.95px;stroke-dasharray:3.79;}.cls-35{stroke:#e6a8ca;}</style></defs><line class="cls-1" x1="39.3" y1="101.6" x2="39.3" y2="112.8"/><line class="cls-1" x1="33.3" y1="101.6" x2="33.3" y2="112.8"/><line class="cls-1" x1="26.4" y1="101.6" x2="26.4" y2="112.8"/><line class="cls-2" x1="215.8" y1="98.1" x2="215.8" y2="109.4"/><line class="cls-2" x1="209.8" y1="98.1" x2="209.8" y2="109.4"/><line class="cls-2" x1="202.8" y1="98.1" x2="202.8" y2="109.4"/><line class="cls-3" x1="160.9" y1="98.1" x2="160.9" y2="109.4"/><line class="cls-3" x1="154.9" y1="98.1" x2="154.9" y2="109.4"/><line class="cls-3" x1="179.3" y1="97.7" x2="179.3" y2="108.9"/><line class="cls-3" x1="173.2" y1="97.7" x2="173.2" y2="108.9"/><line class="cls-4" x1="123.4" y1="102.2" x2="123.4" y2="113.5"/><line class="cls-4" x1="117.3" y1="102.2" x2="117.3" y2="113.5"/><line class="cls-5" x1="130.5" y1="34.9" x2="130.5" y2="46.1"/><line class="cls-5" x1="124.4" y1="34.9" x2="124.4" y2="46.1"/><line class="cls-5" x1="117.5" y1="34.9" x2="117.5" y2="46.1"/><line class="cls-6" x1="186.4" y1="35.5" x2="186.4" y2="46.7"/><line class="cls-6" x1="180.4" y1="35.5" x2="180.4" y2="46.7"/><line class="cls-6" x1="173.5" y1="35.5" x2="173.5" y2="46.7"/><line class="cls-7" x1="141.7" y1="83" x2="152.9" y2="83"/><line class="cls-7" x1="141.7" y1="89.1" x2="152.9" y2="89.1"/><line class="cls-8" x1="142.4" y1="59" x2="153.6" y2="59"/><line class="cls-8" x1="142.4" y1="65.1" x2="153.6" y2="65.1"/><line class="cls-9" x1="51.7" y1="85.3" x2="63" y2="85.3"/><line class="cls-9" x1="51.7" y1="91.4" x2="63" y2="91.4"/><path class="cls-10" d="M236.6,378.3a9.3,9.3,0,1,1-9.3-9.3A9.3,9.3,0,0,1,236.6,378.3Z" transform="translate(-169.8 -346.9)"/><rect class="cls-11" x="52.7" y="36.4" width="8.9" height="5.02"/><line class="cls-12" x1="51.6" y1="43.3" x2="62.2" y2="43.3"/><line class="cls-12" x1="51.6" y1="49.3" x2="62.2" y2="49.3"/><line class="cls-12" x1="51.6" y1="56.2" x2="62.2" y2="56.2"/><line class="cls-10" x1="51.9" y1="38.5" x2="51.9" y2="97"/><line class="cls-10" x1="62.9" y1="38.9" x2="62.9" y2="97.6"/><path class="cls-13" d="M236.6,416a9.3,9.3,0,1,1-9.3-9.3A9.3,9.3,0,0,1,236.6,416Z" transform="translate(-169.8 -346.9)"/><rect class="cls-11" x="53.3" y="58.3" width="8.3" height="21.6"/><line class="cls-10" x1="69.3" y1="113" x2="130" y2="113"/><line class="cls-10" x1="112.3" y1="102" x2="130.2" y2="102"/><line class="cls-14" x1="154.2" y1="109.2" x2="226" y2="109.2"/><line class="cls-15" x1="169.8" y1="98.1" x2="226" y2="98.1"/><line class="cls-10" x1="141.9" y1="51.7" x2="141.9" y2="91.5"/><line class="cls-10" x1="153.4" y1="79.1" x2="153.4" y2="98.4"/><line class="cls-10" x1="13.2" y1="112.4" x2="46.8" y2="112.4"/><line class="cls-10" x1="13.4" y1="101.4" x2="46.8" y2="101.4"/><line class="cls-10" x1="110.6" y1="46.1" x2="136.2" y2="46.1"/><line class="cls-10" x1="111.6" y1="35.1" x2="136.2" y2="35.1"/><line class="cls-10" x1="161.2" y1="46.7" x2="195.4" y2="46.7"/><line class="cls-10" x1="161.4" y1="35.7" x2="195.4" y2="35.7"/><line class="cls-10" x1="141.9" y1="51.7" x2="136" y2="45.8"/><path class="cls-10" d="M331.9,393a9.3,9.3,0,0,1-9.3,9.2" transform="translate(-169.8 -346.9)"/><path class="cls-10" d="M283,386.5a9.3,9.3,0,1,1-9.3-9.3A9.3,9.3,0,0,1,283,386.5Z" transform="translate(-169.8 -346.9)"/><path class="cls-10" d="M381.5,388a9.3,9.3,0,1,1-9.3-9.2A9.2,9.2,0,0,1,381.5,388Z" transform="translate(-169.8 -346.9)"/><line class="cls-10" x1="130.2" y1="102" x2="142.4" y2="90.1"/><line class="cls-10" x1="130" y1="113.3" x2="136.5" y2="118.7"/><line class="cls-10" x1="136.5" y1="118.7" x2="154.2" y2="109.2"/><path class="cls-10" d="M275.3,449.1a3.4,3.4,0,0,1,3.4-3.4,3.5,3.5,0,0,1,3.5,3.4" transform="translate(-169.8 -346.9)"/><path class="cls-10" d="M332.7,445a3.5,3.5,0,0,1,3.5-3.4,3.4,3.4,0,0,1,3.4,3.4" transform="translate(-169.8 -346.9)"/><path class="cls-10" d="M323.2,419.1a3.5,3.5,0,1,1,0,6.9" transform="translate(-169.8 -346.9)"/><line class="cls-10" x1="153.4" y1="55.2" x2="153.4" y2="72.2"/><line class="cls-10" x1="152.9" y1="98.1" x2="163.1" y2="98.1"/><line class="cls-10" x1="68.1" y1="102" x2="105.4" y2="102"/><rect class="cls-11" x="107.3" y="36.3" width="8.3" height="8.48"/><rect class="cls-11" x="189.9" y="37" width="8.3" height="8.26"/><line class="cls-10" x1="136.2" y1="35.1" x2="148.4" y2="30.3"/><line class="cls-10" x1="148.4" y1="30.3" x2="161.4" y2="35.5"/><path class="cls-10" d="M412.3,450.3A9.3,9.3,0,1,1,403,441,9.3,9.3,0,0,1,412.3,450.3Z" transform="translate(-169.8 -346.9)"/><path class="cls-13" d="M365.8,452.6c0,5.6-2.6,10.1-5.8,10.1s-5.7-4.5-5.7-10.1,2.6-10.2,5.7-10.2S365.8,447,365.8,452.6Z" transform="translate(-169.8 -346.9)"/><rect class="cls-11" x="221" y="99.6" width="8.3" height="8.26"/><rect class="cls-11" x="183.2" y="99.6" width="14.5" height="8.26"/><line class="cls-10" x1="68.5" y1="102.3" x2="63.3" y2="97.1"/><line class="cls-10" x1="51.7" y1="96.6" x2="46.5" y2="101.8"/><line class="cls-10" x1="46.8" y1="112.4" x2="58.2" y2="116.9"/><line class="cls-10" x1="58.2" y1="116.9" x2="69.3" y2="113"/><line class="cls-16" x1="15.6" y1="70.2" x2="33.3" y2="70.2"/><path class="cls-16" d="M206.2,415.7a54.1,54.1,0,0,1-5.3-1.9v6.5a53.7,53.7,0,0,1,5.3-1.9,45.6,45.6,0,0,1,5.7-1.4A30.9,30.9,0,0,1,206.2,415.7Z" transform="translate(-169.8 -346.9)"/><text class="cls-17" transform="translate(0 104.5)">5<tspan class="cls-18" x="5.3" y="0">’</tspan></text><text class="cls-17" transform="translate(0.6 119.2)">3<tspan class="cls-18" x="5.3" y="0">’</tspan></text><path class="cls-16" d="M221.3,416a3.3,3.3,0,1,1-3.3-3.3A3.3,3.3,0,0,1,221.3,416Z" transform="translate(-169.8 -346.9)"/><path class="cls-19" d="M244.1,413.1a5.7,5.7,0,0,1-6,5.3,5.8,5.8,0,0,1-5.3-6.1,5.7,5.7,0,0,1,6-5.3A5.8,5.8,0,0,1,244.1,413.1Z" transform="translate(-169.8 -346.9)"/><text class="cls-20" transform="translate(65.9 68.9)">G</text><path class="cls-21" d="M366.1,466.4a5.7,5.7,0,1,1-11.3-.7,5.7,5.7,0,0,1,11.3.7Z" transform="translate(-169.8 -346.9)"/><text class="cls-22" transform="translate(187.9 122.2)">A</text><text class="cls-23" transform="translate(78.5 68.6)">638</text><text class="cls-24" transform="translate(182.5 136.6)">756</text><text class="cls-25" transform="translate(42.9 89.2)">I</text><text class="cls-26" transform="translate(97.5 94.6)">II</text><text class="cls-27" transform="translate(130.2 77.2)">III</text><text class="cls-28" transform="translate(117.5 29.2)">IV</text><text class="cls-29" transform="translate(172.2 29.2)">V</text><text class="cls-30" transform="translate(21.5 127.2)">VII</text><text class="cls-31" transform="translate(211.9 127.2)">VI</text><line class="cls-32" x1="56" y1="16.5" x2="56" y2="0.5"/><line class="cls-33" x1="56" y1="0.5" x2="201.3" y2="0.5"/><line class="cls-34" x1="199.3" y1="4.5" x2="199.3" y2="24"/><line class="cls-35" x1="97.6" y1="101.6" x2="97.6" y2="112.8"/><line class="cls-35" x1="91.6" y1="101.6" x2="91.6" y2="112.8"/><line class="cls-35" x1="84.7" y1="101.6" x2="84.7" y2="112.8"/></svg>