<svg width="254" height="277" xmlns="http://www.w3.org/2000/svg" xmlns:xlink="http://www.w3.org/1999/xlink" overflow="hidden"><defs><clipPath id="clip0"><rect x="506" y="185" width="254" height="277"/></clipPath><clipPath id="clip1"><rect x="507" y="185" width="253" height="276"/></clipPath><clipPath id="clip2"><rect x="507" y="185" width="253" height="276"/></clipPath></defs><g clip-path="url(#clip0)" transform="translate(-506 -185)"><g clip-path="url(#clip1)"><g clip-path="url(#clip2)"><path d="M0 0 0-9.60744" stroke="#A1A2A2" stroke-width="0.855363" fill="none" transform="matrix(1 0 0 -1.0017 564.625 383.593)"/><path d="M0 0 0-9.60744" stroke="#A1A2A2" stroke-width="0.855363" fill="none" transform="matrix(1 0 0 -1.0017 559.453 383.593)"/><path d="M0 0 0-9.60744" stroke="#A1A2A2" stroke-width="0.855363" fill="none" transform="matrix(1 0 0 -1.0017 553.54 383.593)"/><path d="M0 0 0-9.60659" stroke="#A1A2A2" stroke-width="0.855363" fill="none" transform="matrix(1 0 0 -1.0017 715.587 380.632)"/><path d="M0 0 0-9.60659" stroke="#A1A2A2" stroke-width="0.855363" fill="none" transform="matrix(1 0 0 -1.0017 710.413 380.632)"/><path d="M0 0 0-9.60659" stroke="#A1A2A2" stroke-width="0.855363" fill="none" transform="matrix(1 0 0 -1.0017 704.501 380.632)"/><path d="M0 0 0-9.60402" stroke="#A1A2A2" stroke-width="0.855363" fill="none" transform="matrix(1 0 0 -1.0017 668.657 380.632)"/><path d="M0 0 0-9.60402" stroke="#A1A2A2" stroke-width="0.855363" fill="none" transform="matrix(1 0 0 -1.0017 663.485 380.632)"/><path d="M0 0 0-9.60573" stroke="#A1A2A2" stroke-width="0.855363" fill="none" transform="matrix(1 0 0 -1.0017 684.363 380.262)"/><path d="M0 0 0-9.60573" stroke="#A1A2A2" stroke-width="0.855363" fill="none" transform="matrix(1 0 0 -1.0017 679.191 380.262)"/><path d="M0 0 0-9.60659" stroke="#A1A2A2" stroke-width="0.855363" fill="none" transform="matrix(1 0 0 -1.0017 636.511 384.148)"/><path d="M0 0 0-9.60659" stroke="#A1A2A2" stroke-width="0.855363" fill="none" transform="matrix(1 0 0 -1.0017 631.339 384.148)"/><path d="M0 0 0-9.60573" stroke="#A1A2A2" stroke-width="0.855363" fill="none" transform="matrix(1 0 0 -1.0017 642.607 326.406)"/><path d="M0 0 0-9.60573" stroke="#A1A2A2" stroke-width="0.855363" fill="none" transform="matrix(1 0 0 -1.0017 637.435 326.406)"/><path d="M0 0 0-9.60573" stroke="#A1A2A2" stroke-width="0.855363" fill="none" transform="matrix(1 0 0 -1.0017 631.521 326.406)"/><path d="M0 0 0-9.60659" stroke="#A1A2A2" stroke-width="0.855363" fill="none" transform="matrix(1 0 0 -1.0017 690.459 326.96)"/><path d="M0 0 0-9.60659" stroke="#A1A2A2" stroke-width="0.855363" fill="none" transform="matrix(1 0 0 -1.0017 685.287 326.96)"/><path d="M0 0 0-9.60659" stroke="#A1A2A2" stroke-width="0.855363" fill="none" transform="matrix(1 0 0 -1.0017 679.375 326.96)"/><path d="M0 0 9.60573 0" stroke="#A1A2A2" stroke-width="0.855363" fill="none" transform="matrix(1 0 0 -1.0017 652.215 367.678)"/><path d="M0 0 9.60573 0" stroke="#A1A2A2" stroke-width="0.855363" fill="none" transform="matrix(1 0 0 -1.0017 652.215 372.858)"/><path d="M0 0 9.60573 0" stroke="#A1A2A2" stroke-width="0.855363" fill="none" transform="matrix(1 0 0 -1.0017 652.77 347.134)"/><path d="M0 0 9.60573 0" stroke="#A1A2A2" stroke-width="0.855363" fill="none" transform="matrix(1 0 0 -1.0017 652.77 352.315)"/><path d="M0 0 9.60744 0" stroke="#A1A2A2" stroke-width="0.855363" fill="none" transform="matrix(1 0 0 -1.0017 575.251 369.667)"/><path d="M0 0 9.60744 0" stroke="#A1A2A2" stroke-width="0.855363" fill="none" transform="matrix(1 0 0 -1.0017 575.251 374.848)"/><path d="M0 0C0-4.38716-3.55746-7.94376-7.94633-7.94376-12.3318-7.94376-15.8901-4.38716-15.8901 0-15.8901 4.3863-12.3318 7.94461-7.94633 7.94461-3.55746 7.94461 0 4.3863 0 0Z" stroke="#3F71B6" stroke-width="0.855363" fill="none" transform="matrix(1 0 0 -1.0017 588.135 323.467)"/><path d="M197.995 388.018 190.374 388.018 190.374 392.312 197.995 392.312Z" stroke="#FFFFFF" stroke-width="0.855363" fill="#FFFFFF" transform="matrix(1 0 0 -1.0017 385.729 720.678)"/><path d="M0 0 9.05316 0" stroke="#A1A2A2" stroke-width="0.855363" fill="none" transform="matrix(1 0 0 -1.0017 575.157 333.624)"/><path d="M0 0 9.05316 0" stroke="#A1A2A2" stroke-width="0.855363" fill="none" transform="matrix(1 0 0 -1.0017 575.157 338.805)"/><path d="M0 0 9.05316 0" stroke="#A1A2A2" stroke-width="0.855363" fill="none" transform="matrix(1 0 0 -1.0017 575.157 344.729)"/><path d="M0 0 0-50.0687" stroke="#2E6FB6" stroke-width="0.855363" fill="none" transform="matrix(1 0 0 -1.0017 575.411 329.504)"/><path d="M0 0 0-50.2423" stroke="#3B71B7" stroke-width="0.855363" fill="none" transform="matrix(1 0 0 -1.0017 584.833 329.84)"/><path d="M0 0C0-4.3863-3.5566-7.94461-7.94633-7.94461-12.3343-7.94461-15.8901-4.3863-15.8901 0-15.8901 4.38716-12.3343 7.94376-7.94633 7.94376-3.5566 7.94376 0 4.38716 0 0" fill="#FFFFFF" transform="matrix(1 0 0 -1.0017 588.068 355.785)"/><path d="M0 0C0-4.3863-3.5566-7.94461-7.94633-7.94461-12.3343-7.94461-15.8901-4.3863-15.8901 0-15.8901 4.38716-12.3343 7.94376-7.94633 7.94376-3.5566 7.94376 0 4.38716 0 0Z" stroke="#3B71B7" stroke-width="0.855363" fill="none" transform="matrix(1 0 0 -1.0017 588.068 355.785)"/><path d="M197.928 355.038 190.86 355.038 190.86 373.513 197.928 373.513Z" stroke="#FFFFFF" stroke-width="0.855363" fill="#FFFFFF" transform="matrix(1 0 0 -1.0017 385.729 720.678)"/><path d="M0 0 51.9308 0" stroke="#CD70A8" stroke-width="1.11967" fill="none" transform="matrix(1 0 0 -1.0017 590.307 393.4)"/><path d="M0 0 15.2417 0" stroke="#CD70A8" stroke-width="0.855363" fill="none" transform="matrix(1 0 0 -1.0017 627.087 383.962)"/><path d="M0 0 61.3877 0" stroke="#E6232A" stroke-width="0.867338" fill="none" transform="matrix(1 0 0 -1.0017 662.93 390.068)"/><path d="M0 0 48.0851 0" stroke="#E6232A" stroke-width="0.87076" fill="none" transform="matrix(1 0 0 -1.0017 676.233 380.631)"/><path d="M0 0 0-34.0751" stroke="#FFF100" stroke-width="0.855363" fill="none" transform="matrix(1 0 0 -1.0017 652.399 340.841)"/><path d="M0 0 0-16.4444" stroke="#FFF100" stroke-width="0.855363" fill="none" transform="matrix(1 0 0 -1.0017 662.19 364.344)"/><path d="M0 0 28.7282 0" stroke="#EC6723" stroke-width="0.855363" fill="none" transform="matrix(1 0 0 -1.0017 542.269 392.892)"/><path d="M0 0 28.5358 0" stroke="#EC6723" stroke-width="0.855363" fill="none" transform="matrix(1 0 0 -1.0017 542.461 383.452)"/><path d="M0 0 21.893 0" stroke="#91C431" stroke-width="0.855363" fill="none" transform="matrix(1 0 0 -1.0017 625.609 336.028)"/><path d="M0 0 21.0129 0" stroke="#91C431" stroke-width="0.855363" fill="none" transform="matrix(1 0 0 -1.0017 626.489 326.589)"/><path d="M0 0 29.2834 0" stroke="#5CC3E7" stroke-width="0.855363" fill="none" transform="matrix(1 0 0 -1.0017 668.842 336.537)"/><path d="M0 0 29.0892 0" stroke="#5CC3E7" stroke-width="0.855363" fill="none" transform="matrix(1 0 0 -1.0017 669.037 327.099)"/><path d="M0 0-5.08086 5.08086" stroke="#FFF100" stroke-width="0.855363" fill="none" transform="matrix(1 0 0 -1.0017 652.399 340.841)"/><path d="M0 0C0-4.38716-3.55746-7.94547-7.94718-7.94547" stroke="#332D2B" stroke-width="0.427682" fill="none" transform="matrix(1 0 0 -1.0017 669.583 336.029)"/><path d="M0 0C0-4.3863-3.5566-7.94547-7.94633-7.94547-12.3326-7.94547-15.8901-4.3863-15.8901 0-15.8901 4.38716-12.3326 7.94461-7.94633 7.94461-3.5566 7.94461 0 4.38716 0 0Z" stroke="#91C431" stroke-width="0.855363" fill="none" transform="matrix(1 0 0 -1.0017 627.828 330.476)"/><path d="M0 0C0-4.3863-3.55746-7.94461-7.94633-7.94461-12.3335-7.94461-15.8901-4.3863-15.8901 0-15.8901 4.38716-12.3335 7.94547-7.94633 7.94547-3.55746 7.94547 0 4.38716 0 0Z" stroke="#67B2E3" stroke-width="0.855363" fill="none" transform="matrix(1 0 0 -1.0017 712.078 331.818)"/><path d="M0 0 10.4406 10.1609" stroke="#332D2B" stroke-width="0.427682" fill="none" transform="matrix(1 0 0 -1.0017 642.329 383.962)"/><path d="M0 0 5.54275-4.61896" stroke="#332D2B" stroke-width="0.427682" fill="none" transform="matrix(1 0 0 -1.0017 642.237 393.586)"/><path d="M0 0 15.151 8.13023" stroke="#332D2B" stroke-width="0.427682" fill="none" transform="matrix(1 0 0 -1.0017 647.78 398.212)"/><path d="M0 0C0 1.63203 1.32325 2.95528 2.95699 2.95528 4.58902 2.95528 5.91227 1.63203 5.91227 0" stroke="#C573AB" stroke-width="0.855363" fill="none" transform="matrix(1 0 0 -1.0017 621.175 384.17)"/><path d="M0 0C0 1.63289 1.32325 2.95699 2.95614 2.95699 4.58817 2.95699 5.91142 1.63289 5.91142 0" stroke="#E6232A" stroke-width="0.855363" fill="none" transform="matrix(1 0 0 -1.0017 670.321 380.631)"/><path d="M0 0C1.63289 0 2.95699-1.32325 2.95699-2.95614 2.95699-4.58902 1.63289-5.91142 0-5.91142" stroke="#FFF100" stroke-width="0.855363" fill="none" transform="matrix(1 0 0 -1.0017 662.19 358.423)"/><path d="M0 0 0-14.5968" stroke="#FFF100" stroke-width="0.855363" fill="none" transform="matrix(1 0 0 -1.0017 662.19 343.802)"/><path d="M0 0 8.68536 0" stroke="#E6232A" stroke-width="0.855363" fill="none" transform="matrix(1 0 0 -1.0017 661.821 380.631)"/><path d="M0 0 31.9059 0" stroke="#CE77AD" stroke-width="1.23514" fill="none" transform="matrix(1 0 0 -1.0017 589.269 383.962)"/><path d="M244.151 385.084 237.086 385.084 237.086 392.335 244.151 392.335Z" stroke="#FFFFFF" stroke-width="0.855363" fill="#FFFFFF" transform="matrix(1 0 0 -1.0017 385.729 720.678)"/><path d="M314.73 384.714 307.663 384.714 307.663 391.781 314.73 391.781Z" stroke="#FFFFFF" stroke-width="0.855363" fill="#FFFFFF" transform="matrix(1 0 0 -1.0017 385.729 720.678)"/><path d="M0 0 10.4389 4.06383" stroke="#332D2B" stroke-width="0.427682" fill="none" transform="matrix(1 0 0 -1.0017 647.502 326.589)"/><path d="M0 0 11.0958-4.43335" stroke="#332D2B" stroke-width="0.427682" fill="none" transform="matrix(1 0 0 -1.0017 657.941 322.518)"/><path d="M0 0C0-4.3863-3.55575-7.94461-7.94547-7.94461-12.3318-7.94461-15.8884-4.3863-15.8884 0-15.8884 4.38716-12.3318 7.94461-7.94547 7.94461-3.55575 7.94461 0 4.38716 0 0Z" stroke="#E6232A" stroke-width="0.855363" fill="none" transform="matrix(1 0 0 -1.0017 738.359 385.118)"/><path d="M0 0C0-4.79602-2.1923-8.68536-4.89696-8.68536-7.60076-8.68536-9.7922-4.79602-9.7922 0-9.7922 4.79602-7.60076 8.68279-4.89696 8.68279-2.1923 8.68279 0 4.79602 0 0" fill="#FFFFFF" transform="matrix(1 0 0 -1.0017 698.59 387.108)"/><path d="M0 0C0-4.79602-2.1923-8.68536-4.89696-8.68536-7.60076-8.68536-9.7922-4.79602-9.7922 0-9.7922 4.79602-7.60076 8.68279-4.89696 8.68279-2.1923 8.68279 0 4.79602 0 0Z" stroke="#E6232A" stroke-width="0.855363" fill="none" transform="matrix(1 0 0 -1.0017 698.59 387.108)"/><path d="M341.383 331.134 334.316 331.134 334.316 338.202 341.383 338.202Z" stroke="#FFFFFF" stroke-width="0.855363" fill="#FFFFFF" transform="matrix(1 0 0 -1.0017 385.729 720.678)"/><path d="M314.361 331.134 301.937 331.134 301.937 338.202 314.361 338.202Z" stroke="#FFFFFF" stroke-width="0.855363" fill="#FFFFFF" transform="matrix(1 0 0 -1.0017 385.729 720.678)"/><path d="M0 0-4.4342 4.4342" stroke="#332D2B" stroke-width="0.427682" fill="none" transform="matrix(1 0 0 -1.0017 589.613 384.194)"/><path d="M0 0-4.4342-4.4342" stroke="#332D2B" stroke-width="0.427682" fill="none" transform="matrix(1 0 0 -1.0017 575.202 379.336)"/><path d="M0 0 9.74687-3.7884" stroke="#332D2B" stroke-width="0.427682" fill="none" transform="matrix(1 0 0 -1.0017 570.997 392.892)"/><path d="M0 0 9.56211 3.28032" stroke="#332D2B" stroke-width="0.427682" fill="none" transform="matrix(1 0 0 -1.0017 580.745 396.686)"/><path d="M0 0 15.151 0" stroke="#00A3E9" stroke-width="0.855363" fill="none" transform="matrix(1 0 0 -1.0017 544.333 356.654)"/><path d="M0 0C-1.83219 0.55342-3.02371 1.06322-4.49408 1.65342L-4.49408-3.93895C-3.96803-3.69004-1.83219-2.83895 0-2.28639 1.96306-1.69362 3.73965-1.28732 4.89353-1.14362 3.73965-0.998209 1.96306-0.592767 0 0" fill="#00A4E9" transform="matrix(1 0 0 -1.0017 562.102 355.515)"/><path d="M0 0C-1.83219 0.55342-3.02371 1.06322-4.49408 1.65342L-4.49408-3.93895C-3.96803-3.69004-1.83219-2.83895 0-2.28639 1.96306-1.69362 3.73965-1.28732 4.89353-1.14362 3.73965-0.998209 1.96306-0.592767 0 0Z" stroke="#00A3E9" stroke-width="0.855363" fill="none" transform="matrix(1 0 0 -1.0017 562.102 355.515)"/><text fill="#332D2B" font-family="Arial,Arial_MSFontService,sans-serif" font-weight="400" font-size="10" transform="matrix(0.855363 0 0 0.856814 530.999 386)">5<tspan font-size="10" x="5.31879" y="0">’</tspan><tspan font-size="10" x="0.653191" y="15.1725">3</tspan><tspan font-size="10" x="5.97198" y="15.1725">’</tspan><tspan font-size="13" x="121.547" y="38.5148">V</tspan><tspan font-size="13" x="128.779" y="38.5148">S</tspan></text><path d="M0 0C0-1.54992-1.25653-2.8073-2.80645-2.8073-4.35722-2.8073-5.61289-1.54992-5.61289 0-5.61289 1.54992-4.35722 2.80645-2.80645 2.80645-1.25653 2.80645 0 1.54992 0 0" fill="#00A4E9" transform="matrix(1 0 0 -1.0017 574.984 355.785)"/><path d="M0 0C0-1.54992-1.25653-2.8073-2.80645-2.8073-4.35722-2.8073-5.61289-1.54992-5.61289 0-5.61289 1.54992-4.35722 2.80645-2.80645 2.80645-1.25653 2.80645 0 1.54992 0 0Z" stroke="#00A3E9" stroke-width="0.855363" fill="none" transform="matrix(1 0 0 -1.0017 574.984 355.785)"/><path d="M0 0C-0.178771-2.67044-2.48911-4.69081-5.16041-4.51119-7.83171-4.33242-9.85207-2.02208-9.67245 0.649221-9.49282 3.32052-7.18249 5.34003-4.51033 5.16126-1.83989 4.98164 0.179626 2.6713 0 0" fill="#FFFFFF" transform="matrix(1 0 0 -1.0017 594.542 353.266)"/><path d="M0 0C-0.178771-2.67044-2.48911-4.69081-5.16041-4.51119-7.83171-4.33242-9.85207-2.02208-9.67245 0.649221-9.49282 3.32052-7.18249 5.34003-4.51033 5.16126-1.83989 4.98164 0.179626 2.6713 0 0Z" stroke="#006DB8" stroke-width="0.855363" fill="none" transform="matrix(1 0 0 -1.0017 594.542 353.266)"/><text fill="#006DB8" font-family="Arial,Arial_MSFontService,sans-serif" font-weight="400" font-size="8" transform="matrix(0.855363 0 0 0.856814 587.351 356)">G</text><path d="M0 0C-0.178771-2.6713-2.48911-4.69081-5.16041-4.51033-7.83171-4.33156-9.85207-2.02122-9.67159 0.650076-9.49282 3.32138-7.18163 5.34089-4.51033 5.16041-1.83903 4.98164 0.180482 2.6713 0 0" fill="#FFFFFF" transform="matrix(1 0 0 -1.0017 698.897 398.963)"/><path d="M0 0C-0.178771-2.6713-2.48911-4.69081-5.16041-4.51033-7.83171-4.33156-9.85207-2.02122-9.67159 0.650076-9.49282 3.32138-7.18163 5.34089-4.51033 5.16041-1.83903 4.98164 0.180482 2.6713 0 0Z" stroke="#E84642" stroke-width="0.855363" fill="none" transform="matrix(1 0 0 -1.0017 698.897 398.963)"/><text fill="#E62729" font-family="Arial,Arial_MSFontService,sans-serif" font-weight="400" font-size="8" transform="matrix(0.855363 0 0 0.856814 691.705 401)">A<tspan fill="#332D2B" font-size="10" x="-109.333" y="-53.6873">6</tspan><tspan fill="#332D2B" font-size="10" x="-104.203" y="-53.6873">3</tspan><tspan fill="#332D2B" font-size="10" x="-99.0731" y="-53.6873">8</tspan><tspan fill="#332D2B" font-size="10" x="-5.33306" y="15.1725">7</tspan><tspan fill="#332D2B" font-size="10" x="-0.203079" y="15.1725">5</tspan><tspan fill="#332D2B" font-size="10" x="4.92691" y="15.1725">6</tspan><tspan fill="#332D2B" font-size="10" x="-145.003" y="-32.6792">I</tspan><tspan fill="#332D2B" font-size="10" x="-90.3331" y="-26.8436">I</tspan><tspan fill="#332D2B" font-size="10" x="-87.9431" y="-26.8436">I</tspan><tspan fill="#332D2B" font-size="10" x="-57.6631" y="-44.3504">I</tspan><tspan fill="#332D2B" font-size="10" x="-55.2731" y="-44.3504">I</tspan><tspan fill="#332D2B" font-size="10" x="-52.8831" y="-44.3504">I</tspan><tspan fill="#332D2B" font-size="10" x="-70.3331" y="-92.2021">I</tspan><tspan fill="#332D2B" font-size="10" x="-67.9431" y="-92.2021">V</tspan><tspan fill="#332D2B" font-size="10" x="-15.6631" y="-92.2021">V</tspan><tspan fill="#332D2B" font-size="10" x="-166.333" y="5.83557">V</tspan><tspan fill="#332D2B" font-size="10" x="-160.753" y="5.83557">I</tspan><tspan fill="#332D2B" font-size="10" x="-158.363" y="5.83557">I</tspan><tspan fill="#332D2B" font-size="10" x="23.9969" y="5.83557">V</tspan><tspan fill="#332D2B" font-size="10" x="29.5769" y="5.83557">I</tspan></text><path d="M0 0 0 13.6858" stroke="#332D2B" stroke-width="0.855363" stroke-dasharray="3.42145 3.42145" fill="none" transform="matrix(1 0 0 -1.0017 578.871 310.671)"/><path d="M0 0 124.313 0" stroke="#332D2B" stroke-width="0.831413" stroke-dasharray="3.3248 3.3248" fill="none" transform="matrix(1 0 0 -1.0017 578.871 296.962)"/><path d="M0 0 0-16.6496" stroke="#332D2B" stroke-width="0.810884" stroke-dasharray="3.24439 3.24439" fill="none" transform="matrix(1 0 0 -1.0017 701.474 300.39)"/><path d="M0 0 0-9.60744" stroke="#A1A2A2" stroke-width="0.855363" fill="none" transform="matrix(1 0 0 -1.0017 614.504 383.593)"/><path d="M0 0 0-9.60744" stroke="#A1A2A2" stroke-width="0.855363" fill="none" transform="matrix(1 0 0 -1.0017 609.332 383.593)"/><path d="M0 0 0-9.60744" stroke="#A1A2A2" stroke-width="0.855363" fill="none" transform="matrix(1 0 0 -1.0017 603.418 383.593)"/></g></g></g></svg>